%TF.GenerationSoftware,KiCad,Pcbnew,8.0.5*%
%TF.CreationDate,2024-10-23T01:30:23+03:00*%
%TF.ProjectId,mouse_pic,6d6f7573-655f-4706-9963-2e6b69636164,rev?*%
%TF.SameCoordinates,Original*%
%TF.FileFunction,Legend,Top*%
%TF.FilePolarity,Positive*%
%FSLAX46Y46*%
G04 Gerber Fmt 4.6, Leading zero omitted, Abs format (unit mm)*
G04 Created by KiCad (PCBNEW 8.0.5) date 2024-10-23 01:30:23*
%MOMM*%
%LPD*%
G01*
G04 APERTURE LIST*
G04 Aperture macros list*
%AMRoundRect*
0 Rectangle with rounded corners*
0 $1 Rounding radius*
0 $2 $3 $4 $5 $6 $7 $8 $9 X,Y pos of 4 corners*
0 Add a 4 corners polygon primitive as box body*
4,1,4,$2,$3,$4,$5,$6,$7,$8,$9,$2,$3,0*
0 Add four circle primitives for the rounded corners*
1,1,$1+$1,$2,$3*
1,1,$1+$1,$4,$5*
1,1,$1+$1,$6,$7*
1,1,$1+$1,$8,$9*
0 Add four rect primitives between the rounded corners*
20,1,$1+$1,$2,$3,$4,$5,0*
20,1,$1+$1,$4,$5,$6,$7,0*
20,1,$1+$1,$6,$7,$8,$9,0*
20,1,$1+$1,$8,$9,$2,$3,0*%
G04 Aperture macros list end*
%ADD10C,0.150000*%
%ADD11C,0.300000*%
%ADD12C,0.120000*%
%ADD13C,0.100000*%
%ADD14RoundRect,0.225000X0.225000X0.375000X-0.225000X0.375000X-0.225000X-0.375000X0.225000X-0.375000X0*%
%ADD15RoundRect,0.225000X0.250000X-0.225000X0.250000X0.225000X-0.250000X0.225000X-0.250000X-0.225000X0*%
%ADD16C,1.000000*%
%ADD17C,2.200000*%
%ADD18RoundRect,0.225000X0.375000X-0.225000X0.375000X0.225000X-0.375000X0.225000X-0.375000X-0.225000X0*%
%ADD19RoundRect,0.200000X-0.275000X0.200000X-0.275000X-0.200000X0.275000X-0.200000X0.275000X0.200000X0*%
%ADD20R,1.400000X1.200000*%
%ADD21RoundRect,0.050000X-0.387500X-0.050000X0.387500X-0.050000X0.387500X0.050000X-0.387500X0.050000X0*%
%ADD22RoundRect,0.050000X-0.050000X-0.387500X0.050000X-0.387500X0.050000X0.387500X-0.050000X0.387500X0*%
%ADD23RoundRect,0.144000X-1.456000X-1.456000X1.456000X-1.456000X1.456000X1.456000X-1.456000X1.456000X0*%
%ADD24R,2.200000X2.200000*%
%ADD25RoundRect,0.200000X0.275000X-0.200000X0.275000X0.200000X-0.275000X0.200000X-0.275000X-0.200000X0*%
%ADD26RoundRect,0.225000X-0.250000X0.225000X-0.250000X-0.225000X0.250000X-0.225000X0.250000X0.225000X0*%
%ADD27R,1.200000X1.200000*%
%ADD28C,1.200000*%
%ADD29RoundRect,0.225000X-0.225000X-0.250000X0.225000X-0.250000X0.225000X0.250000X-0.225000X0.250000X0*%
%ADD30RoundRect,0.375000X-0.625000X-0.375000X0.625000X-0.375000X0.625000X0.375000X-0.625000X0.375000X0*%
%ADD31RoundRect,0.500000X-0.500000X-1.400000X0.500000X-1.400000X0.500000X1.400000X-0.500000X1.400000X0*%
%ADD32RoundRect,0.225000X0.225000X0.250000X-0.225000X0.250000X-0.225000X-0.250000X0.225000X-0.250000X0*%
%ADD33RoundRect,0.225000X-0.225000X-0.375000X0.225000X-0.375000X0.225000X0.375000X-0.225000X0.375000X0*%
%ADD34RoundRect,0.200000X-0.200000X-0.275000X0.200000X-0.275000X0.200000X0.275000X-0.200000X0.275000X0*%
%ADD35R,1.700000X1.700000*%
%ADD36O,1.700000X1.700000*%
%ADD37RoundRect,0.150000X-0.650000X-0.150000X0.650000X-0.150000X0.650000X0.150000X-0.650000X0.150000X0*%
%ADD38RoundRect,0.625000X0.875000X-0.625000X0.875000X0.625000X-0.875000X0.625000X-0.875000X-0.625000X0*%
%ADD39O,1.700000X1.400000*%
%ADD40C,1.900000*%
%ADD41RoundRect,0.200000X0.200000X0.275000X-0.200000X0.275000X-0.200000X-0.275000X0.200000X-0.275000X0*%
G04 APERTURE END LIST*
D10*
X-72881360Y59875311D02*
X-72822000Y60503000D01*
X-71229490Y56982927D02*
X-71832873Y57644702D01*
X-76327985Y63799239D02*
X-75235000Y62916000D01*
X-77365338Y56515791D02*
X-78474784Y55464737D01*
X-72967497Y57901171D02*
X-73317848Y57687067D01*
X-75035955Y58642739D02*
X-74938635Y58506491D01*
X-76367979Y61226073D02*
X-75550492Y61829456D01*
X-75970226Y58564883D02*
X-75931298Y58428635D01*
X-75023899Y55887134D02*
X-74439980Y55634102D01*
X-74938635Y60239268D02*
X-74490964Y60258732D01*
X-74312931Y56074479D02*
X-74797594Y56373218D01*
X-73064816Y57589747D02*
X-73142672Y57706531D01*
X-69727083Y59026788D02*
X-70430401Y58300666D01*
X-70837208Y55879387D02*
X-70061651Y57362474D01*
X-75658802Y58837379D02*
X-74899707Y58915235D01*
X-72544567Y58292388D02*
X-72568000Y59360000D01*
X-74439980Y55634102D02*
X-73194286Y55770350D01*
X-72733929Y58154202D02*
X-72539289Y57940099D01*
X-78474784Y55464737D02*
X-76139108Y56544987D01*
X-73059104Y62374448D02*
X-74168550Y62413375D01*
X-73187507Y58252490D02*
X-72733929Y58154202D01*
X-71599208Y55244387D02*
X-71853208Y53339387D01*
X-69963266Y58621822D02*
X-69652908Y57333278D01*
X-74473000Y60503000D02*
X-75108000Y59741000D01*
X-69324828Y61388417D02*
X-68631000Y61392000D01*
X-70837208Y55879387D02*
X-70456208Y54101387D01*
X-76370786Y64295037D02*
X-75955555Y63983614D01*
X-72539289Y57940099D02*
X-72403041Y57745459D01*
X-74473000Y60884000D02*
X-74556230Y60137808D01*
X-75133275Y58195068D02*
X-75113811Y58195068D01*
X-73960643Y56256434D02*
X-74233139Y56100722D01*
X-76630306Y63205055D02*
X-76396738Y64295037D01*
X-73615085Y56404382D02*
X-72568000Y56058000D01*
X-69723889Y60492252D02*
X-69248957Y60072372D01*
X-74981000Y61646000D02*
X-74473000Y61773000D01*
X-72568000Y59360000D02*
X-72408319Y59946825D01*
X-74977563Y58954163D02*
X-75500669Y59889401D01*
X-76476289Y57455437D02*
X-76048082Y57124549D01*
X-75500669Y59889401D02*
X-76367979Y58968252D01*
X-75926069Y63075150D02*
X-76302712Y62438649D01*
X-71472208Y60324387D02*
X-69846482Y61006159D01*
X-75971824Y62380258D02*
X-76224856Y61971514D01*
X-75011698Y56801425D02*
X-74797594Y56937673D01*
X-73162136Y57064220D02*
X-72772857Y58017954D01*
X-76018886Y56725537D02*
X-75023899Y55887134D01*
X-75288987Y58058820D02*
X-75191667Y58311851D01*
X-76224856Y61971514D02*
X-75504689Y61932586D01*
X-72972774Y56696342D02*
X-73615085Y56404382D01*
X-75172203Y58778987D02*
X-74919171Y58778987D01*
X-75795050Y57299725D02*
X-75639338Y56929909D01*
X-70879139Y58170229D02*
X-70859675Y56768823D01*
X-76476289Y58097748D02*
X-76476289Y57455437D01*
X-73785468Y56723569D02*
X-73960643Y56256434D01*
X-76048082Y57124549D02*
X-75989690Y56326526D01*
X-70570522Y59701539D02*
X-70229952Y58837814D01*
X-75489000Y60630000D02*
X-75362000Y61265000D01*
X-69248957Y60072372D02*
X-70553044Y59663629D01*
X-69315145Y60706356D02*
X-69723889Y60492252D01*
X-73123208Y57881707D02*
X-73356776Y57823315D01*
X-73064816Y58095810D02*
X-72967497Y57901171D01*
X-74797594Y56373218D02*
X-75011698Y56801425D01*
X-72907312Y56115424D02*
X-73147950Y55742607D01*
X-74535266Y60136357D02*
X-74213095Y59017664D01*
X-77020022Y58919592D02*
X-77204930Y57995053D01*
X-71853208Y53339387D02*
X-72680814Y55684215D01*
X-77963928Y59416408D02*
X-77107513Y60097647D01*
X-75362000Y61265000D02*
X-74981000Y61646000D01*
X-73259456Y58562946D02*
X-72889641Y58504554D01*
X-74938635Y58506491D02*
X-74802388Y58759523D01*
X-70456208Y54101387D02*
X-71599208Y55244387D01*
X-75108000Y59741000D02*
X-74977563Y58954163D01*
X-75113811Y58058820D02*
X-75288987Y58058820D01*
X-77204930Y57995053D02*
X-77187208Y56641387D01*
X-74401052Y62933092D02*
X-73723686Y62387568D01*
X-71711150Y61623559D02*
X-70349930Y61570081D01*
X-70229952Y58837814D02*
X-70813871Y59149238D01*
X-75663208Y60146789D02*
X-74938635Y60239268D01*
X-76367979Y58968252D02*
X-77020022Y58919592D01*
X-73712405Y58487027D02*
X-73076000Y59233000D01*
X-74802388Y58759523D02*
X-75172203Y57727932D01*
X-72078980Y59075352D02*
X-71787020Y58374649D01*
X-73076000Y59233000D02*
X-72881360Y59875311D01*
X-73317848Y57687067D02*
X-73064816Y57492427D01*
X-70859675Y56768823D02*
X-71229490Y56982927D01*
X-74490964Y60258732D02*
X-74257396Y60064092D01*
X-70813871Y59149238D02*
X-71495110Y60278148D01*
X-72344649Y57258860D02*
X-72107208Y58217969D01*
X-74899707Y58915235D02*
X-74627212Y58720595D01*
X-73590344Y57200468D02*
X-73473560Y57570283D01*
X-72403041Y57589747D02*
X-72344649Y57258860D01*
X-78036845Y57187299D02*
X-77365338Y56515791D01*
X-73187507Y58252490D02*
X-73123208Y57881707D01*
X-69846482Y61006159D02*
X-69315145Y60706356D01*
X-73356776Y57823315D02*
X-73590344Y57200468D01*
X-72194215Y56034567D02*
X-71590832Y56793662D01*
X-76495753Y57455437D02*
X-76476289Y58097748D01*
X-73045353Y57375643D02*
X-73162136Y57064220D01*
X-76782774Y62046949D02*
X-76632000Y63170000D01*
X-77187208Y56641387D02*
X-76932434Y57041319D01*
X-71910729Y57780950D02*
X-72568000Y59360000D01*
X-72772857Y58017954D02*
X-73064816Y58095810D01*
X-74168550Y62413375D02*
X-75550492Y61829456D01*
X-73473560Y57570283D02*
X-73045353Y57375643D01*
X-70884173Y61478959D02*
X-71190562Y61751600D01*
X-75489000Y60630000D02*
X-75863174Y59041750D01*
X-73167414Y55333864D02*
X-72194215Y56034567D01*
X-75055419Y58448099D02*
X-75172203Y58778987D01*
X-77399473Y59864079D02*
X-78100176Y60389606D01*
X-76302712Y62438649D02*
X-75971824Y62380258D01*
X-75536208Y57784387D02*
X-75282208Y58419387D01*
X-75929603Y63957662D02*
X-74401052Y62933092D01*
X-72408319Y59946825D02*
X-72187000Y60503000D01*
X-73902251Y56937673D02*
X-73785468Y56723569D01*
X-72344649Y57258860D02*
X-72656073Y57142076D01*
X-74797594Y56937673D02*
X-73902251Y56937673D01*
X-74213095Y59017664D02*
X-73790261Y58409171D01*
X-71590832Y56793662D02*
X-71531181Y57313814D01*
X-73187507Y58252490D02*
X-73434632Y58232058D01*
X-72187000Y60503000D02*
X-72314000Y61265000D01*
X-75863174Y59041750D02*
X-75999422Y57815520D01*
X-75282208Y58419387D02*
X-75055419Y58448099D01*
X-75191667Y58311851D02*
X-75113811Y58214532D01*
X-75074883Y58370243D02*
X-75133275Y58195068D01*
X-75639338Y56929909D02*
X-76495753Y57455437D01*
X-75999422Y57815520D02*
X-75795050Y57299725D01*
X-68546269Y61323537D02*
X-69104236Y59766419D01*
X-75658802Y58837379D02*
X-75970226Y58564883D01*
X-76630839Y61122071D02*
X-76721138Y61959360D01*
X-75113811Y58214532D02*
X-75074883Y58370243D01*
X-70606643Y57703094D02*
X-70879139Y58170229D01*
X-74919171Y58778987D02*
X-75035955Y58642739D01*
X-74743996Y59226658D02*
X-74432572Y59012555D01*
X-77196069Y57318220D02*
X-78036845Y57187299D01*
X-71832873Y57644702D02*
X-71910729Y57780950D01*
X-73076000Y59360000D02*
X-72544567Y58292388D01*
X-77020022Y58919592D02*
X-77963928Y59416408D01*
X-73147950Y55742607D02*
X-73167414Y55333864D01*
X-73356776Y57628675D02*
X-72889641Y57940099D01*
X-72105369Y62024096D02*
X-73059104Y62374448D01*
X-69846482Y61006159D02*
X-69126315Y61142407D01*
X-75989690Y56326526D02*
X-76885033Y57027229D01*
X-72344649Y57258860D02*
X-72972774Y56696342D01*
X-74802920Y57383923D02*
X-74647208Y57403387D01*
X-73064816Y57492427D02*
X-73356776Y57628675D01*
X-72403041Y57745459D02*
X-72403041Y57589747D01*
X-72519825Y59583836D02*
X-72169474Y59136165D01*
X-75235000Y62916000D02*
X-74859521Y62121415D01*
X-78119639Y60438265D02*
X-76367979Y61226073D01*
X-71190562Y61751600D02*
X-72105369Y62024096D01*
X-75172203Y57727932D02*
X-75113811Y58058820D01*
X-69516660Y57021855D02*
X-70606643Y57703094D01*
X-69101040Y59739547D02*
X-69701131Y59026788D01*
X-70349930Y61544129D02*
X-69233996Y61375441D01*
X-72889641Y57940099D02*
X-73064816Y57589747D01*
X-73187507Y59723957D02*
X-72519825Y59583836D01*
X-69652908Y57333278D02*
X-69516660Y57021855D01*
X-45786697Y25683705D02*
X-46053364Y26064658D01*
X-46243840Y25683705D02*
X-46243840Y26483705D01*
X-46243840Y26483705D02*
X-45939078Y26483705D01*
X-45939078Y26483705D02*
X-45862888Y26445610D01*
X-45862888Y26445610D02*
X-45824793Y26407515D01*
X-45824793Y26407515D02*
X-45786697Y26331324D01*
X-45786697Y26331324D02*
X-45786697Y26217039D01*
X-45786697Y26217039D02*
X-45824793Y26140848D01*
X-45824793Y26140848D02*
X-45862888Y26102753D01*
X-45862888Y26102753D02*
X-45939078Y26064658D01*
X-45939078Y26064658D02*
X-46243840Y26064658D01*
X-72263031Y27899058D02*
X-72739221Y27899058D01*
X-72739221Y27899058D02*
X-72786840Y27422868D01*
X-72786840Y27422868D02*
X-72739221Y27470487D01*
X-72739221Y27470487D02*
X-72643983Y27518106D01*
X-72643983Y27518106D02*
X-72405888Y27518106D01*
X-72405888Y27518106D02*
X-72310650Y27470487D01*
X-72310650Y27470487D02*
X-72263031Y27422868D01*
X-72263031Y27422868D02*
X-72215412Y27327630D01*
X-72215412Y27327630D02*
X-72215412Y27089535D01*
X-72215412Y27089535D02*
X-72263031Y26994297D01*
X-72263031Y26994297D02*
X-72310650Y26946677D01*
X-72310650Y26946677D02*
X-72405888Y26899058D01*
X-72405888Y26899058D02*
X-72643983Y26899058D01*
X-72643983Y26899058D02*
X-72739221Y26946677D01*
X-72739221Y26946677D02*
X-72786840Y26994297D01*
X-71929697Y27899058D02*
X-71596364Y26899058D01*
X-71596364Y26899058D02*
X-71263031Y27899058D01*
X-44288031Y25721800D02*
X-44202316Y25683705D01*
X-44202316Y25683705D02*
X-44059459Y25683705D01*
X-44059459Y25683705D02*
X-44002316Y25721800D01*
X-44002316Y25721800D02*
X-43973745Y25759896D01*
X-43973745Y25759896D02*
X-43945174Y25836086D01*
X-43945174Y25836086D02*
X-43945174Y25912277D01*
X-43945174Y25912277D02*
X-43973745Y25988467D01*
X-43973745Y25988467D02*
X-44002316Y26026562D01*
X-44002316Y26026562D02*
X-44059459Y26064658D01*
X-44059459Y26064658D02*
X-44173745Y26102753D01*
X-44173745Y26102753D02*
X-44230888Y26140848D01*
X-44230888Y26140848D02*
X-44259459Y26178943D01*
X-44259459Y26178943D02*
X-44288031Y26255134D01*
X-44288031Y26255134D02*
X-44288031Y26331324D01*
X-44288031Y26331324D02*
X-44259459Y26407515D01*
X-44259459Y26407515D02*
X-44230888Y26445610D01*
X-44230888Y26445610D02*
X-44173745Y26483705D01*
X-44173745Y26483705D02*
X-44030888Y26483705D01*
X-44030888Y26483705D02*
X-43945174Y26445610D01*
X-43745173Y26483705D02*
X-43602316Y25683705D01*
X-43602316Y25683705D02*
X-43488030Y26255134D01*
X-43488030Y26255134D02*
X-43373745Y25683705D01*
X-43373745Y25683705D02*
X-43230887Y26483705D01*
X-42659459Y25759896D02*
X-42688031Y25721800D01*
X-42688031Y25721800D02*
X-42773745Y25683705D01*
X-42773745Y25683705D02*
X-42830888Y25683705D01*
X-42830888Y25683705D02*
X-42916602Y25721800D01*
X-42916602Y25721800D02*
X-42973745Y25797991D01*
X-42973745Y25797991D02*
X-43002316Y25874181D01*
X-43002316Y25874181D02*
X-43030888Y26026562D01*
X-43030888Y26026562D02*
X-43030888Y26140848D01*
X-43030888Y26140848D02*
X-43002316Y26293229D01*
X-43002316Y26293229D02*
X-42973745Y26369420D01*
X-42973745Y26369420D02*
X-42916602Y26445610D01*
X-42916602Y26445610D02*
X-42830888Y26483705D01*
X-42830888Y26483705D02*
X-42773745Y26483705D01*
X-42773745Y26483705D02*
X-42688031Y26445610D01*
X-42688031Y26445610D02*
X-42659459Y26407515D01*
X-79449318Y27930562D02*
X-79544556Y27978181D01*
X-79544556Y27978181D02*
X-79687413Y27978181D01*
X-79687413Y27978181D02*
X-79830270Y27930562D01*
X-79830270Y27930562D02*
X-79925508Y27835324D01*
X-79925508Y27835324D02*
X-79973127Y27740086D01*
X-79973127Y27740086D02*
X-80020746Y27549610D01*
X-80020746Y27549610D02*
X-80020746Y27406753D01*
X-80020746Y27406753D02*
X-79973127Y27216277D01*
X-79973127Y27216277D02*
X-79925508Y27121039D01*
X-79925508Y27121039D02*
X-79830270Y27025800D01*
X-79830270Y27025800D02*
X-79687413Y26978181D01*
X-79687413Y26978181D02*
X-79592175Y26978181D01*
X-79592175Y26978181D02*
X-79449318Y27025800D01*
X-79449318Y27025800D02*
X-79401699Y27073420D01*
X-79401699Y27073420D02*
X-79401699Y27406753D01*
X-79401699Y27406753D02*
X-79592175Y27406753D01*
D11*
X-52455490Y82294088D02*
X-52455490Y83794088D01*
X-52455490Y83794088D02*
X-52098347Y83794088D01*
X-52098347Y83794088D02*
X-51884061Y83722659D01*
X-51884061Y83722659D02*
X-51741204Y83579802D01*
X-51741204Y83579802D02*
X-51669775Y83436945D01*
X-51669775Y83436945D02*
X-51598347Y83151231D01*
X-51598347Y83151231D02*
X-51598347Y82936945D01*
X-51598347Y82936945D02*
X-51669775Y82651231D01*
X-51669775Y82651231D02*
X-51741204Y82508374D01*
X-51741204Y82508374D02*
X-51884061Y82365516D01*
X-51884061Y82365516D02*
X-52098347Y82294088D01*
X-52098347Y82294088D02*
X-52455490Y82294088D01*
X-50955490Y82294088D02*
X-50955490Y83794088D01*
X-49955489Y83008374D02*
X-49955489Y82294088D01*
X-50455489Y83794088D02*
X-49955489Y83008374D01*
X-49955489Y83008374D02*
X-49455489Y83794088D01*
X-47812633Y82294088D02*
X-47812633Y83794088D01*
X-47812633Y83794088D02*
X-47312633Y82722659D01*
X-47312633Y82722659D02*
X-46812633Y83794088D01*
X-46812633Y83794088D02*
X-46812633Y82294088D01*
X-45812632Y83794088D02*
X-45526918Y83794088D01*
X-45526918Y83794088D02*
X-45384061Y83722659D01*
X-45384061Y83722659D02*
X-45241204Y83579802D01*
X-45241204Y83579802D02*
X-45169775Y83294088D01*
X-45169775Y83294088D02*
X-45169775Y82794088D01*
X-45169775Y82794088D02*
X-45241204Y82508374D01*
X-45241204Y82508374D02*
X-45384061Y82365516D01*
X-45384061Y82365516D02*
X-45526918Y82294088D01*
X-45526918Y82294088D02*
X-45812632Y82294088D01*
X-45812632Y82294088D02*
X-45955489Y82365516D01*
X-45955489Y82365516D02*
X-46098347Y82508374D01*
X-46098347Y82508374D02*
X-46169775Y82794088D01*
X-46169775Y82794088D02*
X-46169775Y83294088D01*
X-46169775Y83294088D02*
X-46098347Y83579802D01*
X-46098347Y83579802D02*
X-45955489Y83722659D01*
X-45955489Y83722659D02*
X-45812632Y83794088D01*
X-44526918Y83794088D02*
X-44526918Y82579802D01*
X-44526918Y82579802D02*
X-44455489Y82436945D01*
X-44455489Y82436945D02*
X-44384060Y82365516D01*
X-44384060Y82365516D02*
X-44241203Y82294088D01*
X-44241203Y82294088D02*
X-43955489Y82294088D01*
X-43955489Y82294088D02*
X-43812632Y82365516D01*
X-43812632Y82365516D02*
X-43741203Y82436945D01*
X-43741203Y82436945D02*
X-43669775Y82579802D01*
X-43669775Y82579802D02*
X-43669775Y83794088D01*
X-43026917Y82365516D02*
X-42812631Y82294088D01*
X-42812631Y82294088D02*
X-42455489Y82294088D01*
X-42455489Y82294088D02*
X-42312631Y82365516D01*
X-42312631Y82365516D02*
X-42241203Y82436945D01*
X-42241203Y82436945D02*
X-42169774Y82579802D01*
X-42169774Y82579802D02*
X-42169774Y82722659D01*
X-42169774Y82722659D02*
X-42241203Y82865516D01*
X-42241203Y82865516D02*
X-42312631Y82936945D01*
X-42312631Y82936945D02*
X-42455489Y83008374D01*
X-42455489Y83008374D02*
X-42741203Y83079802D01*
X-42741203Y83079802D02*
X-42884060Y83151231D01*
X-42884060Y83151231D02*
X-42955489Y83222659D01*
X-42955489Y83222659D02*
X-43026917Y83365516D01*
X-43026917Y83365516D02*
X-43026917Y83508374D01*
X-43026917Y83508374D02*
X-42955489Y83651231D01*
X-42955489Y83651231D02*
X-42884060Y83722659D01*
X-42884060Y83722659D02*
X-42741203Y83794088D01*
X-42741203Y83794088D02*
X-42384060Y83794088D01*
X-42384060Y83794088D02*
X-42169774Y83722659D01*
X-41526918Y83079802D02*
X-41026918Y83079802D01*
X-40812632Y82294088D02*
X-41526918Y82294088D01*
X-41526918Y82294088D02*
X-41526918Y83794088D01*
X-41526918Y83794088D02*
X-40812632Y83794088D01*
X-52526918Y81236315D02*
X-52455490Y81307743D01*
X-52455490Y81307743D02*
X-52312632Y81379172D01*
X-52312632Y81379172D02*
X-51955490Y81379172D01*
X-51955490Y81379172D02*
X-51812632Y81307743D01*
X-51812632Y81307743D02*
X-51741204Y81236315D01*
X-51741204Y81236315D02*
X-51669775Y81093458D01*
X-51669775Y81093458D02*
X-51669775Y80950600D01*
X-51669775Y80950600D02*
X-51741204Y80736315D01*
X-51741204Y80736315D02*
X-52598347Y79879172D01*
X-52598347Y79879172D02*
X-51669775Y79879172D01*
X-50741204Y81379172D02*
X-50598347Y81379172D01*
X-50598347Y81379172D02*
X-50455490Y81307743D01*
X-50455490Y81307743D02*
X-50384061Y81236315D01*
X-50384061Y81236315D02*
X-50312633Y81093458D01*
X-50312633Y81093458D02*
X-50241204Y80807743D01*
X-50241204Y80807743D02*
X-50241204Y80450600D01*
X-50241204Y80450600D02*
X-50312633Y80164886D01*
X-50312633Y80164886D02*
X-50384061Y80022029D01*
X-50384061Y80022029D02*
X-50455490Y79950600D01*
X-50455490Y79950600D02*
X-50598347Y79879172D01*
X-50598347Y79879172D02*
X-50741204Y79879172D01*
X-50741204Y79879172D02*
X-50884061Y79950600D01*
X-50884061Y79950600D02*
X-50955490Y80022029D01*
X-50955490Y80022029D02*
X-51026919Y80164886D01*
X-51026919Y80164886D02*
X-51098347Y80450600D01*
X-51098347Y80450600D02*
X-51098347Y80807743D01*
X-51098347Y80807743D02*
X-51026919Y81093458D01*
X-51026919Y81093458D02*
X-50955490Y81236315D01*
X-50955490Y81236315D02*
X-50884061Y81307743D01*
X-50884061Y81307743D02*
X-50741204Y81379172D01*
X-49669776Y81236315D02*
X-49598348Y81307743D01*
X-49598348Y81307743D02*
X-49455490Y81379172D01*
X-49455490Y81379172D02*
X-49098348Y81379172D01*
X-49098348Y81379172D02*
X-48955490Y81307743D01*
X-48955490Y81307743D02*
X-48884062Y81236315D01*
X-48884062Y81236315D02*
X-48812633Y81093458D01*
X-48812633Y81093458D02*
X-48812633Y80950600D01*
X-48812633Y80950600D02*
X-48884062Y80736315D01*
X-48884062Y80736315D02*
X-49741205Y79879172D01*
X-49741205Y79879172D02*
X-48812633Y79879172D01*
X-47526919Y80879172D02*
X-47526919Y79879172D01*
X-47884062Y81450600D02*
X-48241205Y80379172D01*
X-48241205Y80379172D02*
X-47312634Y80379172D01*
D10*
X-75194746Y26978181D02*
X-75194746Y27978181D01*
X-75194746Y27978181D02*
X-75004270Y27978181D01*
X-75004270Y27978181D02*
X-74889984Y27930562D01*
X-74889984Y27930562D02*
X-74813794Y27835324D01*
X-74813794Y27835324D02*
X-74775699Y27740086D01*
X-74775699Y27740086D02*
X-74737603Y27549610D01*
X-74737603Y27549610D02*
X-74737603Y27406753D01*
X-74737603Y27406753D02*
X-74775699Y27216277D01*
X-74775699Y27216277D02*
X-74813794Y27121039D01*
X-74813794Y27121039D02*
X-74889984Y27025800D01*
X-74889984Y27025800D02*
X-75004270Y26978181D01*
X-75004270Y26978181D02*
X-75194746Y26978181D01*
X-74394746Y27359134D02*
X-73785222Y27359134D01*
X-74089984Y26978181D02*
X-74089984Y27740086D01*
X-77734746Y26992414D02*
X-77734746Y27992414D01*
X-77734746Y27992414D02*
X-77544270Y27992414D01*
X-77544270Y27992414D02*
X-77429984Y27944795D01*
X-77429984Y27944795D02*
X-77353794Y27849557D01*
X-77353794Y27849557D02*
X-77315699Y27754319D01*
X-77315699Y27754319D02*
X-77277603Y27563843D01*
X-77277603Y27563843D02*
X-77277603Y27420986D01*
X-77277603Y27420986D02*
X-77315699Y27230510D01*
X-77315699Y27230510D02*
X-77353794Y27135272D01*
X-77353794Y27135272D02*
X-77429984Y27040033D01*
X-77429984Y27040033D02*
X-77544270Y26992414D01*
X-77544270Y26992414D02*
X-77734746Y26992414D01*
X-76934746Y27373367D02*
X-76325222Y27373367D01*
X-41455936Y25721800D02*
X-41341650Y25683705D01*
X-41341650Y25683705D02*
X-41151174Y25683705D01*
X-41151174Y25683705D02*
X-41074983Y25721800D01*
X-41074983Y25721800D02*
X-41036888Y25759896D01*
X-41036888Y25759896D02*
X-40998793Y25836086D01*
X-40998793Y25836086D02*
X-40998793Y25912277D01*
X-40998793Y25912277D02*
X-41036888Y25988467D01*
X-41036888Y25988467D02*
X-41074983Y26026562D01*
X-41074983Y26026562D02*
X-41151174Y26064658D01*
X-41151174Y26064658D02*
X-41303555Y26102753D01*
X-41303555Y26102753D02*
X-41379745Y26140848D01*
X-41379745Y26140848D02*
X-41417840Y26178943D01*
X-41417840Y26178943D02*
X-41455936Y26255134D01*
X-41455936Y26255134D02*
X-41455936Y26331324D01*
X-41455936Y26331324D02*
X-41417840Y26407515D01*
X-41417840Y26407515D02*
X-41379745Y26445610D01*
X-41379745Y26445610D02*
X-41303555Y26483705D01*
X-41303555Y26483705D02*
X-41113078Y26483705D01*
X-41113078Y26483705D02*
X-40998793Y26445610D01*
X-40655935Y25683705D02*
X-40655935Y26483705D01*
X-40655935Y26483705D02*
X-40465459Y26483705D01*
X-40465459Y26483705D02*
X-40351173Y26445610D01*
X-40351173Y26445610D02*
X-40274983Y26369420D01*
X-40274983Y26369420D02*
X-40236888Y26293229D01*
X-40236888Y26293229D02*
X-40198792Y26140848D01*
X-40198792Y26140848D02*
X-40198792Y26026562D01*
X-40198792Y26026562D02*
X-40236888Y25874181D01*
X-40236888Y25874181D02*
X-40274983Y25797991D01*
X-40274983Y25797991D02*
X-40351173Y25721800D01*
X-40351173Y25721800D02*
X-40465459Y25683705D01*
X-40465459Y25683705D02*
X-40655935Y25683705D01*
D11*
X-76926775Y83792172D02*
X-76426775Y82292172D01*
X-76426775Y82292172D02*
X-75926775Y83792172D01*
X-75426776Y83077886D02*
X-74926776Y83077886D01*
X-74712490Y82292172D02*
X-75426776Y82292172D01*
X-75426776Y82292172D02*
X-75426776Y83792172D01*
X-75426776Y83792172D02*
X-74712490Y83792172D01*
X-73212490Y82292172D02*
X-73712490Y83006458D01*
X-74069633Y82292172D02*
X-74069633Y83792172D01*
X-74069633Y83792172D02*
X-73498204Y83792172D01*
X-73498204Y83792172D02*
X-73355347Y83720743D01*
X-73355347Y83720743D02*
X-73283918Y83649315D01*
X-73283918Y83649315D02*
X-73212490Y83506458D01*
X-73212490Y83506458D02*
X-73212490Y83292172D01*
X-73212490Y83292172D02*
X-73283918Y83149315D01*
X-73283918Y83149315D02*
X-73355347Y83077886D01*
X-73355347Y83077886D02*
X-73498204Y83006458D01*
X-73498204Y83006458D02*
X-74069633Y83006458D01*
X-72569633Y82435029D02*
X-72498204Y82363600D01*
X-72498204Y82363600D02*
X-72569633Y82292172D01*
X-72569633Y82292172D02*
X-72641061Y82363600D01*
X-72641061Y82363600D02*
X-72569633Y82435029D01*
X-72569633Y82435029D02*
X-72569633Y82292172D01*
X-69855347Y82292172D02*
X-70355347Y83006458D01*
X-70712490Y82292172D02*
X-70712490Y83792172D01*
X-70712490Y83792172D02*
X-70141061Y83792172D01*
X-70141061Y83792172D02*
X-69998204Y83720743D01*
X-69998204Y83720743D02*
X-69926775Y83649315D01*
X-69926775Y83649315D02*
X-69855347Y83506458D01*
X-69855347Y83506458D02*
X-69855347Y83292172D01*
X-69855347Y83292172D02*
X-69926775Y83149315D01*
X-69926775Y83149315D02*
X-69998204Y83077886D01*
X-69998204Y83077886D02*
X-70141061Y83006458D01*
X-70141061Y83006458D02*
X-70712490Y83006458D01*
X-69212490Y82292172D02*
X-69212490Y83792172D01*
X-69212490Y83792172D02*
X-68641061Y83792172D01*
X-68641061Y83792172D02*
X-68498204Y83720743D01*
X-68498204Y83720743D02*
X-68426775Y83649315D01*
X-68426775Y83649315D02*
X-68355347Y83506458D01*
X-68355347Y83506458D02*
X-68355347Y83292172D01*
X-68355347Y83292172D02*
X-68426775Y83149315D01*
X-68426775Y83149315D02*
X-68498204Y83077886D01*
X-68498204Y83077886D02*
X-68641061Y83006458D01*
X-68641061Y83006458D02*
X-69212490Y83006458D01*
D10*
X-50488705Y31210572D02*
X-51288705Y31210572D01*
X-51288705Y31210572D02*
X-51288705Y31515334D01*
X-51288705Y31515334D02*
X-51250610Y31591524D01*
X-51250610Y31591524D02*
X-51212515Y31629619D01*
X-51212515Y31629619D02*
X-51136324Y31667715D01*
X-51136324Y31667715D02*
X-51022039Y31667715D01*
X-51022039Y31667715D02*
X-50945848Y31629619D01*
X-50945848Y31629619D02*
X-50907753Y31591524D01*
X-50907753Y31591524D02*
X-50869658Y31515334D01*
X-50869658Y31515334D02*
X-50869658Y31210572D01*
X-50488705Y32429619D02*
X-50488705Y31972476D01*
X-50488705Y32201048D02*
X-51288705Y32201048D01*
X-51288705Y32201048D02*
X-51174420Y32124857D01*
X-51174420Y32124857D02*
X-51098229Y32048667D01*
X-51098229Y32048667D02*
X-51060134Y31972476D01*
X-51022039Y33115334D02*
X-50488705Y33115334D01*
X-51326800Y32924858D02*
X-50755372Y32734381D01*
X-50755372Y32734381D02*
X-50755372Y33229620D01*
X-47578501Y36578964D02*
X-48378501Y36578964D01*
X-48378501Y36578964D02*
X-48378501Y36883726D01*
X-48378501Y36883726D02*
X-48340406Y36959916D01*
X-48340406Y36959916D02*
X-48302311Y36998011D01*
X-48302311Y36998011D02*
X-48226120Y37036107D01*
X-48226120Y37036107D02*
X-48111835Y37036107D01*
X-48111835Y37036107D02*
X-48035644Y36998011D01*
X-48035644Y36998011D02*
X-47997549Y36959916D01*
X-47997549Y36959916D02*
X-47959454Y36883726D01*
X-47959454Y36883726D02*
X-47959454Y36578964D01*
X-47578501Y37798011D02*
X-47578501Y37340868D01*
X-47578501Y37569440D02*
X-48378501Y37569440D01*
X-48378501Y37569440D02*
X-48264216Y37493249D01*
X-48264216Y37493249D02*
X-48188025Y37417059D01*
X-48188025Y37417059D02*
X-48149930Y37340868D01*
X-47578501Y38559916D02*
X-47578501Y38102773D01*
X-47578501Y38331345D02*
X-48378501Y38331345D01*
X-48378501Y38331345D02*
X-48264216Y38255154D01*
X-48264216Y38255154D02*
X-48188025Y38178964D01*
X-48188025Y38178964D02*
X-48149930Y38102773D01*
X-46882191Y30044372D02*
X-46882191Y29568181D01*
X-47215524Y30568181D02*
X-46882191Y30044372D01*
X-46882191Y30044372D02*
X-46548858Y30568181D01*
X-45691715Y29568181D02*
X-46263143Y29568181D01*
X-45977429Y29568181D02*
X-45977429Y30568181D01*
X-45977429Y30568181D02*
X-46072667Y30425324D01*
X-46072667Y30425324D02*
X-46167905Y30330086D01*
X-46167905Y30330086D02*
X-46263143Y30282467D01*
X-45008905Y43903181D02*
X-45008905Y43093658D01*
X-45008905Y43093658D02*
X-44961286Y42998420D01*
X-44961286Y42998420D02*
X-44913667Y42950800D01*
X-44913667Y42950800D02*
X-44818429Y42903181D01*
X-44818429Y42903181D02*
X-44627953Y42903181D01*
X-44627953Y42903181D02*
X-44532715Y42950800D01*
X-44532715Y42950800D02*
X-44485096Y42998420D01*
X-44485096Y42998420D02*
X-44437477Y43093658D01*
X-44437477Y43093658D02*
X-44437477Y43903181D01*
X-44056524Y43903181D02*
X-43437477Y43903181D01*
X-43437477Y43903181D02*
X-43770810Y43522229D01*
X-43770810Y43522229D02*
X-43627953Y43522229D01*
X-43627953Y43522229D02*
X-43532715Y43474610D01*
X-43532715Y43474610D02*
X-43485096Y43426991D01*
X-43485096Y43426991D02*
X-43437477Y43331753D01*
X-43437477Y43331753D02*
X-43437477Y43093658D01*
X-43437477Y43093658D02*
X-43485096Y42998420D01*
X-43485096Y42998420D02*
X-43532715Y42950800D01*
X-43532715Y42950800D02*
X-43627953Y42903181D01*
X-43627953Y42903181D02*
X-43913667Y42903181D01*
X-43913667Y42903181D02*
X-44008905Y42950800D01*
X-44008905Y42950800D02*
X-44056524Y42998420D01*
X-42913333Y81685800D02*
X-42770476Y81638181D01*
X-42770476Y81638181D02*
X-42532381Y81638181D01*
X-42532381Y81638181D02*
X-42437143Y81685800D01*
X-42437143Y81685800D02*
X-42389524Y81733420D01*
X-42389524Y81733420D02*
X-42341905Y81828658D01*
X-42341905Y81828658D02*
X-42341905Y81923896D01*
X-42341905Y81923896D02*
X-42389524Y82019134D01*
X-42389524Y82019134D02*
X-42437143Y82066753D01*
X-42437143Y82066753D02*
X-42532381Y82114372D01*
X-42532381Y82114372D02*
X-42722857Y82161991D01*
X-42722857Y82161991D02*
X-42818095Y82209610D01*
X-42818095Y82209610D02*
X-42865714Y82257229D01*
X-42865714Y82257229D02*
X-42913333Y82352467D01*
X-42913333Y82352467D02*
X-42913333Y82447705D01*
X-42913333Y82447705D02*
X-42865714Y82542943D01*
X-42865714Y82542943D02*
X-42818095Y82590562D01*
X-42818095Y82590562D02*
X-42722857Y82638181D01*
X-42722857Y82638181D02*
X-42484762Y82638181D01*
X-42484762Y82638181D02*
X-42341905Y82590562D01*
X-42008571Y82638181D02*
X-41770476Y81638181D01*
X-41770476Y81638181D02*
X-41580000Y82352467D01*
X-41580000Y82352467D02*
X-41389524Y81638181D01*
X-41389524Y81638181D02*
X-41151428Y82638181D01*
X-40818095Y82542943D02*
X-40770476Y82590562D01*
X-40770476Y82590562D02*
X-40675238Y82638181D01*
X-40675238Y82638181D02*
X-40437143Y82638181D01*
X-40437143Y82638181D02*
X-40341905Y82590562D01*
X-40341905Y82590562D02*
X-40294286Y82542943D01*
X-40294286Y82542943D02*
X-40246667Y82447705D01*
X-40246667Y82447705D02*
X-40246667Y82352467D01*
X-40246667Y82352467D02*
X-40294286Y82209610D01*
X-40294286Y82209610D02*
X-40865714Y81638181D01*
X-40865714Y81638181D02*
X-40246667Y81638181D01*
X-50533333Y77240800D02*
X-50390476Y77193181D01*
X-50390476Y77193181D02*
X-50152381Y77193181D01*
X-50152381Y77193181D02*
X-50057143Y77240800D01*
X-50057143Y77240800D02*
X-50009524Y77288420D01*
X-50009524Y77288420D02*
X-49961905Y77383658D01*
X-49961905Y77383658D02*
X-49961905Y77478896D01*
X-49961905Y77478896D02*
X-50009524Y77574134D01*
X-50009524Y77574134D02*
X-50057143Y77621753D01*
X-50057143Y77621753D02*
X-50152381Y77669372D01*
X-50152381Y77669372D02*
X-50342857Y77716991D01*
X-50342857Y77716991D02*
X-50438095Y77764610D01*
X-50438095Y77764610D02*
X-50485714Y77812229D01*
X-50485714Y77812229D02*
X-50533333Y77907467D01*
X-50533333Y77907467D02*
X-50533333Y78002705D01*
X-50533333Y78002705D02*
X-50485714Y78097943D01*
X-50485714Y78097943D02*
X-50438095Y78145562D01*
X-50438095Y78145562D02*
X-50342857Y78193181D01*
X-50342857Y78193181D02*
X-50104762Y78193181D01*
X-50104762Y78193181D02*
X-49961905Y78145562D01*
X-49628571Y78193181D02*
X-49390476Y77193181D01*
X-49390476Y77193181D02*
X-49200000Y77907467D01*
X-49200000Y77907467D02*
X-49009524Y77193181D01*
X-49009524Y77193181D02*
X-48771428Y78193181D01*
X-48485714Y78193181D02*
X-47866667Y78193181D01*
X-47866667Y78193181D02*
X-48200000Y77812229D01*
X-48200000Y77812229D02*
X-48057143Y77812229D01*
X-48057143Y77812229D02*
X-47961905Y77764610D01*
X-47961905Y77764610D02*
X-47914286Y77716991D01*
X-47914286Y77716991D02*
X-47866667Y77621753D01*
X-47866667Y77621753D02*
X-47866667Y77383658D01*
X-47866667Y77383658D02*
X-47914286Y77288420D01*
X-47914286Y77288420D02*
X-47961905Y77240800D01*
X-47961905Y77240800D02*
X-48057143Y77193181D01*
X-48057143Y77193181D02*
X-48342857Y77193181D01*
X-48342857Y77193181D02*
X-48438095Y77240800D01*
X-48438095Y77240800D02*
X-48485714Y77288420D01*
X-61137905Y33870181D02*
X-61137905Y33060658D01*
X-61137905Y33060658D02*
X-61090286Y32965420D01*
X-61090286Y32965420D02*
X-61042667Y32917800D01*
X-61042667Y32917800D02*
X-60947429Y32870181D01*
X-60947429Y32870181D02*
X-60756953Y32870181D01*
X-60756953Y32870181D02*
X-60661715Y32917800D01*
X-60661715Y32917800D02*
X-60614096Y32965420D01*
X-60614096Y32965420D02*
X-60566477Y33060658D01*
X-60566477Y33060658D02*
X-60566477Y33870181D01*
X-60137905Y33774943D02*
X-60090286Y33822562D01*
X-60090286Y33822562D02*
X-59995048Y33870181D01*
X-59995048Y33870181D02*
X-59756953Y33870181D01*
X-59756953Y33870181D02*
X-59661715Y33822562D01*
X-59661715Y33822562D02*
X-59614096Y33774943D01*
X-59614096Y33774943D02*
X-59566477Y33679705D01*
X-59566477Y33679705D02*
X-59566477Y33584467D01*
X-59566477Y33584467D02*
X-59614096Y33441610D01*
X-59614096Y33441610D02*
X-60185524Y32870181D01*
X-60185524Y32870181D02*
X-59566477Y32870181D01*
X-38603286Y56232181D02*
X-38603286Y57232181D01*
X-38603286Y57232181D02*
X-38222334Y57232181D01*
X-38222334Y57232181D02*
X-38127096Y57184562D01*
X-38127096Y57184562D02*
X-38079477Y57136943D01*
X-38079477Y57136943D02*
X-38031858Y57041705D01*
X-38031858Y57041705D02*
X-38031858Y56898848D01*
X-38031858Y56898848D02*
X-38079477Y56803610D01*
X-38079477Y56803610D02*
X-38127096Y56755991D01*
X-38127096Y56755991D02*
X-38222334Y56708372D01*
X-38222334Y56708372D02*
X-38603286Y56708372D01*
X-37650905Y57136943D02*
X-37603286Y57184562D01*
X-37603286Y57184562D02*
X-37508048Y57232181D01*
X-37508048Y57232181D02*
X-37269953Y57232181D01*
X-37269953Y57232181D02*
X-37174715Y57184562D01*
X-37174715Y57184562D02*
X-37127096Y57136943D01*
X-37127096Y57136943D02*
X-37079477Y57041705D01*
X-37079477Y57041705D02*
X-37079477Y56946467D01*
X-37079477Y56946467D02*
X-37127096Y56803610D01*
X-37127096Y56803610D02*
X-37698524Y56232181D01*
X-37698524Y56232181D02*
X-37079477Y56232181D01*
X-36222334Y57232181D02*
X-36412810Y57232181D01*
X-36412810Y57232181D02*
X-36508048Y57184562D01*
X-36508048Y57184562D02*
X-36555667Y57136943D01*
X-36555667Y57136943D02*
X-36650905Y56994086D01*
X-36650905Y56994086D02*
X-36698524Y56803610D01*
X-36698524Y56803610D02*
X-36698524Y56422658D01*
X-36698524Y56422658D02*
X-36650905Y56327420D01*
X-36650905Y56327420D02*
X-36603286Y56279800D01*
X-36603286Y56279800D02*
X-36508048Y56232181D01*
X-36508048Y56232181D02*
X-36317572Y56232181D01*
X-36317572Y56232181D02*
X-36222334Y56279800D01*
X-36222334Y56279800D02*
X-36174715Y56327420D01*
X-36174715Y56327420D02*
X-36127096Y56422658D01*
X-36127096Y56422658D02*
X-36127096Y56660753D01*
X-36127096Y56660753D02*
X-36174715Y56755991D01*
X-36174715Y56755991D02*
X-36222334Y56803610D01*
X-36222334Y56803610D02*
X-36317572Y56851229D01*
X-36317572Y56851229D02*
X-36508048Y56851229D01*
X-36508048Y56851229D02*
X-36603286Y56803610D01*
X-36603286Y56803610D02*
X-36650905Y56755991D01*
X-36650905Y56755991D02*
X-36698524Y56660753D01*
X-38603286Y50142181D02*
X-38603286Y51142181D01*
X-38603286Y51142181D02*
X-38222334Y51142181D01*
X-38222334Y51142181D02*
X-38127096Y51094562D01*
X-38127096Y51094562D02*
X-38079477Y51046943D01*
X-38079477Y51046943D02*
X-38031858Y50951705D01*
X-38031858Y50951705D02*
X-38031858Y50808848D01*
X-38031858Y50808848D02*
X-38079477Y50713610D01*
X-38079477Y50713610D02*
X-38127096Y50665991D01*
X-38127096Y50665991D02*
X-38222334Y50618372D01*
X-38222334Y50618372D02*
X-38603286Y50618372D01*
X-37650905Y51046943D02*
X-37603286Y51094562D01*
X-37603286Y51094562D02*
X-37508048Y51142181D01*
X-37508048Y51142181D02*
X-37269953Y51142181D01*
X-37269953Y51142181D02*
X-37174715Y51094562D01*
X-37174715Y51094562D02*
X-37127096Y51046943D01*
X-37127096Y51046943D02*
X-37079477Y50951705D01*
X-37079477Y50951705D02*
X-37079477Y50856467D01*
X-37079477Y50856467D02*
X-37127096Y50713610D01*
X-37127096Y50713610D02*
X-37698524Y50142181D01*
X-37698524Y50142181D02*
X-37079477Y50142181D01*
X-36603286Y50142181D02*
X-36412810Y50142181D01*
X-36412810Y50142181D02*
X-36317572Y50189800D01*
X-36317572Y50189800D02*
X-36269953Y50237420D01*
X-36269953Y50237420D02*
X-36174715Y50380277D01*
X-36174715Y50380277D02*
X-36127096Y50570753D01*
X-36127096Y50570753D02*
X-36127096Y50951705D01*
X-36127096Y50951705D02*
X-36174715Y51046943D01*
X-36174715Y51046943D02*
X-36222334Y51094562D01*
X-36222334Y51094562D02*
X-36317572Y51142181D01*
X-36317572Y51142181D02*
X-36508048Y51142181D01*
X-36508048Y51142181D02*
X-36603286Y51094562D01*
X-36603286Y51094562D02*
X-36650905Y51046943D01*
X-36650905Y51046943D02*
X-36698524Y50951705D01*
X-36698524Y50951705D02*
X-36698524Y50713610D01*
X-36698524Y50713610D02*
X-36650905Y50618372D01*
X-36650905Y50618372D02*
X-36603286Y50570753D01*
X-36603286Y50570753D02*
X-36508048Y50523134D01*
X-36508048Y50523134D02*
X-36317572Y50523134D01*
X-36317572Y50523134D02*
X-36222334Y50570753D01*
X-36222334Y50570753D02*
X-36174715Y50618372D01*
X-36174715Y50618372D02*
X-36127096Y50713610D01*
X-65805095Y32346181D02*
X-65805095Y31536658D01*
X-65805095Y31536658D02*
X-65757476Y31441420D01*
X-65757476Y31441420D02*
X-65709857Y31393800D01*
X-65709857Y31393800D02*
X-65614619Y31346181D01*
X-65614619Y31346181D02*
X-65424143Y31346181D01*
X-65424143Y31346181D02*
X-65328905Y31393800D01*
X-65328905Y31393800D02*
X-65281286Y31441420D01*
X-65281286Y31441420D02*
X-65233667Y31536658D01*
X-65233667Y31536658D02*
X-65233667Y32346181D01*
X-64233667Y31346181D02*
X-64805095Y31346181D01*
X-64519381Y31346181D02*
X-64519381Y32346181D01*
X-64519381Y32346181D02*
X-64614619Y32203324D01*
X-64614619Y32203324D02*
X-64709857Y32108086D01*
X-64709857Y32108086D02*
X-64805095Y32060467D01*
X-63614619Y32346181D02*
X-63519381Y32346181D01*
X-63519381Y32346181D02*
X-63424143Y32298562D01*
X-63424143Y32298562D02*
X-63376524Y32250943D01*
X-63376524Y32250943D02*
X-63328905Y32155705D01*
X-63328905Y32155705D02*
X-63281286Y31965229D01*
X-63281286Y31965229D02*
X-63281286Y31727134D01*
X-63281286Y31727134D02*
X-63328905Y31536658D01*
X-63328905Y31536658D02*
X-63376524Y31441420D01*
X-63376524Y31441420D02*
X-63424143Y31393800D01*
X-63424143Y31393800D02*
X-63519381Y31346181D01*
X-63519381Y31346181D02*
X-63614619Y31346181D01*
X-63614619Y31346181D02*
X-63709857Y31393800D01*
X-63709857Y31393800D02*
X-63757476Y31441420D01*
X-63757476Y31441420D02*
X-63805095Y31536658D01*
X-63805095Y31536658D02*
X-63852714Y31727134D01*
X-63852714Y31727134D02*
X-63852714Y31965229D01*
X-63852714Y31965229D02*
X-63805095Y32155705D01*
X-63805095Y32155705D02*
X-63757476Y32250943D01*
X-63757476Y32250943D02*
X-63709857Y32298562D01*
X-63709857Y32298562D02*
X-63614619Y32346181D01*
X-84225800Y47866668D02*
X-84178181Y48009525D01*
X-84178181Y48009525D02*
X-84178181Y48247620D01*
X-84178181Y48247620D02*
X-84225800Y48342858D01*
X-84225800Y48342858D02*
X-84273420Y48390477D01*
X-84273420Y48390477D02*
X-84368658Y48438096D01*
X-84368658Y48438096D02*
X-84463896Y48438096D01*
X-84463896Y48438096D02*
X-84559134Y48390477D01*
X-84559134Y48390477D02*
X-84606753Y48342858D01*
X-84606753Y48342858D02*
X-84654372Y48247620D01*
X-84654372Y48247620D02*
X-84701991Y48057144D01*
X-84701991Y48057144D02*
X-84749610Y47961906D01*
X-84749610Y47961906D02*
X-84797229Y47914287D01*
X-84797229Y47914287D02*
X-84892467Y47866668D01*
X-84892467Y47866668D02*
X-84987705Y47866668D01*
X-84987705Y47866668D02*
X-85082943Y47914287D01*
X-85082943Y47914287D02*
X-85130562Y47961906D01*
X-85130562Y47961906D02*
X-85178181Y48057144D01*
X-85178181Y48057144D02*
X-85178181Y48295239D01*
X-85178181Y48295239D02*
X-85130562Y48438096D01*
X-85178181Y48771430D02*
X-84178181Y49009525D01*
X-84178181Y49009525D02*
X-84892467Y49200001D01*
X-84892467Y49200001D02*
X-84178181Y49390477D01*
X-84178181Y49390477D02*
X-85178181Y49628572D01*
X-85178181Y50485715D02*
X-85178181Y50009525D01*
X-85178181Y50009525D02*
X-84701991Y49961906D01*
X-84701991Y49961906D02*
X-84749610Y50009525D01*
X-84749610Y50009525D02*
X-84797229Y50104763D01*
X-84797229Y50104763D02*
X-84797229Y50342858D01*
X-84797229Y50342858D02*
X-84749610Y50438096D01*
X-84749610Y50438096D02*
X-84701991Y50485715D01*
X-84701991Y50485715D02*
X-84606753Y50533334D01*
X-84606753Y50533334D02*
X-84368658Y50533334D01*
X-84368658Y50533334D02*
X-84273420Y50485715D01*
X-84273420Y50485715D02*
X-84225800Y50438096D01*
X-84225800Y50438096D02*
X-84178181Y50342858D01*
X-84178181Y50342858D02*
X-84178181Y50104763D01*
X-84178181Y50104763D02*
X-84225800Y50009525D01*
X-84225800Y50009525D02*
X-84273420Y49961906D01*
X-84225800Y30086668D02*
X-84178181Y30229525D01*
X-84178181Y30229525D02*
X-84178181Y30467620D01*
X-84178181Y30467620D02*
X-84225800Y30562858D01*
X-84225800Y30562858D02*
X-84273420Y30610477D01*
X-84273420Y30610477D02*
X-84368658Y30658096D01*
X-84368658Y30658096D02*
X-84463896Y30658096D01*
X-84463896Y30658096D02*
X-84559134Y30610477D01*
X-84559134Y30610477D02*
X-84606753Y30562858D01*
X-84606753Y30562858D02*
X-84654372Y30467620D01*
X-84654372Y30467620D02*
X-84701991Y30277144D01*
X-84701991Y30277144D02*
X-84749610Y30181906D01*
X-84749610Y30181906D02*
X-84797229Y30134287D01*
X-84797229Y30134287D02*
X-84892467Y30086668D01*
X-84892467Y30086668D02*
X-84987705Y30086668D01*
X-84987705Y30086668D02*
X-85082943Y30134287D01*
X-85082943Y30134287D02*
X-85130562Y30181906D01*
X-85130562Y30181906D02*
X-85178181Y30277144D01*
X-85178181Y30277144D02*
X-85178181Y30515239D01*
X-85178181Y30515239D02*
X-85130562Y30658096D01*
X-85178181Y30991430D02*
X-84178181Y31229525D01*
X-84178181Y31229525D02*
X-84892467Y31420001D01*
X-84892467Y31420001D02*
X-84178181Y31610477D01*
X-84178181Y31610477D02*
X-85178181Y31848572D01*
X-85178181Y32658096D02*
X-85178181Y32467620D01*
X-85178181Y32467620D02*
X-85130562Y32372382D01*
X-85130562Y32372382D02*
X-85082943Y32324763D01*
X-85082943Y32324763D02*
X-84940086Y32229525D01*
X-84940086Y32229525D02*
X-84749610Y32181906D01*
X-84749610Y32181906D02*
X-84368658Y32181906D01*
X-84368658Y32181906D02*
X-84273420Y32229525D01*
X-84273420Y32229525D02*
X-84225800Y32277144D01*
X-84225800Y32277144D02*
X-84178181Y32372382D01*
X-84178181Y32372382D02*
X-84178181Y32562858D01*
X-84178181Y32562858D02*
X-84225800Y32658096D01*
X-84225800Y32658096D02*
X-84273420Y32705715D01*
X-84273420Y32705715D02*
X-84368658Y32753334D01*
X-84368658Y32753334D02*
X-84606753Y32753334D01*
X-84606753Y32753334D02*
X-84701991Y32705715D01*
X-84701991Y32705715D02*
X-84749610Y32658096D01*
X-84749610Y32658096D02*
X-84797229Y32562858D01*
X-84797229Y32562858D02*
X-84797229Y32372382D01*
X-84797229Y32372382D02*
X-84749610Y32277144D01*
X-84749610Y32277144D02*
X-84701991Y32229525D01*
X-84701991Y32229525D02*
X-84606753Y32181906D01*
X-38603286Y54206181D02*
X-38603286Y55206181D01*
X-38603286Y55206181D02*
X-38222334Y55206181D01*
X-38222334Y55206181D02*
X-38127096Y55158562D01*
X-38127096Y55158562D02*
X-38079477Y55110943D01*
X-38079477Y55110943D02*
X-38031858Y55015705D01*
X-38031858Y55015705D02*
X-38031858Y54872848D01*
X-38031858Y54872848D02*
X-38079477Y54777610D01*
X-38079477Y54777610D02*
X-38127096Y54729991D01*
X-38127096Y54729991D02*
X-38222334Y54682372D01*
X-38222334Y54682372D02*
X-38603286Y54682372D01*
X-37650905Y55110943D02*
X-37603286Y55158562D01*
X-37603286Y55158562D02*
X-37508048Y55206181D01*
X-37508048Y55206181D02*
X-37269953Y55206181D01*
X-37269953Y55206181D02*
X-37174715Y55158562D01*
X-37174715Y55158562D02*
X-37127096Y55110943D01*
X-37127096Y55110943D02*
X-37079477Y55015705D01*
X-37079477Y55015705D02*
X-37079477Y54920467D01*
X-37079477Y54920467D02*
X-37127096Y54777610D01*
X-37127096Y54777610D02*
X-37698524Y54206181D01*
X-37698524Y54206181D02*
X-37079477Y54206181D01*
X-36746143Y55206181D02*
X-36079477Y55206181D01*
X-36079477Y55206181D02*
X-36508048Y54206181D01*
X-48837705Y31210572D02*
X-49637705Y31210572D01*
X-49637705Y31210572D02*
X-49637705Y31515334D01*
X-49637705Y31515334D02*
X-49599610Y31591524D01*
X-49599610Y31591524D02*
X-49561515Y31629619D01*
X-49561515Y31629619D02*
X-49485324Y31667715D01*
X-49485324Y31667715D02*
X-49371039Y31667715D01*
X-49371039Y31667715D02*
X-49294848Y31629619D01*
X-49294848Y31629619D02*
X-49256753Y31591524D01*
X-49256753Y31591524D02*
X-49218658Y31515334D01*
X-49218658Y31515334D02*
X-49218658Y31210572D01*
X-48837705Y32429619D02*
X-48837705Y31972476D01*
X-48837705Y32201048D02*
X-49637705Y32201048D01*
X-49637705Y32201048D02*
X-49523420Y32124857D01*
X-49523420Y32124857D02*
X-49447229Y32048667D01*
X-49447229Y32048667D02*
X-49409134Y31972476D01*
X-49637705Y32696286D02*
X-49637705Y33191524D01*
X-49637705Y33191524D02*
X-49332943Y32924858D01*
X-49332943Y32924858D02*
X-49332943Y33039143D01*
X-49332943Y33039143D02*
X-49294848Y33115334D01*
X-49294848Y33115334D02*
X-49256753Y33153429D01*
X-49256753Y33153429D02*
X-49180562Y33191524D01*
X-49180562Y33191524D02*
X-48990086Y33191524D01*
X-48990086Y33191524D02*
X-48913896Y33153429D01*
X-48913896Y33153429D02*
X-48875800Y33115334D01*
X-48875800Y33115334D02*
X-48837705Y33039143D01*
X-48837705Y33039143D02*
X-48837705Y32810572D01*
X-48837705Y32810572D02*
X-48875800Y32734381D01*
X-48875800Y32734381D02*
X-48913896Y32696286D01*
X-52012705Y31210572D02*
X-52812705Y31210572D01*
X-52812705Y31210572D02*
X-52812705Y31515334D01*
X-52812705Y31515334D02*
X-52774610Y31591524D01*
X-52774610Y31591524D02*
X-52736515Y31629619D01*
X-52736515Y31629619D02*
X-52660324Y31667715D01*
X-52660324Y31667715D02*
X-52546039Y31667715D01*
X-52546039Y31667715D02*
X-52469848Y31629619D01*
X-52469848Y31629619D02*
X-52431753Y31591524D01*
X-52431753Y31591524D02*
X-52393658Y31515334D01*
X-52393658Y31515334D02*
X-52393658Y31210572D01*
X-52012705Y32429619D02*
X-52012705Y31972476D01*
X-52012705Y32201048D02*
X-52812705Y32201048D01*
X-52812705Y32201048D02*
X-52698420Y32124857D01*
X-52698420Y32124857D02*
X-52622229Y32048667D01*
X-52622229Y32048667D02*
X-52584134Y31972476D01*
X-52812705Y33153429D02*
X-52812705Y32772477D01*
X-52812705Y32772477D02*
X-52431753Y32734381D01*
X-52431753Y32734381D02*
X-52469848Y32772477D01*
X-52469848Y32772477D02*
X-52507943Y32848667D01*
X-52507943Y32848667D02*
X-52507943Y33039143D01*
X-52507943Y33039143D02*
X-52469848Y33115334D01*
X-52469848Y33115334D02*
X-52431753Y33153429D01*
X-52431753Y33153429D02*
X-52355562Y33191524D01*
X-52355562Y33191524D02*
X-52165086Y33191524D01*
X-52165086Y33191524D02*
X-52088896Y33153429D01*
X-52088896Y33153429D02*
X-52050800Y33115334D01*
X-52050800Y33115334D02*
X-52012705Y33039143D01*
X-52012705Y33039143D02*
X-52012705Y32848667D01*
X-52012705Y32848667D02*
X-52050800Y32772477D01*
X-52050800Y32772477D02*
X-52088896Y32734381D01*
X-70446181Y24062096D02*
X-69636658Y24062096D01*
X-69636658Y24062096D02*
X-69541420Y24109715D01*
X-69541420Y24109715D02*
X-69493800Y24157334D01*
X-69493800Y24157334D02*
X-69446181Y24252572D01*
X-69446181Y24252572D02*
X-69446181Y24443048D01*
X-69446181Y24443048D02*
X-69493800Y24538286D01*
X-69493800Y24538286D02*
X-69541420Y24585905D01*
X-69541420Y24585905D02*
X-69636658Y24633524D01*
X-69636658Y24633524D02*
X-70446181Y24633524D01*
X-69493800Y25062096D02*
X-69446181Y25204953D01*
X-69446181Y25204953D02*
X-69446181Y25443048D01*
X-69446181Y25443048D02*
X-69493800Y25538286D01*
X-69493800Y25538286D02*
X-69541420Y25585905D01*
X-69541420Y25585905D02*
X-69636658Y25633524D01*
X-69636658Y25633524D02*
X-69731896Y25633524D01*
X-69731896Y25633524D02*
X-69827134Y25585905D01*
X-69827134Y25585905D02*
X-69874753Y25538286D01*
X-69874753Y25538286D02*
X-69922372Y25443048D01*
X-69922372Y25443048D02*
X-69969991Y25252572D01*
X-69969991Y25252572D02*
X-70017610Y25157334D01*
X-70017610Y25157334D02*
X-70065229Y25109715D01*
X-70065229Y25109715D02*
X-70160467Y25062096D01*
X-70160467Y25062096D02*
X-70255705Y25062096D01*
X-70255705Y25062096D02*
X-70350943Y25109715D01*
X-70350943Y25109715D02*
X-70398562Y25157334D01*
X-70398562Y25157334D02*
X-70446181Y25252572D01*
X-70446181Y25252572D02*
X-70446181Y25490667D01*
X-70446181Y25490667D02*
X-70398562Y25633524D01*
X-69969991Y26395429D02*
X-69922372Y26538286D01*
X-69922372Y26538286D02*
X-69874753Y26585905D01*
X-69874753Y26585905D02*
X-69779515Y26633524D01*
X-69779515Y26633524D02*
X-69636658Y26633524D01*
X-69636658Y26633524D02*
X-69541420Y26585905D01*
X-69541420Y26585905D02*
X-69493800Y26538286D01*
X-69493800Y26538286D02*
X-69446181Y26443048D01*
X-69446181Y26443048D02*
X-69446181Y26062096D01*
X-69446181Y26062096D02*
X-70446181Y26062096D01*
X-70446181Y26062096D02*
X-70446181Y26395429D01*
X-70446181Y26395429D02*
X-70398562Y26490667D01*
X-70398562Y26490667D02*
X-70350943Y26538286D01*
X-70350943Y26538286D02*
X-70255705Y26585905D01*
X-70255705Y26585905D02*
X-70160467Y26585905D01*
X-70160467Y26585905D02*
X-70065229Y26538286D01*
X-70065229Y26538286D02*
X-70017610Y26490667D01*
X-70017610Y26490667D02*
X-69969991Y26395429D01*
X-69969991Y26395429D02*
X-69969991Y26062096D01*
X-65175800Y55486668D02*
X-65128181Y55629525D01*
X-65128181Y55629525D02*
X-65128181Y55867620D01*
X-65128181Y55867620D02*
X-65175800Y55962858D01*
X-65175800Y55962858D02*
X-65223420Y56010477D01*
X-65223420Y56010477D02*
X-65318658Y56058096D01*
X-65318658Y56058096D02*
X-65413896Y56058096D01*
X-65413896Y56058096D02*
X-65509134Y56010477D01*
X-65509134Y56010477D02*
X-65556753Y55962858D01*
X-65556753Y55962858D02*
X-65604372Y55867620D01*
X-65604372Y55867620D02*
X-65651991Y55677144D01*
X-65651991Y55677144D02*
X-65699610Y55581906D01*
X-65699610Y55581906D02*
X-65747229Y55534287D01*
X-65747229Y55534287D02*
X-65842467Y55486668D01*
X-65842467Y55486668D02*
X-65937705Y55486668D01*
X-65937705Y55486668D02*
X-66032943Y55534287D01*
X-66032943Y55534287D02*
X-66080562Y55581906D01*
X-66080562Y55581906D02*
X-66128181Y55677144D01*
X-66128181Y55677144D02*
X-66128181Y55915239D01*
X-66128181Y55915239D02*
X-66080562Y56058096D01*
X-66128181Y56391430D02*
X-65128181Y56629525D01*
X-65128181Y56629525D02*
X-65842467Y56820001D01*
X-65842467Y56820001D02*
X-65128181Y57010477D01*
X-65128181Y57010477D02*
X-66128181Y57248572D01*
X-65794848Y58058096D02*
X-65128181Y58058096D01*
X-66175800Y57820001D02*
X-65461515Y57581906D01*
X-65461515Y57581906D02*
X-65461515Y58200953D01*
X-47421905Y51396181D02*
X-47421905Y50586658D01*
X-47421905Y50586658D02*
X-47374286Y50491420D01*
X-47374286Y50491420D02*
X-47326667Y50443800D01*
X-47326667Y50443800D02*
X-47231429Y50396181D01*
X-47231429Y50396181D02*
X-47040953Y50396181D01*
X-47040953Y50396181D02*
X-46945715Y50443800D01*
X-46945715Y50443800D02*
X-46898096Y50491420D01*
X-46898096Y50491420D02*
X-46850477Y50586658D01*
X-46850477Y50586658D02*
X-46850477Y51396181D01*
X-45945715Y51062848D02*
X-45945715Y50396181D01*
X-46183810Y51443800D02*
X-46421905Y50729515D01*
X-46421905Y50729515D02*
X-45802858Y50729515D01*
X-38603286Y52174181D02*
X-38603286Y53174181D01*
X-38603286Y53174181D02*
X-38222334Y53174181D01*
X-38222334Y53174181D02*
X-38127096Y53126562D01*
X-38127096Y53126562D02*
X-38079477Y53078943D01*
X-38079477Y53078943D02*
X-38031858Y52983705D01*
X-38031858Y52983705D02*
X-38031858Y52840848D01*
X-38031858Y52840848D02*
X-38079477Y52745610D01*
X-38079477Y52745610D02*
X-38127096Y52697991D01*
X-38127096Y52697991D02*
X-38222334Y52650372D01*
X-38222334Y52650372D02*
X-38603286Y52650372D01*
X-37650905Y53078943D02*
X-37603286Y53126562D01*
X-37603286Y53126562D02*
X-37508048Y53174181D01*
X-37508048Y53174181D02*
X-37269953Y53174181D01*
X-37269953Y53174181D02*
X-37174715Y53126562D01*
X-37174715Y53126562D02*
X-37127096Y53078943D01*
X-37127096Y53078943D02*
X-37079477Y52983705D01*
X-37079477Y52983705D02*
X-37079477Y52888467D01*
X-37079477Y52888467D02*
X-37127096Y52745610D01*
X-37127096Y52745610D02*
X-37698524Y52174181D01*
X-37698524Y52174181D02*
X-37079477Y52174181D01*
X-36508048Y52745610D02*
X-36603286Y52793229D01*
X-36603286Y52793229D02*
X-36650905Y52840848D01*
X-36650905Y52840848D02*
X-36698524Y52936086D01*
X-36698524Y52936086D02*
X-36698524Y52983705D01*
X-36698524Y52983705D02*
X-36650905Y53078943D01*
X-36650905Y53078943D02*
X-36603286Y53126562D01*
X-36603286Y53126562D02*
X-36508048Y53174181D01*
X-36508048Y53174181D02*
X-36317572Y53174181D01*
X-36317572Y53174181D02*
X-36222334Y53126562D01*
X-36222334Y53126562D02*
X-36174715Y53078943D01*
X-36174715Y53078943D02*
X-36127096Y52983705D01*
X-36127096Y52983705D02*
X-36127096Y52936086D01*
X-36127096Y52936086D02*
X-36174715Y52840848D01*
X-36174715Y52840848D02*
X-36222334Y52793229D01*
X-36222334Y52793229D02*
X-36317572Y52745610D01*
X-36317572Y52745610D02*
X-36508048Y52745610D01*
X-36508048Y52745610D02*
X-36603286Y52697991D01*
X-36603286Y52697991D02*
X-36650905Y52650372D01*
X-36650905Y52650372D02*
X-36698524Y52555134D01*
X-36698524Y52555134D02*
X-36698524Y52364658D01*
X-36698524Y52364658D02*
X-36650905Y52269420D01*
X-36650905Y52269420D02*
X-36603286Y52221800D01*
X-36603286Y52221800D02*
X-36508048Y52174181D01*
X-36508048Y52174181D02*
X-36317572Y52174181D01*
X-36317572Y52174181D02*
X-36222334Y52221800D01*
X-36222334Y52221800D02*
X-36174715Y52269420D01*
X-36174715Y52269420D02*
X-36127096Y52364658D01*
X-36127096Y52364658D02*
X-36127096Y52555134D01*
X-36127096Y52555134D02*
X-36174715Y52650372D01*
X-36174715Y52650372D02*
X-36222334Y52697991D01*
X-36222334Y52697991D02*
X-36317572Y52745610D01*
X-45461286Y53063181D02*
X-45461286Y54063181D01*
X-45461286Y54063181D02*
X-45080334Y54063181D01*
X-45080334Y54063181D02*
X-44985096Y54015562D01*
X-44985096Y54015562D02*
X-44937477Y53967943D01*
X-44937477Y53967943D02*
X-44889858Y53872705D01*
X-44889858Y53872705D02*
X-44889858Y53729848D01*
X-44889858Y53729848D02*
X-44937477Y53634610D01*
X-44937477Y53634610D02*
X-44985096Y53586991D01*
X-44985096Y53586991D02*
X-45080334Y53539372D01*
X-45080334Y53539372D02*
X-45461286Y53539372D01*
X-44508905Y53967943D02*
X-44461286Y54015562D01*
X-44461286Y54015562D02*
X-44366048Y54063181D01*
X-44366048Y54063181D02*
X-44127953Y54063181D01*
X-44127953Y54063181D02*
X-44032715Y54015562D01*
X-44032715Y54015562D02*
X-43985096Y53967943D01*
X-43985096Y53967943D02*
X-43937477Y53872705D01*
X-43937477Y53872705D02*
X-43937477Y53777467D01*
X-43937477Y53777467D02*
X-43985096Y53634610D01*
X-43985096Y53634610D02*
X-44556524Y53063181D01*
X-44556524Y53063181D02*
X-43937477Y53063181D01*
X-43318429Y54063181D02*
X-43223191Y54063181D01*
X-43223191Y54063181D02*
X-43127953Y54015562D01*
X-43127953Y54015562D02*
X-43080334Y53967943D01*
X-43080334Y53967943D02*
X-43032715Y53872705D01*
X-43032715Y53872705D02*
X-42985096Y53682229D01*
X-42985096Y53682229D02*
X-42985096Y53444134D01*
X-42985096Y53444134D02*
X-43032715Y53253658D01*
X-43032715Y53253658D02*
X-43080334Y53158420D01*
X-43080334Y53158420D02*
X-43127953Y53110800D01*
X-43127953Y53110800D02*
X-43223191Y53063181D01*
X-43223191Y53063181D02*
X-43318429Y53063181D01*
X-43318429Y53063181D02*
X-43413667Y53110800D01*
X-43413667Y53110800D02*
X-43461286Y53158420D01*
X-43461286Y53158420D02*
X-43508905Y53253658D01*
X-43508905Y53253658D02*
X-43556524Y53444134D01*
X-43556524Y53444134D02*
X-43556524Y53682229D01*
X-43556524Y53682229D02*
X-43508905Y53872705D01*
X-43508905Y53872705D02*
X-43461286Y53967943D01*
X-43461286Y53967943D02*
X-43413667Y54015562D01*
X-43413667Y54015562D02*
X-43318429Y54063181D01*
X-45461286Y51031181D02*
X-45461286Y52031181D01*
X-45461286Y52031181D02*
X-45080334Y52031181D01*
X-45080334Y52031181D02*
X-44985096Y51983562D01*
X-44985096Y51983562D02*
X-44937477Y51935943D01*
X-44937477Y51935943D02*
X-44889858Y51840705D01*
X-44889858Y51840705D02*
X-44889858Y51697848D01*
X-44889858Y51697848D02*
X-44937477Y51602610D01*
X-44937477Y51602610D02*
X-44985096Y51554991D01*
X-44985096Y51554991D02*
X-45080334Y51507372D01*
X-45080334Y51507372D02*
X-45461286Y51507372D01*
X-44508905Y51935943D02*
X-44461286Y51983562D01*
X-44461286Y51983562D02*
X-44366048Y52031181D01*
X-44366048Y52031181D02*
X-44127953Y52031181D01*
X-44127953Y52031181D02*
X-44032715Y51983562D01*
X-44032715Y51983562D02*
X-43985096Y51935943D01*
X-43985096Y51935943D02*
X-43937477Y51840705D01*
X-43937477Y51840705D02*
X-43937477Y51745467D01*
X-43937477Y51745467D02*
X-43985096Y51602610D01*
X-43985096Y51602610D02*
X-44556524Y51031181D01*
X-44556524Y51031181D02*
X-43937477Y51031181D01*
X-42985096Y51031181D02*
X-43556524Y51031181D01*
X-43270810Y51031181D02*
X-43270810Y52031181D01*
X-43270810Y52031181D02*
X-43366048Y51888324D01*
X-43366048Y51888324D02*
X-43461286Y51793086D01*
X-43461286Y51793086D02*
X-43556524Y51745467D01*
X-81013333Y81685800D02*
X-80870476Y81638181D01*
X-80870476Y81638181D02*
X-80632381Y81638181D01*
X-80632381Y81638181D02*
X-80537143Y81685800D01*
X-80537143Y81685800D02*
X-80489524Y81733420D01*
X-80489524Y81733420D02*
X-80441905Y81828658D01*
X-80441905Y81828658D02*
X-80441905Y81923896D01*
X-80441905Y81923896D02*
X-80489524Y82019134D01*
X-80489524Y82019134D02*
X-80537143Y82066753D01*
X-80537143Y82066753D02*
X-80632381Y82114372D01*
X-80632381Y82114372D02*
X-80822857Y82161991D01*
X-80822857Y82161991D02*
X-80918095Y82209610D01*
X-80918095Y82209610D02*
X-80965714Y82257229D01*
X-80965714Y82257229D02*
X-81013333Y82352467D01*
X-81013333Y82352467D02*
X-81013333Y82447705D01*
X-81013333Y82447705D02*
X-80965714Y82542943D01*
X-80965714Y82542943D02*
X-80918095Y82590562D01*
X-80918095Y82590562D02*
X-80822857Y82638181D01*
X-80822857Y82638181D02*
X-80584762Y82638181D01*
X-80584762Y82638181D02*
X-80441905Y82590562D01*
X-80108571Y82638181D02*
X-79870476Y81638181D01*
X-79870476Y81638181D02*
X-79680000Y82352467D01*
X-79680000Y82352467D02*
X-79489524Y81638181D01*
X-79489524Y81638181D02*
X-79251428Y82638181D01*
X-78346667Y81638181D02*
X-78918095Y81638181D01*
X-78632381Y81638181D02*
X-78632381Y82638181D01*
X-78632381Y82638181D02*
X-78727619Y82495324D01*
X-78727619Y82495324D02*
X-78822857Y82400086D01*
X-78822857Y82400086D02*
X-78918095Y82352467D01*
X-74399181Y67385380D02*
X-74875372Y67052047D01*
X-74399181Y66813952D02*
X-75399181Y66813952D01*
X-75399181Y66813952D02*
X-75399181Y67194904D01*
X-75399181Y67194904D02*
X-75351562Y67290142D01*
X-75351562Y67290142D02*
X-75303943Y67337761D01*
X-75303943Y67337761D02*
X-75208705Y67385380D01*
X-75208705Y67385380D02*
X-75065848Y67385380D01*
X-75065848Y67385380D02*
X-74970610Y67337761D01*
X-74970610Y67337761D02*
X-74922991Y67290142D01*
X-74922991Y67290142D02*
X-74875372Y67194904D01*
X-74875372Y67194904D02*
X-74875372Y66813952D01*
X-74399181Y67956809D02*
X-74446800Y67861571D01*
X-74446800Y67861571D02*
X-74494420Y67813952D01*
X-74494420Y67813952D02*
X-74589658Y67766333D01*
X-74589658Y67766333D02*
X-74875372Y67766333D01*
X-74875372Y67766333D02*
X-74970610Y67813952D01*
X-74970610Y67813952D02*
X-75018229Y67861571D01*
X-75018229Y67861571D02*
X-75065848Y67956809D01*
X-75065848Y67956809D02*
X-75065848Y68099666D01*
X-75065848Y68099666D02*
X-75018229Y68194904D01*
X-75018229Y68194904D02*
X-74970610Y68242523D01*
X-74970610Y68242523D02*
X-74875372Y68290142D01*
X-74875372Y68290142D02*
X-74589658Y68290142D01*
X-74589658Y68290142D02*
X-74494420Y68242523D01*
X-74494420Y68242523D02*
X-74446800Y68194904D01*
X-74446800Y68194904D02*
X-74399181Y68099666D01*
X-74399181Y68099666D02*
X-74399181Y67956809D01*
X-75065848Y68575857D02*
X-75065848Y68956809D01*
X-75399181Y68718714D02*
X-74542039Y68718714D01*
X-74542039Y68718714D02*
X-74446800Y68766333D01*
X-74446800Y68766333D02*
X-74399181Y68861571D01*
X-74399181Y68861571D02*
X-74399181Y68956809D01*
X-74399181Y69718714D02*
X-74922991Y69718714D01*
X-74922991Y69718714D02*
X-75018229Y69671095D01*
X-75018229Y69671095D02*
X-75065848Y69575857D01*
X-75065848Y69575857D02*
X-75065848Y69385381D01*
X-75065848Y69385381D02*
X-75018229Y69290143D01*
X-74446800Y69718714D02*
X-74399181Y69623476D01*
X-74399181Y69623476D02*
X-74399181Y69385381D01*
X-74399181Y69385381D02*
X-74446800Y69290143D01*
X-74446800Y69290143D02*
X-74542039Y69242524D01*
X-74542039Y69242524D02*
X-74637277Y69242524D01*
X-74637277Y69242524D02*
X-74732515Y69290143D01*
X-74732515Y69290143D02*
X-74780134Y69385381D01*
X-74780134Y69385381D02*
X-74780134Y69623476D01*
X-74780134Y69623476D02*
X-74827753Y69718714D01*
X-74399181Y70194905D02*
X-75065848Y70194905D01*
X-74875372Y70194905D02*
X-74970610Y70242524D01*
X-74970610Y70242524D02*
X-75018229Y70290143D01*
X-75018229Y70290143D02*
X-75065848Y70385381D01*
X-75065848Y70385381D02*
X-75065848Y70480619D01*
X-75065848Y70718715D02*
X-74399181Y70956810D01*
X-75065848Y71194905D02*
X-74399181Y70956810D01*
X-74399181Y70956810D02*
X-74161086Y70861572D01*
X-74161086Y70861572D02*
X-74113467Y70813953D01*
X-74113467Y70813953D02*
X-74065848Y70718715D01*
X-74922991Y71575858D02*
X-74922991Y71909191D01*
X-74399181Y72052048D02*
X-74399181Y71575858D01*
X-74399181Y71575858D02*
X-75399181Y71575858D01*
X-75399181Y71575858D02*
X-75399181Y72052048D01*
X-75065848Y72480620D02*
X-74399181Y72480620D01*
X-74970610Y72480620D02*
X-75018229Y72528239D01*
X-75018229Y72528239D02*
X-75065848Y72623477D01*
X-75065848Y72623477D02*
X-75065848Y72766334D01*
X-75065848Y72766334D02*
X-75018229Y72861572D01*
X-75018229Y72861572D02*
X-74922991Y72909191D01*
X-74922991Y72909191D02*
X-74399181Y72909191D01*
X-74446800Y73813953D02*
X-74399181Y73718715D01*
X-74399181Y73718715D02*
X-74399181Y73528239D01*
X-74399181Y73528239D02*
X-74446800Y73433001D01*
X-74446800Y73433001D02*
X-74494420Y73385382D01*
X-74494420Y73385382D02*
X-74589658Y73337763D01*
X-74589658Y73337763D02*
X-74875372Y73337763D01*
X-74875372Y73337763D02*
X-74970610Y73385382D01*
X-74970610Y73385382D02*
X-75018229Y73433001D01*
X-75018229Y73433001D02*
X-75065848Y73528239D01*
X-75065848Y73528239D02*
X-75065848Y73718715D01*
X-75065848Y73718715D02*
X-75018229Y73813953D01*
X-74399181Y74385382D02*
X-74446800Y74290144D01*
X-74446800Y74290144D02*
X-74494420Y74242525D01*
X-74494420Y74242525D02*
X-74589658Y74194906D01*
X-74589658Y74194906D02*
X-74875372Y74194906D01*
X-74875372Y74194906D02*
X-74970610Y74242525D01*
X-74970610Y74242525D02*
X-75018229Y74290144D01*
X-75018229Y74290144D02*
X-75065848Y74385382D01*
X-75065848Y74385382D02*
X-75065848Y74528239D01*
X-75065848Y74528239D02*
X-75018229Y74623477D01*
X-75018229Y74623477D02*
X-74970610Y74671096D01*
X-74970610Y74671096D02*
X-74875372Y74718715D01*
X-74875372Y74718715D02*
X-74589658Y74718715D01*
X-74589658Y74718715D02*
X-74494420Y74671096D01*
X-74494420Y74671096D02*
X-74446800Y74623477D01*
X-74446800Y74623477D02*
X-74399181Y74528239D01*
X-74399181Y74528239D02*
X-74399181Y74385382D01*
X-74399181Y75575858D02*
X-75399181Y75575858D01*
X-74446800Y75575858D02*
X-74399181Y75480620D01*
X-74399181Y75480620D02*
X-74399181Y75290144D01*
X-74399181Y75290144D02*
X-74446800Y75194906D01*
X-74446800Y75194906D02*
X-74494420Y75147287D01*
X-74494420Y75147287D02*
X-74589658Y75099668D01*
X-74589658Y75099668D02*
X-74875372Y75099668D01*
X-74875372Y75099668D02*
X-74970610Y75147287D01*
X-74970610Y75147287D02*
X-75018229Y75194906D01*
X-75018229Y75194906D02*
X-75065848Y75290144D01*
X-75065848Y75290144D02*
X-75065848Y75480620D01*
X-75065848Y75480620D02*
X-75018229Y75575858D01*
X-74446800Y76433001D02*
X-74399181Y76337763D01*
X-74399181Y76337763D02*
X-74399181Y76147287D01*
X-74399181Y76147287D02*
X-74446800Y76052049D01*
X-74446800Y76052049D02*
X-74542039Y76004430D01*
X-74542039Y76004430D02*
X-74922991Y76004430D01*
X-74922991Y76004430D02*
X-75018229Y76052049D01*
X-75018229Y76052049D02*
X-75065848Y76147287D01*
X-75065848Y76147287D02*
X-75065848Y76337763D01*
X-75065848Y76337763D02*
X-75018229Y76433001D01*
X-75018229Y76433001D02*
X-74922991Y76480620D01*
X-74922991Y76480620D02*
X-74827753Y76480620D01*
X-74827753Y76480620D02*
X-74732515Y76004430D01*
X-74399181Y76909192D02*
X-75065848Y76909192D01*
X-74875372Y76909192D02*
X-74970610Y76956811D01*
X-74970610Y76956811D02*
X-75018229Y77004430D01*
X-75018229Y77004430D02*
X-75065848Y77099668D01*
X-75065848Y77099668D02*
X-75065848Y77194906D01*
X-55803905Y32473181D02*
X-55803905Y31663658D01*
X-55803905Y31663658D02*
X-55756286Y31568420D01*
X-55756286Y31568420D02*
X-55708667Y31520800D01*
X-55708667Y31520800D02*
X-55613429Y31473181D01*
X-55613429Y31473181D02*
X-55422953Y31473181D01*
X-55422953Y31473181D02*
X-55327715Y31520800D01*
X-55327715Y31520800D02*
X-55280096Y31568420D01*
X-55280096Y31568420D02*
X-55232477Y31663658D01*
X-55232477Y31663658D02*
X-55232477Y32473181D01*
X-54232477Y31473181D02*
X-54803905Y31473181D01*
X-54518191Y31473181D02*
X-54518191Y32473181D01*
X-54518191Y32473181D02*
X-54613429Y32330324D01*
X-54613429Y32330324D02*
X-54708667Y32235086D01*
X-54708667Y32235086D02*
X-54803905Y32187467D01*
X-52019206Y36752898D02*
X-52819206Y36752898D01*
X-52819206Y36752898D02*
X-52819206Y37057660D01*
X-52819206Y37057660D02*
X-52781111Y37133850D01*
X-52781111Y37133850D02*
X-52743016Y37171945D01*
X-52743016Y37171945D02*
X-52666825Y37210041D01*
X-52666825Y37210041D02*
X-52552540Y37210041D01*
X-52552540Y37210041D02*
X-52476349Y37171945D01*
X-52476349Y37171945D02*
X-52438254Y37133850D01*
X-52438254Y37133850D02*
X-52400159Y37057660D01*
X-52400159Y37057660D02*
X-52400159Y36752898D01*
X-52019206Y37971945D02*
X-52019206Y37514802D01*
X-52019206Y37743374D02*
X-52819206Y37743374D01*
X-52819206Y37743374D02*
X-52704921Y37667183D01*
X-52704921Y37667183D02*
X-52628730Y37590993D01*
X-52628730Y37590993D02*
X-52590635Y37514802D01*
X-52743016Y38276707D02*
X-52781111Y38314803D01*
X-52781111Y38314803D02*
X-52819206Y38390993D01*
X-52819206Y38390993D02*
X-52819206Y38581469D01*
X-52819206Y38581469D02*
X-52781111Y38657660D01*
X-52781111Y38657660D02*
X-52743016Y38695755D01*
X-52743016Y38695755D02*
X-52666825Y38733850D01*
X-52666825Y38733850D02*
X-52590635Y38733850D01*
X-52590635Y38733850D02*
X-52476349Y38695755D01*
X-52476349Y38695755D02*
X-52019206Y38238612D01*
X-52019206Y38238612D02*
X-52019206Y38733850D01*
D12*
%TO.C,D1*%
X-77320000Y67726000D02*
X-81330000Y67726000D01*
X-77320000Y65726000D02*
X-81330000Y65726000D01*
X-77320000Y65726000D02*
X-77320000Y67726000D01*
%TO.C,C13*%
X-38026000Y45122420D02*
X-38026000Y45403580D01*
X-37006000Y45122420D02*
X-37006000Y45403580D01*
%TO.C,P14*%
X-50532000Y34087000D02*
G75*
G02*
X-51932000Y34087000I-700000J0D01*
G01*
X-51932000Y34087000D02*
G75*
G02*
X-50532000Y34087000I700000J0D01*
G01*
%TO.C,C400*%
X-59870000Y29007420D02*
X-59870000Y29288580D01*
X-58850000Y29007420D02*
X-58850000Y29288580D01*
%TO.C,D7*%
X-51216000Y54714000D02*
X-51216000Y58724000D01*
X-51216000Y54714000D02*
X-49216000Y54714000D01*
X-49216000Y54714000D02*
X-49216000Y58724000D01*
%TO.C,R4*%
X-41213500Y45373258D02*
X-41213500Y44898742D01*
X-40168500Y45373258D02*
X-40168500Y44898742D01*
%TO.C,P11*%
X-48500000Y36119000D02*
G75*
G02*
X-49900000Y36119000I-700000J0D01*
G01*
X-49900000Y36119000D02*
G75*
G02*
X-48500000Y36119000I700000J0D01*
G01*
%TO.C,Y1*%
X-45485000Y30657000D02*
X-45485000Y27357000D01*
X-45485000Y27357000D02*
X-41485000Y27357000D01*
%TO.C,U3*%
X-46455000Y35181000D02*
X-46455000Y35831000D01*
X-45805000Y42401000D02*
X-46455000Y42401000D01*
X-45805000Y35181000D02*
X-46455000Y35181000D01*
X-39885000Y42401000D02*
X-39235000Y42401000D01*
X-39885000Y35181000D02*
X-39235000Y35181000D01*
X-39235000Y42401000D02*
X-39235000Y41751000D01*
X-39235000Y35181000D02*
X-39235000Y35831000D01*
%TO.C,R3*%
X-41848500Y48421258D02*
X-41848500Y47946742D01*
X-40803500Y48421258D02*
X-40803500Y47946742D01*
%TO.C,D10*%
X-72240000Y42580000D02*
X-76250000Y42580000D01*
X-72240000Y40580000D02*
X-76250000Y40580000D01*
X-72240000Y40580000D02*
X-72240000Y42580000D01*
%TO.C,SW2*%
X-44680000Y81200000D02*
X-44680000Y68000000D01*
X-44680000Y81200000D02*
X-38480000Y81200000D01*
X-44680000Y68000000D02*
X-38480000Y68000000D01*
X-43030000Y77070000D02*
X-40130000Y77070000D01*
X-43030000Y75870000D02*
X-43030000Y77070000D01*
X-40130000Y77070000D02*
X-40130000Y75870000D01*
X-40130000Y75870000D02*
X-43030000Y75870000D01*
X-38480000Y81200000D02*
X-38480000Y68000000D01*
%TO.C,P32*%
X-40245000Y24689000D02*
G75*
G02*
X-41645000Y24689000I-700000J0D01*
G01*
X-41645000Y24689000D02*
G75*
G02*
X-40245000Y24689000I700000J0D01*
G01*
%TO.C,R1*%
X-68137500Y45533742D02*
X-68137500Y46008258D01*
X-67092500Y45533742D02*
X-67092500Y46008258D01*
%TO.C,C3*%
X-54155000Y37656580D02*
X-54155000Y37375420D01*
X-53135000Y37656580D02*
X-53135000Y37375420D01*
%TO.C,SW3*%
X-52300000Y76755000D02*
X-52300000Y63555000D01*
X-52300000Y76755000D02*
X-46100000Y76755000D01*
X-52300000Y63555000D02*
X-46100000Y63555000D01*
X-50650000Y72625000D02*
X-47750000Y72625000D01*
X-50650000Y71425000D02*
X-50650000Y72625000D01*
X-47750000Y72625000D02*
X-47750000Y71425000D01*
X-47750000Y71425000D02*
X-50650000Y71425000D01*
X-46100000Y76755000D02*
X-46100000Y63555000D01*
%TO.C,C300*%
X-41139680Y29201568D02*
X-41139680Y28920408D01*
X-40119680Y29201568D02*
X-40119680Y28920408D01*
%TO.C,C10*%
X-39550000Y45122420D02*
X-39550000Y45403580D01*
X-38530000Y45122420D02*
X-38530000Y45403580D01*
%TO.C,C1*%
X-57330000Y25945420D02*
X-57330000Y26226580D01*
X-56310000Y25945420D02*
X-56310000Y26226580D01*
%TO.C,U2*%
X-65380000Y51780000D02*
X-65380000Y51220000D01*
X-65380000Y35180000D02*
X-65380000Y36630000D01*
X-65380000Y35180000D02*
X-65130000Y35180000D01*
X-56130000Y35180000D02*
X-55880000Y35180000D01*
X-55880000Y51780000D02*
X-65380000Y51780000D01*
X-55880000Y50330000D02*
X-55880000Y51780000D01*
X-55880000Y35740000D02*
X-55880000Y35180000D01*
X-55880000Y35740000D02*
X-54780000Y35740000D01*
%TO.C,P26*%
X-38848000Y56693000D02*
G75*
G02*
X-40248000Y56693000I-700000J0D01*
G01*
X-40248000Y56693000D02*
G75*
G02*
X-38848000Y56693000I700000J0D01*
G01*
%TO.C,P29*%
X-38848000Y50597000D02*
G75*
G02*
X-40248000Y50597000I-700000J0D01*
G01*
X-40248000Y50597000D02*
G75*
G02*
X-38848000Y50597000I700000J0D01*
G01*
%TO.C,R40*%
X-68264500Y39023258D02*
X-68264500Y38548742D01*
X-67219500Y39023258D02*
X-67219500Y38548742D01*
%TO.C,C6*%
X-41977838Y32045040D02*
X-41696678Y32045040D01*
X-41977838Y31025040D02*
X-41696678Y31025040D01*
%TO.C,U10*%
X-66442000Y31034000D02*
X-62682000Y31034000D01*
X-66442000Y24214000D02*
X-62682000Y24214000D01*
X-62682000Y31034000D02*
X-62682000Y29774000D01*
X-62682000Y24214000D02*
X-62682000Y25474000D01*
X-67722000Y30934000D02*
X-67962000Y31264000D01*
X-67482000Y31264000D01*
X-67722000Y30934000D01*
G36*
X-67722000Y30934000D02*
G01*
X-67962000Y31264000D01*
X-67482000Y31264000D01*
X-67722000Y30934000D01*
G37*
%TO.C,C500*%
X-42979000Y44995420D02*
X-42979000Y45276580D01*
X-41959000Y44995420D02*
X-41959000Y45276580D01*
%TO.C,SW5*%
X-83740000Y52300000D02*
X-70540000Y52300000D01*
X-83740000Y46100000D02*
X-83740000Y52300000D01*
X-83740000Y46100000D02*
X-70540000Y46100000D01*
X-79610000Y50650000D02*
X-78410000Y50650000D01*
X-79610000Y47750000D02*
X-79610000Y50650000D01*
X-78410000Y50650000D02*
X-78410000Y47750000D01*
X-78410000Y47750000D02*
X-79610000Y47750000D01*
X-70540000Y46100000D02*
X-70540000Y52300000D01*
%TO.C,SW6*%
X-83740000Y34520000D02*
X-70540000Y34520000D01*
X-83740000Y28320000D02*
X-83740000Y34520000D01*
X-83740000Y28320000D02*
X-70540000Y28320000D01*
X-79610000Y32870000D02*
X-78410000Y32870000D01*
X-79610000Y29970000D02*
X-79610000Y32870000D01*
X-78410000Y32870000D02*
X-78410000Y29970000D01*
X-78410000Y29970000D02*
X-79610000Y29970000D01*
X-70540000Y28320000D02*
X-70540000Y34520000D01*
%TO.C,D4*%
X-39220000Y65186000D02*
X-43230000Y65186000D01*
X-39220000Y63186000D02*
X-43230000Y63186000D01*
X-39220000Y63186000D02*
X-39220000Y65186000D01*
%TO.C,D5*%
X-39220000Y62646000D02*
X-43230000Y62646000D01*
X-39220000Y60646000D02*
X-43230000Y60646000D01*
X-39220000Y60646000D02*
X-39220000Y62646000D01*
%TO.C,D3*%
X-39220000Y67726000D02*
X-43230000Y67726000D01*
X-39220000Y65726000D02*
X-43230000Y65726000D01*
X-39220000Y65726000D02*
X-39220000Y67726000D01*
%TO.C,C14*%
X-48551420Y44122000D02*
X-48832580Y44122000D01*
X-48551420Y43102000D02*
X-48832580Y43102000D01*
%TO.C,D9*%
X-81786000Y42580000D02*
X-81786000Y40580000D01*
X-81786000Y42580000D02*
X-77776000Y42580000D01*
X-81786000Y40580000D02*
X-77776000Y40580000D01*
%TO.C,P27*%
X-38848000Y54661000D02*
G75*
G02*
X-40248000Y54661000I-700000J0D01*
G01*
X-40248000Y54661000D02*
G75*
G02*
X-38848000Y54661000I700000J0D01*
G01*
%TO.C,R100*%
X-52612258Y51627500D02*
X-52137742Y51627500D01*
X-52612258Y50582500D02*
X-52137742Y50582500D01*
%TO.C,P13*%
X-48500000Y34087000D02*
G75*
G02*
X-49900000Y34087000I-700000J0D01*
G01*
X-49900000Y34087000D02*
G75*
G02*
X-48500000Y34087000I700000J0D01*
G01*
%TO.C,P15*%
X-53072000Y33071000D02*
G75*
G02*
X-54472000Y33071000I-700000J0D01*
G01*
X-54472000Y33071000D02*
G75*
G02*
X-53072000Y33071000I700000J0D01*
G01*
%TO.C,C7*%
X-43360000Y48043420D02*
X-43360000Y48324580D01*
X-42340000Y48043420D02*
X-42340000Y48324580D01*
%TO.C,USB1*%
X-81000000Y23994000D02*
X-81000000Y25324000D01*
X-79670000Y23994000D02*
X-81000000Y23994000D01*
X-78400000Y26654000D02*
X-70720000Y26654000D01*
X-78400000Y23994000D02*
X-78400000Y26654000D01*
X-78400000Y23994000D02*
X-70720000Y23994000D01*
X-70720000Y23994000D02*
X-70720000Y26654000D01*
%TO.C,D12*%
X-72240000Y40040000D02*
X-76250000Y40040000D01*
X-72240000Y38040000D02*
X-76250000Y38040000D01*
X-72240000Y38040000D02*
X-72240000Y40040000D01*
%TO.C,SW4*%
X-64690000Y59920000D02*
X-51490000Y59920000D01*
X-64690000Y53720000D02*
X-64690000Y59920000D01*
X-64690000Y53720000D02*
X-51490000Y53720000D01*
X-60560000Y58270000D02*
X-59360000Y58270000D01*
X-60560000Y55370000D02*
X-60560000Y58270000D01*
X-59360000Y58270000D02*
X-59360000Y55370000D01*
X-59360000Y55370000D02*
X-60560000Y55370000D01*
X-51490000Y53720000D02*
X-51490000Y59920000D01*
%TO.C,C100*%
X-59870000Y25959420D02*
X-59870000Y26240580D01*
X-58850000Y25959420D02*
X-58850000Y26240580D01*
%TO.C,C4*%
X-54155000Y40423420D02*
X-54155000Y40704580D01*
X-53135000Y40423420D02*
X-53135000Y40704580D01*
%TO.C,C9*%
X-37899000Y36767580D02*
X-37899000Y36486420D01*
X-36879000Y36767580D02*
X-36879000Y36486420D01*
%TO.C,D6*%
X-39220000Y60106000D02*
X-43230000Y60106000D01*
X-39220000Y58106000D02*
X-43230000Y58106000D01*
X-39220000Y58106000D02*
X-39220000Y60106000D01*
%TO.C,P30*%
X-45325000Y24689000D02*
G75*
G02*
X-46725000Y24689000I-700000J0D01*
G01*
X-46725000Y24689000D02*
G75*
G02*
X-45325000Y24689000I700000J0D01*
G01*
%TO.C,C12*%
X-38026000Y42074420D02*
X-38026000Y42355580D01*
X-37006000Y42074420D02*
X-37006000Y42355580D01*
%TO.C,C200*%
X-45376420Y32311000D02*
X-45657580Y32311000D01*
X-45376420Y31291000D02*
X-45657580Y31291000D01*
%TO.C,U4*%
X-51820500Y50169500D02*
X-51820500Y49887000D01*
X-51820500Y44674500D02*
X-51820500Y44957000D01*
X-49073000Y50169500D02*
X-51820500Y50169500D01*
X-49073000Y50169500D02*
X-46325500Y50169500D01*
X-49073000Y44674500D02*
X-51820500Y44674500D01*
X-49073000Y44674500D02*
X-46325500Y44674500D01*
X-46325500Y50169500D02*
X-46325500Y49887000D01*
X-46325500Y44674500D02*
X-46325500Y44957000D01*
X-52591750Y49887000D02*
X-52831750Y50217000D01*
X-52351750Y50217000D01*
X-52591750Y49887000D01*
G36*
X-52591750Y49887000D02*
G01*
X-52831750Y50217000D01*
X-52351750Y50217000D01*
X-52591750Y49887000D01*
G37*
%TO.C,D2*%
X-77320000Y65186000D02*
X-81330000Y65186000D01*
X-77320000Y63186000D02*
X-81330000Y63186000D01*
X-77320000Y63186000D02*
X-77320000Y65186000D01*
%TO.C,P28*%
X-38848000Y52629000D02*
G75*
G02*
X-40248000Y52629000I-700000J0D01*
G01*
X-40248000Y52629000D02*
G75*
G02*
X-38848000Y52629000I700000J0D01*
G01*
%TO.C,P20*%
X-41388000Y53518000D02*
G75*
G02*
X-42788000Y53518000I-700000J0D01*
G01*
X-42788000Y53518000D02*
G75*
G02*
X-41388000Y53518000I700000J0D01*
G01*
%TO.C,P21*%
X-41388000Y51486000D02*
G75*
G02*
X-42788000Y51486000I-700000J0D01*
G01*
X-42788000Y51486000D02*
G75*
G02*
X-41388000Y51486000I700000J0D01*
G01*
%TO.C,R500*%
X-39689500Y30514258D02*
X-39689500Y30039742D01*
X-38644500Y30514258D02*
X-38644500Y30039742D01*
%TO.C,SW1*%
X-82780000Y81200000D02*
X-82780000Y68000000D01*
X-82780000Y81200000D02*
X-76580000Y81200000D01*
X-82780000Y68000000D02*
X-76580000Y68000000D01*
X-81130000Y77070000D02*
X-78230000Y77070000D01*
X-81130000Y75870000D02*
X-81130000Y77070000D01*
X-78230000Y77070000D02*
X-78230000Y75870000D01*
X-78230000Y75870000D02*
X-81130000Y75870000D01*
X-76580000Y81200000D02*
X-76580000Y68000000D01*
D13*
%TO.C,Encoder1*%
X-73920000Y76600000D02*
X-73120000Y76600000D01*
X-73920000Y67600000D02*
X-73120000Y67600000D01*
X-67820000Y76600000D02*
X-69520000Y76600000D01*
X-67820000Y67600000D02*
X-69520000Y67600000D01*
D12*
%TO.C,P31*%
X-42785000Y24689000D02*
G75*
G02*
X-44185000Y24689000I-700000J0D01*
G01*
X-44185000Y24689000D02*
G75*
G02*
X-42785000Y24689000I700000J0D01*
G01*
%TO.C,C2*%
X-57330000Y28993420D02*
X-57330000Y29274580D01*
X-56310000Y28993420D02*
X-56310000Y29274580D01*
%TO.C,C11*%
X-42101447Y33505916D02*
X-41820287Y33505916D01*
X-42101447Y32485916D02*
X-41820287Y32485916D01*
%TO.C,U1*%
X-53336000Y31020000D02*
X-49576000Y31020000D01*
X-53336000Y24200000D02*
X-49576000Y24200000D01*
X-49576000Y31020000D02*
X-49576000Y29760000D01*
X-49576000Y24200000D02*
X-49576000Y25460000D01*
X-54616000Y30920000D02*
X-54856000Y31250000D01*
X-54376000Y31250000D01*
X-54616000Y30920000D01*
G36*
X-54616000Y30920000D02*
G01*
X-54856000Y31250000D01*
X-54376000Y31250000D01*
X-54616000Y30920000D01*
G37*
%TO.C,D11*%
X-81786000Y40040000D02*
X-81786000Y38040000D01*
X-81786000Y40040000D02*
X-77776000Y40040000D01*
X-81786000Y38040000D02*
X-77776000Y38040000D01*
%TO.C,USB_BOOT1*%
X-47592000Y51613000D02*
G75*
G02*
X-49792000Y51613000I-1100000J0D01*
G01*
X-49792000Y51613000D02*
G75*
G02*
X-47592000Y51613000I1100000J0D01*
G01*
%TO.C,C8*%
X-39053580Y48059000D02*
X-38772420Y48059000D01*
X-39053580Y47039000D02*
X-38772420Y47039000D01*
%TO.C,D8*%
X-48676000Y54714000D02*
X-48676000Y58724000D01*
X-48676000Y54714000D02*
X-46676000Y54714000D01*
X-46676000Y54714000D02*
X-46676000Y58724000D01*
%TO.C,C15*%
X-50329420Y38407000D02*
X-50610580Y38407000D01*
X-50329420Y37387000D02*
X-50610580Y37387000D01*
%TO.C,P12*%
X-50532000Y36119000D02*
G75*
G02*
X-51932000Y36119000I-700000J0D01*
G01*
X-51932000Y36119000D02*
G75*
G02*
X-50532000Y36119000I700000J0D01*
G01*
%TO.C,R200*%
X-52137742Y53151500D02*
X-52612258Y53151500D01*
X-52137742Y52106500D02*
X-52612258Y52106500D01*
%TD*%
%LPC*%
D14*
%TO.C,D1*%
X-78030000Y66726000D03*
X-81330000Y66726000D03*
%TD*%
D15*
%TO.C,C13*%
X-37516000Y44488000D03*
X-37516000Y46038000D03*
%TD*%
D16*
%TO.C,P14*%
X-51232000Y34087000D03*
%TD*%
D15*
%TO.C,C400*%
X-59360000Y28373000D03*
X-59360000Y29923000D03*
%TD*%
D17*
%TO.C,REF\u002A\u002A*%
X-83490000Y25578000D03*
%TD*%
D18*
%TO.C,D7*%
X-50216000Y55424000D03*
X-50216000Y58724000D03*
%TD*%
D19*
%TO.C,R4*%
X-40691000Y45961000D03*
X-40691000Y44311000D03*
%TD*%
D16*
%TO.C,P11*%
X-49200000Y36119000D03*
%TD*%
D20*
%TO.C,Y1*%
X-44585000Y28157000D03*
X-42385000Y28157000D03*
X-42385000Y29857000D03*
X-44585000Y29857000D03*
%TD*%
D21*
%TO.C,U3*%
X-46282500Y41391000D03*
X-46282500Y40991000D03*
X-46282500Y40591000D03*
X-46282500Y40191000D03*
X-46282500Y39791000D03*
X-46282500Y39391000D03*
X-46282500Y38991000D03*
X-46282500Y38591000D03*
X-46282500Y38191000D03*
X-46282500Y37791000D03*
X-46282500Y37391000D03*
X-46282500Y36991000D03*
X-46282500Y36591000D03*
X-46282500Y36191000D03*
D22*
X-45445000Y35353500D03*
X-45045000Y35353500D03*
X-44645000Y35353500D03*
X-44245000Y35353500D03*
X-43845000Y35353500D03*
X-43445000Y35353500D03*
X-43045000Y35353500D03*
X-42645000Y35353500D03*
X-42245000Y35353500D03*
X-41845000Y35353500D03*
X-41445000Y35353500D03*
X-41045000Y35353500D03*
X-40645000Y35353500D03*
X-40245000Y35353500D03*
D21*
X-39407500Y36191000D03*
X-39407500Y36591000D03*
X-39407500Y36991000D03*
X-39407500Y37391000D03*
X-39407500Y37791000D03*
X-39407500Y38191000D03*
X-39407500Y38591000D03*
X-39407500Y38991000D03*
X-39407500Y39391000D03*
X-39407500Y39791000D03*
X-39407500Y40191000D03*
X-39407500Y40591000D03*
X-39407500Y40991000D03*
X-39407500Y41391000D03*
D22*
X-40245000Y42228500D03*
X-40645000Y42228500D03*
X-41045000Y42228500D03*
X-41445000Y42228500D03*
X-41845000Y42228500D03*
X-42245000Y42228500D03*
X-42645000Y42228500D03*
X-43045000Y42228500D03*
X-43445000Y42228500D03*
X-43845000Y42228500D03*
X-44245000Y42228500D03*
X-44645000Y42228500D03*
X-45045000Y42228500D03*
X-45445000Y42228500D03*
D23*
X-42845000Y38791000D03*
%TD*%
D19*
%TO.C,R3*%
X-41326000Y49009000D03*
X-41326000Y47359000D03*
%TD*%
D14*
%TO.C,D10*%
X-72950000Y41580000D03*
X-76250000Y41580000D03*
%TD*%
D17*
%TO.C,REF\u002A\u002A*%
X-37770000Y25578000D03*
%TD*%
%TO.C,SW2*%
X-41580000Y74600000D03*
D24*
X-41580000Y79680000D03*
D17*
X-41580000Y69520000D03*
%TD*%
D16*
%TO.C,P32*%
X-40945000Y24689000D03*
%TD*%
D25*
%TO.C,R1*%
X-67615000Y44946000D03*
X-67615000Y46596000D03*
%TD*%
D26*
%TO.C,C3*%
X-53645000Y38291000D03*
X-53645000Y36741000D03*
%TD*%
D17*
%TO.C,SW3*%
X-49200000Y70155000D03*
D24*
X-49200000Y75235000D03*
D17*
X-49200000Y65075000D03*
%TD*%
D26*
%TO.C,C300*%
X-40629680Y29835988D03*
X-40629680Y28285988D03*
%TD*%
D15*
%TO.C,C10*%
X-39040000Y44488000D03*
X-39040000Y46038000D03*
%TD*%
%TO.C,C1*%
X-56820000Y25311000D03*
X-56820000Y26861000D03*
%TD*%
D27*
%TO.C,U2*%
X-55280000Y36900000D03*
D28*
X-55280000Y38680000D03*
X-55280000Y40460000D03*
X-55280000Y42240000D03*
X-55280000Y44020000D03*
X-55280000Y45800000D03*
X-55280000Y47580000D03*
X-55280000Y49360000D03*
X-65980000Y50250000D03*
X-65980000Y48470000D03*
X-65980000Y46690000D03*
X-65980000Y44910000D03*
X-65980000Y43130000D03*
X-65980000Y41350000D03*
X-65980000Y39570000D03*
X-65980000Y37790000D03*
%TD*%
D16*
%TO.C,P26*%
X-39548000Y56693000D03*
%TD*%
%TO.C,P29*%
X-39548000Y50597000D03*
%TD*%
D19*
%TO.C,R40*%
X-67742000Y39611000D03*
X-67742000Y37961000D03*
%TD*%
D29*
%TO.C,C6*%
X-42612258Y31535040D03*
X-41062258Y31535040D03*
%TD*%
D30*
%TO.C,U10*%
X-67742000Y29924000D03*
X-67742000Y27624000D03*
D31*
X-61442000Y27624000D03*
D30*
X-67742000Y25324000D03*
%TD*%
D15*
%TO.C,C500*%
X-42469000Y44361000D03*
X-42469000Y45911000D03*
%TD*%
D17*
%TO.C,SW5*%
X-77140000Y49200000D03*
D24*
X-82220000Y49200000D03*
D17*
X-72060000Y49200000D03*
%TD*%
%TO.C,REF\u002A\u002A*%
X-83490000Y83236000D03*
%TD*%
%TO.C,SW6*%
X-77140000Y31420000D03*
D24*
X-82220000Y31420000D03*
D17*
X-72060000Y31420000D03*
%TD*%
D14*
%TO.C,D4*%
X-39930000Y64186000D03*
X-43230000Y64186000D03*
%TD*%
%TO.C,D5*%
X-39930000Y61646000D03*
X-43230000Y61646000D03*
%TD*%
%TO.C,D3*%
X-39930000Y66726000D03*
X-43230000Y66726000D03*
%TD*%
D32*
%TO.C,C14*%
X-47917000Y43612000D03*
X-49467000Y43612000D03*
%TD*%
D33*
%TO.C,D9*%
X-81076000Y41580000D03*
X-77776000Y41580000D03*
%TD*%
D16*
%TO.C,P27*%
X-39548000Y54661000D03*
%TD*%
D34*
%TO.C,R100*%
X-53200000Y51105000D03*
X-51550000Y51105000D03*
%TD*%
D16*
%TO.C,P13*%
X-49200000Y34087000D03*
%TD*%
%TO.C,P15*%
X-53772000Y33071000D03*
%TD*%
D17*
%TO.C,REF\u002A\u002A*%
X-37770000Y83236000D03*
%TD*%
D15*
%TO.C,C7*%
X-42850000Y47409000D03*
X-42850000Y48959000D03*
%TD*%
D35*
%TO.C,USB1*%
X-79670000Y25324000D03*
D36*
X-77130000Y25324000D03*
X-74590000Y25324000D03*
X-72050000Y25324000D03*
%TD*%
D14*
%TO.C,D12*%
X-72950000Y39040000D03*
X-76250000Y39040000D03*
%TD*%
D17*
%TO.C,SW4*%
X-58090000Y56820000D03*
D24*
X-63170000Y56820000D03*
D17*
X-53010000Y56820000D03*
%TD*%
D15*
%TO.C,C100*%
X-59360000Y25325000D03*
X-59360000Y26875000D03*
%TD*%
%TO.C,C4*%
X-53645000Y39789000D03*
X-53645000Y41339000D03*
%TD*%
D26*
%TO.C,C9*%
X-37389000Y37402000D03*
X-37389000Y35852000D03*
%TD*%
D14*
%TO.C,D6*%
X-39930000Y59106000D03*
X-43230000Y59106000D03*
%TD*%
D16*
%TO.C,P30*%
X-46025000Y24689000D03*
%TD*%
D15*
%TO.C,C12*%
X-37516000Y41440000D03*
X-37516000Y42990000D03*
%TD*%
D32*
%TO.C,C200*%
X-44742000Y31801000D03*
X-46292000Y31801000D03*
%TD*%
D37*
%TO.C,U4*%
X-52673000Y49327000D03*
X-52673000Y48057000D03*
X-52673000Y46787000D03*
X-52673000Y45517000D03*
X-45473000Y45517000D03*
X-45473000Y46787000D03*
X-45473000Y48057000D03*
X-45473000Y49327000D03*
%TD*%
D14*
%TO.C,D2*%
X-78030000Y64186000D03*
X-81330000Y64186000D03*
%TD*%
D16*
%TO.C,P28*%
X-39548000Y52629000D03*
%TD*%
%TO.C,P20*%
X-42088000Y53518000D03*
%TD*%
%TO.C,P21*%
X-42088000Y51486000D03*
%TD*%
D19*
%TO.C,R500*%
X-39167000Y31102000D03*
X-39167000Y29452000D03*
%TD*%
D17*
%TO.C,SW1*%
X-79680000Y74600000D03*
D24*
X-79680000Y79680000D03*
D17*
X-79680000Y69520000D03*
%TD*%
D38*
%TO.C,Encoder1*%
X-71520000Y67600000D03*
X-71520000Y76600000D03*
D39*
X-69520000Y69600000D03*
X-69520000Y72100000D03*
X-69520000Y74600000D03*
%TD*%
D16*
%TO.C,P31*%
X-43485000Y24689000D03*
%TD*%
D15*
%TO.C,C2*%
X-56820000Y28359000D03*
X-56820000Y29909000D03*
%TD*%
D29*
%TO.C,C11*%
X-42735867Y32995916D03*
X-41185867Y32995916D03*
%TD*%
D30*
%TO.C,U1*%
X-54636000Y29910000D03*
X-54636000Y27610000D03*
D31*
X-48336000Y27610000D03*
D30*
X-54636000Y25310000D03*
%TD*%
D33*
%TO.C,D11*%
X-81076000Y39040000D03*
X-77776000Y39040000D03*
%TD*%
D40*
%TO.C,USB_BOOT1*%
X-48692000Y51613000D03*
%TD*%
D29*
%TO.C,C8*%
X-39688000Y47549000D03*
X-38138000Y47549000D03*
%TD*%
D18*
%TO.C,D8*%
X-47676000Y55424000D03*
X-47676000Y58724000D03*
%TD*%
D32*
%TO.C,C15*%
X-49695000Y37897000D03*
X-51245000Y37897000D03*
%TD*%
D16*
%TO.C,P12*%
X-51232000Y36119000D03*
%TD*%
D41*
%TO.C,R200*%
X-51550000Y52629000D03*
X-53200000Y52629000D03*
%TD*%
%LPD*%
M02*
