%TF.GenerationSoftware,KiCad,Pcbnew,8.0.5*%
%TF.CreationDate,2024-10-23T01:30:23+03:00*%
%TF.ProjectId,mouse_pic,6d6f7573-655f-4706-9963-2e6b69636164,rev?*%
%TF.SameCoordinates,Original*%
%TF.FileFunction,Copper,L1,Top*%
%TF.FilePolarity,Positive*%
%FSLAX46Y46*%
G04 Gerber Fmt 4.6, Leading zero omitted, Abs format (unit mm)*
G04 Created by KiCad (PCBNEW 8.0.5) date 2024-10-23 01:30:23*
%MOMM*%
%LPD*%
G01*
G04 APERTURE LIST*
G04 Aperture macros list*
%AMRoundRect*
0 Rectangle with rounded corners*
0 $1 Rounding radius*
0 $2 $3 $4 $5 $6 $7 $8 $9 X,Y pos of 4 corners*
0 Add a 4 corners polygon primitive as box body*
4,1,4,$2,$3,$4,$5,$6,$7,$8,$9,$2,$3,0*
0 Add four circle primitives for the rounded corners*
1,1,$1+$1,$2,$3*
1,1,$1+$1,$4,$5*
1,1,$1+$1,$6,$7*
1,1,$1+$1,$8,$9*
0 Add four rect primitives between the rounded corners*
20,1,$1+$1,$2,$3,$4,$5,0*
20,1,$1+$1,$4,$5,$6,$7,0*
20,1,$1+$1,$6,$7,$8,$9,0*
20,1,$1+$1,$8,$9,$2,$3,0*%
G04 Aperture macros list end*
%TA.AperFunction,SMDPad,CuDef*%
%ADD10RoundRect,0.225000X0.225000X0.375000X-0.225000X0.375000X-0.225000X-0.375000X0.225000X-0.375000X0*%
%TD*%
%TA.AperFunction,SMDPad,CuDef*%
%ADD11RoundRect,0.225000X0.250000X-0.225000X0.250000X0.225000X-0.250000X0.225000X-0.250000X-0.225000X0*%
%TD*%
%TA.AperFunction,SMDPad,CuDef*%
%ADD12C,1.000000*%
%TD*%
%TA.AperFunction,SMDPad,CuDef*%
%ADD13RoundRect,0.225000X0.375000X-0.225000X0.375000X0.225000X-0.375000X0.225000X-0.375000X-0.225000X0*%
%TD*%
%TA.AperFunction,SMDPad,CuDef*%
%ADD14RoundRect,0.200000X-0.275000X0.200000X-0.275000X-0.200000X0.275000X-0.200000X0.275000X0.200000X0*%
%TD*%
%TA.AperFunction,SMDPad,CuDef*%
%ADD15R,1.400000X1.200000*%
%TD*%
%TA.AperFunction,SMDPad,CuDef*%
%ADD16RoundRect,0.050000X-0.387500X-0.050000X0.387500X-0.050000X0.387500X0.050000X-0.387500X0.050000X0*%
%TD*%
%TA.AperFunction,SMDPad,CuDef*%
%ADD17RoundRect,0.050000X-0.050000X-0.387500X0.050000X-0.387500X0.050000X0.387500X-0.050000X0.387500X0*%
%TD*%
%TA.AperFunction,ComponentPad*%
%ADD18C,0.600000*%
%TD*%
%TA.AperFunction,SMDPad,CuDef*%
%ADD19RoundRect,0.144000X-1.456000X-1.456000X1.456000X-1.456000X1.456000X1.456000X-1.456000X1.456000X0*%
%TD*%
%TA.AperFunction,ComponentPad*%
%ADD20C,2.200000*%
%TD*%
%TA.AperFunction,ComponentPad*%
%ADD21R,2.200000X2.200000*%
%TD*%
%TA.AperFunction,SMDPad,CuDef*%
%ADD22RoundRect,0.200000X0.275000X-0.200000X0.275000X0.200000X-0.275000X0.200000X-0.275000X-0.200000X0*%
%TD*%
%TA.AperFunction,SMDPad,CuDef*%
%ADD23RoundRect,0.225000X-0.250000X0.225000X-0.250000X-0.225000X0.250000X-0.225000X0.250000X0.225000X0*%
%TD*%
%TA.AperFunction,ComponentPad*%
%ADD24R,1.200000X1.200000*%
%TD*%
%TA.AperFunction,ComponentPad*%
%ADD25C,1.200000*%
%TD*%
%TA.AperFunction,SMDPad,CuDef*%
%ADD26RoundRect,0.225000X-0.225000X-0.250000X0.225000X-0.250000X0.225000X0.250000X-0.225000X0.250000X0*%
%TD*%
%TA.AperFunction,SMDPad,CuDef*%
%ADD27RoundRect,0.375000X-0.625000X-0.375000X0.625000X-0.375000X0.625000X0.375000X-0.625000X0.375000X0*%
%TD*%
%TA.AperFunction,SMDPad,CuDef*%
%ADD28RoundRect,0.500000X-0.500000X-1.400000X0.500000X-1.400000X0.500000X1.400000X-0.500000X1.400000X0*%
%TD*%
%TA.AperFunction,SMDPad,CuDef*%
%ADD29RoundRect,0.225000X0.225000X0.250000X-0.225000X0.250000X-0.225000X-0.250000X0.225000X-0.250000X0*%
%TD*%
%TA.AperFunction,SMDPad,CuDef*%
%ADD30RoundRect,0.225000X-0.225000X-0.375000X0.225000X-0.375000X0.225000X0.375000X-0.225000X0.375000X0*%
%TD*%
%TA.AperFunction,SMDPad,CuDef*%
%ADD31RoundRect,0.200000X-0.200000X-0.275000X0.200000X-0.275000X0.200000X0.275000X-0.200000X0.275000X0*%
%TD*%
%TA.AperFunction,ComponentPad*%
%ADD32R,1.700000X1.700000*%
%TD*%
%TA.AperFunction,ComponentPad*%
%ADD33O,1.700000X1.700000*%
%TD*%
%TA.AperFunction,SMDPad,CuDef*%
%ADD34RoundRect,0.150000X-0.650000X-0.150000X0.650000X-0.150000X0.650000X0.150000X-0.650000X0.150000X0*%
%TD*%
%TA.AperFunction,ComponentPad*%
%ADD35RoundRect,0.625000X0.875000X-0.625000X0.875000X0.625000X-0.875000X0.625000X-0.875000X-0.625000X0*%
%TD*%
%TA.AperFunction,ComponentPad*%
%ADD36O,1.700000X1.400000*%
%TD*%
%TA.AperFunction,ComponentPad*%
%ADD37C,1.900000*%
%TD*%
%TA.AperFunction,SMDPad,CuDef*%
%ADD38RoundRect,0.200000X0.200000X0.275000X-0.200000X0.275000X-0.200000X-0.275000X0.200000X-0.275000X0*%
%TD*%
%TA.AperFunction,ViaPad*%
%ADD39C,0.800000*%
%TD*%
%TA.AperFunction,Conductor*%
%ADD40C,0.250000*%
%TD*%
%TA.AperFunction,Conductor*%
%ADD41C,0.500000*%
%TD*%
%TA.AperFunction,Conductor*%
%ADD42C,0.200000*%
%TD*%
G04 APERTURE END LIST*
D10*
%TO.P,D1,1,K*%
%TO.N,/GPIO0*%
X-78030000Y66726000D03*
%TO.P,D1,2,A*%
%TO.N,Net-(D1-A)*%
X-81330000Y66726000D03*
%TD*%
D11*
%TO.P,C13,1*%
%TO.N,+3V3*%
X-37516000Y44488000D03*
%TO.P,C13,2*%
%TO.N,GND*%
X-37516000Y46038000D03*
%TD*%
D12*
%TO.P,P14,1,1*%
%TO.N,/GPIO14*%
X-51232000Y34087000D03*
%TD*%
D11*
%TO.P,C400,1*%
%TO.N,+3V3*%
X-59360000Y28373000D03*
%TO.P,C400,2*%
%TO.N,GND*%
X-59360000Y29923000D03*
%TD*%
D13*
%TO.P,D7,1,K*%
%TO.N,/GPIO0*%
X-50216000Y55424000D03*
%TO.P,D7,2,A*%
%TO.N,Net-(D7-A)*%
X-50216000Y58724000D03*
%TD*%
D14*
%TO.P,R4,1*%
%TO.N,/USBD-*%
X-40691000Y45961000D03*
%TO.P,R4,2*%
%TO.N,Net-(U3-USB_DM)*%
X-40691000Y44311000D03*
%TD*%
D12*
%TO.P,P11,1,1*%
%TO.N,/GPIO11*%
X-49200000Y36119000D03*
%TD*%
D15*
%TO.P,Y1,1,1*%
%TO.N,/XIN*%
X-44585000Y28157000D03*
%TO.P,Y1,2,2*%
%TO.N,GND*%
X-42385000Y28157000D03*
%TO.P,Y1,3,3*%
%TO.N,Net-(C300-Pad1)*%
X-42385000Y29857000D03*
%TO.P,Y1,4,4*%
%TO.N,GND*%
X-44585000Y29857000D03*
%TD*%
D16*
%TO.P,U3,1,IOVDD*%
%TO.N,+3V3*%
X-46282500Y41391000D03*
%TO.P,U3,2,GPIO0*%
%TO.N,/GPIO0*%
X-46282500Y40991000D03*
%TO.P,U3,3,GPIO1*%
%TO.N,/GPIO1*%
X-46282500Y40591000D03*
%TO.P,U3,4,GPIO2*%
%TO.N,/GPIO2*%
X-46282500Y40191000D03*
%TO.P,U3,5,GPIO3*%
%TO.N,/GPIO3*%
X-46282500Y39791000D03*
%TO.P,U3,6,GPIO4*%
%TO.N,/GPIO4*%
X-46282500Y39391000D03*
%TO.P,U3,7,GPIO5*%
%TO.N,/GPIO5*%
X-46282500Y38991000D03*
%TO.P,U3,8,GPIO6*%
%TO.N,/GPIO6*%
X-46282500Y38591000D03*
%TO.P,U3,9,GPIO7*%
%TO.N,/GPIO7*%
X-46282500Y38191000D03*
%TO.P,U3,10,IOVDD*%
%TO.N,+3V3*%
X-46282500Y37791000D03*
%TO.P,U3,11,GPIO8*%
%TO.N,/ENC_A*%
X-46282500Y37391000D03*
%TO.P,U3,12,GPIO9*%
%TO.N,/ENC_C*%
X-46282500Y36991000D03*
%TO.P,U3,13,GPIO10*%
%TO.N,/ENC_B*%
X-46282500Y36591000D03*
%TO.P,U3,14,GPIO11*%
%TO.N,/GPIO11*%
X-46282500Y36191000D03*
D17*
%TO.P,U3,15,GPIO12*%
%TO.N,/GPIO12*%
X-45445000Y35353500D03*
%TO.P,U3,16,GPIO13*%
%TO.N,/GPIO13*%
X-45045000Y35353500D03*
%TO.P,U3,17,GPIO14*%
%TO.N,/GPIO14*%
X-44645000Y35353500D03*
%TO.P,U3,18,GPIO15*%
%TO.N,/GPIO15*%
X-44245000Y35353500D03*
%TO.P,U3,19,TESTEN*%
%TO.N,GND*%
X-43845000Y35353500D03*
%TO.P,U3,20,XIN*%
%TO.N,/XIN*%
X-43445000Y35353500D03*
%TO.P,U3,21,XOUT*%
%TO.N,/XOUT*%
X-43045000Y35353500D03*
%TO.P,U3,22,IOVDD*%
%TO.N,+3V3*%
X-42645000Y35353500D03*
%TO.P,U3,23,DVDD*%
%TO.N,+1V1*%
X-42245000Y35353500D03*
%TO.P,U3,24,SWCLK*%
%TO.N,/SWCLK*%
X-41845000Y35353500D03*
%TO.P,U3,25,SWD*%
%TO.N,/SWD*%
X-41445000Y35353500D03*
%TO.P,U3,26,RUN*%
%TO.N,/RUN*%
X-41045000Y35353500D03*
%TO.P,U3,27,GPIO16*%
%TO.N,/GPIO16*%
X-40645000Y35353500D03*
%TO.P,U3,28,GPIO17*%
%TO.N,/GPIO17*%
X-40245000Y35353500D03*
D16*
%TO.P,U3,29,GPIO18*%
%TO.N,/GPIO18*%
X-39407500Y36191000D03*
%TO.P,U3,30,GPIO19*%
%TO.N,/GPIO19*%
X-39407500Y36591000D03*
%TO.P,U3,31,GPIO20*%
%TO.N,/GPIO20*%
X-39407500Y36991000D03*
%TO.P,U3,32,GPIO21*%
%TO.N,/GPIO21*%
X-39407500Y37391000D03*
%TO.P,U3,33,IOVDD*%
%TO.N,+3V3*%
X-39407500Y37791000D03*
%TO.P,U3,34,GPIO22*%
%TO.N,/GPIO22*%
X-39407500Y38191000D03*
%TO.P,U3,35,GPIO23*%
%TO.N,/GPIO23*%
X-39407500Y38591000D03*
%TO.P,U3,36,GPIO24*%
%TO.N,/GPIO24*%
X-39407500Y38991000D03*
%TO.P,U3,37,GPIO25*%
%TO.N,/GPIO25*%
X-39407500Y39391000D03*
%TO.P,U3,38,GPIO26_ADC0*%
%TO.N,/GPIO26_ADC0*%
X-39407500Y39791000D03*
%TO.P,U3,39,GPIO27_ADC1*%
%TO.N,/GPIO27_ADC1*%
X-39407500Y40191000D03*
%TO.P,U3,40,GPIO28_ADC2*%
%TO.N,/GPIO28_ADC2*%
X-39407500Y40591000D03*
%TO.P,U3,41,GPIO29_ADC3*%
%TO.N,/GPIO29_ADC3*%
X-39407500Y40991000D03*
%TO.P,U3,42,IOVDD*%
%TO.N,+3V3*%
X-39407500Y41391000D03*
D17*
%TO.P,U3,43,ADC_AVDD*%
X-40245000Y42228500D03*
%TO.P,U3,44,VREG_IN*%
X-40645000Y42228500D03*
%TO.P,U3,45,VREG_VOUT*%
%TO.N,+1V1*%
X-41045000Y42228500D03*
%TO.P,U3,46,USB_DM*%
%TO.N,Net-(U3-USB_DM)*%
X-41445000Y42228500D03*
%TO.P,U3,47,USB_DP*%
%TO.N,Net-(U3-USB_DP)*%
X-41845000Y42228500D03*
%TO.P,U3,48,USB_VDD*%
%TO.N,+3V3*%
X-42245000Y42228500D03*
%TO.P,U3,49,IOVDD*%
X-42645000Y42228500D03*
%TO.P,U3,50,DVDD*%
%TO.N,+1V1*%
X-43045000Y42228500D03*
%TO.P,U3,51,QSPI_SD3*%
%TO.N,/QSPI_SD3*%
X-43445000Y42228500D03*
%TO.P,U3,52,QSPI_SCLK*%
%TO.N,/QSPI_SCLK*%
X-43845000Y42228500D03*
%TO.P,U3,53,QSPI_SD0*%
%TO.N,/QSPI_SD0*%
X-44245000Y42228500D03*
%TO.P,U3,54,QSPI_SD2*%
%TO.N,/QSPI_SD2*%
X-44645000Y42228500D03*
%TO.P,U3,55,QSPI_SD1*%
%TO.N,/QSPI_SD1*%
X-45045000Y42228500D03*
%TO.P,U3,56,QSPI_SS*%
%TO.N,/QSPI_SS*%
X-45445000Y42228500D03*
D18*
%TO.P,U3,57,GND*%
%TO.N,GND*%
X-44120000Y40066000D03*
X-44120000Y38791000D03*
X-44120000Y37516000D03*
X-42845000Y40066000D03*
X-42845000Y38791000D03*
D19*
X-42845000Y38791000D03*
D18*
X-42845000Y37516000D03*
X-41570000Y40066000D03*
X-41570000Y38791000D03*
X-41570000Y37516000D03*
%TD*%
D14*
%TO.P,R3,1*%
%TO.N,/USBD+*%
X-41326000Y49009000D03*
%TO.P,R3,2*%
%TO.N,Net-(U3-USB_DP)*%
X-41326000Y47359000D03*
%TD*%
D10*
%TO.P,D10,1,K*%
%TO.N,/GPIO1*%
X-72950000Y41580000D03*
%TO.P,D10,2,A*%
%TO.N,Net-(D10-A)*%
X-76250000Y41580000D03*
%TD*%
D20*
%TO.P,SW2,1,A*%
%TO.N,Net-(D3-A)*%
X-41580000Y74600000D03*
D21*
%TO.P,SW2,2,B*%
%TO.N,/GPIO3*%
X-41580000Y79680000D03*
D20*
%TO.P,SW2,3,C*%
%TO.N,Net-(D4-A)*%
X-41580000Y69520000D03*
%TD*%
D12*
%TO.P,P32,1,1*%
%TO.N,/SWD*%
X-40945000Y24689000D03*
%TD*%
D22*
%TO.P,R1,1*%
%TO.N,/GPIO16*%
X-67615000Y44946000D03*
%TO.P,R1,2*%
%TO.N,+3V3*%
X-67615000Y46596000D03*
%TD*%
D23*
%TO.P,C3,1*%
%TO.N,/VDDPIX*%
X-53645000Y38291000D03*
%TO.P,C3,2*%
%TO.N,GND*%
X-53645000Y36741000D03*
%TD*%
D20*
%TO.P,SW3,1,A*%
%TO.N,Net-(D5-A)*%
X-49200000Y70155000D03*
D21*
%TO.P,SW3,2,B*%
%TO.N,/GPIO4*%
X-49200000Y75235000D03*
D20*
%TO.P,SW3,3,C*%
%TO.N,Net-(D6-A)*%
X-49200000Y65075000D03*
%TD*%
D23*
%TO.P,C300,1*%
%TO.N,Net-(C300-Pad1)*%
X-40629680Y29835988D03*
%TO.P,C300,2*%
%TO.N,GND*%
X-40629680Y28285988D03*
%TD*%
D11*
%TO.P,C10,1*%
%TO.N,+3V3*%
X-39040000Y44488000D03*
%TO.P,C10,2*%
%TO.N,GND*%
X-39040000Y46038000D03*
%TD*%
%TO.P,C1,1*%
%TO.N,+3V3*%
X-56820000Y25311000D03*
%TO.P,C1,2*%
%TO.N,GND*%
X-56820000Y26861000D03*
%TD*%
D24*
%TO.P,U2,1,NA*%
%TO.N,unconnected-(U2-NA-Pad1)*%
X-55280000Y36900000D03*
D25*
%TO.P,U2,2,NA*%
%TO.N,unconnected-(U2-NA-Pad2)*%
X-55280000Y38680000D03*
%TO.P,U2,3,VDDPIX*%
%TO.N,/VDDPIX*%
X-55280000Y40460000D03*
%TO.P,U2,4,VDD*%
%TO.N,/V2*%
X-55280000Y42240000D03*
%TO.P,U2,5,VDDIO*%
%TO.N,+3V3*%
X-55280000Y44020000D03*
%TO.P,U2,6,NA*%
%TO.N,unconnected-(U2-NA-Pad6)*%
X-55280000Y45800000D03*
%TO.P,U2,7,~RESET*%
%TO.N,unconnected-(U2-~RESET-Pad7)*%
X-55280000Y47580000D03*
%TO.P,U2,8,GND*%
%TO.N,GND*%
X-55280000Y49360000D03*
%TO.P,U2,9,~MOTION*%
%TO.N,/MOTION*%
X-65980000Y50250000D03*
%TO.P,U2,10,SCLK*%
%TO.N,/GPIO18*%
X-65980000Y48470000D03*
%TO.P,U2,11,MOSI*%
%TO.N,/GPIO19*%
X-65980000Y46690000D03*
%TO.P,U2,12,MISO*%
%TO.N,/GPIO16*%
X-65980000Y44910000D03*
%TO.P,U2,13,NCS*%
%TO.N,/GPIO17*%
X-65980000Y43130000D03*
%TO.P,U2,14,NA*%
%TO.N,unconnected-(U2-NA-Pad14)*%
X-65980000Y41350000D03*
%TO.P,U2,15,LED_P*%
%TO.N,/3360LED*%
X-65980000Y39570000D03*
%TO.P,U2,16,NA*%
%TO.N,unconnected-(U2-NA-Pad16)*%
X-65980000Y37790000D03*
%TD*%
D12*
%TO.P,P26,1,1*%
%TO.N,/GPIO26_ADC0*%
X-39548000Y56693000D03*
%TD*%
%TO.P,P29,1,1*%
%TO.N,/GPIO29_ADC3*%
X-39548000Y50597000D03*
%TD*%
D14*
%TO.P,R40,1*%
%TO.N,/3360LED*%
X-67742000Y39611000D03*
%TO.P,R40,2*%
%TO.N,/V2*%
X-67742000Y37961000D03*
%TD*%
D26*
%TO.P,C6,1*%
%TO.N,+1V1*%
X-42612258Y31535040D03*
%TO.P,C6,2*%
%TO.N,GND*%
X-41062258Y31535040D03*
%TD*%
D27*
%TO.P,U10,1,GND*%
%TO.N,GND*%
X-67742000Y29924000D03*
%TO.P,U10,2,VO*%
%TO.N,+3V3*%
X-67742000Y27624000D03*
D28*
X-61442000Y27624000D03*
D27*
%TO.P,U10,3,VI*%
%TO.N,VBUS*%
X-67742000Y25324000D03*
%TD*%
D11*
%TO.P,C500,1*%
%TO.N,+3V3*%
X-42469000Y44361000D03*
%TO.P,C500,2*%
%TO.N,GND*%
X-42469000Y45911000D03*
%TD*%
D20*
%TO.P,SW5,1,A*%
%TO.N,Net-(D9-A)*%
X-77140000Y49200000D03*
D21*
%TO.P,SW5,2,B*%
%TO.N,/GPIO7*%
X-82220000Y49200000D03*
D20*
%TO.P,SW5,3,C*%
%TO.N,Net-(D10-A)*%
X-72060000Y49200000D03*
%TD*%
%TO.P,SW6,1,A*%
%TO.N,Net-(D11-A)*%
X-77140000Y31420000D03*
D21*
%TO.P,SW6,2,B*%
%TO.N,/GPIO6*%
X-82220000Y31420000D03*
D20*
%TO.P,SW6,3,C*%
%TO.N,Net-(D12-A)*%
X-72060000Y31420000D03*
%TD*%
D10*
%TO.P,D4,1,K*%
%TO.N,/GPIO1*%
X-39930000Y64186000D03*
%TO.P,D4,2,A*%
%TO.N,Net-(D4-A)*%
X-43230000Y64186000D03*
%TD*%
%TO.P,D5,1,K*%
%TO.N,/GPIO0*%
X-39930000Y61646000D03*
%TO.P,D5,2,A*%
%TO.N,Net-(D5-A)*%
X-43230000Y61646000D03*
%TD*%
%TO.P,D3,1,K*%
%TO.N,/GPIO0*%
X-39930000Y66726000D03*
%TO.P,D3,2,A*%
%TO.N,Net-(D3-A)*%
X-43230000Y66726000D03*
%TD*%
D29*
%TO.P,C14,1*%
%TO.N,+3V3*%
X-47917000Y43612000D03*
%TO.P,C14,2*%
%TO.N,GND*%
X-49467000Y43612000D03*
%TD*%
D30*
%TO.P,D9,1,K*%
%TO.N,/GPIO0*%
X-81076000Y41580000D03*
%TO.P,D9,2,A*%
%TO.N,Net-(D9-A)*%
X-77776000Y41580000D03*
%TD*%
D12*
%TO.P,P27,1,1*%
%TO.N,/GPIO27_ADC1*%
X-39548000Y54661000D03*
%TD*%
D31*
%TO.P,R100,1*%
%TO.N,/QSPI_SS*%
X-53200000Y51105000D03*
%TO.P,R100,2*%
%TO.N,/~{USB_BOOT}*%
X-51550000Y51105000D03*
%TD*%
D12*
%TO.P,P13,1,1*%
%TO.N,/GPIO13*%
X-49200000Y34087000D03*
%TD*%
%TO.P,P15,1,1*%
%TO.N,/GPIO15*%
X-53772000Y33071000D03*
%TD*%
D11*
%TO.P,C7,1*%
%TO.N,+1V1*%
X-42850000Y47409000D03*
%TO.P,C7,2*%
%TO.N,GND*%
X-42850000Y48959000D03*
%TD*%
D32*
%TO.P,USB1,1,Pin_1*%
%TO.N,GND*%
X-79670000Y25324000D03*
D33*
%TO.P,USB1,2,Pin_2*%
%TO.N,/USBD-*%
X-77130000Y25324000D03*
%TO.P,USB1,3,Pin_3*%
%TO.N,/USBD+*%
X-74590000Y25324000D03*
%TO.P,USB1,4,Pin_4*%
%TO.N,VBUS*%
X-72050000Y25324000D03*
%TD*%
D10*
%TO.P,D12,1,K*%
%TO.N,/GPIO1*%
X-72950000Y39040000D03*
%TO.P,D12,2,A*%
%TO.N,Net-(D12-A)*%
X-76250000Y39040000D03*
%TD*%
D20*
%TO.P,SW4,1,A*%
%TO.N,Net-(D7-A)*%
X-58090000Y56820000D03*
D21*
%TO.P,SW4,2,B*%
%TO.N,/GPIO5*%
X-63170000Y56820000D03*
D20*
%TO.P,SW4,3,C*%
%TO.N,Net-(D8-A)*%
X-53010000Y56820000D03*
%TD*%
D11*
%TO.P,C100,1*%
%TO.N,VBUS*%
X-59360000Y25325000D03*
%TO.P,C100,2*%
%TO.N,GND*%
X-59360000Y26875000D03*
%TD*%
%TO.P,C4,1*%
%TO.N,/VDDPIX*%
X-53645000Y39789000D03*
%TO.P,C4,2*%
%TO.N,GND*%
X-53645000Y41339000D03*
%TD*%
D23*
%TO.P,C9,1*%
%TO.N,+3V3*%
X-37389000Y37402000D03*
%TO.P,C9,2*%
%TO.N,GND*%
X-37389000Y35852000D03*
%TD*%
D10*
%TO.P,D6,1,K*%
%TO.N,/GPIO1*%
X-39930000Y59106000D03*
%TO.P,D6,2,A*%
%TO.N,Net-(D6-A)*%
X-43230000Y59106000D03*
%TD*%
D12*
%TO.P,P30,1,1*%
%TO.N,/RUN*%
X-46025000Y24689000D03*
%TD*%
D11*
%TO.P,C12,1*%
%TO.N,+3V3*%
X-37516000Y41440000D03*
%TO.P,C12,2*%
%TO.N,GND*%
X-37516000Y42990000D03*
%TD*%
D29*
%TO.P,C200,1*%
%TO.N,/XIN*%
X-44742000Y31801000D03*
%TO.P,C200,2*%
%TO.N,GND*%
X-46292000Y31801000D03*
%TD*%
D34*
%TO.P,U4,1,~{CS}*%
%TO.N,/QSPI_SS*%
X-52673000Y49327000D03*
%TO.P,U4,2,DO(IO1)*%
%TO.N,/QSPI_SD1*%
X-52673000Y48057000D03*
%TO.P,U4,3,IO2*%
%TO.N,/QSPI_SD2*%
X-52673000Y46787000D03*
%TO.P,U4,4,GND*%
%TO.N,GND*%
X-52673000Y45517000D03*
%TO.P,U4,5,DI(IO0)*%
%TO.N,/QSPI_SD0*%
X-45473000Y45517000D03*
%TO.P,U4,6,CLK*%
%TO.N,/QSPI_SCLK*%
X-45473000Y46787000D03*
%TO.P,U4,7,IO3*%
%TO.N,/QSPI_SD3*%
X-45473000Y48057000D03*
%TO.P,U4,8,VCC*%
%TO.N,+3V3*%
X-45473000Y49327000D03*
%TD*%
D10*
%TO.P,D2,1,K*%
%TO.N,/GPIO1*%
X-78030000Y64186000D03*
%TO.P,D2,2,A*%
%TO.N,Net-(D2-A)*%
X-81330000Y64186000D03*
%TD*%
D12*
%TO.P,P28,1,1*%
%TO.N,/GPIO28_ADC2*%
X-39548000Y52629000D03*
%TD*%
%TO.P,P20,1,1*%
%TO.N,/GPIO20*%
X-42088000Y53518000D03*
%TD*%
%TO.P,P21,1,1*%
%TO.N,/GPIO21*%
X-42088000Y51486000D03*
%TD*%
D14*
%TO.P,R500,1*%
%TO.N,/XOUT*%
X-39167000Y31102000D03*
%TO.P,R500,2*%
%TO.N,Net-(C300-Pad1)*%
X-39167000Y29452000D03*
%TD*%
D20*
%TO.P,SW1,1,A*%
%TO.N,Net-(D1-A)*%
X-79680000Y74600000D03*
D21*
%TO.P,SW1,2,B*%
%TO.N,/GPIO2*%
X-79680000Y79680000D03*
D20*
%TO.P,SW1,3,C*%
%TO.N,Net-(D2-A)*%
X-79680000Y69520000D03*
%TD*%
D35*
%TO.P,Encoder1,4*%
%TO.N,N/C*%
X-71520000Y67600000D03*
X-71520000Y76600000D03*
D36*
%TO.P,Encoder1,A,A*%
%TO.N,/ENC_A*%
X-69520000Y69600000D03*
%TO.P,Encoder1,B,B*%
%TO.N,/ENC_B*%
X-69520000Y72100000D03*
%TO.P,Encoder1,C,C*%
%TO.N,/ENC_C*%
X-69520000Y74600000D03*
%TD*%
D12*
%TO.P,P31,1,1*%
%TO.N,/SWCLK*%
X-43485000Y24689000D03*
%TD*%
D11*
%TO.P,C2,1*%
%TO.N,/V2*%
X-56820000Y28359000D03*
%TO.P,C2,2*%
%TO.N,GND*%
X-56820000Y29909000D03*
%TD*%
D26*
%TO.P,C11,1*%
%TO.N,+3V3*%
X-42735867Y32995916D03*
%TO.P,C11,2*%
%TO.N,GND*%
X-41185867Y32995916D03*
%TD*%
D27*
%TO.P,U1,1,GND*%
%TO.N,GND*%
X-54636000Y29910000D03*
%TO.P,U1,2,VO*%
%TO.N,/V2*%
X-54636000Y27610000D03*
D28*
X-48336000Y27610000D03*
D27*
%TO.P,U1,3,VI*%
%TO.N,+3V3*%
X-54636000Y25310000D03*
%TD*%
D30*
%TO.P,D11,1,K*%
%TO.N,/GPIO0*%
X-81076000Y39040000D03*
%TO.P,D11,2,A*%
%TO.N,Net-(D11-A)*%
X-77776000Y39040000D03*
%TD*%
D37*
%TO.P,USB_BOOT1,1,Pin_1*%
%TO.N,/~{USB_BOOT}*%
X-48692000Y51613000D03*
%TD*%
D26*
%TO.P,C8,1*%
%TO.N,+1V1*%
X-39688000Y47549000D03*
%TO.P,C8,2*%
%TO.N,GND*%
X-38138000Y47549000D03*
%TD*%
D13*
%TO.P,D8,1,K*%
%TO.N,/GPIO1*%
X-47676000Y55424000D03*
%TO.P,D8,2,A*%
%TO.N,Net-(D8-A)*%
X-47676000Y58724000D03*
%TD*%
D29*
%TO.P,C15,1*%
%TO.N,+3V3*%
X-49695000Y37897000D03*
%TO.P,C15,2*%
%TO.N,GND*%
X-51245000Y37897000D03*
%TD*%
D12*
%TO.P,P12,1,1*%
%TO.N,/GPIO12*%
X-51232000Y36119000D03*
%TD*%
D38*
%TO.P,R200,1*%
%TO.N,+3V3*%
X-51550000Y52629000D03*
%TO.P,R200,2*%
%TO.N,/QSPI_SS*%
X-53200000Y52629000D03*
%TD*%
D39*
%TO.N,/V2*%
X-65964000Y35738000D03*
X-53085998Y30247000D03*
%TO.N,GND*%
X-41197141Y27481141D03*
X-47676000Y61900000D03*
X-67996000Y32690000D03*
X-40045431Y31809830D03*
X-69647000Y29007000D03*
X-52629000Y44755000D03*
X-50343000Y62662000D03*
X-42596000Y27006998D03*
X-36754000Y34849000D03*
X-39906607Y48705000D03*
X-55169000Y33198000D03*
X-50597000Y43953000D03*
X-58090000Y26340000D03*
X-70790000Y34722000D03*
X-68123000Y55844000D03*
X-52410998Y34976000D03*
X-50851000Y26213000D03*
X-71425000Y58979000D03*
X-43993000Y48946000D03*
X-44876014Y32938014D03*
X-58090000Y30277000D03*
X-52620630Y38017513D03*
%TO.N,+1V1*%
X-39906607Y45206747D03*
X-43545186Y44444532D03*
X-41957911Y33810367D03*
%TO.N,+3V3*%
X-65202000Y24816000D03*
X-63932000Y26125000D03*
%TO.N,/ENC_A*%
X-48752553Y37262000D03*
%TO.N,/ENC_B*%
X-47299817Y36319184D03*
%TO.N,/ENC_C*%
X-47295000Y35314369D03*
%TO.N,/GPIO29_ADC3*%
X-37320370Y40288342D03*
X-37302000Y51740000D03*
%TO.N,/GPIO28_ADC2*%
X-36627000Y39548000D03*
X-38365000Y52883000D03*
%TO.N,/GPIO27_ADC1*%
X-38405000Y54915000D03*
X-37697153Y38848064D03*
%TO.N,/GPIO26_ADC0*%
X-36781606Y38594532D03*
X-38405000Y56947000D03*
%TO.N,/GPIO21*%
X-36586933Y36626819D03*
X-40848702Y52471298D03*
%TO.N,/GPIO20*%
X-42088000Y54915000D03*
X-36805826Y33709099D03*
%TO.N,/GPIO19*%
X-67956000Y42977000D03*
%TO.N,/GPIO18*%
X-68663798Y42120798D03*
%TO.N,/GPIO16*%
X-43612000Y27006998D03*
X-67361000Y41453000D03*
X-38572000Y32052000D03*
%TO.N,/RUN*%
X-41014617Y36249006D03*
X-46787000Y25451000D03*
%TO.N,/SWD*%
X-39363577Y32658206D03*
X-42088000Y24689000D03*
%TO.N,/SWCLK*%
X-44628000Y24689000D03*
X-40122829Y33229206D03*
%TO.N,/GPIO0*%
X-44628000Y57201000D03*
X-47310000Y41961000D03*
%TO.N,/GPIO1*%
X-45644000Y56526000D03*
X-48311000Y41961000D03*
%TO.N,/GPIO2*%
X-45898000Y58852000D03*
X-49327000Y41961000D03*
%TO.N,/GPIO3*%
X-50343000Y41961000D03*
%TO.N,/GPIO4*%
X-51359000Y41961000D03*
%TO.N,/GPIO5*%
X-51143816Y40734981D03*
%TO.N,/GPIO6*%
X-66472000Y31420000D03*
X-50515188Y40022709D03*
%TO.N,/GPIO7*%
X-67234000Y32095000D03*
X-50102553Y39167000D03*
%TO.N,/QSPI_SS*%
X-51105000Y49327000D03*
X-50216000Y46747000D03*
%TO.N,/QSPI_SD2*%
X-51232000Y46747000D03*
X-50851000Y48097000D03*
%TO.N,/USBD-*%
X-41072000Y49962000D03*
%TO.N,/USBD+*%
X-42183500Y49866500D03*
%TD*%
D40*
%TO.N,Net-(D1-A)*%
X-79680000Y74600000D02*
X-81330000Y72950000D01*
X-81330000Y72950000D02*
X-81330000Y66726000D01*
%TO.N,Net-(D2-A)*%
X-79680000Y69520000D02*
X-80442000Y68758000D01*
X-80442000Y68758000D02*
X-80442000Y65074000D01*
X-80442000Y65074000D02*
X-81330000Y64186000D01*
%TO.N,Net-(D3-A)*%
X-43230000Y72950000D02*
X-43230000Y66726000D01*
X-41580000Y74600000D02*
X-43230000Y72950000D01*
%TO.N,Net-(D4-A)*%
X-41580000Y69520000D02*
X-42469000Y68631000D01*
X-42469000Y64947000D02*
X-43230000Y64186000D01*
X-42469000Y68631000D02*
X-42469000Y64947000D01*
%TO.N,Net-(D5-A)*%
X-49200000Y67616000D02*
X-43230000Y61646000D01*
X-49200000Y70155000D02*
X-49200000Y67616000D01*
%TO.N,Net-(D6-A)*%
X-49200000Y65075000D02*
X-47295000Y65075000D01*
X-44120000Y61900000D02*
X-44120000Y59996000D01*
X-44120000Y59996000D02*
X-43230000Y59106000D01*
X-47295000Y65075000D02*
X-44120000Y61900000D01*
%TO.N,Net-(D7-A)*%
X-53392000Y58724000D02*
X-55296000Y56820000D01*
X-50216000Y58724000D02*
X-53392000Y58724000D01*
X-55296000Y56820000D02*
X-58090000Y56820000D01*
%TO.N,Net-(D8-A)*%
X-47676000Y58724000D02*
X-49580000Y56820000D01*
X-49580000Y56820000D02*
X-53010000Y56820000D01*
%TO.N,Net-(D9-A)*%
X-77140000Y49200000D02*
X-77140000Y42216000D01*
X-77140000Y42216000D02*
X-77776000Y41580000D01*
%TO.N,Net-(D10-A)*%
X-76250000Y47296000D02*
X-74346000Y49200000D01*
X-76250000Y41580000D02*
X-76250000Y47296000D01*
X-74346000Y49200000D02*
X-72060000Y49200000D01*
X-72060000Y49200000D02*
X-72060000Y48520658D01*
%TO.N,Net-(D11-A)*%
X-77776000Y32056000D02*
X-77776000Y39040000D01*
X-77140000Y31420000D02*
X-77776000Y32056000D01*
%TO.N,Net-(D12-A)*%
X-72060000Y31420000D02*
X-76250000Y35610000D01*
X-76250000Y35610000D02*
X-76250000Y39040000D01*
D41*
%TO.N,/V2*%
X-51329000Y30247000D02*
X-48692000Y27610000D01*
D40*
X-48692000Y27610000D02*
X-48336000Y27610000D01*
X-67742000Y37516000D02*
X-67742000Y37961000D01*
X-51232000Y25451000D02*
X-53391000Y27610000D01*
X-65964000Y35738000D02*
X-67742000Y37516000D01*
X-54636000Y27610000D02*
X-56579000Y27610000D01*
X-56579000Y27610000D02*
X-56820000Y27851000D01*
X-48336000Y27610000D02*
X-50495000Y25451000D01*
X-53391000Y27610000D02*
X-54636000Y27610000D01*
D41*
X-53085998Y30247000D02*
X-51329000Y30247000D01*
D40*
X-50495000Y25451000D02*
X-51232000Y25451000D01*
%TO.N,GND*%
X-70155000Y34722000D02*
X-68123000Y32690000D01*
X-52620630Y38017513D02*
X-51365513Y38017513D01*
X-40320221Y31535040D02*
X-41062258Y31535040D01*
D41*
X-36641000Y44978118D02*
X-36641000Y43865000D01*
D40*
X-58090000Y26340000D02*
X-58625000Y26875000D01*
D41*
X-37135000Y47816000D02*
X-37135000Y47803000D01*
D40*
X-44876014Y33326923D02*
X-43845001Y34357936D01*
X-50597000Y43953000D02*
X-50256000Y43612000D01*
X-71425000Y58217000D02*
X-71425000Y58979000D01*
X-42863000Y48946000D02*
X-42850000Y48959000D01*
X-52620630Y37765370D02*
X-53645000Y36741000D01*
X-44585000Y30094000D02*
X-44585000Y29857000D01*
X-52673000Y44799000D02*
X-52673000Y45517000D01*
D41*
X-37516000Y45853118D02*
X-36641000Y44978118D01*
D40*
X-46279000Y31801000D02*
X-46292000Y31801000D01*
X-41123916Y32995916D02*
X-41185867Y32995916D01*
X-70790000Y34722000D02*
X-70155000Y34722000D01*
X-44876014Y32938014D02*
X-45141986Y32938014D01*
D41*
X-38024000Y48705000D02*
X-37135000Y47816000D01*
D40*
X-56820000Y26861000D02*
X-57623113Y27664113D01*
X-53758000Y29910000D02*
X-54636000Y29910000D01*
X-58563150Y27594350D02*
X-59282500Y26875000D01*
X-52620630Y38017513D02*
X-52883000Y38279883D01*
X-40045431Y31917431D02*
X-41123916Y32995916D01*
X-53391000Y34976000D02*
X-55169000Y33198000D01*
X-36754000Y34849000D02*
X-37113134Y35208134D01*
X-53645000Y41072000D02*
X-53645000Y41339000D01*
X-46292000Y31801000D02*
X-44585000Y30094000D01*
X-40922359Y27481141D02*
X-40629680Y27773820D01*
X-52410998Y34976000D02*
X-53391000Y34976000D01*
X-50851000Y26467000D02*
X-54294000Y29910000D01*
X-52883000Y38279883D02*
X-52883000Y40310000D01*
X-42469000Y45911000D02*
X-42100000Y46280000D01*
X-37113134Y35208134D02*
X-37113134Y35766235D01*
X-47676000Y61900000D02*
X-49581000Y61900000D01*
D41*
X-37516000Y46038000D02*
X-37135000Y46419000D01*
D40*
X-52620630Y38017513D02*
X-52620630Y37765370D01*
X-58563150Y29126150D02*
X-58563150Y27594350D01*
D41*
X-37598028Y46038000D02*
X-39040000Y46038000D01*
D40*
X-58458000Y29909000D02*
X-59346000Y29909000D01*
X-52629000Y44755000D02*
X-52673000Y44799000D01*
X-54636000Y29910000D02*
X-56311000Y29910000D01*
X-59640000Y29924000D02*
X-67742000Y29924000D01*
X-42100000Y46280000D02*
X-42100000Y48209000D01*
X-68730000Y29924000D02*
X-69647000Y29007000D01*
X-54294000Y29910000D02*
X-54636000Y29910000D01*
X-40045431Y31809830D02*
X-40320221Y31535040D01*
X-42385000Y27217998D02*
X-42385000Y28157000D01*
D41*
X-39906607Y48705000D02*
X-38024000Y48705000D01*
D40*
X-43845001Y34357936D02*
X-43845000Y35230000D01*
X-52883000Y40310000D02*
X-53645000Y41072000D01*
X-68123000Y32690000D02*
X-67996000Y32690000D01*
D41*
X-37389000Y47549000D02*
X-38138000Y47549000D01*
D40*
X-40629680Y28285988D02*
X-42256012Y28285988D01*
X-58625000Y26875000D02*
X-59360000Y26875000D01*
X-40045431Y31809830D02*
X-40045431Y31917431D01*
X-68123000Y55844000D02*
X-69052000Y55844000D01*
X-41197141Y27481141D02*
X-40922359Y27481141D01*
X-57623113Y29105887D02*
X-56820000Y29909000D01*
X-49581000Y61900000D02*
X-50343000Y62662000D01*
X-42256012Y28285988D02*
X-42385000Y28157000D01*
X-56820000Y29909000D02*
X-57722000Y29909000D01*
D41*
X-37516000Y46120028D02*
X-37516000Y45853118D01*
D40*
X-42469000Y45911000D02*
X-42456000Y45911000D01*
X-59386000Y29924000D02*
X-59385000Y29923000D01*
X-59360000Y29923000D02*
X-58563150Y29126150D01*
X-67742000Y29924000D02*
X-68730000Y29924000D01*
X-46379000Y31888000D02*
X-46292000Y31801000D01*
X-42596000Y27006998D02*
X-42385000Y27217998D01*
X-50851000Y26213000D02*
X-50851000Y26467000D01*
X-59639000Y29923000D02*
X-59640000Y29924000D01*
X-56820000Y26861000D02*
X-57569000Y26861000D01*
D41*
X-37135000Y46419000D02*
X-37135000Y47816000D01*
D40*
X-59346000Y29909000D02*
X-59360000Y29923000D01*
X-45141986Y32938014D02*
X-46279000Y31801000D01*
D41*
X-37135000Y47803000D02*
X-37389000Y47549000D01*
D40*
X-59282500Y26875000D02*
X-59639000Y26875000D01*
X-40629680Y27773820D02*
X-40629680Y28285988D01*
X-57569000Y26861000D02*
X-58090000Y26340000D01*
X-57722000Y29909000D02*
X-58090000Y30277000D01*
X-42100000Y48209000D02*
X-42850000Y48959000D01*
X-50256000Y43612000D02*
X-49467000Y43612000D01*
X-51365513Y38017513D02*
X-51245000Y37897000D01*
X-43993000Y48946000D02*
X-42863000Y48946000D01*
X-58090000Y30277000D02*
X-58458000Y29909000D01*
X-57623113Y27664113D02*
X-57623113Y29105887D01*
X-44876014Y32938014D02*
X-44876014Y33326923D01*
X-69052000Y55844000D02*
X-71425000Y58217000D01*
D41*
X-36641000Y43865000D02*
X-37516000Y42990000D01*
D40*
%TO.N,+1V1*%
X-41045000Y42858432D02*
X-41045000Y42228500D01*
X-43545186Y44055622D02*
X-43045000Y43555436D01*
X-39929000Y47308000D02*
X-39929000Y43920708D01*
X-39688000Y47549000D02*
X-39929000Y47308000D01*
X-40589932Y43313500D02*
X-41045000Y42858432D01*
X-43304027Y46954973D02*
X-42850000Y47409000D01*
X-43545186Y44444532D02*
X-43304027Y44685691D01*
X-41953533Y33805989D02*
X-41953533Y32193765D01*
X-39929000Y43920708D02*
X-40536208Y43313500D01*
X-42245000Y34097456D02*
X-42245000Y35353500D01*
X-43545186Y44444532D02*
X-43545186Y44055622D01*
X-43304027Y44685691D02*
X-43304027Y46954973D01*
D42*
X-43045000Y43555436D02*
X-43045000Y42228500D01*
D40*
X-41953533Y32193765D02*
X-42612258Y31535040D01*
X-41957911Y33810367D02*
X-41953533Y33805989D01*
X-40536208Y43313500D02*
X-40589932Y43313500D01*
X-41957911Y33810367D02*
X-42245000Y34097456D01*
%TO.N,+3V3*%
X-67742000Y27624000D02*
X-61442000Y27624000D01*
X-56155000Y43145000D02*
X-56155000Y35581000D01*
X-37630000Y41440000D02*
X-38405000Y42215000D01*
X-42245000Y41072000D02*
X-42595000Y41072000D01*
X-39407500Y41391000D02*
X-39218500Y41580000D01*
X-37685605Y37316235D02*
X-37113134Y37316235D01*
X-40645000Y42228500D02*
X-40645000Y42692746D01*
X-40645000Y42228500D02*
X-40645000Y41666000D01*
X-51550000Y52629000D02*
X-51550000Y52692000D01*
X-54153000Y49835000D02*
X-54153000Y45390000D01*
X-42595000Y41072000D02*
X-42645000Y41122000D01*
X-41718218Y36500000D02*
X-41302218Y36916000D01*
X-46404000Y41961000D02*
X-46404000Y42009595D01*
X-65105000Y35073000D02*
X-65202000Y34976000D01*
X-37869000Y41580000D02*
X-37742000Y41453000D01*
X-37985500Y44488000D02*
X-37516000Y44488000D01*
X-46282500Y41391000D02*
X-45580000Y41391000D01*
X-39040000Y44244022D02*
X-39040000Y44488000D01*
X-46483500Y42518500D02*
X-47577000Y43612000D01*
X-40370000Y41391000D02*
X-40689000Y41072000D01*
X-42645000Y43866000D02*
X-42249000Y43866000D01*
X-42645000Y36449000D02*
X-42594000Y36500000D01*
X-56155000Y44895000D02*
X-56155000Y50373000D01*
X-40245000Y42228500D02*
X-40245000Y41454000D01*
X-46404000Y42009595D02*
X-47030405Y42636000D01*
X-42594000Y36500000D02*
X-41718218Y36500000D01*
X-42245000Y43862000D02*
X-42245000Y42228500D01*
X-40645000Y42692746D02*
X-40424246Y42913500D01*
X-42245000Y42228500D02*
X-42245000Y41072000D01*
X-65105000Y45898000D02*
X-65188000Y45815000D01*
X-39407500Y37791000D02*
X-40414000Y37791000D01*
X-37516000Y41440000D02*
X-37630000Y41440000D01*
X-40183000Y23673000D02*
X-46660000Y23673000D01*
X-71552000Y29642000D02*
X-70282000Y30912000D01*
X-46601000Y42636000D02*
X-51018000Y42636000D01*
X-42645000Y35353500D02*
X-42645000Y33086783D01*
X-40370522Y42913500D02*
X-39040000Y44244022D01*
X-39407500Y41391000D02*
X-40308000Y41391000D01*
X-40645000Y41666000D02*
X-40370000Y41391000D01*
X-48112430Y37791000D02*
X-46282500Y37791000D01*
X-47577000Y43612000D02*
X-47917000Y43612000D01*
X-46483500Y42518500D02*
X-46601000Y42636000D01*
X-45282000Y37791000D02*
X-45261000Y37770000D01*
X-35865000Y37643000D02*
X-35865000Y33325000D01*
X-40245000Y41454000D02*
X-40308000Y41391000D01*
X-49441000Y38151000D02*
X-48472430Y38151000D01*
X-66834000Y45815000D02*
X-67615000Y46596000D01*
X-40308000Y41391000D02*
X-40370000Y41391000D01*
X-56155000Y35581000D02*
X-56058000Y35484000D01*
X-65188000Y45815000D02*
X-66834000Y45815000D01*
X-39218500Y41580000D02*
X-37869000Y41580000D01*
X-40245000Y42228500D02*
X-37985500Y44488000D01*
X-65105000Y45898000D02*
X-65105000Y35073000D01*
X-65202000Y51486000D02*
X-65105000Y51389000D01*
X-45580000Y41391000D02*
X-45261000Y41072000D01*
X-46282500Y37791000D02*
X-45282000Y37791000D01*
X-46404000Y42439000D02*
X-46404000Y42215000D01*
X-46404000Y42215000D02*
X-45580000Y41391000D01*
X-65105000Y51389000D02*
X-65105000Y45898000D01*
X-40414000Y37791000D02*
X-40435000Y37770000D01*
X-41211454Y36916000D02*
X-40435000Y37692454D01*
X-48472430Y38151000D02*
X-48112430Y37791000D01*
X-40435000Y37692454D02*
X-40435000Y37770000D01*
X-56155000Y50373000D02*
X-56058000Y50470000D01*
X-41302218Y36916000D02*
X-41211454Y36916000D01*
X-42249000Y43866000D02*
X-42245000Y43862000D01*
X-46404000Y41961000D02*
X-46404000Y42439000D01*
X-46404000Y42439000D02*
X-46483500Y42518500D01*
X-42645000Y41122000D02*
X-42645000Y42228500D01*
X-42645000Y35353500D02*
X-42645000Y36449000D01*
X-38160370Y37791000D02*
X-37685605Y37316235D01*
X-40424246Y42913500D02*
X-40370522Y42913500D01*
X-49695000Y37897000D02*
X-49441000Y38151000D01*
X-39407500Y37791000D02*
X-38160370Y37791000D01*
X-59639000Y28373000D02*
X-60388000Y27624000D01*
X-42645000Y33086783D02*
X-42735867Y32995916D01*
X-46404000Y41512500D02*
X-46404000Y41961000D01*
X-51018000Y42636000D02*
X-51486000Y43104000D01*
X-35865000Y40564000D02*
X-35865000Y37643000D01*
X-35865000Y42977000D02*
X-35865000Y45517000D01*
X-55280000Y44020000D02*
X-56155000Y44895000D01*
X-55280000Y44020000D02*
X-56155000Y43145000D01*
X-42645000Y43866000D02*
X-42645000Y42228500D01*
X-60388000Y27624000D02*
X-61442000Y27624000D01*
D41*
%TO.N,VBUS*%
X-60021000Y24943000D02*
X-59639000Y25325000D01*
X-66980000Y26086000D02*
X-65063371Y26086000D01*
X-67742000Y25324000D02*
X-72050000Y25324000D01*
X-67742000Y25324000D02*
X-66980000Y26086000D01*
X-63920371Y24943000D02*
X-60021000Y24943000D01*
X-65063371Y26086000D02*
X-63920371Y24943000D01*
D40*
%TO.N,/XIN*%
X-43485000Y30544000D02*
X-44742000Y31801000D01*
X-43485000Y29007000D02*
X-43485000Y30544000D01*
X-44335000Y28157000D02*
X-43485000Y29007000D01*
X-44201014Y32341986D02*
X-44201014Y33436237D01*
D42*
X-43445000Y34849000D02*
X-43445000Y35353500D01*
D40*
X-43445001Y34192250D02*
X-43445000Y34849000D01*
X-44742000Y31801000D02*
X-44201014Y32341986D01*
X-44585000Y28157000D02*
X-44335000Y28157000D01*
X-44201014Y33436237D02*
X-43445001Y34192250D01*
%TO.N,Net-(C300-Pad1)*%
X-40629680Y29835988D02*
X-40650692Y29857000D01*
X-39167000Y29452000D02*
X-40245692Y29452000D01*
X-40650692Y29857000D02*
X-42385000Y29857000D01*
X-40245692Y29452000D02*
X-40629680Y29835988D01*
D42*
%TO.N,/ENC_A*%
X-47547000Y37391000D02*
X-46282500Y37391000D01*
D40*
X-48752553Y37262000D02*
X-48625553Y37389000D01*
X-48625553Y37389000D02*
X-47549000Y37389000D01*
X-47549000Y37389000D02*
X-47547000Y37391000D01*
%TO.N,/ENC_B*%
X-47299817Y36347186D02*
X-47056003Y36591000D01*
X-47299817Y36319184D02*
X-47299817Y36347186D01*
D42*
X-47056003Y36591000D02*
X-46282500Y36591000D01*
D40*
%TO.N,/ENC_C*%
X-48057000Y36627000D02*
X-47695000Y36989000D01*
X-47383314Y36989000D02*
X-47381314Y36991000D01*
D42*
X-47381314Y36991000D02*
X-46282500Y36991000D01*
D40*
X-48057000Y35611000D02*
X-48057000Y36627000D01*
X-47695000Y36989000D02*
X-47383314Y36989000D01*
X-47760369Y35314369D02*
X-48057000Y35611000D01*
X-47295000Y35314369D02*
X-47760369Y35314369D01*
%TO.N,/GPIO29_ADC3*%
X-37320370Y40288342D02*
X-37632970Y40288342D01*
X-38445000Y50597000D02*
X-39548000Y50597000D01*
D42*
X-38335628Y40991000D02*
X-39407500Y40991000D01*
D40*
X-37302000Y51740000D02*
X-38445000Y50597000D01*
X-37632970Y40288342D02*
X-38335628Y40991000D01*
D42*
%TO.N,/GPIO28_ADC2*%
X-38577623Y40591000D02*
X-39407500Y40591000D01*
D40*
X-37534623Y39548000D02*
X-38577623Y40591000D01*
X-38619000Y52629000D02*
X-39548000Y52629000D01*
X-36627000Y39548000D02*
X-37534623Y39548000D01*
X-38365000Y52883000D02*
X-38619000Y52629000D01*
%TO.N,/GPIO27_ADC1*%
X-38278000Y39725692D02*
X-38743308Y40191000D01*
D42*
X-38743308Y40191000D02*
X-39407500Y40191000D01*
D40*
X-38659000Y54661000D02*
X-39548000Y54661000D01*
X-37697153Y38848064D02*
X-37894128Y38848064D01*
X-37894128Y38848064D02*
X-38278000Y39231936D01*
X-38405000Y54915000D02*
X-38659000Y54661000D01*
X-38278000Y39231936D02*
X-38278000Y39725692D01*
D42*
%TO.N,/GPIO26_ADC0*%
X-38908994Y39791000D02*
X-39407500Y39791000D01*
D40*
X-36945468Y38594532D02*
X-37366936Y38173064D01*
X-37366936Y38173064D02*
X-37976748Y38173064D01*
X-36781606Y38594532D02*
X-36945468Y38594532D01*
X-37976748Y38173064D02*
X-38678000Y38874315D01*
X-38678000Y39560006D02*
X-38908994Y39791000D01*
X-38405000Y56947000D02*
X-38659000Y56693000D01*
X-38678000Y38874315D02*
X-38678000Y39560006D01*
X-39548000Y56699000D02*
X-39548000Y56693000D01*
X-38659000Y56693000D02*
X-39548000Y56693000D01*
%TO.N,/GPIO21*%
X-37809060Y36627000D02*
X-38573060Y37391000D01*
X-38573060Y37391000D02*
X-38577623Y37391000D01*
X-40848702Y52471298D02*
X-41102702Y52471298D01*
X-36586933Y36626819D02*
X-36613846Y36626819D01*
D42*
X-38577623Y37391000D02*
X-39407500Y37391000D01*
D40*
X-36614027Y36627000D02*
X-37809060Y36627000D01*
X-41102702Y52471298D02*
X-42088000Y51486000D01*
X-36613846Y36626819D02*
X-36614027Y36627000D01*
%TO.N,/GPIO20*%
X-42088000Y54915000D02*
X-42088000Y53518000D01*
X-38295000Y35198273D02*
X-38295000Y36542691D01*
X-36805826Y33709099D02*
X-38295000Y35198273D01*
X-38295000Y36542691D02*
X-38743308Y36991000D01*
D42*
X-38743308Y36991000D02*
X-39407500Y36991000D01*
D40*
%TO.N,/GPIO19*%
X-46914000Y26975000D02*
X-45470997Y25531998D01*
X-70212000Y36176000D02*
X-65075000Y31039000D01*
X-37097000Y28675630D02*
X-37097000Y33045677D01*
X-37480826Y33818413D02*
X-38695000Y35032587D01*
X-41060318Y25531998D02*
X-38728314Y27864000D01*
X-51105000Y31039000D02*
X-49962000Y29896000D01*
X-37908628Y27864001D02*
X-37097000Y28675630D01*
X-45470997Y25531998D02*
X-41060318Y25531998D01*
X-37097000Y33045677D02*
X-37480826Y33429504D01*
X-67956000Y42977000D02*
X-68885000Y42977000D01*
X-37480826Y33429504D02*
X-37480826Y33818413D01*
X-38695000Y35032587D02*
X-38695000Y36377006D01*
X-38728314Y27864000D02*
X-37908628Y27864001D01*
D42*
X-38908994Y36591000D02*
X-39407500Y36591000D01*
D40*
X-38695000Y36377006D02*
X-38908994Y36591000D01*
X-47253313Y29896000D02*
X-46914000Y29556687D01*
X-49962000Y29896000D02*
X-47253313Y29896000D01*
X-68885000Y42977000D02*
X-70212000Y41650000D01*
X-46914000Y29556687D02*
X-46914000Y26975000D01*
X-70212000Y41650000D02*
X-70212000Y36176000D01*
X-65075000Y31039000D02*
X-51105000Y31039000D01*
%TO.N,/GPIO18*%
X-38894000Y28264000D02*
X-38074314Y28264000D01*
X-46514000Y29722373D02*
X-46514000Y27140686D01*
X-46514000Y27140686D02*
X-45305312Y25931998D01*
X-39095000Y34866902D02*
X-39095000Y35878500D01*
X-47087628Y30296000D02*
X-46514000Y29722373D01*
X-37880826Y33263819D02*
X-37880826Y33652728D01*
X-37497000Y28841315D02*
X-37497000Y32879992D01*
X-37497000Y32879992D02*
X-37880826Y33263819D01*
X-45305312Y25931998D02*
X-41226003Y25931998D01*
X-37880826Y33652728D02*
X-39095000Y34866902D01*
X-39095000Y35878500D02*
X-39407500Y36191000D01*
X-69812000Y36341686D02*
X-64909314Y31439000D01*
X-50939315Y31439000D02*
X-49796314Y30296000D01*
X-41226003Y25931998D02*
X-38894000Y28264000D01*
X-49796314Y30296000D02*
X-47087628Y30296000D01*
X-69812000Y40972596D02*
X-69812000Y36341686D01*
X-64909314Y31439000D02*
X-50939315Y31439000D01*
X-38074314Y28264000D02*
X-37497000Y28841315D01*
X-68663798Y42120798D02*
X-69812000Y40972596D01*
%TO.N,/GPIO17*%
X-46114000Y29888059D02*
X-46921943Y30696000D01*
X-67488000Y42342000D02*
X-66768000Y42342000D01*
X-46921943Y30696000D02*
X-49619000Y30696000D01*
X-64743628Y31839000D02*
X-69412000Y36507372D01*
X-39059686Y28664000D02*
X-41391688Y26331998D01*
X-40147282Y35353500D02*
X-38280826Y33487044D01*
X-41391688Y26331998D02*
X-45139626Y26331998D01*
X-37897000Y32714307D02*
X-37897000Y29007000D01*
X-69412000Y36507372D02*
X-69412000Y40418000D01*
X-40245000Y35353500D02*
X-40147282Y35353500D01*
X-38280826Y33098134D02*
X-37897000Y32714307D01*
X-37897000Y29007000D02*
X-38240000Y28664000D01*
X-69412000Y40418000D02*
X-67488000Y42342000D01*
X-49619000Y30696000D02*
X-50762000Y31839000D01*
X-50762000Y31839000D02*
X-64743628Y31839000D01*
X-66768000Y42342000D02*
X-65980000Y43130000D01*
X-46114000Y27306372D02*
X-46114000Y29888059D01*
X-45139626Y26331998D02*
X-46114000Y27306372D01*
X-38280826Y33487044D02*
X-38280826Y33098134D01*
X-38240000Y28664000D02*
X-39059686Y28664000D01*
%TO.N,/GPIO16*%
X-65980000Y44910000D02*
X-67579000Y44910000D01*
X-46756255Y31096000D02*
X-49453314Y31096000D01*
X-45714000Y27472058D02*
X-45714000Y30053745D01*
X-40385006Y34595000D02*
X-40645000Y34854994D01*
X-45248940Y27006998D02*
X-45714000Y27472058D01*
X-49453314Y31096000D02*
X-50596315Y32239000D01*
X-38572000Y32052000D02*
X-38680826Y32160826D01*
X-64577942Y32239000D02*
X-69012000Y36673058D01*
X-69012000Y36673058D02*
X-69012000Y39802000D01*
X-69012000Y39802000D02*
X-67361000Y41453000D01*
D42*
X-40645000Y35353500D02*
X-40645000Y34854994D01*
D40*
X-43612000Y27006998D02*
X-45248940Y27006998D01*
X-67579000Y44910000D02*
X-67615000Y44946000D01*
X-50596315Y32239000D02*
X-64577942Y32239000D01*
X-38680826Y33321358D02*
X-39954468Y34595000D01*
X-45714000Y30053745D02*
X-46756255Y31096000D01*
X-38680826Y32160826D02*
X-38680826Y33321358D01*
X-39954468Y34595000D02*
X-40385006Y34595000D01*
D42*
%TO.N,/RUN*%
X-41045000Y36218623D02*
X-41045000Y36092000D01*
X-41014617Y36249006D02*
X-41045000Y36218623D01*
D40*
X-46787000Y25451000D02*
X-46025000Y24689000D01*
D42*
X-41045000Y36218623D02*
X-41045000Y35353500D01*
D40*
%TO.N,/SWD*%
X-41182160Y34592154D02*
X-41445000Y34854994D01*
X-39363577Y33438423D02*
X-40120154Y34195000D01*
X-40550692Y34195000D02*
X-40947846Y34592154D01*
X-39363577Y32658206D02*
X-39363577Y33438423D01*
X-40120154Y34195000D02*
X-40550692Y34195000D01*
X-42088000Y24689000D02*
X-40945000Y24689000D01*
X-41445000Y34854994D02*
X-41445000Y35353500D01*
X-40947846Y34592154D02*
X-41182160Y34592154D01*
%TO.N,/SWCLK*%
X-41113532Y34192154D02*
X-41347846Y34192154D01*
X-40122829Y33229206D02*
X-40183000Y33289377D01*
X-44628000Y24689000D02*
X-43485000Y24689000D01*
X-40150584Y33229206D02*
X-41113532Y34192154D01*
X-41845000Y34689309D02*
X-41845000Y35353500D01*
X-40122829Y33229206D02*
X-40150584Y33229206D01*
X-40183000Y33289377D02*
X-40183000Y33325000D01*
X-41347846Y34192154D02*
X-41845000Y34689309D01*
%TO.N,/GPIO0*%
X-70790000Y53645000D02*
X-70790000Y54788000D01*
X-46995000Y41646000D02*
X-46995000Y41204994D01*
X-49326000Y55424000D02*
X-50216000Y55424000D01*
X-44628000Y57201000D02*
X-47549000Y57201000D01*
X-69647000Y55169000D02*
X-77140000Y62662000D01*
X-78918000Y62916000D02*
X-78918000Y65838000D01*
X-79426000Y49708000D02*
X-78029000Y51105000D01*
X-40818000Y62534000D02*
X-39930000Y61646000D01*
X-78029000Y51105000D02*
X-73330000Y51105000D01*
X-39930000Y66726000D02*
X-40818000Y65838000D01*
X-81076000Y39040000D02*
X-81076000Y41580000D01*
X-40818000Y65838000D02*
X-40818000Y62534000D01*
X-39930000Y61021948D02*
X-39930000Y61646000D01*
X-78918000Y65838000D02*
X-78030000Y66726000D01*
X-73330000Y51105000D02*
X-70790000Y53645000D01*
X-44628000Y57201000D02*
X-43750948Y57201000D01*
X-50471000Y55169000D02*
X-69647000Y55169000D01*
X-81076000Y41580000D02*
X-79426000Y43230000D01*
X-46995000Y41204994D02*
X-46781006Y40991000D01*
X-47310000Y41961000D02*
X-46995000Y41646000D01*
D42*
X-46781006Y40991000D02*
X-46282500Y40991000D01*
D40*
X-77140000Y65836000D02*
X-78030000Y66726000D01*
X-43750948Y57201000D02*
X-39930000Y61021948D01*
X-77140000Y62662000D02*
X-77140000Y65836000D01*
X-70790000Y54788000D02*
X-78918000Y62916000D01*
X-50216000Y55424000D02*
X-50471000Y55169000D01*
X-47549000Y57201000D02*
X-49326000Y55424000D01*
X-79426000Y43230000D02*
X-79426000Y49708000D01*
%TO.N,/GPIO1*%
X-70155000Y54699000D02*
X-70117000Y54661000D01*
X-72950000Y41580000D02*
X-72950000Y45880842D01*
X-78030000Y62790000D02*
X-78030000Y64186000D01*
X-45644000Y56526000D02*
X-46746000Y55424000D01*
X-46746000Y55424000D02*
X-47676000Y55424000D01*
X-48311000Y41961000D02*
X-48311000Y41955308D01*
X-48439000Y54661000D02*
X-47676000Y55424000D01*
D42*
X-46946692Y40591000D02*
X-46282500Y40591000D01*
D40*
X-72950000Y45880842D02*
X-70155000Y48675842D01*
X-72950000Y39040000D02*
X-72950000Y41580000D01*
X-39040000Y59996000D02*
X-39040000Y63296000D01*
X-39040000Y63296000D02*
X-39930000Y64186000D01*
X-70117000Y54661000D02*
X-48439000Y54661000D01*
X-70155000Y54915000D02*
X-78030000Y62790000D01*
X-70155000Y48675842D02*
X-70155000Y54699000D01*
X-48311000Y41955308D02*
X-46946692Y40591000D01*
X-43779000Y56526000D02*
X-41199000Y59106000D01*
X-45644000Y56526000D02*
X-43779000Y56526000D01*
X-41199000Y59106000D02*
X-39930000Y59106000D01*
X-39930000Y59106000D02*
X-39040000Y59996000D01*
X-70155000Y54699000D02*
X-70155000Y54915000D01*
%TO.N,/GPIO2*%
X-49265595Y41961000D02*
X-48590595Y41286000D01*
X-45898000Y58852000D02*
X-46660000Y59614000D01*
X-46660000Y59614000D02*
X-53772000Y59614000D01*
X-49327000Y41961000D02*
X-49265595Y41961000D01*
X-48207378Y41286000D02*
X-47112378Y40191000D01*
X-53772000Y59614000D02*
X-54788000Y58598000D01*
X-74854000Y65202000D02*
X-74854000Y74854000D01*
X-68250000Y58598000D02*
X-74854000Y65202000D01*
X-54788000Y58598000D02*
X-68250000Y58598000D01*
X-74854000Y74854000D02*
X-79680000Y79680000D01*
D42*
X-47112378Y40191000D02*
X-46282500Y40191000D01*
D40*
X-48590595Y41286000D02*
X-48207378Y41286000D01*
%TO.N,/GPIO3*%
X-50343000Y41961000D02*
X-50281595Y41961000D01*
X-50281595Y41961000D02*
X-49606595Y41286000D01*
X-49156281Y41286000D02*
X-48756281Y40886000D01*
D42*
X-47284000Y39791000D02*
X-46282500Y39791000D01*
D40*
X-48379000Y40886000D02*
X-47284000Y39791000D01*
X-48756281Y40886000D02*
X-48379000Y40886000D01*
X-49606595Y41286000D02*
X-49156281Y41286000D01*
%TO.N,/GPIO4*%
X-49321967Y40886000D02*
X-48921966Y40486000D01*
X-49772281Y40886000D02*
X-49321967Y40886000D01*
X-51297595Y41961000D02*
X-50622595Y41286000D01*
D42*
X-47449686Y39391000D02*
X-46282500Y39391000D01*
D40*
X-48921966Y40486000D02*
X-48544686Y40486000D01*
X-50622595Y41286000D02*
X-50172281Y41286000D01*
X-51359000Y41961000D02*
X-51297595Y41961000D01*
X-50172281Y41286000D02*
X-49772281Y40886000D01*
X-48544686Y40486000D02*
X-47449686Y39391000D01*
%TO.N,/GPIO5*%
X-50849686Y40886000D02*
X-50337967Y40886000D01*
X-49487652Y40486000D02*
X-49087651Y40086000D01*
X-48710372Y40086000D02*
X-47615371Y38991000D01*
X-49937966Y40486000D02*
X-49487652Y40486000D01*
X-50337967Y40886000D02*
X-49937966Y40486000D01*
X-51000705Y40734981D02*
X-50849686Y40886000D01*
X-49087651Y40086000D02*
X-48710372Y40086000D01*
X-51143816Y40734981D02*
X-51000705Y40734981D01*
D42*
X-47615371Y38991000D02*
X-46282500Y38991000D01*
%TO.N,/GPIO6*%
X-47781057Y38591000D02*
X-46282500Y38591000D01*
D40*
X-71236595Y28372000D02*
X-79172000Y28372000D01*
X-79172000Y28372000D02*
X-82220000Y31420000D01*
X-49253336Y39686000D02*
X-48876057Y39686000D01*
X-48876057Y39686000D02*
X-47781057Y38591000D01*
X-66472000Y31420000D02*
X-68546000Y31420000D01*
X-69120000Y30846000D02*
X-69120000Y30488596D01*
X-49590045Y40022709D02*
X-49253336Y39686000D01*
X-68546000Y31420000D02*
X-69120000Y30846000D01*
X-69120000Y30488596D02*
X-71236595Y28372000D01*
X-50515188Y40022709D02*
X-49590045Y40022709D01*
%TO.N,/GPIO7*%
X-78918000Y28880000D02*
X-79934000Y29896000D01*
X-67234000Y32095000D02*
X-67401000Y31928000D01*
X-69520000Y30654281D02*
X-71294281Y28880000D01*
X-67401000Y31928000D02*
X-68603685Y31928000D01*
X-71294281Y28880000D02*
X-78918000Y28880000D01*
X-79934000Y33979686D02*
X-82982000Y37027686D01*
X-82982000Y48438000D02*
X-82220000Y49200000D01*
X-69520000Y31011685D02*
X-69520000Y30654281D01*
X-82982000Y37027686D02*
X-82982000Y48438000D01*
D42*
X-47946743Y38191000D02*
X-46282500Y38191000D01*
D40*
X-79934000Y29896000D02*
X-79934000Y33979686D01*
X-50102553Y39167000D02*
X-48922743Y39167000D01*
X-48922743Y39167000D02*
X-47946743Y38191000D01*
X-68603685Y31928000D02*
X-69520000Y31011685D01*
%TO.N,/GPIO11*%
X-47916683Y34639369D02*
X-48653314Y35376000D01*
X-46152000Y36060500D02*
X-46152000Y34879366D01*
X-49200000Y35865000D02*
X-49200000Y36246000D01*
X-48653314Y35376000D02*
X-48711000Y35376000D01*
X-48711000Y35376000D02*
X-49200000Y35865000D01*
X-46282500Y36191000D02*
X-46152000Y36060500D01*
X-46152000Y34879366D02*
X-46391997Y34639369D01*
X-46391997Y34639369D02*
X-47916683Y34639369D01*
%TO.N,/GPIO12*%
X-47975000Y34132000D02*
X-48819000Y34976000D01*
X-50470000Y34976000D02*
X-51232000Y35738000D01*
X-45445000Y35020680D02*
X-46333680Y34132000D01*
X-45445000Y35353500D02*
X-45445000Y35020680D01*
X-51232000Y35738000D02*
X-51232000Y36119000D01*
X-48819000Y34976000D02*
X-50470000Y34976000D01*
X-46333680Y34132000D02*
X-47975000Y34132000D01*
%TO.N,/GPIO13*%
X-45045000Y34854994D02*
X-46167995Y33732000D01*
X-46167995Y33732000D02*
X-48845000Y33732000D01*
X-48845000Y33732000D02*
X-49200000Y34087000D01*
D42*
X-45045000Y35353500D02*
X-45045000Y34854994D01*
D40*
%TO.N,/GPIO14*%
X-46002308Y33332000D02*
X-46776281Y33332000D01*
X-47145281Y32963000D02*
X-49623258Y32963000D01*
X-50099259Y33439000D02*
X-50584000Y33439000D01*
X-46776281Y33332000D02*
X-47145281Y32963000D01*
X-49623258Y32963000D02*
X-50099259Y33439000D01*
X-50584000Y33439000D02*
X-51232000Y34087000D01*
X-44645000Y34689308D02*
X-46002308Y33332000D01*
D42*
X-44645000Y35353500D02*
X-44645000Y34689308D01*
D40*
%TO.N,/GPIO15*%
X-46610595Y32932000D02*
X-46979595Y32563000D01*
X-50264944Y33039000D02*
X-53232000Y33039000D01*
X-49788942Y32563000D02*
X-50264944Y33039000D01*
X-45836623Y32932000D02*
X-46610595Y32932000D01*
X-46979595Y32563000D02*
X-49788942Y32563000D01*
X-53232000Y33039000D02*
X-53264000Y33071000D01*
D42*
X-44245000Y35353500D02*
X-44245001Y34523622D01*
D40*
X-44245001Y34523622D02*
X-45836623Y32932000D01*
%TO.N,Net-(U3-USB_DP)*%
X-41580000Y47105000D02*
X-41326000Y47359000D01*
D42*
X-41845000Y42228500D02*
X-41845000Y43216000D01*
D40*
X-41845000Y43216000D02*
X-41580000Y43481000D01*
X-41580000Y43481000D02*
X-41580000Y47105000D01*
D42*
%TO.N,Net-(U3-USB_DM)*%
X-41445000Y42228500D02*
X-41444999Y43024118D01*
D40*
X-40755616Y43713500D02*
X-40755616Y44246384D01*
X-41444999Y43024118D02*
X-40755616Y43713500D01*
X-40755616Y44246384D02*
X-40691000Y44311000D01*
D42*
%TO.N,/QSPI_SS*%
X-45445000Y42228500D02*
X-45445000Y42561320D01*
D40*
X-53200000Y52629000D02*
X-53200000Y51105000D01*
X-51105000Y49327000D02*
X-52673000Y49327000D01*
X-49630680Y46747000D02*
X-45445000Y42561320D01*
X-50216000Y46747000D02*
X-49630680Y46747000D01*
X-53200000Y51105000D02*
X-52673000Y50578000D01*
X-52673000Y50578000D02*
X-52673000Y49327000D01*
%TO.N,/~{USB_BOOT}*%
X-49200000Y51105000D02*
X-48692000Y51613000D01*
X-51550000Y51105000D02*
X-49200000Y51105000D01*
%TO.N,/XOUT*%
X-39537000Y30732000D02*
X-39167000Y31102000D01*
X-43801014Y31425700D02*
X-43107314Y30732000D01*
X-43107314Y30732000D02*
X-39537000Y30732000D01*
X-43045000Y34849000D02*
X-43045001Y34026564D01*
D42*
X-43045000Y34849000D02*
X-43045000Y35353500D01*
D40*
X-43045001Y34026564D02*
X-43801014Y33270551D01*
X-43801014Y33270551D02*
X-43801014Y31425700D01*
%TO.N,/QSPI_SD1*%
X-49739994Y47422000D02*
X-51190500Y47422000D01*
D42*
X-45045000Y42228500D02*
X-45045000Y42727006D01*
D40*
X-51825500Y48057000D02*
X-52673000Y48057000D01*
X-45045000Y42727006D02*
X-49739994Y47422000D01*
X-51190500Y47422000D02*
X-51825500Y48057000D01*
%TO.N,/QSPI_SD2*%
X-51272000Y46787000D02*
X-52673000Y46787000D01*
X-51232000Y46747000D02*
X-51272000Y46787000D01*
D42*
X-44645000Y42228500D02*
X-44645000Y42892692D01*
D40*
X-49849308Y48097000D02*
X-44645000Y42892692D01*
X-50851000Y48097000D02*
X-49849308Y48097000D01*
%TO.N,/QSPI_SD0*%
X-45134000Y43947378D02*
X-45134000Y45178000D01*
X-45134000Y45178000D02*
X-45473000Y45517000D01*
D42*
X-44245000Y42228500D02*
X-44245000Y43058378D01*
D40*
X-44245000Y43058378D02*
X-45134000Y43947378D01*
D42*
%TO.N,/QSPI_SCLK*%
X-43845000Y42228500D02*
X-43845000Y43224064D01*
D40*
X-44163001Y45346999D02*
X-44163001Y45771000D01*
X-44626000Y44884000D02*
X-44163001Y45346999D01*
X-44163001Y45771000D02*
X-45179001Y46787000D01*
X-43845000Y43224064D02*
X-44626000Y44005065D01*
X-44626000Y44005065D02*
X-44626000Y44884000D01*
X-45179001Y46787000D02*
X-45473000Y46787000D01*
%TO.N,/QSPI_SD3*%
X-43704027Y46625027D02*
X-45136000Y48057000D01*
D42*
X-43445000Y42228500D02*
X-43445000Y43389750D01*
D40*
X-43445000Y43389750D02*
X-44226000Y44170750D01*
X-43704027Y45240287D02*
X-43704027Y46625027D01*
X-45136000Y48057000D02*
X-45473000Y48057000D01*
X-44226000Y44718314D02*
X-43704027Y45240287D01*
X-44226000Y44170750D02*
X-44226000Y44718314D01*
%TO.N,/VDDPIX*%
X-53645000Y39789000D02*
X-53645000Y38291000D01*
X-53645000Y39789000D02*
X-54316000Y40460000D01*
X-54316000Y40460000D02*
X-55280000Y40460000D01*
%TO.N,/3360LED*%
X-67701000Y39570000D02*
X-67742000Y39611000D01*
X-65980000Y39570000D02*
X-67701000Y39570000D01*
D42*
%TO.N,/USBD-*%
X-41072000Y49962000D02*
X-40945000Y49962000D01*
X-40556607Y49573607D02*
X-40556607Y46095393D01*
X-41072000Y49962000D02*
X-41072000Y50089000D01*
X-41072000Y50089000D02*
X-41072000Y50089000D01*
X-40945000Y49962000D02*
X-40556607Y49573607D01*
X-40556607Y46095393D02*
X-40691000Y45961000D01*
%TO.N,/USBD+*%
X-42183500Y49866500D02*
X-41326000Y49009000D01*
%TD*%
%TA.AperFunction,Conductor*%
%TO.N,+3V3*%
G36*
X-67472323Y85248315D02*
G01*
X-67451681Y85231681D01*
X-67016319Y84796319D01*
X-66982834Y84734996D01*
X-66980000Y84708638D01*
X-66980000Y61900000D01*
X-65710000Y60630000D01*
X-55550000Y60630000D01*
X-54280000Y61900000D01*
X-54280000Y74087130D01*
X-50800500Y74087130D01*
X-50800499Y74087124D01*
X-50794092Y74027517D01*
X-50743798Y73892672D01*
X-50743794Y73892665D01*
X-50657548Y73777456D01*
X-50657545Y73777453D01*
X-50542336Y73691207D01*
X-50542329Y73691203D01*
X-50407483Y73640909D01*
X-50407484Y73640909D01*
X-50400556Y73640165D01*
X-50347873Y73634500D01*
X-48052128Y73634501D01*
X-47992517Y73640909D01*
X-47857669Y73691204D01*
X-47742454Y73777454D01*
X-47656204Y73892669D01*
X-47605909Y74027517D01*
X-47599500Y74087127D01*
X-47599501Y76382872D01*
X-47605909Y76442483D01*
X-47656204Y76577331D01*
X-47656205Y76577332D01*
X-47656207Y76577336D01*
X-47742453Y76692545D01*
X-47742456Y76692548D01*
X-47857665Y76778794D01*
X-47857672Y76778798D01*
X-47992518Y76829092D01*
X-47992517Y76829092D01*
X-48052117Y76835499D01*
X-48052119Y76835500D01*
X-48052127Y76835500D01*
X-48052136Y76835500D01*
X-50347871Y76835500D01*
X-50347877Y76835499D01*
X-50407484Y76829092D01*
X-50542329Y76778798D01*
X-50542336Y76778794D01*
X-50657545Y76692548D01*
X-50657548Y76692545D01*
X-50743794Y76577336D01*
X-50743798Y76577329D01*
X-50794092Y76442483D01*
X-50800499Y76382884D01*
X-50800499Y76382877D01*
X-50800500Y76382865D01*
X-50800500Y74087130D01*
X-54280000Y74087130D01*
X-54280000Y78532130D01*
X-43180500Y78532130D01*
X-43180499Y78532124D01*
X-43174092Y78472517D01*
X-43123798Y78337672D01*
X-43123794Y78337665D01*
X-43037548Y78222456D01*
X-43037545Y78222453D01*
X-42922336Y78136207D01*
X-42922329Y78136203D01*
X-42787483Y78085909D01*
X-42787484Y78085909D01*
X-42780556Y78085165D01*
X-42727873Y78079500D01*
X-40432128Y78079501D01*
X-40372517Y78085909D01*
X-40237669Y78136204D01*
X-40122454Y78222454D01*
X-40036204Y78337669D01*
X-39985909Y78472517D01*
X-39979500Y78532127D01*
X-39979501Y80827872D01*
X-39985909Y80887483D01*
X-40036204Y81022331D01*
X-40036205Y81022332D01*
X-40036207Y81022336D01*
X-40122453Y81137545D01*
X-40122456Y81137548D01*
X-40237665Y81223794D01*
X-40237672Y81223798D01*
X-40372518Y81274092D01*
X-40372517Y81274092D01*
X-40432117Y81280499D01*
X-40432119Y81280500D01*
X-40432127Y81280500D01*
X-40432136Y81280500D01*
X-42727871Y81280500D01*
X-42727877Y81280499D01*
X-42787484Y81274092D01*
X-42922329Y81223798D01*
X-42922336Y81223794D01*
X-43037545Y81137548D01*
X-43037548Y81137545D01*
X-43123794Y81022336D01*
X-43123798Y81022329D01*
X-43174092Y80887483D01*
X-43180499Y80827884D01*
X-43180499Y80827877D01*
X-43180500Y80827865D01*
X-43180500Y78532130D01*
X-54280000Y78532130D01*
X-54280000Y83133649D01*
X-39070500Y83133649D01*
X-39038478Y82931466D01*
X-38975219Y82736777D01*
X-38882285Y82554387D01*
X-38761972Y82388787D01*
X-38617214Y82244029D01*
X-38462251Y82131444D01*
X-38451610Y82123713D01*
X-38335393Y82064497D01*
X-38269224Y82030782D01*
X-38269222Y82030782D01*
X-38269219Y82030780D01*
X-38164863Y81996873D01*
X-38074535Y81967523D01*
X-37973443Y81951512D01*
X-37872352Y81935500D01*
X-37872351Y81935500D01*
X-37667649Y81935500D01*
X-37667648Y81935500D01*
X-37465466Y81967523D01*
X-37270781Y82030780D01*
X-37088390Y82123713D01*
X-36995410Y82191268D01*
X-36922787Y82244029D01*
X-36922785Y82244032D01*
X-36922781Y82244034D01*
X-36778034Y82388781D01*
X-36778032Y82388785D01*
X-36778029Y82388787D01*
X-36725268Y82461410D01*
X-36657713Y82554390D01*
X-36564780Y82736781D01*
X-36501523Y82931466D01*
X-36469500Y83133648D01*
X-36469500Y83338352D01*
X-36501523Y83540534D01*
X-36564780Y83735219D01*
X-36564782Y83735222D01*
X-36564782Y83735224D01*
X-36598497Y83801393D01*
X-36657713Y83917610D01*
X-36665444Y83928251D01*
X-36778029Y84083214D01*
X-36922787Y84227972D01*
X-37088387Y84348285D01*
X-37088388Y84348286D01*
X-37088390Y84348287D01*
X-37145347Y84377309D01*
X-37270777Y84441219D01*
X-37465466Y84504478D01*
X-37640005Y84532122D01*
X-37667648Y84536500D01*
X-37872352Y84536500D01*
X-37896671Y84532649D01*
X-38074535Y84504478D01*
X-38269224Y84441219D01*
X-38451614Y84348285D01*
X-38617214Y84227972D01*
X-38761972Y84083214D01*
X-38882285Y83917614D01*
X-38975219Y83735224D01*
X-39038478Y83540535D01*
X-39070500Y83338352D01*
X-39070500Y83133649D01*
X-54280000Y83133649D01*
X-54280000Y84708638D01*
X-54260315Y84775677D01*
X-54243681Y84796319D01*
X-53808319Y85231681D01*
X-53746996Y85265166D01*
X-53720638Y85268000D01*
X-36297362Y85268000D01*
X-36230323Y85248315D01*
X-36209681Y85231681D01*
X-35774319Y84796319D01*
X-35740834Y84734996D01*
X-35738000Y84708638D01*
X-35738000Y45382624D01*
X-35757685Y45315585D01*
X-35810489Y45269830D01*
X-35879647Y45259886D01*
X-35943203Y45288911D01*
X-35971976Y45328810D01*
X-35973043Y45328239D01*
X-35975913Y45333608D01*
X-36018361Y45397137D01*
X-36018361Y45397138D01*
X-36058050Y45456537D01*
X-36058053Y45456540D01*
X-36476106Y45874592D01*
X-36509591Y45935915D01*
X-36504607Y46005606D01*
X-36491532Y46031156D01*
X-36469916Y46063505D01*
X-36413342Y46200087D01*
X-36397530Y46279576D01*
X-36384500Y46345080D01*
X-36384500Y47889921D01*
X-36413341Y48034908D01*
X-36413342Y48034909D01*
X-36413342Y48034913D01*
X-36420474Y48052130D01*
X-36465909Y48161821D01*
X-36469916Y48171495D01*
X-36513732Y48237071D01*
X-36513732Y48237072D01*
X-36552050Y48294419D01*
X-37545580Y49287949D01*
X-37596659Y49322078D01*
X-37626208Y49341822D01*
X-37626209Y49341823D01*
X-37668500Y49370081D01*
X-37668512Y49370088D01*
X-37805083Y49426657D01*
X-37805093Y49426660D01*
X-37950080Y49455500D01*
X-37950082Y49455500D01*
X-39066144Y49455500D01*
X-39133183Y49475185D01*
X-39178938Y49527989D01*
X-39188882Y49597147D01*
X-39159857Y49660703D01*
X-39124597Y49688858D01*
X-39018060Y49745805D01*
X-38989462Y49761090D01*
X-38837117Y49886117D01*
X-38817927Y49909500D01*
X-38804250Y49926165D01*
X-38746505Y49965499D01*
X-38708397Y49971500D01*
X-38383392Y49971500D01*
X-38383392Y49971501D01*
X-38306524Y49986790D01*
X-38306523Y49986790D01*
X-38266862Y49994679D01*
X-38262548Y49995537D01*
X-38201978Y50020626D01*
X-38148714Y50042688D01*
X-38094754Y50078744D01*
X-38046267Y50111142D01*
X-37959142Y50198267D01*
X-37959141Y50198270D01*
X-37952075Y50205335D01*
X-37952073Y50205339D01*
X-37354229Y50803181D01*
X-37292906Y50836666D01*
X-37266548Y50839500D01*
X-37207356Y50839500D01*
X-37207354Y50839500D01*
X-37022197Y50878856D01*
X-36849270Y50955849D01*
X-36696129Y51067112D01*
X-36569467Y51207784D01*
X-36474821Y51371716D01*
X-36416326Y51551744D01*
X-36396540Y51740000D01*
X-36416326Y51928256D01*
X-36474821Y52108284D01*
X-36569467Y52272216D01*
X-36696129Y52412888D01*
X-36698780Y52414814D01*
X-36849266Y52524149D01*
X-36849271Y52524152D01*
X-37022193Y52601143D01*
X-37022198Y52601145D01*
X-37167999Y52632135D01*
X-37207354Y52640500D01*
X-37347312Y52640500D01*
X-37414351Y52660185D01*
X-37460106Y52712989D01*
X-37470633Y52777460D01*
X-37459540Y52883000D01*
X-37479326Y53071256D01*
X-37537821Y53251284D01*
X-37632467Y53415216D01*
X-37759129Y53555888D01*
X-37761780Y53557814D01*
X-37912266Y53667149D01*
X-37912271Y53667152D01*
X-38085193Y53744143D01*
X-38085198Y53744145D01*
X-38263115Y53781962D01*
X-38324597Y53815154D01*
X-38358373Y53876318D01*
X-38353721Y53946032D01*
X-38312116Y54002164D01*
X-38263122Y54024540D01*
X-38125197Y54053856D01*
X-38125193Y54053858D01*
X-38125192Y54053858D01*
X-38016030Y54102461D01*
X-37952270Y54130849D01*
X-37799129Y54242112D01*
X-37672467Y54382784D01*
X-37577821Y54546716D01*
X-37519326Y54726744D01*
X-37499540Y54915000D01*
X-37519326Y55103256D01*
X-37577821Y55283284D01*
X-37672467Y55447216D01*
X-37799129Y55587888D01*
X-37799130Y55587889D01*
X-37952266Y55699149D01*
X-37952271Y55699152D01*
X-38125193Y55776143D01*
X-38125198Y55776145D01*
X-38259205Y55804628D01*
X-38283116Y55809711D01*
X-38344597Y55842902D01*
X-38378373Y55904065D01*
X-38373721Y55973780D01*
X-38332117Y56029912D01*
X-38283116Y56052290D01*
X-38125197Y56085856D01*
X-37952270Y56162849D01*
X-37799129Y56274112D01*
X-37672467Y56414784D01*
X-37577821Y56578716D01*
X-37519326Y56758744D01*
X-37499540Y56947000D01*
X-37519326Y57135256D01*
X-37577821Y57315284D01*
X-37672467Y57479216D01*
X-37799129Y57619888D01*
X-37801777Y57621812D01*
X-37952266Y57731149D01*
X-37952271Y57731152D01*
X-38125193Y57808143D01*
X-38125198Y57808145D01*
X-38287254Y57842590D01*
X-38310354Y57847500D01*
X-38499646Y57847500D01*
X-38522746Y57842590D01*
X-38684803Y57808145D01*
X-38684808Y57808143D01*
X-38857730Y57731152D01*
X-38857735Y57731149D01*
X-39011104Y57619720D01*
X-39076911Y57596240D01*
X-39142443Y57610680D01*
X-39163270Y57621813D01*
X-39351871Y57679025D01*
X-39548000Y57698341D01*
X-39744130Y57679025D01*
X-39932734Y57621812D01*
X-40106533Y57528914D01*
X-40106540Y57528910D01*
X-40258884Y57403884D01*
X-40383910Y57251540D01*
X-40383914Y57251533D01*
X-40476812Y57077734D01*
X-40534025Y56889130D01*
X-40553341Y56693000D01*
X-40534025Y56496871D01*
X-40520669Y56452844D01*
X-40484662Y56334143D01*
X-40476812Y56308267D01*
X-40383914Y56134468D01*
X-40383910Y56134461D01*
X-40258884Y55982117D01*
X-40106540Y55857091D01*
X-40106533Y55857086D01*
X-39974210Y55786358D01*
X-39924365Y55737396D01*
X-39908905Y55669258D01*
X-39932737Y55603578D01*
X-39974210Y55567642D01*
X-40106533Y55496915D01*
X-40106540Y55496910D01*
X-40258884Y55371884D01*
X-40383910Y55219540D01*
X-40383914Y55219533D01*
X-40476812Y55045734D01*
X-40534025Y54857130D01*
X-40553341Y54661000D01*
X-40534025Y54464871D01*
X-40476812Y54276267D01*
X-40383914Y54102468D01*
X-40383910Y54102461D01*
X-40258884Y53950117D01*
X-40106540Y53825091D01*
X-40106533Y53825086D01*
X-39974210Y53754358D01*
X-39924365Y53705396D01*
X-39908905Y53637258D01*
X-39932737Y53571578D01*
X-39974210Y53535642D01*
X-40106533Y53464915D01*
X-40106540Y53464910D01*
X-40258879Y53339888D01*
X-40286367Y53306394D01*
X-40344114Y53267061D01*
X-40413959Y53265192D01*
X-40432655Y53271782D01*
X-40568895Y53332441D01*
X-40568900Y53332443D01*
X-40752057Y53371373D01*
X-40754056Y53371798D01*
X-40943348Y53371798D01*
X-40943354Y53371798D01*
X-40947400Y53371373D01*
X-40949723Y53371798D01*
X-40949846Y53371798D01*
X-40949846Y53371821D01*
X-41016129Y53383945D01*
X-41067150Y53431680D01*
X-41084265Y53499421D01*
X-41083761Y53506820D01*
X-41082659Y53518000D01*
X-41101976Y53714132D01*
X-41159186Y53902727D01*
X-41159189Y53902731D01*
X-41159189Y53902734D01*
X-41252087Y54076533D01*
X-41252091Y54076540D01*
X-41365238Y54214409D01*
X-41392551Y54278719D01*
X-41380760Y54347586D01*
X-41361531Y54376051D01*
X-41355467Y54382784D01*
X-41260821Y54546716D01*
X-41202326Y54726744D01*
X-41182540Y54915000D01*
X-41202326Y55103256D01*
X-41260821Y55283284D01*
X-41355467Y55447216D01*
X-41482129Y55587888D01*
X-41482130Y55587889D01*
X-41635266Y55699149D01*
X-41635271Y55699152D01*
X-41808193Y55776143D01*
X-41808198Y55776145D01*
X-41966114Y55809710D01*
X-41993354Y55815500D01*
X-42182646Y55815500D01*
X-42209886Y55809710D01*
X-42367803Y55776145D01*
X-42367808Y55776143D01*
X-42540730Y55699152D01*
X-42540735Y55699149D01*
X-42693871Y55587889D01*
X-42820534Y55447215D01*
X-42915179Y55283285D01*
X-42915182Y55283278D01*
X-42973673Y55103260D01*
X-42973674Y55103256D01*
X-42993460Y54915000D01*
X-42973674Y54726744D01*
X-42973673Y54726741D01*
X-42915182Y54546723D01*
X-42915179Y54546716D01*
X-42820533Y54382784D01*
X-42814474Y54376055D01*
X-42814466Y54376046D01*
X-42784236Y54313055D01*
X-42792861Y54243719D01*
X-42810763Y54214409D01*
X-42923909Y54076540D01*
X-42923914Y54076533D01*
X-43016812Y53902734D01*
X-43074025Y53714130D01*
X-43093341Y53518000D01*
X-43074025Y53321871D01*
X-43057398Y53267061D01*
X-43035053Y53193397D01*
X-43016812Y53133267D01*
X-42923914Y52959468D01*
X-42923910Y52959461D01*
X-42798884Y52807117D01*
X-42646540Y52682091D01*
X-42646533Y52682086D01*
X-42514210Y52611358D01*
X-42464365Y52562396D01*
X-42448905Y52494258D01*
X-42472737Y52428578D01*
X-42514210Y52392642D01*
X-42646533Y52321915D01*
X-42646540Y52321910D01*
X-42798884Y52196884D01*
X-42923910Y52044540D01*
X-42923914Y52044533D01*
X-43016812Y51870734D01*
X-43074025Y51682130D01*
X-43093341Y51486000D01*
X-43074025Y51289871D01*
X-43016812Y51101267D01*
X-42923914Y50927468D01*
X-42923910Y50927461D01*
X-42798884Y50775118D01*
X-42766137Y50748243D01*
X-42726802Y50690497D01*
X-42724931Y50620653D01*
X-42761118Y50560884D01*
X-42771913Y50552073D01*
X-42789370Y50539390D01*
X-42789377Y50539384D01*
X-42916034Y50398715D01*
X-43010679Y50234785D01*
X-43010682Y50234778D01*
X-43069173Y50054761D01*
X-43069174Y50054759D01*
X-43073220Y50016259D01*
X-43099806Y49951645D01*
X-43157104Y49911661D01*
X-43183938Y49905864D01*
X-43247709Y49899349D01*
X-43247711Y49899349D01*
X-43408695Y49846004D01*
X-43408700Y49846002D01*
X-43517217Y49779067D01*
X-43584610Y49760627D01*
X-43632750Y49771327D01*
X-43713193Y49807143D01*
X-43713198Y49807145D01*
X-43858999Y49838135D01*
X-43898354Y49846500D01*
X-44087646Y49846500D01*
X-44087651Y49846500D01*
X-44177079Y49827492D01*
X-44246746Y49832808D01*
X-44300842Y49872786D01*
X-44305322Y49878562D01*
X-44421439Y49994679D01*
X-44421448Y49994686D01*
X-44562804Y50078283D01*
X-44562807Y50078284D01*
X-44720505Y50124100D01*
X-44720511Y50124101D01*
X-44757351Y50127000D01*
X-45223000Y50127000D01*
X-45223000Y49201000D01*
X-45242685Y49133961D01*
X-45295489Y49088206D01*
X-45347000Y49077000D01*
X-46770295Y49077000D01*
X-46770296Y49076999D01*
X-46770101Y49074514D01*
X-46724282Y48916802D01*
X-46640686Y48775448D01*
X-46635900Y48769278D01*
X-46638360Y48767371D01*
X-46611790Y48718712D01*
X-46616774Y48649020D01*
X-46637838Y48616219D01*
X-46636301Y48615026D01*
X-46641085Y48608860D01*
X-46724745Y48467397D01*
X-46724746Y48467394D01*
X-46770598Y48309574D01*
X-46770599Y48309568D01*
X-46773500Y48272702D01*
X-46773500Y47841299D01*
X-46770599Y47804433D01*
X-46770598Y47804427D01*
X-46724746Y47646607D01*
X-46724745Y47646604D01*
X-46641083Y47505138D01*
X-46636298Y47498969D01*
X-46638744Y47497073D01*
X-46612143Y47448358D01*
X-46617127Y47378666D01*
X-46637931Y47346297D01*
X-46636298Y47345031D01*
X-46641083Y47338863D01*
X-46724745Y47197397D01*
X-46724746Y47197394D01*
X-46770598Y47039574D01*
X-46770599Y47039568D01*
X-46773500Y47002702D01*
X-46773500Y46571299D01*
X-46770599Y46534433D01*
X-46770598Y46534427D01*
X-46724746Y46376607D01*
X-46724745Y46376604D01*
X-46724744Y46376602D01*
X-46687319Y46313319D01*
X-46641083Y46235138D01*
X-46636298Y46228969D01*
X-46638744Y46227073D01*
X-46612143Y46178358D01*
X-46617127Y46108666D01*
X-46637931Y46076297D01*
X-46636298Y46075031D01*
X-46641084Y46068862D01*
X-46669521Y46020776D01*
X-46720590Y45973092D01*
X-46789332Y45960589D01*
X-46853921Y45987234D01*
X-46863934Y45996216D01*
X-49359110Y48491392D01*
X-49359130Y48491414D01*
X-49450573Y48582857D01*
X-49489490Y48608860D01*
X-49510969Y48623212D01*
X-49510968Y48623212D01*
X-49510970Y48623214D01*
X-49553018Y48651310D01*
X-49553022Y48651312D01*
X-49635935Y48685655D01*
X-49666856Y48698463D01*
X-49666858Y48698464D01*
X-49666862Y48698465D01*
X-49745675Y48714142D01*
X-49745682Y48714142D01*
X-49787701Y48722500D01*
X-49787702Y48722500D01*
X-50147252Y48722500D01*
X-50214291Y48742185D01*
X-50239400Y48763526D01*
X-50245126Y48769885D01*
X-50245127Y48769886D01*
X-50245129Y48769888D01*
X-50254639Y48776798D01*
X-50297303Y48832125D01*
X-50303282Y48901739D01*
X-50289138Y48939115D01*
X-50285163Y48946000D01*
X-50277821Y48958716D01*
X-50219326Y49138744D01*
X-50199540Y49327000D01*
X-50219326Y49515256D01*
X-50239389Y49577002D01*
X-46770296Y49577002D01*
X-46770295Y49577000D01*
X-45723000Y49577000D01*
X-45723000Y50127000D01*
X-46188650Y50127000D01*
X-46225490Y50124101D01*
X-46225496Y50124100D01*
X-46383194Y50078284D01*
X-46383197Y50078283D01*
X-46524553Y49994686D01*
X-46524562Y49994679D01*
X-46640679Y49878562D01*
X-46640686Y49878553D01*
X-46724282Y49737199D01*
X-46770101Y49579487D01*
X-46770296Y49577002D01*
X-50239389Y49577002D01*
X-50277821Y49695284D01*
X-50372467Y49859216D01*
X-50499129Y49999888D01*
X-50499130Y49999889D01*
X-50652266Y50111149D01*
X-50652268Y50111150D01*
X-50782158Y50168982D01*
X-50835394Y50214233D01*
X-50855715Y50281082D01*
X-50836669Y50348305D01*
X-50819403Y50369941D01*
X-50794528Y50394815D01*
X-50779514Y50419651D01*
X-50727986Y50466838D01*
X-50673398Y50479500D01*
X-49639808Y50479500D01*
X-49572769Y50459815D01*
X-49563645Y50453353D01*
X-49493447Y50398715D01*
X-49488067Y50394528D01*
X-49276656Y50280118D01*
X-49276653Y50280117D01*
X-49049301Y50202067D01*
X-49049299Y50202067D01*
X-49049297Y50202066D01*
X-48812192Y50162500D01*
X-48812191Y50162500D01*
X-48571809Y50162500D01*
X-48571808Y50162500D01*
X-48334703Y50202066D01*
X-48107344Y50280118D01*
X-47895933Y50394528D01*
X-47890553Y50398715D01*
X-47832232Y50444109D01*
X-47706236Y50542175D01*
X-47543429Y50719031D01*
X-47411951Y50920272D01*
X-47315390Y51140409D01*
X-47256380Y51373437D01*
X-47245591Y51503642D01*
X-47236529Y51612995D01*
X-47236529Y51613006D01*
X-47253283Y51815185D01*
X-47256380Y51852563D01*
X-47315390Y52085591D01*
X-47411951Y52305728D01*
X-47422527Y52321915D01*
X-47477690Y52406349D01*
X-47543429Y52506969D01*
X-47706236Y52683825D01*
X-47706241Y52683829D01*
X-47706243Y52683831D01*
X-47895925Y52831467D01*
X-47895931Y52831471D01*
X-48107343Y52945882D01*
X-48107348Y52945884D01*
X-48334700Y53023934D01*
X-48512532Y53053609D01*
X-48571808Y53063500D01*
X-48812192Y53063500D01*
X-48859613Y53055587D01*
X-49049301Y53023934D01*
X-49276653Y52945884D01*
X-49276658Y52945882D01*
X-49488070Y52831471D01*
X-49488076Y52831467D01*
X-49677758Y52683831D01*
X-49677761Y52683828D01*
X-49840570Y52506971D01*
X-49840573Y52506967D01*
X-49972049Y52305730D01*
X-50068611Y52085590D01*
X-50127621Y51852561D01*
X-50128309Y51844256D01*
X-50153465Y51779072D01*
X-50209868Y51737836D01*
X-50251885Y51730500D01*
X-50673398Y51730500D01*
X-50740437Y51750185D01*
X-50779512Y51790345D01*
X-50787363Y51803333D01*
X-50805201Y51870883D01*
X-50787364Y51931635D01*
X-50706982Y52064602D01*
X-50706981Y52064604D01*
X-50656410Y52226894D01*
X-50650000Y52297428D01*
X-50650000Y52379000D01*
X-51676000Y52379000D01*
X-51743039Y52398685D01*
X-51788794Y52451489D01*
X-51800000Y52503000D01*
X-51800000Y53604000D01*
X-51300000Y53604000D01*
X-51300000Y52879000D01*
X-50650001Y52879000D01*
X-50650001Y52960583D01*
X-50656409Y53031103D01*
X-50656410Y53031108D01*
X-50706982Y53193397D01*
X-50794928Y53338878D01*
X-50915123Y53459073D01*
X-51060605Y53547020D01*
X-51060604Y53547020D01*
X-51222895Y53597591D01*
X-51222894Y53597591D01*
X-51293428Y53604000D01*
X-51300000Y53604000D01*
X-51800000Y53604000D01*
X-51800001Y53604001D01*
X-51806564Y53604000D01*
X-51806583Y53603999D01*
X-51877103Y53597592D01*
X-51877108Y53597591D01*
X-52039397Y53547019D01*
X-52184878Y53459073D01*
X-52184879Y53459072D01*
X-52286965Y53356985D01*
X-52348288Y53323500D01*
X-52417980Y53328484D01*
X-52462327Y53356985D01*
X-52564812Y53459470D01*
X-52611611Y53487761D01*
X-52710394Y53547478D01*
X-52872804Y53598086D01*
X-52872806Y53598087D01*
X-52872808Y53598087D01*
X-52922222Y53602577D01*
X-52943384Y53604500D01*
X-53456616Y53604500D01*
X-53475855Y53602752D01*
X-53527193Y53598087D01*
X-53689607Y53547478D01*
X-53835189Y53459470D01*
X-53955470Y53339189D01*
X-54043478Y53193607D01*
X-54094087Y53031193D01*
X-54100500Y52960614D01*
X-54100500Y52297387D01*
X-54094087Y52226808D01*
X-54094087Y52226806D01*
X-54094086Y52226804D01*
X-54050083Y52085591D01*
X-54043478Y52064394D01*
X-53962929Y51931150D01*
X-53945093Y51863595D01*
X-53962929Y51802850D01*
X-54043478Y51669607D01*
X-54094087Y51507193D01*
X-54100500Y51436614D01*
X-54100500Y50773387D01*
X-54094087Y50702808D01*
X-54094087Y50702806D01*
X-54094086Y50702804D01*
X-54043478Y50540394D01*
X-53957830Y50398715D01*
X-53955470Y50394812D01*
X-53835189Y50274531D01*
X-53835187Y50274530D01*
X-53835185Y50274528D01*
X-53724433Y50207576D01*
X-53677246Y50156049D01*
X-53665408Y50087190D01*
X-53692677Y50022861D01*
X-53719013Y50000262D01*
X-53718702Y49999861D01*
X-53724871Y49995077D01*
X-53841077Y49878871D01*
X-53841083Y49878863D01*
X-53924745Y49737397D01*
X-53924746Y49737396D01*
X-53965315Y49597756D01*
X-54002921Y49538871D01*
X-54066394Y49509665D01*
X-54135581Y49519411D01*
X-54188515Y49565015D01*
X-54203657Y49598417D01*
X-54207230Y49610976D01*
X-54249418Y49759250D01*
X-54250104Y49760627D01*
X-54305952Y49872786D01*
X-54340327Y49941821D01*
X-54463236Y50104579D01*
X-54463238Y50104582D01*
X-54613959Y50241981D01*
X-54613961Y50241983D01*
X-54787358Y50349345D01*
X-54787365Y50349349D01*
X-54914795Y50398715D01*
X-54977544Y50423024D01*
X-55178024Y50460500D01*
X-55381976Y50460500D01*
X-55582456Y50423024D01*
X-55582459Y50423024D01*
X-55582459Y50423023D01*
X-55772636Y50349349D01*
X-55772643Y50349345D01*
X-55946040Y50241983D01*
X-55946042Y50241981D01*
X-56096762Y50104583D01*
X-56107047Y50090962D01*
X-56163157Y50049327D01*
X-56232869Y50044637D01*
X-56294050Y50078380D01*
X-56327276Y50139844D01*
X-56330000Y50165691D01*
X-56330000Y51380000D01*
X-64930000Y51380000D01*
X-64930000Y51055691D01*
X-64949685Y50988652D01*
X-65002489Y50942897D01*
X-65071647Y50932953D01*
X-65135203Y50961978D01*
X-65152953Y50980962D01*
X-65163239Y50994583D01*
X-65313959Y51131981D01*
X-65313961Y51131983D01*
X-65487358Y51239345D01*
X-65487365Y51239349D01*
X-65617779Y51289871D01*
X-65677544Y51313024D01*
X-65878024Y51350500D01*
X-66081976Y51350500D01*
X-66282456Y51313024D01*
X-66282459Y51313024D01*
X-66282459Y51313023D01*
X-66472636Y51239349D01*
X-66472643Y51239345D01*
X-66646040Y51131983D01*
X-66646042Y51131981D01*
X-66796763Y50994582D01*
X-66919673Y50831822D01*
X-67010578Y50649261D01*
X-67010583Y50649248D01*
X-67066398Y50453083D01*
X-67085215Y50250001D01*
X-67085215Y50250000D01*
X-67066398Y50046918D01*
X-67010583Y49850753D01*
X-67010578Y49850740D01*
X-66919673Y49668179D01*
X-66796765Y49505422D01*
X-66737766Y49451637D01*
X-66701485Y49391925D01*
X-66703246Y49322078D01*
X-66737766Y49268363D01*
X-66796765Y49214579D01*
X-66919673Y49051822D01*
X-67010578Y48869261D01*
X-67010583Y48869248D01*
X-67066398Y48673083D01*
X-67085215Y48470001D01*
X-67085215Y48470000D01*
X-67066398Y48266918D01*
X-67010583Y48070753D01*
X-67010578Y48070740D01*
X-66919673Y47888179D01*
X-66796765Y47725422D01*
X-66737766Y47671637D01*
X-66701485Y47611925D01*
X-66703246Y47542078D01*
X-66737766Y47488363D01*
X-66796767Y47434577D01*
X-66806631Y47421515D01*
X-66862742Y47379882D01*
X-66932454Y47375194D01*
X-66969731Y47390130D01*
X-67050605Y47439020D01*
X-67050604Y47439020D01*
X-67212895Y47489591D01*
X-67212894Y47489591D01*
X-67283428Y47496000D01*
X-67365000Y47496000D01*
X-67365000Y46470000D01*
X-67384685Y46402961D01*
X-67437489Y46357206D01*
X-67489000Y46346000D01*
X-68589999Y46346000D01*
X-68589999Y46339418D01*
X-68583592Y46268898D01*
X-68583591Y46268893D01*
X-68533019Y46106604D01*
X-68445073Y45961123D01*
X-68342985Y45859035D01*
X-68309500Y45797712D01*
X-68314484Y45728020D01*
X-68342985Y45683673D01*
X-68445469Y45581190D01*
X-68445470Y45581189D01*
X-68533478Y45435607D01*
X-68584087Y45273193D01*
X-68590500Y45202614D01*
X-68590500Y44689387D01*
X-68584087Y44618808D01*
X-68584087Y44618806D01*
X-68584086Y44618804D01*
X-68533478Y44456394D01*
X-68448029Y44315044D01*
X-68445470Y44310812D01*
X-68325189Y44190531D01*
X-68325187Y44190530D01*
X-68325185Y44190528D01*
X-68179606Y44102522D01*
X-68150762Y44093534D01*
X-68092615Y44054798D01*
X-68064640Y43990773D01*
X-68075721Y43921788D01*
X-68122339Y43869744D01*
X-68161871Y43853859D01*
X-68235803Y43838145D01*
X-68235808Y43838143D01*
X-68408730Y43761152D01*
X-68408735Y43761149D01*
X-68561870Y43649890D01*
X-68561874Y43649886D01*
X-68567600Y43643526D01*
X-68627087Y43606879D01*
X-68659748Y43602500D01*
X-68823394Y43602500D01*
X-68946607Y43602500D01*
X-69036015Y43584716D01*
X-69036016Y43584717D01*
X-69067446Y43578465D01*
X-69067455Y43578462D01*
X-69181284Y43531313D01*
X-69276749Y43467524D01*
X-69276751Y43467523D01*
X-69283731Y43462860D01*
X-69283736Y43462856D01*
X-69949766Y42796825D01*
X-70610731Y42135860D01*
X-70610733Y42135858D01*
X-70643594Y42102997D01*
X-70697858Y42048734D01*
X-70705753Y42036917D01*
X-70725737Y42007009D01*
X-70766310Y41946290D01*
X-70766315Y41946281D01*
X-70795306Y41876288D01*
X-70813462Y41832457D01*
X-70813465Y41832445D01*
X-70820337Y41797899D01*
X-70820336Y41797898D01*
X-70831745Y41740537D01*
X-70831746Y41740535D01*
X-70837500Y41711609D01*
X-70837500Y36114394D01*
X-70832270Y36088096D01*
X-70829205Y36072689D01*
X-70829205Y36072688D01*
X-70829206Y36072688D01*
X-70813465Y35993556D01*
X-70813462Y35993544D01*
X-70807437Y35978999D01*
X-70766315Y35879719D01*
X-70766311Y35879712D01*
X-70734077Y35831470D01*
X-70734071Y35831463D01*
X-70723332Y35815391D01*
X-70702454Y35748713D01*
X-70720938Y35681333D01*
X-70772917Y35634643D01*
X-70826434Y35622500D01*
X-70884646Y35622500D01*
X-70917103Y35615602D01*
X-71069803Y35583145D01*
X-71069808Y35583143D01*
X-71242730Y35506152D01*
X-71242735Y35506149D01*
X-71395871Y35394889D01*
X-71522534Y35254215D01*
X-71617179Y35090285D01*
X-71617182Y35090278D01*
X-71661509Y34953852D01*
X-71675674Y34910256D01*
X-71695460Y34722000D01*
X-71675674Y34533744D01*
X-71675673Y34533741D01*
X-71617182Y34353723D01*
X-71617179Y34353716D01*
X-71522533Y34189784D01*
X-71421326Y34077383D01*
X-71395871Y34049112D01*
X-71242735Y33937852D01*
X-71242730Y33937849D01*
X-71069808Y33860858D01*
X-71069803Y33860856D01*
X-70884646Y33821500D01*
X-70884645Y33821500D01*
X-70695356Y33821500D01*
X-70695354Y33821500D01*
X-70510197Y33860856D01*
X-70358504Y33928396D01*
X-70289254Y33937680D01*
X-70225978Y33908052D01*
X-70220387Y33902797D01*
X-68946824Y32629234D01*
X-68913339Y32567911D01*
X-68918323Y32498219D01*
X-68960195Y32442286D01*
X-68965613Y32438452D01*
X-69002415Y32413861D01*
X-69002416Y32413861D01*
X-69030194Y32386082D01*
X-69089543Y32326733D01*
X-69089546Y32326730D01*
X-69918730Y31497546D01*
X-69918733Y31497543D01*
X-69962297Y31453980D01*
X-70005860Y31410417D01*
X-70030398Y31373691D01*
X-70030400Y31373688D01*
X-70074312Y31307971D01*
X-70074314Y31307969D01*
X-70103486Y31237538D01*
X-70103486Y31237537D01*
X-70121462Y31194140D01*
X-70121465Y31194130D01*
X-70145500Y31073296D01*
X-70145500Y30964733D01*
X-70165185Y30897694D01*
X-70181819Y30877052D01*
X-70373855Y30685017D01*
X-70435178Y30651532D01*
X-70504870Y30656516D01*
X-70560803Y30698388D01*
X-70585220Y30763852D01*
X-70576097Y30820151D01*
X-70552527Y30877052D01*
X-70533127Y30923889D01*
X-70474317Y31168852D01*
X-70454551Y31420000D01*
X-70474317Y31671148D01*
X-70533127Y31916111D01*
X-70545939Y31947043D01*
X-70629534Y32148860D01*
X-70761161Y32363654D01*
X-70761162Y32363657D01*
X-70837572Y32453121D01*
X-70924776Y32555224D01*
X-71051429Y32663396D01*
X-71116344Y32718839D01*
X-71116347Y32718840D01*
X-71331141Y32850467D01*
X-71563890Y32946874D01*
X-71808849Y33005683D01*
X-72060000Y33025449D01*
X-72311152Y33005683D01*
X-72556113Y32946873D01*
X-72556119Y32946871D01*
X-72582928Y32935767D01*
X-72652397Y32928300D01*
X-72714876Y32959577D01*
X-72718058Y32962648D01*
X-75588181Y35832771D01*
X-75621666Y35894094D01*
X-75624500Y35920452D01*
X-75624500Y37990454D01*
X-75604815Y38057493D01*
X-75577404Y38087726D01*
X-75571968Y38092025D01*
X-75571956Y38092032D01*
X-75452032Y38211956D01*
X-75362997Y38356303D01*
X-75309651Y38517292D01*
X-75299500Y38616655D01*
X-75299501Y39463344D01*
X-75301622Y39484103D01*
X-75309651Y39562708D01*
X-75309652Y39562711D01*
X-75340045Y39654432D01*
X-75362997Y39723697D01*
X-75363001Y39723703D01*
X-75363002Y39723706D01*
X-75452030Y39868041D01*
X-75452033Y39868045D01*
X-75571956Y39987968D01*
X-75571960Y39987971D01*
X-75716295Y40076999D01*
X-75716301Y40077002D01*
X-75716303Y40077003D01*
X-75725999Y40080216D01*
X-75877291Y40130349D01*
X-75976654Y40140500D01*
X-76523338Y40140500D01*
X-76523356Y40140499D01*
X-76622708Y40130350D01*
X-76622711Y40130349D01*
X-76783695Y40077004D01*
X-76783706Y40076999D01*
X-76928041Y39987971D01*
X-76933707Y39983490D01*
X-76935156Y39985322D01*
X-76986642Y39957208D01*
X-77056334Y39962192D01*
X-77091343Y39984692D01*
X-77092293Y39983490D01*
X-77097960Y39987971D01*
X-77242295Y40076999D01*
X-77242301Y40077002D01*
X-77242303Y40077003D01*
X-77251999Y40080216D01*
X-77403291Y40130349D01*
X-77502654Y40140500D01*
X-78049338Y40140500D01*
X-78049356Y40140499D01*
X-78148708Y40130350D01*
X-78148711Y40130349D01*
X-78309695Y40077004D01*
X-78309706Y40076999D01*
X-78454041Y39987971D01*
X-78454045Y39987968D01*
X-78573968Y39868045D01*
X-78573971Y39868041D01*
X-78662999Y39723706D01*
X-78663004Y39723695D01*
X-78716349Y39562710D01*
X-78726500Y39463353D01*
X-78726500Y38616663D01*
X-78726499Y38616645D01*
X-78716350Y38517293D01*
X-78716349Y38517290D01*
X-78663004Y38356306D01*
X-78662999Y38356295D01*
X-78573971Y38211960D01*
X-78573968Y38211956D01*
X-78454044Y38092032D01*
X-78454037Y38092028D01*
X-78448596Y38087726D01*
X-78408215Y38030707D01*
X-78401500Y37990454D01*
X-78401500Y32453121D01*
X-78421185Y32386082D01*
X-78431209Y32372591D01*
X-78438830Y32363668D01*
X-78438838Y32363657D01*
X-78570467Y32148860D01*
X-78666874Y31916111D01*
X-78725683Y31671152D01*
X-78745449Y31420000D01*
X-78725683Y31168849D01*
X-78666874Y30923890D01*
X-78570467Y30691141D01*
X-78438840Y30476347D01*
X-78438839Y30476344D01*
X-78438836Y30476341D01*
X-78275224Y30284776D01*
X-78183518Y30206452D01*
X-78083657Y30121162D01*
X-78083654Y30121161D01*
X-77868860Y29989534D01*
X-77682377Y29912291D01*
X-77636111Y29893127D01*
X-77391148Y29834317D01*
X-77140000Y29814551D01*
X-76888852Y29834317D01*
X-76643889Y29893127D01*
X-76411141Y29989534D01*
X-76196341Y30121164D01*
X-76004776Y30284776D01*
X-75841164Y30476341D01*
X-75709534Y30691141D01*
X-75613127Y30923889D01*
X-75554317Y31168852D01*
X-75534551Y31420000D01*
X-75554317Y31671148D01*
X-75613127Y31916111D01*
X-75625939Y31947043D01*
X-75709534Y32148860D01*
X-75841161Y32363654D01*
X-75841162Y32363657D01*
X-75917572Y32453121D01*
X-76004776Y32555224D01*
X-76131429Y32663396D01*
X-76196344Y32718839D01*
X-76196347Y32718840D01*
X-76411141Y32850467D01*
X-76643890Y32946874D01*
X-76822934Y32989858D01*
X-76888852Y33005683D01*
X-77036231Y33017283D01*
X-77101518Y33042166D01*
X-77142988Y33098398D01*
X-77150500Y33140900D01*
X-77150500Y37990454D01*
X-77130815Y38057493D01*
X-77103404Y38087726D01*
X-77097964Y38092028D01*
X-77097956Y38092032D01*
X-77097951Y38092038D01*
X-77092286Y38096516D01*
X-77090837Y38094683D01*
X-77039358Y38122792D01*
X-76969666Y38117808D01*
X-76934665Y38095314D01*
X-76933714Y38096516D01*
X-76928050Y38092038D01*
X-76928044Y38092032D01*
X-76928037Y38092028D01*
X-76922596Y38087726D01*
X-76882215Y38030707D01*
X-76875500Y37990454D01*
X-76875500Y35671607D01*
X-76875500Y35548393D01*
X-76870228Y35521888D01*
X-76851463Y35427548D01*
X-76844223Y35410070D01*
X-76804312Y35313714D01*
X-76783851Y35283093D01*
X-76783850Y35283090D01*
X-76783849Y35283090D01*
X-76735859Y35211268D01*
X-76735856Y35211264D01*
X-76644414Y35119822D01*
X-76644392Y35119802D01*
X-73602648Y32078058D01*
X-73569163Y32016735D01*
X-73574147Y31947043D01*
X-73575767Y31942928D01*
X-73586871Y31916119D01*
X-73586873Y31916113D01*
X-73645683Y31671152D01*
X-73665449Y31420000D01*
X-73645683Y31168849D01*
X-73586874Y30923890D01*
X-73490467Y30691141D01*
X-73358840Y30476347D01*
X-73358839Y30476344D01*
X-73358836Y30476341D01*
X-73195224Y30284776D01*
X-73103518Y30206452D01*
X-73003657Y30121162D01*
X-73003654Y30121161D01*
X-72788860Y29989534D01*
X-72602377Y29912291D01*
X-72556111Y29893127D01*
X-72311148Y29834317D01*
X-72060000Y29814551D01*
X-71808852Y29834317D01*
X-71563889Y29893127D01*
X-71460150Y29936098D01*
X-71390682Y29943566D01*
X-71328203Y29912291D01*
X-71292550Y29852203D01*
X-71295043Y29782377D01*
X-71325017Y29733855D01*
X-71517052Y29541819D01*
X-71578375Y29508334D01*
X-71604733Y29505500D01*
X-78607548Y29505500D01*
X-78674587Y29525185D01*
X-78695229Y29541819D01*
X-79272181Y30118771D01*
X-79305666Y30180094D01*
X-79308500Y30206452D01*
X-79308500Y34041293D01*
X-79308501Y34041296D01*
X-79308526Y34041419D01*
X-79326254Y34130548D01*
X-79332537Y34162138D01*
X-79360437Y34229494D01*
X-79379688Y34275971D01*
X-79411291Y34323267D01*
X-79448142Y34378419D01*
X-79448144Y34378422D01*
X-79538363Y34468641D01*
X-79538394Y34468670D01*
X-82320181Y37250457D01*
X-82353666Y37311780D01*
X-82356500Y37338138D01*
X-82356500Y38616663D01*
X-82026500Y38616663D01*
X-82026499Y38616645D01*
X-82016350Y38517293D01*
X-82016349Y38517290D01*
X-81963004Y38356306D01*
X-81962999Y38356295D01*
X-81873971Y38211960D01*
X-81873968Y38211956D01*
X-81754045Y38092033D01*
X-81754041Y38092030D01*
X-81609706Y38003002D01*
X-81609703Y38003001D01*
X-81609697Y38002997D01*
X-81448708Y37949651D01*
X-81349345Y37939500D01*
X-80802656Y37939501D01*
X-80802648Y37939502D01*
X-80802645Y37939502D01*
X-80748240Y37945060D01*
X-80703292Y37949651D01*
X-80542303Y38002997D01*
X-80397956Y38092032D01*
X-80278032Y38211956D01*
X-80188997Y38356303D01*
X-80135651Y38517292D01*
X-80125500Y38616655D01*
X-80125501Y39463344D01*
X-80127622Y39484103D01*
X-80135651Y39562708D01*
X-80135652Y39562711D01*
X-80166045Y39654432D01*
X-80188997Y39723697D01*
X-80189001Y39723703D01*
X-80189002Y39723706D01*
X-80278030Y39868041D01*
X-80278031Y39868042D01*
X-80278032Y39868044D01*
X-80397956Y39987968D01*
X-80397957Y39987969D01*
X-80397959Y39987971D01*
X-80403410Y39992281D01*
X-80443787Y40049303D01*
X-80450500Y40089548D01*
X-80450500Y40530454D01*
X-80430815Y40597493D01*
X-80403404Y40627726D01*
X-80397968Y40632025D01*
X-80397956Y40632032D01*
X-80278032Y40751956D01*
X-80188997Y40896303D01*
X-80135651Y41057292D01*
X-80125500Y41156655D01*
X-80125501Y41594550D01*
X-80105817Y41661588D01*
X-80089187Y41682225D01*
X-78940143Y42831266D01*
X-78871689Y42933714D01*
X-78846841Y42993703D01*
X-78824537Y43047548D01*
X-78815724Y43091856D01*
X-78802278Y43159452D01*
X-78802278Y43159457D01*
X-78800500Y43168393D01*
X-78800500Y43291606D01*
X-78800500Y48406852D01*
X-78780815Y48473891D01*
X-78728011Y48519646D01*
X-78658853Y48529590D01*
X-78595297Y48500565D01*
X-78570773Y48471642D01*
X-78438840Y48256346D01*
X-78438839Y48256344D01*
X-78438836Y48256341D01*
X-78275224Y48064776D01*
X-78173729Y47978091D01*
X-78083657Y47901162D01*
X-78083654Y47901161D01*
X-77878902Y47775688D01*
X-77868859Y47769534D01*
X-77842049Y47758430D01*
X-77787645Y47714590D01*
X-77765579Y47648297D01*
X-77765500Y47643868D01*
X-77765500Y42804500D01*
X-77785185Y42737461D01*
X-77837989Y42691706D01*
X-77889499Y42680500D01*
X-78049337Y42680500D01*
X-78049356Y42680499D01*
X-78148708Y42670350D01*
X-78148711Y42670349D01*
X-78309695Y42617004D01*
X-78309706Y42616999D01*
X-78454041Y42527971D01*
X-78454045Y42527968D01*
X-78573968Y42408045D01*
X-78573971Y42408041D01*
X-78662999Y42263706D01*
X-78663004Y42263695D01*
X-78716349Y42102710D01*
X-78726500Y42003353D01*
X-78726500Y41156663D01*
X-78726499Y41156645D01*
X-78716350Y41057293D01*
X-78716349Y41057290D01*
X-78663004Y40896306D01*
X-78662999Y40896295D01*
X-78573971Y40751960D01*
X-78573968Y40751956D01*
X-78454045Y40632033D01*
X-78454041Y40632030D01*
X-78309706Y40543002D01*
X-78309703Y40543001D01*
X-78309697Y40542997D01*
X-78148708Y40489651D01*
X-78049345Y40479500D01*
X-77502656Y40479501D01*
X-77502648Y40479502D01*
X-77502645Y40479502D01*
X-77448240Y40485060D01*
X-77403292Y40489651D01*
X-77242303Y40542997D01*
X-77097956Y40632032D01*
X-77097951Y40632038D01*
X-77092293Y40636510D01*
X-77090845Y40634679D01*
X-77039358Y40662792D01*
X-76969666Y40657808D01*
X-76934658Y40635309D01*
X-76933707Y40636510D01*
X-76928041Y40632030D01*
X-76783706Y40543002D01*
X-76783703Y40543001D01*
X-76783697Y40542997D01*
X-76622708Y40489651D01*
X-76523345Y40479500D01*
X-75976656Y40479501D01*
X-75976648Y40479502D01*
X-75976645Y40479502D01*
X-75922240Y40485060D01*
X-75877292Y40489651D01*
X-75716303Y40542997D01*
X-75571956Y40632032D01*
X-75452032Y40751956D01*
X-75362997Y40896303D01*
X-75309651Y41057292D01*
X-75299500Y41156655D01*
X-75299501Y42003344D01*
X-75299876Y42007011D01*
X-75309651Y42102708D01*
X-75309652Y42102711D01*
X-75317690Y42126969D01*
X-75362997Y42263697D01*
X-75363001Y42263703D01*
X-75363002Y42263706D01*
X-75452030Y42408041D01*
X-75452031Y42408042D01*
X-75452032Y42408044D01*
X-75571956Y42527968D01*
X-75571957Y42527969D01*
X-75571959Y42527971D01*
X-75577410Y42532281D01*
X-75617787Y42589303D01*
X-75624500Y42629548D01*
X-75624500Y46985548D01*
X-75604815Y47052587D01*
X-75588181Y47073229D01*
X-74123228Y48538181D01*
X-74061905Y48571666D01*
X-74035547Y48574500D01*
X-73616133Y48574500D01*
X-73549094Y48554815D01*
X-73503339Y48502011D01*
X-73501572Y48497952D01*
X-73490468Y48471144D01*
X-73490467Y48471142D01*
X-73358840Y48256347D01*
X-73358839Y48256344D01*
X-73358836Y48256341D01*
X-73195224Y48064776D01*
X-73093729Y47978091D01*
X-73003657Y47901162D01*
X-73003654Y47901161D01*
X-72788860Y47769534D01*
X-72556111Y47673127D01*
X-72357079Y47625344D01*
X-72296487Y47590553D01*
X-72264323Y47528527D01*
X-72270799Y47458958D01*
X-72298345Y47417089D01*
X-72862860Y46852573D01*
X-73348730Y46366703D01*
X-73348733Y46366700D01*
X-73376015Y46339418D01*
X-73435858Y46279576D01*
X-73442996Y46268893D01*
X-73465552Y46235135D01*
X-73504312Y46177128D01*
X-73528422Y46118919D01*
X-73551462Y46063297D01*
X-73551465Y46063287D01*
X-73560804Y46016337D01*
X-73560803Y46016336D01*
X-73573311Y45953451D01*
X-73574908Y45945421D01*
X-73575500Y45942447D01*
X-73575500Y42629548D01*
X-73595185Y42562509D01*
X-73622590Y42532281D01*
X-73628042Y42527971D01*
X-73747971Y42408041D01*
X-73836999Y42263706D01*
X-73837004Y42263695D01*
X-73890349Y42102710D01*
X-73900500Y42003353D01*
X-73900500Y41156663D01*
X-73900499Y41156645D01*
X-73890350Y41057293D01*
X-73890349Y41057290D01*
X-73837004Y40896306D01*
X-73836999Y40896295D01*
X-73747971Y40751960D01*
X-73747968Y40751956D01*
X-73628044Y40632032D01*
X-73628037Y40632028D01*
X-73622596Y40627726D01*
X-73582215Y40570707D01*
X-73575500Y40530454D01*
X-73575500Y40089548D01*
X-73595185Y40022509D01*
X-73622590Y39992281D01*
X-73628042Y39987971D01*
X-73747971Y39868041D01*
X-73836999Y39723706D01*
X-73837004Y39723695D01*
X-73890349Y39562710D01*
X-73900500Y39463353D01*
X-73900500Y38616663D01*
X-73900499Y38616645D01*
X-73890350Y38517293D01*
X-73890349Y38517290D01*
X-73837004Y38356306D01*
X-73836999Y38356295D01*
X-73747971Y38211960D01*
X-73747968Y38211956D01*
X-73628045Y38092033D01*
X-73628041Y38092030D01*
X-73483706Y38003002D01*
X-73483703Y38003001D01*
X-73483697Y38002997D01*
X-73322708Y37949651D01*
X-73223345Y37939500D01*
X-72676656Y37939501D01*
X-72676648Y37939502D01*
X-72676645Y37939502D01*
X-72622240Y37945060D01*
X-72577292Y37949651D01*
X-72416303Y38002997D01*
X-72271956Y38092032D01*
X-72152032Y38211956D01*
X-72062997Y38356303D01*
X-72009651Y38517292D01*
X-71999500Y38616655D01*
X-71999501Y39463344D01*
X-72001622Y39484103D01*
X-72009651Y39562708D01*
X-72009652Y39562711D01*
X-72040045Y39654432D01*
X-72062997Y39723697D01*
X-72063001Y39723703D01*
X-72063002Y39723706D01*
X-72152030Y39868041D01*
X-72152031Y39868042D01*
X-72152032Y39868044D01*
X-72271956Y39987968D01*
X-72271957Y39987969D01*
X-72271959Y39987971D01*
X-72277410Y39992281D01*
X-72317787Y40049303D01*
X-72324500Y40089548D01*
X-72324500Y40530454D01*
X-72304815Y40597493D01*
X-72277404Y40627726D01*
X-72271968Y40632025D01*
X-72271956Y40632032D01*
X-72152032Y40751956D01*
X-72062997Y40896303D01*
X-72009651Y41057292D01*
X-71999500Y41156655D01*
X-71999501Y42003344D01*
X-71999876Y42007011D01*
X-72009651Y42102708D01*
X-72009652Y42102711D01*
X-72017690Y42126969D01*
X-72062997Y42263697D01*
X-72063001Y42263703D01*
X-72063002Y42263706D01*
X-72152030Y42408041D01*
X-72152031Y42408042D01*
X-72152032Y42408044D01*
X-72271956Y42527968D01*
X-72271957Y42527969D01*
X-72271959Y42527971D01*
X-72277410Y42532281D01*
X-72317787Y42589303D01*
X-72324500Y42629548D01*
X-72324500Y45570391D01*
X-72304815Y45637430D01*
X-72288186Y45658067D01*
X-71100253Y46846000D01*
X-68590000Y46846000D01*
X-67865000Y46846000D01*
X-67865000Y47496000D01*
X-67865001Y47496001D01*
X-67946583Y47496000D01*
X-68017103Y47489592D01*
X-68017108Y47489591D01*
X-68179397Y47439019D01*
X-68324878Y47351073D01*
X-68445073Y47230878D01*
X-68533020Y47085396D01*
X-68583591Y46923107D01*
X-68590000Y46852573D01*
X-68590000Y46846000D01*
X-71100253Y46846000D01*
X-69756271Y48189982D01*
X-69756267Y48189984D01*
X-69669142Y48277109D01*
X-69600689Y48379556D01*
X-69600688Y48379557D01*
X-69569135Y48455733D01*
X-69553537Y48493390D01*
X-69537967Y48571666D01*
X-69535058Y48586290D01*
X-69529500Y48614235D01*
X-69529500Y53911500D01*
X-69509815Y53978539D01*
X-69457011Y54024294D01*
X-69405500Y54035500D01*
X-48377393Y54035500D01*
X-48316971Y54047519D01*
X-48256548Y54059537D01*
X-48215504Y54076538D01*
X-48142714Y54106688D01*
X-48085843Y54144689D01*
X-48085842Y54144689D01*
X-48055668Y54164852D01*
X-48040267Y54175142D01*
X-47953142Y54262267D01*
X-47953140Y54262271D01*
X-47778227Y54437185D01*
X-47716906Y54470667D01*
X-47690548Y54473501D01*
X-47252662Y54473501D01*
X-47252656Y54473501D01*
X-47252648Y54473502D01*
X-47252645Y54473502D01*
X-47198240Y54479060D01*
X-47153292Y54483651D01*
X-46992303Y54536997D01*
X-46847956Y54626032D01*
X-46728032Y54745956D01*
X-46725557Y54749970D01*
X-46673613Y54796695D01*
X-46644217Y54806492D01*
X-46623971Y54810519D01*
X-46563548Y54822537D01*
X-46563545Y54822539D01*
X-46563542Y54822539D01*
X-46530213Y54836346D01*
X-46530214Y54836346D01*
X-46530208Y54836348D01*
X-46449714Y54869688D01*
X-46398491Y54903916D01*
X-46347267Y54938142D01*
X-46260142Y55025267D01*
X-46260142Y55025269D01*
X-46249934Y55035476D01*
X-46249933Y55035479D01*
X-45696228Y55589181D01*
X-45634905Y55622666D01*
X-45608547Y55625500D01*
X-45549356Y55625500D01*
X-45549354Y55625500D01*
X-45364197Y55664856D01*
X-45191270Y55741849D01*
X-45038129Y55853112D01*
X-45034546Y55857091D01*
X-45032400Y55859474D01*
X-44972913Y55896121D01*
X-44940252Y55900500D01*
X-43717393Y55900500D01*
X-43656971Y55912519D01*
X-43596548Y55924537D01*
X-43546504Y55945266D01*
X-43482714Y55971688D01*
X-43431491Y56005916D01*
X-43380267Y56040142D01*
X-43293142Y56127267D01*
X-43293141Y56127269D01*
X-43286075Y56134335D01*
X-43286073Y56134339D01*
X-40996983Y58423428D01*
X-40935662Y58456911D01*
X-40865970Y58451927D01*
X-40810037Y58410055D01*
X-40803766Y58400842D01*
X-40727971Y58277960D01*
X-40727968Y58277956D01*
X-40608045Y58158033D01*
X-40608041Y58158030D01*
X-40463706Y58069002D01*
X-40463703Y58069001D01*
X-40463697Y58068997D01*
X-40302708Y58015651D01*
X-40203345Y58005500D01*
X-39656656Y58005501D01*
X-39656648Y58005502D01*
X-39656645Y58005502D01*
X-39602240Y58011060D01*
X-39557292Y58015651D01*
X-39396303Y58068997D01*
X-39251956Y58158032D01*
X-39132032Y58277956D01*
X-39042997Y58422303D01*
X-38989651Y58583292D01*
X-38979500Y58682655D01*
X-38979501Y59120550D01*
X-38959817Y59187588D01*
X-38943187Y59208225D01*
X-38641271Y59510140D01*
X-38641267Y59510142D01*
X-38554142Y59597267D01*
X-38512017Y59660311D01*
X-38485688Y59699714D01*
X-38452348Y59780208D01*
X-38438537Y59813548D01*
X-38429049Y59861250D01*
X-38419295Y59910284D01*
X-38414500Y59934393D01*
X-38414500Y63357605D01*
X-38414546Y63357835D01*
X-38414569Y63357955D01*
X-38438536Y63478445D01*
X-38438537Y63478451D01*
X-38443036Y63489312D01*
X-38443037Y63489318D01*
X-38443038Y63489317D01*
X-38457049Y63523144D01*
X-38457049Y63523145D01*
X-38485686Y63592282D01*
X-38485688Y63592285D01*
X-38485688Y63592286D01*
X-38533134Y63663292D01*
X-38554142Y63694733D01*
X-38554145Y63694736D01*
X-38554147Y63694739D01*
X-38644363Y63784955D01*
X-38644394Y63784984D01*
X-38943182Y64083772D01*
X-38976667Y64145095D01*
X-38979501Y64171453D01*
X-38979501Y64609338D01*
X-38979502Y64609356D01*
X-38989651Y64708708D01*
X-38989652Y64708711D01*
X-39008154Y64764547D01*
X-39042997Y64869697D01*
X-39043001Y64869703D01*
X-39043002Y64869706D01*
X-39132030Y65014041D01*
X-39132033Y65014045D01*
X-39251956Y65133968D01*
X-39251960Y65133971D01*
X-39396295Y65222999D01*
X-39396301Y65223002D01*
X-39396303Y65223003D01*
X-39396306Y65223004D01*
X-39557291Y65276349D01*
X-39656648Y65286500D01*
X-39656655Y65286500D01*
X-40068500Y65286500D01*
X-40135539Y65306185D01*
X-40181294Y65358989D01*
X-40192500Y65410500D01*
X-40192500Y65501501D01*
X-40172815Y65568540D01*
X-40120011Y65614295D01*
X-40068500Y65625501D01*
X-39656662Y65625501D01*
X-39656656Y65625501D01*
X-39656648Y65625502D01*
X-39656645Y65625502D01*
X-39602240Y65631060D01*
X-39557292Y65635651D01*
X-39396303Y65688997D01*
X-39251956Y65778032D01*
X-39132032Y65897956D01*
X-39042997Y66042303D01*
X-38989651Y66203292D01*
X-38979500Y66302655D01*
X-38979501Y67149344D01*
X-38989651Y67248708D01*
X-39042997Y67409697D01*
X-39043001Y67409703D01*
X-39043002Y67409706D01*
X-39132030Y67554041D01*
X-39132033Y67554045D01*
X-39251956Y67673968D01*
X-39251960Y67673971D01*
X-39396295Y67762999D01*
X-39396301Y67763002D01*
X-39396303Y67763003D01*
X-39396306Y67763004D01*
X-39557291Y67816349D01*
X-39656654Y67826500D01*
X-40203338Y67826500D01*
X-40203356Y67826499D01*
X-40302708Y67816350D01*
X-40302711Y67816349D01*
X-40463695Y67763004D01*
X-40463706Y67762999D01*
X-40608041Y67673971D01*
X-40608045Y67673968D01*
X-40727968Y67554045D01*
X-40727971Y67554041D01*
X-40816999Y67409706D01*
X-40817004Y67409695D01*
X-40870349Y67248710D01*
X-40880500Y67149353D01*
X-40880500Y66711454D01*
X-40900185Y66644415D01*
X-40916820Y66623773D01*
X-41216731Y66323860D01*
X-41216733Y66323858D01*
X-41260296Y66280296D01*
X-41303858Y66236734D01*
X-41328737Y66199499D01*
X-41372311Y66134288D01*
X-41372315Y66134281D01*
X-41386306Y66100501D01*
X-41386306Y66100500D01*
X-41419462Y66020455D01*
X-41419465Y66020445D01*
X-41443500Y65899611D01*
X-41443500Y62472389D01*
X-41419465Y62351556D01*
X-41419460Y62351539D01*
X-41372315Y62237719D01*
X-41372308Y62237706D01*
X-41365778Y62227934D01*
X-41365772Y62227927D01*
X-41303860Y62135269D01*
X-41303859Y62135268D01*
X-41303858Y62135267D01*
X-41216733Y62048142D01*
X-41216732Y62048142D01*
X-41209665Y62041075D01*
X-41209666Y62041075D01*
X-41209662Y62041072D01*
X-40916819Y61748229D01*
X-40883334Y61686906D01*
X-40880500Y61660548D01*
X-40880500Y61222663D01*
X-40880499Y61222645D01*
X-40870350Y61123293D01*
X-40870349Y61123290D01*
X-40855306Y61077895D01*
X-40852904Y61008067D01*
X-40885331Y60951210D01*
X-42127135Y59709405D01*
X-42188458Y59675920D01*
X-42258150Y59680904D01*
X-42314083Y59722776D01*
X-42332520Y59758077D01*
X-42342997Y59789697D01*
X-42343002Y59789704D01*
X-42343002Y59789706D01*
X-42432030Y59934041D01*
X-42432033Y59934045D01*
X-42551956Y60053968D01*
X-42551960Y60053971D01*
X-42696295Y60142999D01*
X-42696301Y60143002D01*
X-42696303Y60143003D01*
X-42772690Y60168315D01*
X-42857291Y60196349D01*
X-42956648Y60206500D01*
X-42956655Y60206500D01*
X-43370500Y60206500D01*
X-43437539Y60226185D01*
X-43483294Y60278989D01*
X-43494500Y60330500D01*
X-43494500Y60421501D01*
X-43474815Y60488540D01*
X-43422011Y60534295D01*
X-43370500Y60545501D01*
X-42956662Y60545501D01*
X-42956656Y60545501D01*
X-42956648Y60545502D01*
X-42956645Y60545502D01*
X-42902240Y60551060D01*
X-42857292Y60555651D01*
X-42696303Y60608997D01*
X-42551956Y60698032D01*
X-42432032Y60817956D01*
X-42342997Y60962303D01*
X-42289651Y61123292D01*
X-42279500Y61222655D01*
X-42279501Y62069344D01*
X-42289651Y62168708D01*
X-42342997Y62329697D01*
X-42343001Y62329703D01*
X-42343002Y62329706D01*
X-42432030Y62474041D01*
X-42432033Y62474045D01*
X-42551956Y62593968D01*
X-42551960Y62593971D01*
X-42696295Y62682999D01*
X-42696301Y62683002D01*
X-42696303Y62683003D01*
X-42699770Y62684152D01*
X-42857291Y62736349D01*
X-42956648Y62746500D01*
X-42956655Y62746500D01*
X-43394548Y62746500D01*
X-43461587Y62766185D01*
X-43482229Y62782819D01*
X-43573230Y62873820D01*
X-43606715Y62935143D01*
X-43601731Y63004835D01*
X-43559859Y63060768D01*
X-43494395Y63085185D01*
X-43485577Y63085501D01*
X-42956656Y63085501D01*
X-42956648Y63085502D01*
X-42956645Y63085502D01*
X-42902240Y63091060D01*
X-42857292Y63095651D01*
X-42696303Y63148997D01*
X-42551956Y63238032D01*
X-42432032Y63357956D01*
X-42342997Y63502303D01*
X-42289651Y63663292D01*
X-42279500Y63762655D01*
X-42279501Y64200548D01*
X-42259817Y64267586D01*
X-42243187Y64288224D01*
X-41983142Y64548267D01*
X-41914688Y64650715D01*
X-41887068Y64717397D01*
X-41867537Y64764548D01*
X-41862979Y64787463D01*
X-41855741Y64823852D01*
X-41843499Y64885392D01*
X-41843499Y65013721D01*
X-41843500Y65013743D01*
X-41843500Y67801147D01*
X-41823815Y67868186D01*
X-41771011Y67913941D01*
X-41709774Y67924765D01*
X-41580000Y67914551D01*
X-41328852Y67934317D01*
X-41083889Y67993127D01*
X-40851141Y68089534D01*
X-40636341Y68221164D01*
X-40444776Y68384776D01*
X-40281164Y68576341D01*
X-40149534Y68791141D01*
X-40053127Y69023889D01*
X-39994317Y69268852D01*
X-39974551Y69520000D01*
X-39994317Y69771148D01*
X-40053127Y70016111D01*
X-40110656Y70155000D01*
X-40149534Y70248860D01*
X-40281161Y70463654D01*
X-40281162Y70463657D01*
X-40325603Y70515690D01*
X-40444776Y70655224D01*
X-40614872Y70800500D01*
X-40636344Y70818839D01*
X-40636347Y70818840D01*
X-40851141Y70950467D01*
X-41083890Y71046874D01*
X-41328849Y71105683D01*
X-41580000Y71125449D01*
X-41831152Y71105683D01*
X-42076111Y71046874D01*
X-42308860Y70950467D01*
X-42415710Y70884988D01*
X-42483156Y70866743D01*
X-42549758Y70887859D01*
X-42594372Y70941631D01*
X-42604500Y70990715D01*
X-42604500Y72639549D01*
X-42584815Y72706588D01*
X-42568185Y72727226D01*
X-42238057Y73057355D01*
X-42176736Y73090838D01*
X-42107045Y73085854D01*
X-42102926Y73084233D01*
X-42076116Y73073128D01*
X-41871652Y73024041D01*
X-41831148Y73014317D01*
X-41580000Y72994551D01*
X-41328852Y73014317D01*
X-41083889Y73073127D01*
X-40851141Y73169534D01*
X-40636341Y73301164D01*
X-40444776Y73464776D01*
X-40281164Y73656341D01*
X-40149534Y73871141D01*
X-40053127Y74103889D01*
X-39994317Y74348852D01*
X-39974551Y74600000D01*
X-39994317Y74851148D01*
X-40053127Y75096111D01*
X-40056047Y75103160D01*
X-40149534Y75328860D01*
X-40281161Y75543654D01*
X-40281162Y75543657D01*
X-40352139Y75626760D01*
X-40444776Y75735224D01*
X-40624885Y75889052D01*
X-40636344Y75898839D01*
X-40636347Y75898840D01*
X-40851141Y76030467D01*
X-41083890Y76126874D01*
X-41328849Y76185683D01*
X-41580000Y76205449D01*
X-41831152Y76185683D01*
X-42076111Y76126874D01*
X-42308860Y76030467D01*
X-42523654Y75898840D01*
X-42523657Y75898839D01*
X-42715224Y75735224D01*
X-42878839Y75543657D01*
X-42878840Y75543654D01*
X-43010467Y75328860D01*
X-43106874Y75096111D01*
X-43165683Y74851152D01*
X-43185449Y74600000D01*
X-43165683Y74348849D01*
X-43106873Y74103888D01*
X-43106873Y74103886D01*
X-43095768Y74077077D01*
X-43088299Y74007608D01*
X-43119575Y73945129D01*
X-43122648Y73941944D01*
X-43380278Y73684313D01*
X-43628731Y73435860D01*
X-43628733Y73435858D01*
X-43659879Y73404712D01*
X-43715858Y73348734D01*
X-43747643Y73301164D01*
X-43747644Y73301165D01*
X-43784308Y73246293D01*
X-43784315Y73246281D01*
X-43816103Y73169535D01*
X-43816103Y73169534D01*
X-43831462Y73132455D01*
X-43831465Y73132445D01*
X-43855500Y73011611D01*
X-43855500Y67775548D01*
X-43875185Y67708509D01*
X-43902590Y67678281D01*
X-43908042Y67673971D01*
X-44027971Y67554041D01*
X-44116999Y67409706D01*
X-44117004Y67409695D01*
X-44170349Y67248710D01*
X-44180500Y67149353D01*
X-44180500Y66302663D01*
X-44180499Y66302645D01*
X-44170350Y66203293D01*
X-44170349Y66203290D01*
X-44117004Y66042306D01*
X-44116999Y66042295D01*
X-44027971Y65897960D01*
X-44027968Y65897956D01*
X-43908045Y65778033D01*
X-43908041Y65778030D01*
X-43763706Y65689002D01*
X-43763703Y65689001D01*
X-43763697Y65688997D01*
X-43602708Y65635651D01*
X-43503345Y65625500D01*
X-43218499Y65625501D01*
X-43151461Y65605817D01*
X-43105706Y65553013D01*
X-43094500Y65501501D01*
X-43094500Y65410500D01*
X-43114185Y65343461D01*
X-43166989Y65297706D01*
X-43218500Y65286500D01*
X-43503337Y65286500D01*
X-43503356Y65286499D01*
X-43602708Y65276350D01*
X-43602711Y65276349D01*
X-43763695Y65223004D01*
X-43763706Y65222999D01*
X-43908041Y65133971D01*
X-43908045Y65133968D01*
X-44027968Y65014045D01*
X-44027971Y65014041D01*
X-44116999Y64869706D01*
X-44117004Y64869695D01*
X-44170349Y64708710D01*
X-44180500Y64609353D01*
X-44180500Y63780452D01*
X-44200185Y63713413D01*
X-44252989Y63667658D01*
X-44322147Y63657714D01*
X-44385703Y63686739D01*
X-44392181Y63692771D01*
X-48538181Y67838771D01*
X-48571666Y67900094D01*
X-48574500Y67926452D01*
X-48574500Y68598868D01*
X-48554815Y68665907D01*
X-48502011Y68711662D01*
X-48497973Y68713421D01*
X-48471141Y68724534D01*
X-48256341Y68856164D01*
X-48064776Y69019776D01*
X-47901164Y69211341D01*
X-47769534Y69426141D01*
X-47673127Y69658889D01*
X-47614317Y69903852D01*
X-47594551Y70155000D01*
X-47614317Y70406148D01*
X-47673127Y70651111D01*
X-47698574Y70712546D01*
X-47769534Y70883860D01*
X-47901161Y71098654D01*
X-47901162Y71098657D01*
X-47974317Y71184310D01*
X-48064776Y71290224D01*
X-48191429Y71398396D01*
X-48256344Y71453839D01*
X-48256347Y71453840D01*
X-48471141Y71585467D01*
X-48703890Y71681874D01*
X-48948849Y71740683D01*
X-49200000Y71760449D01*
X-49451152Y71740683D01*
X-49696111Y71681874D01*
X-49928860Y71585467D01*
X-50143654Y71453840D01*
X-50143657Y71453839D01*
X-50335224Y71290224D01*
X-50498839Y71098657D01*
X-50498840Y71098654D01*
X-50630467Y70883860D01*
X-50726874Y70651111D01*
X-50785683Y70406152D01*
X-50805449Y70155000D01*
X-50785683Y69903849D01*
X-50726874Y69658890D01*
X-50630467Y69426141D01*
X-50498840Y69211347D01*
X-50498839Y69211344D01*
X-50498836Y69211341D01*
X-50335224Y69019776D01*
X-50186934Y68893125D01*
X-50143657Y68856162D01*
X-50143654Y68856161D01*
X-50037552Y68791141D01*
X-49928859Y68724534D01*
X-49902049Y68713430D01*
X-49847645Y68669590D01*
X-49825579Y68603297D01*
X-49825500Y68598868D01*
X-49825500Y67554390D01*
X-49813482Y67493971D01*
X-49803457Y67443573D01*
X-49801463Y67433547D01*
X-49787653Y67400208D01*
X-49787653Y67400207D01*
X-49754315Y67319719D01*
X-49754310Y67319710D01*
X-49722466Y67272054D01*
X-49722464Y67272051D01*
X-49722462Y67272049D01*
X-49706868Y67248711D01*
X-49685857Y67217265D01*
X-49594414Y67125822D01*
X-49594392Y67125802D01*
X-49342952Y66874362D01*
X-49309467Y66813039D01*
X-49314451Y66743347D01*
X-49356323Y66687414D01*
X-49420901Y66663064D01*
X-49451148Y66660683D01*
X-49451152Y66660682D01*
X-49696111Y66601874D01*
X-49928860Y66505467D01*
X-50143654Y66373840D01*
X-50143657Y66373839D01*
X-50335224Y66210224D01*
X-50498839Y66018657D01*
X-50498840Y66018654D01*
X-50630467Y65803860D01*
X-50726874Y65571111D01*
X-50785683Y65326152D01*
X-50805449Y65075000D01*
X-50785683Y64823849D01*
X-50726874Y64578890D01*
X-50630467Y64346141D01*
X-50498840Y64131347D01*
X-50498839Y64131344D01*
X-50335222Y63939774D01*
X-50147182Y63779173D01*
X-50108988Y63720667D01*
X-50108489Y63650799D01*
X-50145843Y63591752D01*
X-50209190Y63562274D01*
X-50241749Y63563235D01*
X-50241897Y63561821D01*
X-50248354Y63562500D01*
X-50437646Y63562500D01*
X-50440840Y63561821D01*
X-50622803Y63523145D01*
X-50622808Y63523143D01*
X-50795730Y63446152D01*
X-50795735Y63446149D01*
X-50948871Y63334889D01*
X-51075534Y63194215D01*
X-51170179Y63030285D01*
X-51170182Y63030278D01*
X-51228673Y62850260D01*
X-51228674Y62850256D01*
X-51248460Y62662000D01*
X-51228674Y62473744D01*
X-51228673Y62473741D01*
X-51170182Y62293723D01*
X-51170179Y62293716D01*
X-51075533Y62129784D01*
X-51021123Y62069356D01*
X-50948871Y61989112D01*
X-50795735Y61877852D01*
X-50795730Y61877849D01*
X-50622808Y61800858D01*
X-50622803Y61800856D01*
X-50437646Y61761500D01*
X-50378452Y61761500D01*
X-50311413Y61741815D01*
X-50290771Y61725181D01*
X-50069984Y61504394D01*
X-50069955Y61504363D01*
X-49979737Y61414145D01*
X-49979733Y61414142D01*
X-49910353Y61367784D01*
X-49877285Y61345688D01*
X-49813496Y61319266D01*
X-49763452Y61298537D01*
X-49642611Y61274501D01*
X-49642607Y61274500D01*
X-49642606Y61274500D01*
X-49519393Y61274500D01*
X-48379748Y61274500D01*
X-48312709Y61254815D01*
X-48287600Y61233474D01*
X-48281874Y61227115D01*
X-48281870Y61227111D01*
X-48128735Y61115852D01*
X-48128730Y61115849D01*
X-47955808Y61038858D01*
X-47955803Y61038856D01*
X-47770646Y60999500D01*
X-47770645Y60999500D01*
X-47581356Y60999500D01*
X-47581354Y60999500D01*
X-47396197Y61038856D01*
X-47223270Y61115849D01*
X-47070129Y61227112D01*
X-46943467Y61367784D01*
X-46848821Y61531716D01*
X-46790326Y61711744D01*
X-46770540Y61900000D01*
X-46790326Y62088256D01*
X-46848821Y62268284D01*
X-46943467Y62432216D01*
X-47070129Y62572888D01*
X-47070130Y62572889D01*
X-47223266Y62684149D01*
X-47223271Y62684152D01*
X-47396193Y62761143D01*
X-47396198Y62761145D01*
X-47546497Y62793091D01*
X-47581354Y62800500D01*
X-47770646Y62800500D01*
X-47803103Y62793602D01*
X-47955803Y62761145D01*
X-47955808Y62761143D01*
X-48128730Y62684152D01*
X-48128735Y62684149D01*
X-48281870Y62572890D01*
X-48281871Y62572888D01*
X-48287600Y62566526D01*
X-48347087Y62529879D01*
X-48379748Y62525500D01*
X-49270548Y62525500D01*
X-49337587Y62545185D01*
X-49358229Y62561819D01*
X-49404040Y62607630D01*
X-49437525Y62668953D01*
X-49439677Y62682329D01*
X-49457326Y62850256D01*
X-49515821Y63030284D01*
X-49610467Y63194216D01*
X-49726180Y63322728D01*
X-49756410Y63385719D01*
X-49747785Y63455055D01*
X-49703043Y63508720D01*
X-49636391Y63529678D01*
X-49605089Y63526275D01*
X-49451148Y63489317D01*
X-49200000Y63469551D01*
X-48948852Y63489317D01*
X-48703889Y63548127D01*
X-48471141Y63644534D01*
X-48256341Y63776164D01*
X-48064776Y63939776D01*
X-47901164Y64131341D01*
X-47769534Y64346141D01*
X-47758428Y64372952D01*
X-47714588Y64427356D01*
X-47648294Y64449421D01*
X-47643867Y64449500D01*
X-47605452Y64449500D01*
X-47538413Y64429815D01*
X-47517771Y64413181D01*
X-44781819Y61677229D01*
X-44748334Y61615906D01*
X-44745500Y61589548D01*
X-44745500Y59934393D01*
X-44740705Y59910284D01*
X-44740706Y59910284D01*
X-44721465Y59813556D01*
X-44721463Y59813548D01*
X-44707653Y59780208D01*
X-44707653Y59780207D01*
X-44674315Y59699719D01*
X-44674313Y59699716D01*
X-44674312Y59699714D01*
X-44647985Y59660315D01*
X-44647984Y59660313D01*
X-44647983Y59660311D01*
X-44605859Y59597268D01*
X-44605856Y59597264D01*
X-44514414Y59505822D01*
X-44514392Y59505802D01*
X-44216819Y59208229D01*
X-44183334Y59146906D01*
X-44180500Y59120548D01*
X-44180500Y58682663D01*
X-44180499Y58682645D01*
X-44170350Y58583293D01*
X-44170349Y58583290D01*
X-44117004Y58422306D01*
X-44116999Y58422295D01*
X-44027971Y58277960D01*
X-44027968Y58277956D01*
X-43908044Y58158032D01*
X-43899553Y58152795D01*
X-43852827Y58100849D01*
X-43841603Y58031887D01*
X-43869444Y57967804D01*
X-43876966Y57959574D01*
X-43912794Y57923746D01*
X-43974117Y57890261D01*
X-44043809Y57895245D01*
X-44073356Y57911106D01*
X-44157859Y57972501D01*
X-44175271Y57985152D01*
X-44348193Y58062143D01*
X-44348198Y58062145D01*
X-44493999Y58093135D01*
X-44533354Y58101500D01*
X-44722646Y58101500D01*
X-44755103Y58094602D01*
X-44907803Y58062145D01*
X-44907808Y58062143D01*
X-45080730Y57985152D01*
X-45080732Y57985150D01*
X-45233870Y57873890D01*
X-45233874Y57873886D01*
X-45239600Y57867526D01*
X-45299087Y57830879D01*
X-45331748Y57826500D01*
X-45403975Y57826500D01*
X-45471014Y57846185D01*
X-45516769Y57898989D01*
X-45526713Y57968147D01*
X-45497688Y58031703D01*
X-45454414Y58063779D01*
X-45445270Y58067849D01*
X-45292129Y58179112D01*
X-45165467Y58319784D01*
X-45070821Y58483716D01*
X-45012326Y58663744D01*
X-44992540Y58852000D01*
X-45012326Y59040256D01*
X-45070821Y59220284D01*
X-45165467Y59384216D01*
X-45292129Y59524888D01*
X-45292130Y59524889D01*
X-45445266Y59636149D01*
X-45445271Y59636152D01*
X-45618193Y59713143D01*
X-45618198Y59713145D01*
X-45763999Y59744135D01*
X-45803354Y59752500D01*
X-45803355Y59752500D01*
X-45862548Y59752500D01*
X-45929587Y59772185D01*
X-45950229Y59788819D01*
X-46169802Y60008392D01*
X-46169822Y60008414D01*
X-46261265Y60099857D01*
X-46282984Y60114369D01*
X-46325838Y60143003D01*
X-46325837Y60143003D01*
X-46325839Y60143005D01*
X-46363710Y60168310D01*
X-46363714Y60168312D01*
X-46363721Y60168315D01*
X-46444208Y60201653D01*
X-46477547Y60215463D01*
X-46487573Y60217457D01*
X-46537971Y60227482D01*
X-46598390Y60239500D01*
X-46598393Y60239500D01*
X-46598394Y60239500D01*
X-53710393Y60239500D01*
X-53833607Y60239500D01*
X-53833611Y60239500D01*
X-53894029Y60227482D01*
X-53931741Y60219981D01*
X-53954450Y60215464D01*
X-53954452Y60215463D01*
X-53987793Y60201653D01*
X-54068282Y60168315D01*
X-54068291Y60168310D01*
X-54106163Y60143003D01*
X-54106164Y60143002D01*
X-54170732Y60099860D01*
X-54212984Y60057607D01*
X-54257858Y60012733D01*
X-54257861Y60012730D01*
X-54641882Y59628708D01*
X-55010771Y59259819D01*
X-55072094Y59226334D01*
X-55098452Y59223500D01*
X-67939547Y59223500D01*
X-68006586Y59243185D01*
X-68027228Y59259819D01*
X-74192181Y65424772D01*
X-74225666Y65486095D01*
X-74228500Y65512453D01*
X-74228500Y66889052D01*
X-73520500Y66889052D01*
X-73517624Y66840774D01*
X-73517624Y66840770D01*
X-73517623Y66840769D01*
X-73471937Y66630751D01*
X-73471934Y66630740D01*
X-73387323Y66433155D01*
X-73266849Y66255152D01*
X-73266841Y66255143D01*
X-73114858Y66103160D01*
X-73114849Y66103152D01*
X-73024943Y66042303D01*
X-72936848Y65982679D01*
X-72936847Y65982679D01*
X-72936846Y65982678D01*
X-72838054Y65940373D01*
X-72739259Y65898066D01*
X-72739251Y65898065D01*
X-72739250Y65898064D01*
X-72727234Y65895451D01*
X-72529226Y65852376D01*
X-72480948Y65849500D01*
X-72480936Y65849500D01*
X-70559064Y65849500D01*
X-70559052Y65849500D01*
X-70510774Y65852376D01*
X-70300741Y65898066D01*
X-70103152Y65982679D01*
X-69961268Y66078709D01*
X-69925152Y66103152D01*
X-69925151Y66103154D01*
X-69925145Y66103157D01*
X-69773157Y66255145D01*
X-69652679Y66433152D01*
X-69568066Y66630741D01*
X-69522376Y66840774D01*
X-69519500Y66889052D01*
X-69519500Y68275500D01*
X-69499815Y68342539D01*
X-69447011Y68388294D01*
X-69395500Y68399500D01*
X-69275514Y68399500D01*
X-69088882Y68429060D01*
X-68909168Y68487453D01*
X-68740801Y68573240D01*
X-68587927Y68684310D01*
X-68454310Y68817927D01*
X-68343240Y68970801D01*
X-68257453Y69139168D01*
X-68199060Y69318882D01*
X-68171340Y69493900D01*
X-68169500Y69505514D01*
X-68169500Y69694487D01*
X-68199060Y69881119D01*
X-68257455Y70060837D01*
X-68343241Y70229200D01*
X-68357525Y70248860D01*
X-68454310Y70382073D01*
X-68587927Y70515690D01*
X-68740801Y70626760D01*
X-68909168Y70712547D01*
X-68969252Y70732070D01*
X-69026927Y70771507D01*
X-69054125Y70835865D01*
X-69042210Y70904712D01*
X-68994966Y70956187D01*
X-68969254Y70967931D01*
X-68909168Y70987453D01*
X-68740801Y71073240D01*
X-68587927Y71184310D01*
X-68454310Y71317927D01*
X-68343240Y71470801D01*
X-68257453Y71639168D01*
X-68199060Y71818882D01*
X-68169500Y72005514D01*
X-68169500Y72194487D01*
X-68199060Y72381119D01*
X-68257455Y72560837D01*
X-68323731Y72690910D01*
X-68343240Y72729199D01*
X-68454310Y72882073D01*
X-68587927Y73015690D01*
X-68740801Y73126760D01*
X-68909168Y73212547D01*
X-68969252Y73232070D01*
X-69026927Y73271507D01*
X-69054125Y73335865D01*
X-69042210Y73404712D01*
X-68994966Y73456187D01*
X-68969254Y73467931D01*
X-68909168Y73487453D01*
X-68740801Y73573240D01*
X-68587927Y73684310D01*
X-68454310Y73817927D01*
X-68343240Y73970801D01*
X-68257453Y74139168D01*
X-68199060Y74318882D01*
X-68194313Y74348852D01*
X-68169500Y74505514D01*
X-68169500Y74694487D01*
X-68199060Y74881119D01*
X-68257455Y75060837D01*
X-68343241Y75229200D01*
X-68360339Y75252733D01*
X-68454310Y75382073D01*
X-68587927Y75515690D01*
X-68740801Y75626760D01*
X-68748634Y75630751D01*
X-68909164Y75712546D01*
X-69088882Y75770941D01*
X-69275514Y75800500D01*
X-69275519Y75800500D01*
X-69395500Y75800500D01*
X-69462539Y75820185D01*
X-69508294Y75872989D01*
X-69519500Y75924500D01*
X-69519500Y77310936D01*
X-69519500Y77310948D01*
X-69522376Y77359226D01*
X-69568066Y77569259D01*
X-69652679Y77766848D01*
X-69685635Y77815540D01*
X-69773152Y77944849D01*
X-69773160Y77944858D01*
X-69925143Y78096841D01*
X-69925152Y78096849D01*
X-70103155Y78217323D01*
X-70300740Y78301934D01*
X-70300751Y78301937D01*
X-70510769Y78347623D01*
X-70510770Y78347624D01*
X-70510774Y78347624D01*
X-70559052Y78350500D01*
X-72480948Y78350500D01*
X-72529226Y78347624D01*
X-72529231Y78347624D01*
X-72529232Y78347623D01*
X-72739250Y78301937D01*
X-72739261Y78301934D01*
X-72936846Y78217323D01*
X-73114849Y78096849D01*
X-73114858Y78096841D01*
X-73266841Y77944858D01*
X-73266849Y77944849D01*
X-73387323Y77766846D01*
X-73471934Y77569261D01*
X-73471937Y77569250D01*
X-73517623Y77359232D01*
X-73517624Y77359226D01*
X-73520500Y77310948D01*
X-73520500Y75889052D01*
X-73517624Y75840774D01*
X-73517624Y75840770D01*
X-73517623Y75840769D01*
X-73471937Y75630751D01*
X-73471934Y75630740D01*
X-73387323Y75433155D01*
X-73266849Y75255152D01*
X-73266841Y75255143D01*
X-73114858Y75103160D01*
X-73114849Y75103152D01*
X-73016288Y75036445D01*
X-72936848Y74982679D01*
X-72739259Y74898066D01*
X-72529226Y74852376D01*
X-72480948Y74849500D01*
X-70991133Y74849500D01*
X-70924094Y74829815D01*
X-70878339Y74777011D01*
X-70868395Y74707853D01*
X-70868660Y74706100D01*
X-70870500Y74694484D01*
X-70870500Y74505514D01*
X-70840941Y74318882D01*
X-70782546Y74139164D01*
X-70715514Y74007608D01*
X-70696760Y73970801D01*
X-70585690Y73817927D01*
X-70452073Y73684310D01*
X-70299199Y73573240D01*
X-70219653Y73532710D01*
X-70130837Y73487455D01*
X-70130835Y73487455D01*
X-70130832Y73487453D01*
X-70070749Y73467931D01*
X-70013074Y73428493D01*
X-69985876Y73364134D01*
X-69997791Y73295288D01*
X-70045035Y73243812D01*
X-70070747Y73232070D01*
X-70089244Y73226061D01*
X-70130837Y73212546D01*
X-70299200Y73126760D01*
X-70355501Y73085854D01*
X-70452073Y73015690D01*
X-70452075Y73015688D01*
X-70452076Y73015688D01*
X-70585688Y72882076D01*
X-70585688Y72882075D01*
X-70585690Y72882073D01*
X-70633390Y72816421D01*
X-70696760Y72729200D01*
X-70782546Y72560837D01*
X-70840941Y72381119D01*
X-70870500Y72194487D01*
X-70870500Y72005514D01*
X-70840941Y71818882D01*
X-70782546Y71639164D01*
X-70755185Y71585466D01*
X-70696760Y71470801D01*
X-70585690Y71317927D01*
X-70452073Y71184310D01*
X-70299199Y71073240D01*
X-70219653Y71032710D01*
X-70130837Y70987455D01*
X-70130835Y70987455D01*
X-70130832Y70987453D01*
X-70070749Y70967931D01*
X-70013074Y70928493D01*
X-69985876Y70864134D01*
X-69997791Y70795288D01*
X-70045035Y70743812D01*
X-70070747Y70732070D01*
X-70089244Y70726061D01*
X-70130837Y70712546D01*
X-70299200Y70626760D01*
X-70386421Y70563390D01*
X-70452073Y70515690D01*
X-70452075Y70515688D01*
X-70452076Y70515688D01*
X-70585688Y70382076D01*
X-70585688Y70382075D01*
X-70585690Y70382073D01*
X-70633390Y70316421D01*
X-70696760Y70229200D01*
X-70782546Y70060837D01*
X-70840941Y69881119D01*
X-70870500Y69694487D01*
X-70870500Y69505517D01*
X-70868660Y69493900D01*
X-70877614Y69424606D01*
X-70922609Y69371154D01*
X-70989360Y69350513D01*
X-70991133Y69350500D01*
X-72480948Y69350500D01*
X-72529226Y69347624D01*
X-72529231Y69347624D01*
X-72529232Y69347623D01*
X-72739250Y69301937D01*
X-72739261Y69301934D01*
X-72936846Y69217323D01*
X-73114849Y69096849D01*
X-73114858Y69096841D01*
X-73266841Y68944858D01*
X-73266849Y68944849D01*
X-73387323Y68766846D01*
X-73471934Y68569261D01*
X-73471937Y68569250D01*
X-73502433Y68429060D01*
X-73517624Y68359226D01*
X-73520500Y68310948D01*
X-73520500Y66889052D01*
X-74228500Y66889052D01*
X-74228500Y74786259D01*
X-74228499Y74786280D01*
X-74228499Y74915609D01*
X-74252536Y75036445D01*
X-74252537Y75036451D01*
X-74299688Y75150285D01*
X-74368142Y75252733D01*
X-74368145Y75252737D01*
X-78043182Y78927773D01*
X-78076667Y78989096D01*
X-78079501Y79015454D01*
X-78079501Y80827871D01*
X-78079502Y80827877D01*
X-78079503Y80827884D01*
X-78085909Y80887483D01*
X-78136204Y81022331D01*
X-78136205Y81022332D01*
X-78136207Y81022336D01*
X-78222453Y81137545D01*
X-78222456Y81137548D01*
X-78337665Y81223794D01*
X-78337672Y81223798D01*
X-78472518Y81274092D01*
X-78472517Y81274092D01*
X-78532117Y81280499D01*
X-78532119Y81280500D01*
X-78532127Y81280500D01*
X-78532136Y81280500D01*
X-80827871Y81280500D01*
X-80827877Y81280499D01*
X-80887484Y81274092D01*
X-81022329Y81223798D01*
X-81022336Y81223794D01*
X-81137545Y81137548D01*
X-81137548Y81137545D01*
X-81223794Y81022336D01*
X-81223798Y81022329D01*
X-81274092Y80887483D01*
X-81280499Y80827884D01*
X-81280499Y80827877D01*
X-81280500Y80827865D01*
X-81280500Y78532130D01*
X-81280499Y78532124D01*
X-81274092Y78472517D01*
X-81223798Y78337672D01*
X-81223794Y78337665D01*
X-81137548Y78222456D01*
X-81137545Y78222453D01*
X-81022336Y78136207D01*
X-81022329Y78136203D01*
X-80887483Y78085909D01*
X-80887484Y78085909D01*
X-80880556Y78085165D01*
X-80827873Y78079500D01*
X-79015454Y78079501D01*
X-78948415Y78059816D01*
X-78927773Y78043182D01*
X-75515819Y74631229D01*
X-75482334Y74569906D01*
X-75479500Y74543548D01*
X-75479500Y65140394D01*
X-75455463Y65019548D01*
X-75455462Y65019546D01*
X-75455462Y65019544D01*
X-75450932Y65008607D01*
X-75450931Y65008606D01*
X-75408316Y64905722D01*
X-75408313Y64905715D01*
X-75408312Y64905714D01*
X-75398847Y64891549D01*
X-75398845Y64891547D01*
X-75398844Y64891545D01*
X-75339860Y64803269D01*
X-75339859Y64803268D01*
X-75339858Y64803267D01*
X-75252733Y64716142D01*
X-75252732Y64716142D01*
X-75245665Y64709075D01*
X-75245666Y64709075D01*
X-75245663Y64709073D01*
X-68735859Y58199268D01*
X-68735858Y58199267D01*
X-68689387Y58152796D01*
X-68648732Y58112141D01*
X-68546293Y58043693D01*
X-68546287Y58043690D01*
X-68546286Y58043689D01*
X-68432452Y57996537D01*
X-68403891Y57990856D01*
X-68375245Y57985158D01*
X-68375229Y57985155D01*
X-68375209Y57985151D01*
X-68311609Y57972501D01*
X-68311608Y57972500D01*
X-68311607Y57972500D01*
X-68311606Y57972500D01*
X-64894500Y57972500D01*
X-64827461Y57952815D01*
X-64781706Y57900011D01*
X-64770500Y57848500D01*
X-64770499Y55918500D01*
X-64790184Y55851461D01*
X-64842987Y55805706D01*
X-64894499Y55794500D01*
X-67100687Y55794500D01*
X-67167726Y55814185D01*
X-67213481Y55866989D01*
X-67224008Y55905538D01*
X-67237326Y56032256D01*
X-67295821Y56212284D01*
X-67390467Y56376216D01*
X-67517129Y56516888D01*
X-67517130Y56516889D01*
X-67670266Y56628149D01*
X-67670271Y56628152D01*
X-67843193Y56705143D01*
X-67843198Y56705145D01*
X-67988999Y56736135D01*
X-68028354Y56744500D01*
X-68217646Y56744500D01*
X-68250103Y56737602D01*
X-68402803Y56705145D01*
X-68402808Y56705143D01*
X-68575730Y56628152D01*
X-68575735Y56628149D01*
X-68707730Y56532249D01*
X-68773537Y56508769D01*
X-68841590Y56524595D01*
X-68868296Y56544886D01*
X-70653637Y58330227D01*
X-70687122Y58391550D01*
X-70682138Y58461242D01*
X-70673343Y58479908D01*
X-70657071Y58508092D01*
X-70597821Y58610716D01*
X-70539326Y58790744D01*
X-70519540Y58979000D01*
X-70539326Y59167256D01*
X-70597821Y59347284D01*
X-70692467Y59511216D01*
X-70819129Y59651888D01*
X-70830725Y59660313D01*
X-70972266Y59763149D01*
X-70972271Y59763152D01*
X-71145193Y59840143D01*
X-71145198Y59840145D01*
X-71290999Y59871135D01*
X-71330354Y59879500D01*
X-71519646Y59879500D01*
X-71552103Y59872602D01*
X-71704803Y59840145D01*
X-71704808Y59840143D01*
X-71877730Y59763152D01*
X-71877735Y59763149D01*
X-72030871Y59651889D01*
X-72157534Y59511215D01*
X-72252179Y59347285D01*
X-72252182Y59347278D01*
X-72297361Y59208230D01*
X-72310674Y59167256D01*
X-72315583Y59120549D01*
X-72326297Y59018608D01*
X-72352882Y58953994D01*
X-72410179Y58914009D01*
X-72479998Y58911349D01*
X-72537299Y58943889D01*
X-76478181Y62884771D01*
X-76511666Y62946094D01*
X-76514500Y62972452D01*
X-76514500Y65897606D01*
X-76514570Y65897956D01*
X-76514595Y65898083D01*
X-76531422Y65982677D01*
X-76531422Y65982678D01*
X-76531422Y65982679D01*
X-76538537Y66018452D01*
X-76552348Y66051793D01*
X-76585688Y66132286D01*
X-76637766Y66210224D01*
X-76654142Y66234733D01*
X-76741267Y66321858D01*
X-76744379Y66324970D01*
X-76744394Y66324984D01*
X-77043182Y66623772D01*
X-77076667Y66685095D01*
X-77079501Y66711453D01*
X-77079501Y67149338D01*
X-77079502Y67149356D01*
X-77089651Y67248708D01*
X-77089652Y67248711D01*
X-77113182Y67319719D01*
X-77142997Y67409697D01*
X-77143001Y67409703D01*
X-77143002Y67409706D01*
X-77232030Y67554041D01*
X-77232033Y67554045D01*
X-77351956Y67673968D01*
X-77351960Y67673971D01*
X-77496295Y67762999D01*
X-77496301Y67763002D01*
X-77496303Y67763003D01*
X-77496306Y67763004D01*
X-77657291Y67816349D01*
X-77756654Y67826500D01*
X-78303338Y67826500D01*
X-78303356Y67826499D01*
X-78402708Y67816350D01*
X-78402711Y67816349D01*
X-78563695Y67763004D01*
X-78563706Y67762999D01*
X-78708041Y67673971D01*
X-78708045Y67673968D01*
X-78827968Y67554045D01*
X-78827971Y67554041D01*
X-78916999Y67409706D01*
X-78917004Y67409695D01*
X-78970349Y67248710D01*
X-78980500Y67149353D01*
X-78980500Y66711454D01*
X-79000185Y66644415D01*
X-79016820Y66623773D01*
X-79316731Y66323860D01*
X-79316733Y66323858D01*
X-79360296Y66280296D01*
X-79403858Y66236734D01*
X-79428737Y66199499D01*
X-79472311Y66134288D01*
X-79472315Y66134281D01*
X-79486306Y66100501D01*
X-79486306Y66100500D01*
X-79519462Y66020455D01*
X-79519465Y66020445D01*
X-79543500Y65899611D01*
X-79543500Y65899606D01*
X-79543500Y62854394D01*
X-79524268Y62757706D01*
X-79519462Y62733545D01*
X-79519461Y62733541D01*
X-79515347Y62723609D01*
X-79515345Y62723607D01*
X-79472312Y62619714D01*
X-79441023Y62572888D01*
X-79403859Y62517267D01*
X-79312414Y62425822D01*
X-79312392Y62425802D01*
X-71451819Y54565229D01*
X-71418334Y54503906D01*
X-71415500Y54477548D01*
X-71415500Y53955453D01*
X-71435185Y53888414D01*
X-71451819Y53867772D01*
X-73552771Y51766819D01*
X-73614094Y51733334D01*
X-73640452Y51730500D01*
X-78090611Y51730500D01*
X-78151029Y51718482D01*
X-78194257Y51709884D01*
X-78211454Y51706463D01*
X-78325284Y51659313D01*
X-78410547Y51602341D01*
X-78410548Y51602340D01*
X-78427737Y51590856D01*
X-78427738Y51590855D01*
X-79824731Y50193860D01*
X-79911856Y50106736D01*
X-79911862Y50106728D01*
X-79980309Y50004292D01*
X-79980311Y50004289D01*
X-79980312Y50004286D01*
X-79984126Y49995077D01*
X-79993893Y49971498D01*
X-79993894Y49971499D01*
X-80027461Y49890460D01*
X-80027465Y49890449D01*
X-80029281Y49881313D01*
X-80029281Y49881311D01*
X-80049617Y49779067D01*
X-80050069Y49776796D01*
X-80050071Y49776788D01*
X-80051499Y49769612D01*
X-80051500Y49769601D01*
X-80051500Y43540453D01*
X-80071185Y43473414D01*
X-80087819Y43452772D01*
X-80823773Y42716819D01*
X-80885096Y42683334D01*
X-80911454Y42680500D01*
X-81349338Y42680500D01*
X-81349356Y42680499D01*
X-81448708Y42670350D01*
X-81448711Y42670349D01*
X-81609695Y42617004D01*
X-81609706Y42616999D01*
X-81754041Y42527971D01*
X-81754045Y42527968D01*
X-81873968Y42408045D01*
X-81873971Y42408041D01*
X-81962999Y42263706D01*
X-81963004Y42263695D01*
X-82016349Y42102710D01*
X-82026500Y42003353D01*
X-82026500Y41156663D01*
X-82026499Y41156645D01*
X-82016350Y41057293D01*
X-82016349Y41057290D01*
X-81963004Y40896306D01*
X-81962999Y40896295D01*
X-81873971Y40751960D01*
X-81873968Y40751956D01*
X-81754044Y40632032D01*
X-81754037Y40632028D01*
X-81748596Y40627726D01*
X-81708215Y40570707D01*
X-81701500Y40530454D01*
X-81701500Y40089548D01*
X-81721185Y40022509D01*
X-81748590Y39992281D01*
X-81754042Y39987971D01*
X-81873971Y39868041D01*
X-81962999Y39723706D01*
X-81963004Y39723695D01*
X-82016349Y39562710D01*
X-82026500Y39463353D01*
X-82026500Y38616663D01*
X-82356500Y38616663D01*
X-82356500Y47475501D01*
X-82336815Y47542540D01*
X-82284011Y47588295D01*
X-82232500Y47599501D01*
X-81072129Y47599501D01*
X-81072128Y47599501D01*
X-81012517Y47605909D01*
X-80877669Y47656204D01*
X-80762454Y47742454D01*
X-80676204Y47857669D01*
X-80625909Y47992517D01*
X-80619500Y48052127D01*
X-80619501Y50347872D01*
X-80625909Y50407483D01*
X-80626033Y50407815D01*
X-80676203Y50542329D01*
X-80676207Y50542336D01*
X-80762453Y50657545D01*
X-80762456Y50657548D01*
X-80877665Y50743794D01*
X-80877672Y50743798D01*
X-81012518Y50794092D01*
X-81012517Y50794092D01*
X-81072117Y50800499D01*
X-81072119Y50800500D01*
X-81072127Y50800500D01*
X-81072136Y50800500D01*
X-83367871Y50800500D01*
X-83367877Y50800499D01*
X-83427484Y50794092D01*
X-83562329Y50743798D01*
X-83562336Y50743794D01*
X-83677545Y50657548D01*
X-83677548Y50657545D01*
X-83763794Y50542336D01*
X-83763798Y50542329D01*
X-83814092Y50407483D01*
X-83820342Y50349345D01*
X-83820499Y50347877D01*
X-83820500Y50347865D01*
X-83820500Y48052130D01*
X-83820499Y48052124D01*
X-83814092Y47992517D01*
X-83763798Y47857672D01*
X-83763797Y47857671D01*
X-83763796Y47857669D01*
X-83677548Y47742457D01*
X-83677549Y47742457D01*
X-83677548Y47742456D01*
X-83677546Y47742454D01*
X-83657188Y47727214D01*
X-83615319Y47671283D01*
X-83607500Y47627949D01*
X-83607500Y36966081D01*
X-83600203Y36929394D01*
X-83600203Y36929385D01*
X-83583465Y36845241D01*
X-83583464Y36845237D01*
X-83583463Y36845234D01*
X-83577943Y36831910D01*
X-83577742Y36831424D01*
X-83577741Y36831420D01*
X-83536315Y36731406D01*
X-83536313Y36731403D01*
X-83536312Y36731400D01*
X-83504708Y36684102D01*
X-83502086Y36680179D01*
X-83502085Y36680177D01*
X-83467859Y36628953D01*
X-83376414Y36537508D01*
X-83376392Y36537488D01*
X-80595819Y33756915D01*
X-80562334Y33695592D01*
X-80559500Y33669234D01*
X-80559500Y32973337D01*
X-80579185Y32906298D01*
X-80631989Y32860543D01*
X-80701147Y32850599D01*
X-80757811Y32874070D01*
X-80797874Y32904061D01*
X-80825779Y32924951D01*
X-80877670Y32963797D01*
X-80877672Y32963798D01*
X-81012518Y33014092D01*
X-81012517Y33014092D01*
X-81072117Y33020499D01*
X-81072119Y33020500D01*
X-81072127Y33020500D01*
X-81072136Y33020500D01*
X-83367871Y33020500D01*
X-83367877Y33020499D01*
X-83427484Y33014092D01*
X-83562329Y32963798D01*
X-83562336Y32963794D01*
X-83677545Y32877548D01*
X-83677548Y32877545D01*
X-83763794Y32762336D01*
X-83763798Y32762329D01*
X-83814092Y32627483D01*
X-83820499Y32567884D01*
X-83820500Y32567865D01*
X-83820500Y30272130D01*
X-83820499Y30272124D01*
X-83814092Y30212517D01*
X-83763798Y30077672D01*
X-83763794Y30077665D01*
X-83677548Y29962456D01*
X-83677545Y29962453D01*
X-83562336Y29876207D01*
X-83562329Y29876203D01*
X-83427483Y29825909D01*
X-83427484Y29825909D01*
X-83420556Y29825165D01*
X-83367873Y29819500D01*
X-81555453Y29819501D01*
X-81488414Y29799816D01*
X-81467772Y29783182D01*
X-79660984Y27976394D01*
X-79660955Y27976363D01*
X-79570735Y27886143D01*
X-79561125Y27879722D01*
X-79532677Y27860714D01*
X-79468285Y27817688D01*
X-79407361Y27792453D01*
X-79407360Y27792452D01*
X-79407359Y27792452D01*
X-79354452Y27770537D01*
X-79332577Y27766186D01*
X-79233609Y27746501D01*
X-79233608Y27746500D01*
X-79233607Y27746500D01*
X-71174987Y27746500D01*
X-71174987Y27746501D01*
X-71076018Y27766186D01*
X-71076017Y27766186D01*
X-71068661Y27767650D01*
X-71054143Y27770537D01*
X-71008621Y27789393D01*
X-70940309Y27817688D01*
X-70875918Y27860714D01*
X-70837862Y27886142D01*
X-70750737Y27973267D01*
X-70750736Y27973269D01*
X-70743670Y27980335D01*
X-70743667Y27980339D01*
X-70407119Y28316888D01*
X-70345798Y28350371D01*
X-70276106Y28345387D01*
X-70246555Y28329523D01*
X-70099735Y28222852D01*
X-70099730Y28222849D01*
X-69926808Y28145858D01*
X-69926803Y28145856D01*
X-69741646Y28106500D01*
X-69741645Y28106500D01*
X-69552356Y28106500D01*
X-69552354Y28106500D01*
X-69391780Y28140631D01*
X-69322114Y28135315D01*
X-69266380Y28093178D01*
X-69242275Y28027598D01*
X-69242000Y28019341D01*
X-69242000Y27874000D01*
X-66242000Y27874000D01*
X-66242000Y28075097D01*
X-66244898Y28117825D01*
X-66290832Y28302524D01*
X-66375391Y28473023D01*
X-66375393Y28473026D01*
X-66494633Y28621367D01*
X-66494634Y28621368D01*
X-66563885Y28677033D01*
X-66603804Y28734376D01*
X-66606384Y28804198D01*
X-66570806Y28864331D01*
X-66563911Y28870306D01*
X-66494278Y28926278D01*
X-66374970Y29074704D01*
X-66298152Y29229595D01*
X-66250731Y29280907D01*
X-66187064Y29298500D01*
X-63058266Y29298500D01*
X-62991227Y29278815D01*
X-62945472Y29226011D01*
X-62934753Y29163520D01*
X-62942000Y29082003D01*
X-62942000Y27874000D01*
X-61316000Y27874000D01*
X-61248961Y27854315D01*
X-61203206Y27801511D01*
X-61192000Y27750000D01*
X-61192000Y27498000D01*
X-61211685Y27430961D01*
X-61264489Y27385206D01*
X-61316000Y27374000D01*
X-62942000Y27374000D01*
X-62942000Y26166000D01*
X-62931392Y26046675D01*
X-62931391Y26046672D01*
X-62875578Y25851611D01*
X-62876061Y25781743D01*
X-62914241Y25723228D01*
X-62977996Y25694643D01*
X-62994794Y25693500D01*
X-63558142Y25693500D01*
X-63625181Y25713185D01*
X-63645823Y25729819D01*
X-64584950Y26668948D01*
X-64584951Y26668949D01*
X-64591743Y26673487D01*
X-64677416Y26730731D01*
X-64707876Y26751084D01*
X-64707878Y26751085D01*
X-64707881Y26751087D01*
X-64844454Y26807657D01*
X-64844464Y26807660D01*
X-64989451Y26836500D01*
X-64989453Y26836500D01*
X-66159317Y26836500D01*
X-66226356Y26856185D01*
X-66272111Y26908989D01*
X-66282055Y26978147D01*
X-66279652Y26990426D01*
X-66244898Y27130174D01*
X-66242000Y27172904D01*
X-66242000Y27374000D01*
X-69242000Y27374000D01*
X-69242000Y27172904D01*
X-69239103Y27130176D01*
X-69193169Y26945477D01*
X-69108610Y26774978D01*
X-69108608Y26774975D01*
X-68989370Y26626636D01*
X-68920116Y26570969D01*
X-68880197Y26513625D01*
X-68877617Y26443803D01*
X-68913195Y26383671D01*
X-68920115Y26377674D01*
X-68989724Y26321720D01*
X-69109031Y26173296D01*
X-69123854Y26143406D01*
X-69171275Y26092093D01*
X-69234942Y26074500D01*
X-70862299Y26074500D01*
X-70929338Y26094185D01*
X-70963874Y26127377D01*
X-71011506Y26195403D01*
X-71178598Y26362494D01*
X-71178605Y26362499D01*
X-71179368Y26363033D01*
X-71217479Y26389719D01*
X-71372166Y26498033D01*
X-71372170Y26498035D01*
X-71431371Y26525641D01*
X-71586337Y26597903D01*
X-71586341Y26597904D01*
X-71586345Y26597906D01*
X-71814587Y26659062D01*
X-71814597Y26659064D01*
X-72049999Y26679659D01*
X-72050001Y26679659D01*
X-72285404Y26659064D01*
X-72285414Y26659062D01*
X-72513656Y26597906D01*
X-72513665Y26597902D01*
X-72727829Y26498036D01*
X-72727831Y26498035D01*
X-72921403Y26362495D01*
X-73088495Y26195403D01*
X-73218425Y26009842D01*
X-73273002Y25966217D01*
X-73342500Y25959023D01*
X-73404855Y25990546D01*
X-73421575Y26009842D01*
X-73551506Y26195403D01*
X-73718598Y26362494D01*
X-73718605Y26362499D01*
X-73719368Y26363033D01*
X-73757479Y26389719D01*
X-73912166Y26498033D01*
X-73912170Y26498035D01*
X-73971371Y26525641D01*
X-74126337Y26597903D01*
X-74126341Y26597904D01*
X-74126345Y26597906D01*
X-74354587Y26659062D01*
X-74354597Y26659064D01*
X-74589999Y26679659D01*
X-74590001Y26679659D01*
X-74825404Y26659064D01*
X-74825414Y26659062D01*
X-75053656Y26597906D01*
X-75053665Y26597902D01*
X-75267829Y26498036D01*
X-75267831Y26498035D01*
X-75461403Y26362495D01*
X-75628495Y26195403D01*
X-75758425Y26009842D01*
X-75813002Y25966217D01*
X-75882500Y25959023D01*
X-75944855Y25990546D01*
X-75961575Y26009842D01*
X-76091506Y26195403D01*
X-76258598Y26362494D01*
X-76258605Y26362499D01*
X-76259368Y26363033D01*
X-76297479Y26389719D01*
X-76452166Y26498033D01*
X-76452170Y26498035D01*
X-76511371Y26525641D01*
X-76666337Y26597903D01*
X-76666341Y26597904D01*
X-76666345Y26597906D01*
X-76894587Y26659062D01*
X-76894597Y26659064D01*
X-77129999Y26679659D01*
X-77130001Y26679659D01*
X-77365404Y26659064D01*
X-77365414Y26659062D01*
X-77593656Y26597906D01*
X-77593665Y26597902D01*
X-77807829Y26498036D01*
X-77807831Y26498035D01*
X-78001400Y26362497D01*
X-78123327Y26240570D01*
X-78184650Y26207086D01*
X-78254342Y26212070D01*
X-78310275Y26253942D01*
X-78327190Y26284919D01*
X-78376203Y26416329D01*
X-78376207Y26416336D01*
X-78462453Y26531545D01*
X-78462456Y26531548D01*
X-78577665Y26617794D01*
X-78577672Y26617798D01*
X-78712518Y26668092D01*
X-78712517Y26668092D01*
X-78772117Y26674499D01*
X-78772119Y26674500D01*
X-78772127Y26674500D01*
X-78772136Y26674500D01*
X-80567871Y26674500D01*
X-80567877Y26674499D01*
X-80627484Y26668092D01*
X-80762329Y26617798D01*
X-80762336Y26617794D01*
X-80877545Y26531548D01*
X-80877548Y26531545D01*
X-80963794Y26416336D01*
X-80963798Y26416329D01*
X-81014092Y26281483D01*
X-81020499Y26221884D01*
X-81020500Y26221865D01*
X-81020500Y24426130D01*
X-81020499Y24426124D01*
X-81014092Y24366517D01*
X-80963798Y24231672D01*
X-80963794Y24231665D01*
X-80877548Y24116456D01*
X-80877545Y24116453D01*
X-80762336Y24030207D01*
X-80762329Y24030203D01*
X-80627483Y23979909D01*
X-80627484Y23979909D01*
X-80620556Y23979165D01*
X-80567873Y23973500D01*
X-78772128Y23973501D01*
X-78712517Y23979909D01*
X-78577669Y24030204D01*
X-78462454Y24116454D01*
X-78376204Y24231669D01*
X-78327190Y24363084D01*
X-78285319Y24419016D01*
X-78219855Y24443434D01*
X-78151582Y24428583D01*
X-78123327Y24407431D01*
X-78001401Y24285505D01*
X-77909770Y24221344D01*
X-77807835Y24149968D01*
X-77807833Y24149967D01*
X-77807830Y24149965D01*
X-77593663Y24050097D01*
X-77593657Y24050096D01*
X-77593656Y24050095D01*
X-77549721Y24038323D01*
X-77365408Y23988937D01*
X-77188966Y23973500D01*
X-77130001Y23968341D01*
X-77130000Y23968341D01*
X-77129999Y23968341D01*
X-77090766Y23971774D01*
X-76894592Y23988937D01*
X-76666337Y24050097D01*
X-76452170Y24149965D01*
X-76258599Y24285505D01*
X-76091505Y24452599D01*
X-75961575Y24638158D01*
X-75906998Y24681783D01*
X-75837500Y24688977D01*
X-75775145Y24657454D01*
X-75758425Y24638158D01*
X-75634363Y24460978D01*
X-75628495Y24452599D01*
X-75461401Y24285505D01*
X-75369770Y24221344D01*
X-75267835Y24149968D01*
X-75267833Y24149967D01*
X-75267830Y24149965D01*
X-75053663Y24050097D01*
X-75053657Y24050096D01*
X-75053656Y24050095D01*
X-75009721Y24038323D01*
X-74825408Y23988937D01*
X-74648966Y23973500D01*
X-74590001Y23968341D01*
X-74590000Y23968341D01*
X-74589999Y23968341D01*
X-74550766Y23971774D01*
X-74354592Y23988937D01*
X-74126337Y24050097D01*
X-73912170Y24149965D01*
X-73718599Y24285505D01*
X-73551505Y24452599D01*
X-73421575Y24638158D01*
X-73366998Y24681783D01*
X-73297500Y24688977D01*
X-73235145Y24657454D01*
X-73218425Y24638158D01*
X-73094363Y24460978D01*
X-73088495Y24452599D01*
X-72921401Y24285505D01*
X-72829770Y24221344D01*
X-72727835Y24149968D01*
X-72727833Y24149967D01*
X-72727830Y24149965D01*
X-72513663Y24050097D01*
X-72513657Y24050096D01*
X-72513656Y24050095D01*
X-72469721Y24038323D01*
X-72285408Y23988937D01*
X-72108966Y23973500D01*
X-72050001Y23968341D01*
X-72050000Y23968341D01*
X-72049999Y23968341D01*
X-72010766Y23971774D01*
X-71814592Y23988937D01*
X-71586337Y24050097D01*
X-71372170Y24149965D01*
X-71178599Y24285505D01*
X-71011505Y24452599D01*
X-70963873Y24520624D01*
X-70909296Y24564249D01*
X-70862299Y24573500D01*
X-69234942Y24573500D01*
X-69167903Y24553815D01*
X-69123854Y24504594D01*
X-69109031Y24474705D01*
X-68989723Y24326279D01*
X-68989722Y24326278D01*
X-68841296Y24206970D01*
X-68841293Y24206968D01*
X-68670698Y24122361D01*
X-68670697Y24122361D01*
X-68670693Y24122359D01*
X-68485889Y24076400D01*
X-68443123Y24073500D01*
X-67040878Y24073501D01*
X-66998111Y24076400D01*
X-66813307Y24122359D01*
X-66642704Y24206970D01*
X-66494278Y24326278D01*
X-66374970Y24474704D01*
X-66290359Y24645307D01*
X-66244400Y24830111D01*
X-66241500Y24872877D01*
X-66241501Y25211501D01*
X-66221817Y25278539D01*
X-66169013Y25324294D01*
X-66117501Y25335500D01*
X-65425601Y25335500D01*
X-65358562Y25315815D01*
X-65337920Y25299181D01*
X-64911618Y24872880D01*
X-64503322Y24464584D01*
X-64446169Y24407431D01*
X-64398786Y24360048D01*
X-64275873Y24277920D01*
X-64275860Y24277913D01*
X-64164223Y24231672D01*
X-64139284Y24221342D01*
X-64139280Y24221342D01*
X-64139279Y24221341D01*
X-63994292Y24192500D01*
X-63994289Y24192500D01*
X-59947080Y24192500D01*
X-59849538Y24211904D01*
X-59802087Y24221342D01*
X-59665505Y24277916D01*
X-59601450Y24320716D01*
X-59552225Y24353607D01*
X-59485548Y24374481D01*
X-59483339Y24374501D01*
X-59061662Y24374501D01*
X-59061656Y24374501D01*
X-59061648Y24374502D01*
X-59061645Y24374502D01*
X-59007240Y24380060D01*
X-58962292Y24384651D01*
X-58801303Y24437997D01*
X-58656956Y24527032D01*
X-58537032Y24646956D01*
X-58447997Y24791303D01*
X-58394651Y24952292D01*
X-58384500Y25051655D01*
X-58384500Y25061000D01*
X-57794999Y25061000D01*
X-57794999Y25037678D01*
X-57784856Y24938393D01*
X-57731548Y24777519D01*
X-57731543Y24777508D01*
X-57642576Y24633272D01*
X-57642573Y24633268D01*
X-57522733Y24513428D01*
X-57522729Y24513425D01*
X-57378493Y24424458D01*
X-57378482Y24424453D01*
X-57217607Y24371145D01*
X-57118317Y24361001D01*
X-57070001Y24361002D01*
X-57070000Y24361002D01*
X-57070000Y25061000D01*
X-56570000Y25061000D01*
X-56570000Y24361001D01*
X-56521692Y24361001D01*
X-56521678Y24361002D01*
X-56422393Y24371145D01*
X-56261519Y24424453D01*
X-56261512Y24424456D01*
X-56161967Y24485857D01*
X-56094575Y24504298D01*
X-56027911Y24483376D01*
X-56000222Y24458007D01*
X-55883365Y24312632D01*
X-55735026Y24193393D01*
X-55735023Y24193391D01*
X-55564524Y24108832D01*
X-55379825Y24062898D01*
X-55337097Y24060000D01*
X-54886000Y24060000D01*
X-54886000Y25060000D01*
X-54386000Y25060000D01*
X-54386000Y24060000D01*
X-53934903Y24060000D01*
X-53892176Y24062898D01*
X-53707477Y24108832D01*
X-53536978Y24193391D01*
X-53536975Y24193393D01*
X-53388634Y24312633D01*
X-53388633Y24312634D01*
X-53269393Y24460975D01*
X-53269391Y24460978D01*
X-53184832Y24631477D01*
X-53138898Y24816176D01*
X-53136000Y24858904D01*
X-53136000Y25060000D01*
X-54386000Y25060000D01*
X-54886000Y25060000D01*
X-56126638Y25060000D01*
X-56130044Y25061000D01*
X-56570000Y25061000D01*
X-57070000Y25061000D01*
X-57794999Y25061000D01*
X-58384500Y25061000D01*
X-58384501Y25328856D01*
X-58364817Y25395893D01*
X-58312013Y25441648D01*
X-58242854Y25451592D01*
X-58234741Y25450148D01*
X-58184646Y25439500D01*
X-58184644Y25439500D01*
X-57995356Y25439500D01*
X-57995354Y25439500D01*
X-57810197Y25478856D01*
X-57649780Y25550279D01*
X-57599344Y25561000D01*
X-55854362Y25561000D01*
X-55850956Y25560000D01*
X-53136000Y25560000D01*
X-53136000Y25761097D01*
X-53138898Y25803825D01*
X-53184832Y25988524D01*
X-53269391Y26159023D01*
X-53269393Y26159026D01*
X-53388633Y26307367D01*
X-53388634Y26307368D01*
X-53457885Y26363033D01*
X-53497804Y26420376D01*
X-53500384Y26490198D01*
X-53464806Y26550331D01*
X-53457897Y26556317D01*
X-53413774Y26591785D01*
X-53349190Y26618442D01*
X-53280446Y26605951D01*
X-53248407Y26582817D01*
X-51720984Y25055394D01*
X-51720955Y25055363D01*
X-51630736Y24965144D01*
X-51630733Y24965142D01*
X-51579510Y24930916D01*
X-51528286Y24896688D01*
X-51528285Y24896688D01*
X-51528284Y24896687D01*
X-51488040Y24880018D01*
X-51447793Y24863348D01*
X-51414452Y24849537D01*
X-51394578Y24845584D01*
X-51293609Y24825501D01*
X-51293608Y24825500D01*
X-51293607Y24825500D01*
X-50433392Y24825500D01*
X-50433392Y24825501D01*
X-50332422Y24845584D01*
X-50332421Y24845584D01*
X-50312553Y24849536D01*
X-50312553Y24849537D01*
X-50312548Y24849537D01*
X-50312543Y24849540D01*
X-50312540Y24849540D01*
X-50279213Y24863346D01*
X-50279214Y24863346D01*
X-50279208Y24863348D01*
X-50198714Y24896688D01*
X-50147491Y24930916D01*
X-50147489Y24930917D01*
X-50134729Y24939444D01*
X-50096267Y24965142D01*
X-50009142Y25052267D01*
X-50009141Y25052269D01*
X-50002075Y25059335D01*
X-50002072Y25059339D01*
X-49634814Y25426598D01*
X-49573493Y25460081D01*
X-49503801Y25455097D01*
X-49468775Y25435017D01*
X-49389413Y25370306D01*
X-49389410Y25370305D01*
X-49389407Y25370302D01*
X-49209049Y25276091D01*
X-49013418Y25220114D01*
X-48894037Y25209500D01*
X-47777964Y25209501D01*
X-47757204Y25211347D01*
X-47688686Y25197676D01*
X-47638434Y25149132D01*
X-47628293Y25126153D01*
X-47614181Y25082720D01*
X-47614179Y25082716D01*
X-47519533Y24918784D01*
X-47435540Y24825501D01*
X-47392871Y24778112D01*
X-47239735Y24666852D01*
X-47239730Y24666849D01*
X-47084354Y24597670D01*
X-47031117Y24552420D01*
X-47011388Y24496555D01*
X-47011026Y24492874D01*
X-46994379Y24437997D01*
X-46955407Y24309523D01*
X-46953812Y24304267D01*
X-46860914Y24130468D01*
X-46860910Y24130461D01*
X-46735884Y23978117D01*
X-46583540Y23853091D01*
X-46583533Y23853087D01*
X-46445597Y23779358D01*
X-46395752Y23730396D01*
X-46380292Y23662258D01*
X-46404124Y23596578D01*
X-46459681Y23554210D01*
X-46504050Y23546000D01*
X-84962638Y23546000D01*
X-85029677Y23565685D01*
X-85050319Y23582319D01*
X-85485681Y24017681D01*
X-85519166Y24079004D01*
X-85522000Y24105362D01*
X-85522000Y25475649D01*
X-84790500Y25475649D01*
X-84758478Y25273466D01*
X-84695219Y25078777D01*
X-84637318Y24965142D01*
X-84602439Y24896688D01*
X-84602285Y24896387D01*
X-84481972Y24730787D01*
X-84337214Y24586029D01*
X-84208990Y24492871D01*
X-84171610Y24465713D01*
X-84079962Y24419016D01*
X-83989224Y24372782D01*
X-83989222Y24372782D01*
X-83989219Y24372780D01*
X-83884863Y24338873D01*
X-83794535Y24309523D01*
X-83693443Y24293512D01*
X-83592352Y24277500D01*
X-83592351Y24277500D01*
X-83387649Y24277500D01*
X-83387648Y24277500D01*
X-83185466Y24309523D01*
X-82990781Y24372780D01*
X-82808390Y24465713D01*
X-82687127Y24553815D01*
X-82642787Y24586029D01*
X-82642785Y24586032D01*
X-82642781Y24586034D01*
X-82498034Y24730781D01*
X-82498032Y24730785D01*
X-82498029Y24730787D01*
X-82445268Y24803410D01*
X-82377713Y24896390D01*
X-82284780Y25078781D01*
X-82221523Y25273466D01*
X-82189500Y25475648D01*
X-82189500Y25680352D01*
X-82191582Y25693500D01*
X-82221523Y25882535D01*
X-82274856Y26046675D01*
X-82284780Y26077219D01*
X-82284782Y26077222D01*
X-82284782Y26077224D01*
X-82344998Y26195403D01*
X-82377713Y26259610D01*
X-82385444Y26270251D01*
X-82498029Y26425214D01*
X-82642787Y26569972D01*
X-82808387Y26690285D01*
X-82808388Y26690286D01*
X-82808390Y26690287D01*
X-82865347Y26719309D01*
X-82990777Y26783219D01*
X-83185466Y26846478D01*
X-83360005Y26874122D01*
X-83387648Y26878500D01*
X-83592352Y26878500D01*
X-83616671Y26874649D01*
X-83794535Y26846478D01*
X-83989224Y26783219D01*
X-84171614Y26690285D01*
X-84337214Y26569972D01*
X-84481972Y26425214D01*
X-84602285Y26259614D01*
X-84695219Y26077224D01*
X-84758478Y25882535D01*
X-84790500Y25680352D01*
X-84790500Y25475649D01*
X-85522000Y25475649D01*
X-85522000Y63762663D01*
X-82280500Y63762663D01*
X-82280499Y63762645D01*
X-82270350Y63663293D01*
X-82270349Y63663290D01*
X-82217004Y63502306D01*
X-82216999Y63502295D01*
X-82127971Y63357960D01*
X-82127968Y63357956D01*
X-82008045Y63238033D01*
X-82008041Y63238030D01*
X-81863706Y63149002D01*
X-81863703Y63149001D01*
X-81863697Y63148997D01*
X-81702708Y63095651D01*
X-81603345Y63085500D01*
X-81056656Y63085501D01*
X-81056648Y63085502D01*
X-81056645Y63085502D01*
X-81002240Y63091060D01*
X-80957292Y63095651D01*
X-80796303Y63148997D01*
X-80651956Y63238032D01*
X-80532032Y63357956D01*
X-80442997Y63502303D01*
X-80389651Y63663292D01*
X-80379500Y63762655D01*
X-80379501Y64200548D01*
X-80359817Y64267586D01*
X-80343182Y64288228D01*
X-79956145Y64675264D01*
X-79956145Y64675265D01*
X-79956142Y64675267D01*
X-79887688Y64777715D01*
X-79840537Y64891549D01*
X-79816499Y65012394D01*
X-79816499Y65135607D01*
X-79816499Y65140717D01*
X-79816500Y65140743D01*
X-79816500Y67791152D01*
X-79796815Y67858191D01*
X-79744011Y67903946D01*
X-79684872Y67914396D01*
X-79684872Y67914551D01*
X-79683994Y67914551D01*
X-79682764Y67914769D01*
X-79680000Y67914551D01*
X-79428852Y67934317D01*
X-79183889Y67993127D01*
X-78951141Y68089534D01*
X-78736341Y68221164D01*
X-78544776Y68384776D01*
X-78381164Y68576341D01*
X-78249534Y68791141D01*
X-78153127Y69023889D01*
X-78094317Y69268852D01*
X-78074551Y69520000D01*
X-78094317Y69771148D01*
X-78153127Y70016111D01*
X-78210656Y70155000D01*
X-78249534Y70248860D01*
X-78381161Y70463654D01*
X-78381162Y70463657D01*
X-78425603Y70515690D01*
X-78544776Y70655224D01*
X-78714872Y70800500D01*
X-78736344Y70818839D01*
X-78736347Y70818840D01*
X-78951141Y70950467D01*
X-79183890Y71046874D01*
X-79428849Y71105683D01*
X-79680000Y71125449D01*
X-79931152Y71105683D01*
X-80176111Y71046874D01*
X-80408860Y70950467D01*
X-80515710Y70884988D01*
X-80583156Y70866743D01*
X-80649758Y70887859D01*
X-80694372Y70941631D01*
X-80704500Y70990715D01*
X-80704500Y72639549D01*
X-80684815Y72706588D01*
X-80668185Y72727226D01*
X-80338057Y73057355D01*
X-80276736Y73090838D01*
X-80207045Y73085854D01*
X-80202926Y73084233D01*
X-80176116Y73073128D01*
X-79971652Y73024041D01*
X-79931148Y73014317D01*
X-79680000Y72994551D01*
X-79428852Y73014317D01*
X-79183889Y73073127D01*
X-78951141Y73169534D01*
X-78736341Y73301164D01*
X-78544776Y73464776D01*
X-78381164Y73656341D01*
X-78249534Y73871141D01*
X-78153127Y74103889D01*
X-78094317Y74348852D01*
X-78074551Y74600000D01*
X-78094317Y74851148D01*
X-78153127Y75096111D01*
X-78156047Y75103160D01*
X-78249534Y75328860D01*
X-78381161Y75543654D01*
X-78381162Y75543657D01*
X-78452139Y75626760D01*
X-78544776Y75735224D01*
X-78724885Y75889052D01*
X-78736344Y75898839D01*
X-78736347Y75898840D01*
X-78951141Y76030467D01*
X-79183890Y76126874D01*
X-79428849Y76185683D01*
X-79680000Y76205449D01*
X-79931152Y76185683D01*
X-80176111Y76126874D01*
X-80408860Y76030467D01*
X-80623654Y75898840D01*
X-80623657Y75898839D01*
X-80815224Y75735224D01*
X-80978839Y75543657D01*
X-80978840Y75543654D01*
X-81110467Y75328860D01*
X-81206874Y75096111D01*
X-81265683Y74851152D01*
X-81285449Y74600000D01*
X-81265683Y74348849D01*
X-81206873Y74103888D01*
X-81206873Y74103886D01*
X-81195768Y74077077D01*
X-81188299Y74007608D01*
X-81219575Y73945129D01*
X-81222648Y73941944D01*
X-81480278Y73684313D01*
X-81728731Y73435860D01*
X-81728733Y73435858D01*
X-81759879Y73404712D01*
X-81815858Y73348734D01*
X-81847643Y73301164D01*
X-81847644Y73301165D01*
X-81884308Y73246293D01*
X-81884315Y73246281D01*
X-81916103Y73169535D01*
X-81916103Y73169534D01*
X-81931462Y73132455D01*
X-81931465Y73132445D01*
X-81955500Y73011611D01*
X-81955500Y67775548D01*
X-81975185Y67708509D01*
X-82002590Y67678281D01*
X-82008042Y67673971D01*
X-82127971Y67554041D01*
X-82216999Y67409706D01*
X-82217004Y67409695D01*
X-82270349Y67248710D01*
X-82280500Y67149353D01*
X-82280500Y66302663D01*
X-82280499Y66302645D01*
X-82270350Y66203293D01*
X-82270349Y66203290D01*
X-82217004Y66042306D01*
X-82216999Y66042295D01*
X-82127971Y65897960D01*
X-82127968Y65897956D01*
X-82008045Y65778033D01*
X-82008041Y65778030D01*
X-81863706Y65689002D01*
X-81863703Y65689001D01*
X-81863697Y65688997D01*
X-81702708Y65635651D01*
X-81603345Y65625500D01*
X-81191500Y65625501D01*
X-81124461Y65605817D01*
X-81078706Y65553013D01*
X-81067500Y65501501D01*
X-81067500Y65410500D01*
X-81087185Y65343461D01*
X-81139989Y65297706D01*
X-81191500Y65286500D01*
X-81603338Y65286500D01*
X-81603356Y65286499D01*
X-81702708Y65276350D01*
X-81702711Y65276349D01*
X-81863695Y65223004D01*
X-81863706Y65222999D01*
X-82008041Y65133971D01*
X-82008045Y65133968D01*
X-82127968Y65014045D01*
X-82127971Y65014041D01*
X-82216999Y64869706D01*
X-82217004Y64869695D01*
X-82270349Y64708710D01*
X-82280500Y64609353D01*
X-82280500Y63762663D01*
X-85522000Y63762663D01*
X-85522000Y83133649D01*
X-84790500Y83133649D01*
X-84758478Y82931466D01*
X-84695219Y82736777D01*
X-84602285Y82554387D01*
X-84481972Y82388787D01*
X-84337214Y82244029D01*
X-84182251Y82131444D01*
X-84171610Y82123713D01*
X-84055393Y82064497D01*
X-83989224Y82030782D01*
X-83989222Y82030782D01*
X-83989219Y82030780D01*
X-83884863Y81996873D01*
X-83794535Y81967523D01*
X-83693443Y81951512D01*
X-83592352Y81935500D01*
X-83592351Y81935500D01*
X-83387649Y81935500D01*
X-83387648Y81935500D01*
X-83185466Y81967523D01*
X-82990781Y82030780D01*
X-82808390Y82123713D01*
X-82715410Y82191268D01*
X-82642787Y82244029D01*
X-82642785Y82244032D01*
X-82642781Y82244034D01*
X-82498034Y82388781D01*
X-82498032Y82388785D01*
X-82498029Y82388787D01*
X-82445268Y82461410D01*
X-82377713Y82554390D01*
X-82284780Y82736781D01*
X-82221523Y82931466D01*
X-82189500Y83133648D01*
X-82189500Y83338352D01*
X-82221523Y83540534D01*
X-82284780Y83735219D01*
X-82284782Y83735222D01*
X-82284782Y83735224D01*
X-82318497Y83801393D01*
X-82377713Y83917610D01*
X-82385444Y83928251D01*
X-82498029Y84083214D01*
X-82642787Y84227972D01*
X-82808387Y84348285D01*
X-82808388Y84348286D01*
X-82808390Y84348287D01*
X-82865347Y84377309D01*
X-82990777Y84441219D01*
X-83185466Y84504478D01*
X-83360005Y84532122D01*
X-83387648Y84536500D01*
X-83592352Y84536500D01*
X-83616671Y84532649D01*
X-83794535Y84504478D01*
X-83989224Y84441219D01*
X-84171614Y84348285D01*
X-84337214Y84227972D01*
X-84481972Y84083214D01*
X-84602285Y83917614D01*
X-84695219Y83735224D01*
X-84758478Y83540535D01*
X-84790500Y83338352D01*
X-84790500Y83133649D01*
X-85522000Y83133649D01*
X-85522000Y84708638D01*
X-85502315Y84775677D01*
X-85485681Y84796319D01*
X-85050319Y85231681D01*
X-84988996Y85265166D01*
X-84962638Y85268000D01*
X-67539362Y85268000D01*
X-67472323Y85248315D01*
G37*
%TD.AperFunction*%
%TA.AperFunction,Conductor*%
G36*
X-45192754Y23983947D02*
G01*
X-45174380Y23972889D01*
X-45080735Y23904852D01*
X-45080730Y23904849D01*
X-44907808Y23827858D01*
X-44907803Y23827856D01*
X-44735771Y23791290D01*
X-44674289Y23758098D01*
X-44640513Y23696935D01*
X-44645165Y23627220D01*
X-44686770Y23571088D01*
X-44752117Y23546359D01*
X-44761552Y23546000D01*
X-45545950Y23546000D01*
X-45612989Y23565685D01*
X-45658744Y23618489D01*
X-45668688Y23687647D01*
X-45639663Y23751203D01*
X-45604403Y23779358D01*
X-45466468Y23853087D01*
X-45466462Y23853090D01*
X-45325928Y23968425D01*
X-45261621Y23995737D01*
X-45192754Y23983947D01*
G37*
%TD.AperFunction*%
%TA.AperFunction,Conductor*%
G36*
X-44071586Y23876108D02*
G01*
X-44050580Y23858869D01*
X-44043538Y23853090D01*
X-44043536Y23853089D01*
X-44043533Y23853087D01*
X-43905597Y23779358D01*
X-43855752Y23730396D01*
X-43840292Y23662258D01*
X-43864124Y23596578D01*
X-43919681Y23554210D01*
X-43964050Y23546000D01*
X-44494448Y23546000D01*
X-44561487Y23565685D01*
X-44607242Y23618489D01*
X-44617186Y23687647D01*
X-44588161Y23751203D01*
X-44529383Y23788977D01*
X-44520235Y23791289D01*
X-44348197Y23827856D01*
X-44200686Y23893534D01*
X-44131436Y23902818D01*
X-44071586Y23876108D01*
G37*
%TD.AperFunction*%
%TA.AperFunction,Conductor*%
G36*
X-42652754Y23983947D02*
G01*
X-42634380Y23972889D01*
X-42540735Y23904852D01*
X-42540730Y23904849D01*
X-42367808Y23827858D01*
X-42367803Y23827856D01*
X-42195771Y23791290D01*
X-42134289Y23758098D01*
X-42100513Y23696935D01*
X-42105165Y23627220D01*
X-42146770Y23571088D01*
X-42212117Y23546359D01*
X-42221552Y23546000D01*
X-43005950Y23546000D01*
X-43072989Y23565685D01*
X-43118744Y23618489D01*
X-43128688Y23687647D01*
X-43099663Y23751203D01*
X-43064403Y23779358D01*
X-42926468Y23853087D01*
X-42926462Y23853090D01*
X-42785928Y23968425D01*
X-42721621Y23995737D01*
X-42652754Y23983947D01*
G37*
%TD.AperFunction*%
%TA.AperFunction,Conductor*%
G36*
X-41531586Y23876108D02*
G01*
X-41510580Y23858869D01*
X-41503538Y23853090D01*
X-41503536Y23853089D01*
X-41503533Y23853087D01*
X-41365597Y23779358D01*
X-41315752Y23730396D01*
X-41300292Y23662258D01*
X-41324124Y23596578D01*
X-41379681Y23554210D01*
X-41424050Y23546000D01*
X-41954448Y23546000D01*
X-42021487Y23565685D01*
X-42067242Y23618489D01*
X-42077186Y23687647D01*
X-42048161Y23751203D01*
X-41989383Y23788977D01*
X-41980235Y23791289D01*
X-41808197Y23827856D01*
X-41660686Y23893534D01*
X-41591436Y23902818D01*
X-41531586Y23876108D01*
G37*
%TD.AperFunction*%
%TA.AperFunction,Conductor*%
G36*
X-35807300Y33409828D02*
G01*
X-35755819Y33362589D01*
X-35738000Y33298545D01*
X-35738000Y24105362D01*
X-35757685Y24038323D01*
X-35774319Y24017681D01*
X-36209681Y23582319D01*
X-36271004Y23548834D01*
X-36297362Y23546000D01*
X-40465950Y23546000D01*
X-40532989Y23565685D01*
X-40578744Y23618489D01*
X-40588688Y23687647D01*
X-40559663Y23751203D01*
X-40524403Y23779358D01*
X-40386468Y23853087D01*
X-40386462Y23853090D01*
X-40234117Y23978117D01*
X-40109090Y24130462D01*
X-40026218Y24285505D01*
X-40016189Y24304267D01*
X-40016189Y24304268D01*
X-40016186Y24304273D01*
X-39958976Y24492868D01*
X-39939659Y24689000D01*
X-39958976Y24885132D01*
X-40016186Y25073727D01*
X-40016189Y25073731D01*
X-40016189Y25073734D01*
X-40109087Y25247533D01*
X-40109091Y25247540D01*
X-40196052Y25353502D01*
X-40223365Y25417812D01*
X-40213463Y25475649D01*
X-39070500Y25475649D01*
X-39038478Y25273466D01*
X-38975219Y25078777D01*
X-38917318Y24965142D01*
X-38882439Y24896688D01*
X-38882285Y24896387D01*
X-38761972Y24730787D01*
X-38617214Y24586029D01*
X-38488990Y24492871D01*
X-38451610Y24465713D01*
X-38359962Y24419016D01*
X-38269224Y24372782D01*
X-38269222Y24372782D01*
X-38269219Y24372780D01*
X-38164863Y24338873D01*
X-38074535Y24309523D01*
X-37973443Y24293512D01*
X-37872352Y24277500D01*
X-37872351Y24277500D01*
X-37667649Y24277500D01*
X-37667648Y24277500D01*
X-37465466Y24309523D01*
X-37270781Y24372780D01*
X-37088390Y24465713D01*
X-36967127Y24553815D01*
X-36922787Y24586029D01*
X-36922785Y24586032D01*
X-36922781Y24586034D01*
X-36778034Y24730781D01*
X-36778032Y24730785D01*
X-36778029Y24730787D01*
X-36725268Y24803410D01*
X-36657713Y24896390D01*
X-36564780Y25078781D01*
X-36501523Y25273466D01*
X-36469500Y25475648D01*
X-36469500Y25680352D01*
X-36471582Y25693500D01*
X-36501523Y25882535D01*
X-36554856Y26046675D01*
X-36564780Y26077219D01*
X-36564782Y26077222D01*
X-36564782Y26077224D01*
X-36624998Y26195403D01*
X-36657713Y26259610D01*
X-36665444Y26270251D01*
X-36778029Y26425214D01*
X-36922787Y26569972D01*
X-37088387Y26690285D01*
X-37088388Y26690286D01*
X-37088390Y26690287D01*
X-37145347Y26719309D01*
X-37270777Y26783219D01*
X-37465466Y26846478D01*
X-37640005Y26874122D01*
X-37667648Y26878500D01*
X-37872352Y26878500D01*
X-37896671Y26874649D01*
X-38074535Y26846478D01*
X-38269224Y26783219D01*
X-38451614Y26690285D01*
X-38617214Y26569972D01*
X-38761972Y26425214D01*
X-38882285Y26259614D01*
X-38975219Y26077224D01*
X-39038478Y25882535D01*
X-39070500Y25680352D01*
X-39070500Y25475649D01*
X-40213463Y25475649D01*
X-40211574Y25486680D01*
X-40187883Y25519844D01*
X-38505542Y27202182D01*
X-38444219Y27235667D01*
X-38417861Y27238501D01*
X-37847020Y27238501D01*
X-37847019Y27238502D01*
X-37726175Y27262538D01*
X-37612341Y27309690D01*
X-37509894Y27378143D01*
X-37451066Y27436972D01*
X-36611142Y28276897D01*
X-36542688Y28379345D01*
X-36536898Y28393325D01*
X-36503156Y28474783D01*
X-36500464Y28481286D01*
X-36495537Y28493178D01*
X-36471500Y28614024D01*
X-36471500Y32791705D01*
X-36451815Y32858744D01*
X-36399011Y32904499D01*
X-36398038Y32904939D01*
X-36353096Y32924948D01*
X-36199955Y33036211D01*
X-36073293Y33176883D01*
X-35978647Y33340815D01*
X-35978645Y33340824D01*
X-35976001Y33346758D01*
X-35973825Y33345789D01*
X-35940503Y33394531D01*
X-35876147Y33421735D01*
X-35807300Y33409828D01*
G37*
%TD.AperFunction*%
%TA.AperFunction,Conductor*%
G36*
X-54267425Y35893101D02*
G01*
X-54261752Y35889806D01*
X-54203701Y35853999D01*
X-54203700Y35853999D01*
X-54203697Y35853997D01*
X-54042708Y35800651D01*
X-53943345Y35790500D01*
X-53682523Y35790501D01*
X-53615485Y35770817D01*
X-53569730Y35718013D01*
X-53559786Y35648854D01*
X-53588811Y35585299D01*
X-53635071Y35551940D01*
X-53687282Y35530314D01*
X-53687292Y35530309D01*
X-53789733Y35461859D01*
X-53789737Y35461856D01*
X-55116771Y34134819D01*
X-55178094Y34101334D01*
X-55204452Y34098500D01*
X-55263646Y34098500D01*
X-55292307Y34092408D01*
X-55448803Y34059145D01*
X-55448808Y34059143D01*
X-55621730Y33982152D01*
X-55621735Y33982149D01*
X-55774871Y33870889D01*
X-55901534Y33730215D01*
X-55996179Y33566285D01*
X-55996182Y33566278D01*
X-56054673Y33386260D01*
X-56054674Y33386256D01*
X-56074460Y33198000D01*
X-56054674Y33009744D01*
X-56054673Y33009741D01*
X-56053994Y33003281D01*
X-56056500Y33003018D01*
X-56060950Y32944623D01*
X-56103083Y32888886D01*
X-56168661Y32864776D01*
X-56176928Y32864500D01*
X-64267490Y32864500D01*
X-64334529Y32884185D01*
X-64355171Y32900819D01*
X-66080171Y34625819D01*
X-66113656Y34687142D01*
X-66108672Y34756834D01*
X-66066800Y34812767D01*
X-66001336Y34837184D01*
X-65992490Y34837500D01*
X-65869356Y34837500D01*
X-65869354Y34837500D01*
X-65684197Y34876856D01*
X-65511270Y34953849D01*
X-65358129Y35065112D01*
X-65231467Y35205784D01*
X-65186832Y35283094D01*
X-65161387Y35327166D01*
X-65110821Y35375382D01*
X-65042214Y35388606D01*
X-64977349Y35362638D01*
X-64936820Y35305724D01*
X-64930000Y35265167D01*
X-64930000Y34120000D01*
X-56330000Y34120000D01*
X-56330000Y35763943D01*
X-56310315Y35830982D01*
X-56257511Y35876737D01*
X-56188353Y35886681D01*
X-56131687Y35863208D01*
X-56122333Y35856205D01*
X-56122329Y35856203D01*
X-55987483Y35805909D01*
X-55987484Y35805909D01*
X-55980556Y35805165D01*
X-55927873Y35799500D01*
X-54632128Y35799501D01*
X-54572517Y35805909D01*
X-54527428Y35822726D01*
X-54437671Y35856203D01*
X-54437671Y35856204D01*
X-54437669Y35856204D01*
X-54401161Y35883535D01*
X-54335698Y35907952D01*
X-54267425Y35893101D01*
G37*
%TD.AperFunction*%
%TA.AperFunction,Conductor*%
G36*
X-35824807Y36019139D02*
G01*
X-35766758Y35980252D01*
X-35738948Y35916155D01*
X-35738000Y35900848D01*
X-35738000Y35353011D01*
X-35757685Y35285972D01*
X-35810489Y35240217D01*
X-35879647Y35230273D01*
X-35943203Y35259298D01*
X-35969387Y35291011D01*
X-36010741Y35362638D01*
X-36021467Y35381216D01*
X-36148129Y35521888D01*
X-36159720Y35530309D01*
X-36242838Y35590698D01*
X-36285504Y35646028D01*
X-36291483Y35715641D01*
X-36258878Y35777436D01*
X-36220389Y35804295D01*
X-36199845Y35813442D01*
X-36134203Y35842668D01*
X-35981062Y35953931D01*
X-35954150Y35983821D01*
X-35894664Y36020469D01*
X-35824807Y36019139D01*
G37*
%TD.AperFunction*%
%TA.AperFunction,Conductor*%
G36*
X-64965952Y37071623D02*
G01*
X-64932724Y37010160D01*
X-64930000Y36984310D01*
X-64930000Y36210834D01*
X-64949685Y36143795D01*
X-65002489Y36098040D01*
X-65071647Y36088096D01*
X-65135203Y36117121D01*
X-65161387Y36148834D01*
X-65205570Y36225361D01*
X-65231467Y36270216D01*
X-65358129Y36410888D01*
X-65370745Y36420054D01*
X-65511266Y36522149D01*
X-65511268Y36522150D01*
X-65562337Y36544888D01*
X-65615574Y36590139D01*
X-65635894Y36656988D01*
X-65616848Y36724212D01*
X-65564481Y36770467D01*
X-65556704Y36773790D01*
X-65487363Y36800652D01*
X-65313959Y36908019D01*
X-65163236Y37045421D01*
X-65152954Y37059037D01*
X-65096846Y37100672D01*
X-65027134Y37105365D01*
X-64965952Y37071623D01*
G37*
%TD.AperFunction*%
%TA.AperFunction,Conductor*%
G36*
X-42338061Y41291000D02*
G01*
X-42151941Y41291000D01*
X-42061890Y41301815D01*
X-42032318Y41301815D01*
X-42026568Y41301125D01*
X-42026564Y41301123D01*
X-41938102Y41290500D01*
X-41938101Y41290500D01*
X-41751897Y41290500D01*
X-41735822Y41292431D01*
X-41663436Y41301123D01*
X-41663435Y41301124D01*
X-41659785Y41301562D01*
X-41630215Y41301562D01*
X-41626566Y41301124D01*
X-41626564Y41301123D01*
X-41554179Y41292431D01*
X-41538103Y41290500D01*
X-41538102Y41290500D01*
X-41351897Y41290500D01*
X-41335822Y41292431D01*
X-41263436Y41301123D01*
X-41263435Y41301124D01*
X-41259785Y41301562D01*
X-41230215Y41301562D01*
X-41226566Y41301124D01*
X-41226564Y41301123D01*
X-41154179Y41292431D01*
X-41138103Y41290500D01*
X-41138102Y41290500D01*
X-40951899Y41290500D01*
X-40951898Y41290500D01*
X-40863436Y41301123D01*
X-40863433Y41301125D01*
X-40857682Y41301815D01*
X-40828110Y41301815D01*
X-40738059Y41291000D01*
X-40551939Y41291000D01*
X-40473991Y41300361D01*
X-40405083Y41288811D01*
X-40353358Y41241839D01*
X-40335240Y41174360D01*
X-40336091Y41162463D01*
X-40345500Y41084102D01*
X-40345500Y40897898D01*
X-40344386Y40888625D01*
X-40334439Y40805783D01*
X-40334439Y40776217D01*
X-40337352Y40751956D01*
X-40345500Y40684102D01*
X-40345500Y40497898D01*
X-40342942Y40476598D01*
X-40334439Y40405783D01*
X-40334439Y40376217D01*
X-40335581Y40366704D01*
X-40345500Y40284102D01*
X-40345500Y40097898D01*
X-40342990Y40076999D01*
X-40334439Y40005783D01*
X-40334439Y39976217D01*
X-40336123Y39962192D01*
X-40345500Y39884102D01*
X-40345500Y39697898D01*
X-40339778Y39650246D01*
X-40334439Y39605783D01*
X-40334439Y39576217D01*
X-40336061Y39562708D01*
X-40345500Y39484102D01*
X-40345500Y39297898D01*
X-40339778Y39250246D01*
X-40334439Y39205783D01*
X-40334439Y39176217D01*
X-40340282Y39127560D01*
X-40345500Y39084102D01*
X-40345500Y38897898D01*
X-40342450Y38872500D01*
X-40334439Y38805783D01*
X-40334439Y38776217D01*
X-40340282Y38727560D01*
X-40345500Y38684102D01*
X-40345500Y38497898D01*
X-40345045Y38494112D01*
X-40334439Y38405783D01*
X-40334439Y38376217D01*
X-40336830Y38356303D01*
X-40345500Y38284102D01*
X-40345500Y38097898D01*
X-40340648Y38057493D01*
X-40334186Y38003679D01*
X-40334186Y37974113D01*
X-40345000Y37884055D01*
X-40345000Y37697946D01*
X-40334186Y37607887D01*
X-40334186Y37578321D01*
X-40334877Y37572564D01*
X-40345500Y37484102D01*
X-40345500Y37297898D01*
X-40342141Y37269928D01*
X-40334439Y37205783D01*
X-40334439Y37176217D01*
X-40339932Y37130471D01*
X-40342946Y37105365D01*
X-40343315Y37102294D01*
X-40370852Y37038080D01*
X-40428734Y36998946D01*
X-40498584Y36997318D01*
X-40539316Y37016759D01*
X-40561883Y37033155D01*
X-40561885Y37033156D01*
X-40678820Y37085220D01*
X-40732056Y37130471D01*
X-40752377Y37197320D01*
X-40748280Y37227105D01*
X-40748514Y37227147D01*
X-40747542Y37232470D01*
X-40747454Y37233110D01*
X-40747376Y37233377D01*
X-40744500Y37269920D01*
X-40744500Y40312080D01*
X-40747376Y40348623D01*
X-40792806Y40504996D01*
X-40869873Y40635309D01*
X-40875696Y40645155D01*
X-40875703Y40645164D01*
X-40990837Y40760298D01*
X-40990846Y40760305D01*
X-41131004Y40843194D01*
X-41186270Y40859250D01*
X-41287377Y40888624D01*
X-41287379Y40888625D01*
X-41287384Y40888625D01*
X-41323913Y40891500D01*
X-41323920Y40891500D01*
X-44366080Y40891500D01*
X-44366088Y40891500D01*
X-44402617Y40888625D01*
X-44402623Y40888624D01*
X-44558997Y40843194D01*
X-44699155Y40760305D01*
X-44699164Y40760298D01*
X-44814298Y40645164D01*
X-44814305Y40645155D01*
X-44897194Y40504997D01*
X-44942624Y40348623D01*
X-44942625Y40348617D01*
X-44945500Y40312088D01*
X-44945500Y37269913D01*
X-44942625Y37233384D01*
X-44942625Y37233379D01*
X-44942624Y37233377D01*
X-44904541Y37102294D01*
X-44897194Y37077004D01*
X-44814305Y36936846D01*
X-44814298Y36936837D01*
X-44699164Y36821703D01*
X-44699160Y36821700D01*
X-44699158Y36821698D01*
X-44558996Y36738806D01*
X-44402623Y36693376D01*
X-44366080Y36690500D01*
X-41988680Y36690500D01*
X-41921641Y36670815D01*
X-41875886Y36618011D01*
X-41865942Y36548853D01*
X-41870749Y36528182D01*
X-41899868Y36438563D01*
X-41900291Y36437262D01*
X-41903350Y36408157D01*
X-41904985Y36392597D01*
X-41931570Y36327982D01*
X-41988868Y36287998D01*
X-42013527Y36282443D01*
X-42030221Y36280439D01*
X-42059783Y36280439D01*
X-42108441Y36286282D01*
X-42151898Y36291500D01*
X-42338102Y36291500D01*
X-42398772Y36284215D01*
X-42432321Y36280186D01*
X-42461887Y36280186D01*
X-42551945Y36291000D01*
X-42738055Y36291000D01*
X-42828113Y36280186D01*
X-42857679Y36280186D01*
X-42891229Y36284215D01*
X-42951898Y36291500D01*
X-43138102Y36291500D01*
X-43181560Y36286282D01*
X-43230217Y36280439D01*
X-43259783Y36280439D01*
X-43308441Y36286282D01*
X-43351898Y36291500D01*
X-43538102Y36291500D01*
X-43581560Y36286282D01*
X-43630217Y36280439D01*
X-43659783Y36280439D01*
X-43708441Y36286282D01*
X-43751898Y36291500D01*
X-43938102Y36291500D01*
X-43981560Y36286282D01*
X-44030217Y36280439D01*
X-44059783Y36280439D01*
X-44108441Y36286282D01*
X-44151898Y36291500D01*
X-44338102Y36291500D01*
X-44381560Y36286282D01*
X-44430217Y36280439D01*
X-44459783Y36280439D01*
X-44508441Y36286282D01*
X-44551898Y36291500D01*
X-44738102Y36291500D01*
X-44781560Y36286282D01*
X-44830217Y36280439D01*
X-44859783Y36280439D01*
X-44908441Y36286282D01*
X-44951898Y36291500D01*
X-45138102Y36291500D01*
X-45179340Y36286548D01*
X-45215951Y36282152D01*
X-45284859Y36293704D01*
X-45336583Y36340677D01*
X-45354700Y36408157D01*
X-45353851Y36420033D01*
X-45344500Y36497898D01*
X-45344500Y36684102D01*
X-45355123Y36772564D01*
X-45355124Y36772566D01*
X-45355562Y36776215D01*
X-45355562Y36805785D01*
X-45355124Y36809435D01*
X-45355123Y36809436D01*
X-45344500Y36897898D01*
X-45344500Y37084102D01*
X-45355123Y37172564D01*
X-45355124Y37172566D01*
X-45355562Y37176215D01*
X-45355562Y37205785D01*
X-45355124Y37209435D01*
X-45355123Y37209436D01*
X-45344500Y37297898D01*
X-45344500Y37484102D01*
X-45355123Y37572564D01*
X-45355125Y37572568D01*
X-45355815Y37578318D01*
X-45355815Y37607890D01*
X-45345000Y37697941D01*
X-45345000Y37884060D01*
X-45355815Y37974110D01*
X-45355815Y38003682D01*
X-45355125Y38009433D01*
X-45355123Y38009436D01*
X-45344500Y38097898D01*
X-45344500Y38284102D01*
X-45355123Y38372564D01*
X-45355124Y38372566D01*
X-45355562Y38376215D01*
X-45355562Y38405785D01*
X-45355124Y38409435D01*
X-45355123Y38409436D01*
X-45344500Y38497898D01*
X-45344500Y38684102D01*
X-45355123Y38772564D01*
X-45355124Y38772566D01*
X-45355562Y38776215D01*
X-45355562Y38805785D01*
X-45355124Y38809435D01*
X-45355123Y38809436D01*
X-45344500Y38897898D01*
X-45344500Y39084102D01*
X-45355123Y39172564D01*
X-45355124Y39172566D01*
X-45355562Y39176215D01*
X-45355562Y39205785D01*
X-45355124Y39209435D01*
X-45355123Y39209436D01*
X-45344500Y39297898D01*
X-45344500Y39484102D01*
X-45355123Y39572564D01*
X-45355124Y39572566D01*
X-45355562Y39576215D01*
X-45355562Y39605785D01*
X-45355124Y39609435D01*
X-45355123Y39609436D01*
X-45344500Y39697898D01*
X-45344500Y39884102D01*
X-45355123Y39972564D01*
X-45355124Y39972566D01*
X-45355562Y39976215D01*
X-45355562Y40005785D01*
X-45355124Y40009435D01*
X-45355123Y40009436D01*
X-45344500Y40097898D01*
X-45344500Y40284102D01*
X-45355123Y40372564D01*
X-45355124Y40372566D01*
X-45355562Y40376215D01*
X-45355562Y40405785D01*
X-45355124Y40409435D01*
X-45355123Y40409436D01*
X-45344500Y40497898D01*
X-45344500Y40684102D01*
X-45355123Y40772564D01*
X-45355124Y40772566D01*
X-45355562Y40776215D01*
X-45355562Y40805785D01*
X-45355124Y40809435D01*
X-45355123Y40809436D01*
X-45344500Y40897898D01*
X-45344500Y41084102D01*
X-45353849Y41161951D01*
X-45342299Y41230857D01*
X-45295327Y41282582D01*
X-45227848Y41300700D01*
X-45215966Y41299851D01*
X-45138102Y41290500D01*
X-45138101Y41290500D01*
X-44951897Y41290500D01*
X-44935822Y41292431D01*
X-44863436Y41301123D01*
X-44863435Y41301124D01*
X-44859785Y41301562D01*
X-44830215Y41301562D01*
X-44826566Y41301124D01*
X-44826564Y41301123D01*
X-44754179Y41292431D01*
X-44738103Y41290500D01*
X-44738102Y41290500D01*
X-44551897Y41290500D01*
X-44535822Y41292431D01*
X-44463436Y41301123D01*
X-44463435Y41301124D01*
X-44459785Y41301562D01*
X-44430215Y41301562D01*
X-44426566Y41301124D01*
X-44426564Y41301123D01*
X-44354179Y41292431D01*
X-44338103Y41290500D01*
X-44338102Y41290500D01*
X-44151897Y41290500D01*
X-44135822Y41292431D01*
X-44063436Y41301123D01*
X-44063435Y41301124D01*
X-44059785Y41301562D01*
X-44030215Y41301562D01*
X-44026566Y41301124D01*
X-44026564Y41301123D01*
X-43954179Y41292431D01*
X-43938103Y41290500D01*
X-43938102Y41290500D01*
X-43751897Y41290500D01*
X-43735822Y41292431D01*
X-43663436Y41301123D01*
X-43663435Y41301124D01*
X-43659785Y41301562D01*
X-43630215Y41301562D01*
X-43626566Y41301124D01*
X-43626564Y41301123D01*
X-43554179Y41292431D01*
X-43538103Y41290500D01*
X-43538102Y41290500D01*
X-43351897Y41290500D01*
X-43335822Y41292431D01*
X-43263436Y41301123D01*
X-43263435Y41301124D01*
X-43259785Y41301562D01*
X-43230215Y41301562D01*
X-43226566Y41301124D01*
X-43226564Y41301123D01*
X-43154179Y41292431D01*
X-43138103Y41290500D01*
X-43138102Y41290500D01*
X-42951899Y41290500D01*
X-42951898Y41290500D01*
X-42863436Y41301123D01*
X-42863433Y41301125D01*
X-42857682Y41301815D01*
X-42828110Y41301815D01*
X-42738059Y41291000D01*
X-42551939Y41291000D01*
X-42459785Y41302067D01*
X-42430215Y41302067D01*
X-42338061Y41291000D01*
G37*
%TD.AperFunction*%
%TA.AperFunction,Conductor*%
G36*
X-35785349Y38235808D02*
G01*
X-35744820Y38178894D01*
X-35738000Y38138337D01*
X-35738000Y37352791D01*
X-35757685Y37285752D01*
X-35810489Y37239997D01*
X-35879647Y37230053D01*
X-35943203Y37259078D01*
X-35954149Y37269818D01*
X-35981062Y37299707D01*
X-35981063Y37299708D01*
X-36134199Y37410968D01*
X-36134204Y37410971D01*
X-36307126Y37487962D01*
X-36307132Y37487964D01*
X-36315788Y37489804D01*
X-36377268Y37523000D01*
X-36411042Y37584164D01*
X-36414001Y37611093D01*
X-36414001Y37675309D01*
X-36414002Y37675316D01*
X-36414367Y37678892D01*
X-36401603Y37747586D01*
X-36353727Y37798475D01*
X-36341447Y37804785D01*
X-36328876Y37810381D01*
X-36175735Y37921644D01*
X-36049073Y38062316D01*
X-35969387Y38200338D01*
X-35918821Y38248552D01*
X-35850214Y38261776D01*
X-35785349Y38235808D01*
G37*
%TD.AperFunction*%
%TA.AperFunction,Conductor*%
G36*
X-50673563Y45965002D02*
G01*
X-50668735Y45962852D01*
X-50668730Y45962849D01*
X-50495803Y45885856D01*
X-50310646Y45846500D01*
X-50310645Y45846500D01*
X-50121356Y45846500D01*
X-50121354Y45846500D01*
X-49936197Y45885856D01*
X-49818879Y45938091D01*
X-49749629Y45947375D01*
X-49686353Y45917747D01*
X-49680762Y45912492D01*
X-48463239Y44694969D01*
X-48429754Y44633646D01*
X-48434738Y44563954D01*
X-48476610Y44508021D01*
X-48485823Y44501750D01*
X-48594729Y44434576D01*
X-48594735Y44434572D01*
X-48603969Y44425337D01*
X-48665293Y44391854D01*
X-48734985Y44396841D01*
X-48779328Y44425340D01*
X-48788956Y44434968D01*
X-48788960Y44434971D01*
X-48933295Y44523999D01*
X-48933301Y44524002D01*
X-48933303Y44524003D01*
X-48963047Y44533859D01*
X-49094291Y44577349D01*
X-49193654Y44587500D01*
X-49740338Y44587500D01*
X-49740356Y44587499D01*
X-49839708Y44577350D01*
X-49839719Y44577347D01*
X-49845755Y44575347D01*
X-49915584Y44572951D01*
X-49975622Y44608688D01*
X-49976899Y44610084D01*
X-49991129Y44625888D01*
X-49991131Y44625890D01*
X-50144266Y44737149D01*
X-50144271Y44737152D01*
X-50317193Y44814143D01*
X-50317198Y44814145D01*
X-50462999Y44845135D01*
X-50502354Y44853500D01*
X-50691646Y44853500D01*
X-50724103Y44846602D01*
X-50876803Y44814145D01*
X-50876808Y44814143D01*
X-51049730Y44737152D01*
X-51049735Y44737149D01*
X-51202871Y44625889D01*
X-51329534Y44485215D01*
X-51424179Y44321285D01*
X-51424182Y44321278D01*
X-51482673Y44141260D01*
X-51482674Y44141256D01*
X-51502460Y43953000D01*
X-51482674Y43764744D01*
X-51482673Y43764741D01*
X-51424182Y43584723D01*
X-51424180Y43584719D01*
X-51424179Y43584716D01*
X-51329533Y43420784D01*
X-51250566Y43333083D01*
X-51202871Y43280112D01*
X-51049735Y43168852D01*
X-51049730Y43168849D01*
X-50876808Y43091858D01*
X-50876803Y43091856D01*
X-50691646Y43052500D01*
X-50688789Y43052500D01*
X-50687196Y43052033D01*
X-50685178Y43051820D01*
X-50685217Y43051452D01*
X-50621750Y43032815D01*
X-50575995Y42980011D01*
X-50566051Y42910853D01*
X-50595076Y42847297D01*
X-50638353Y42815221D01*
X-50800564Y42742999D01*
X-50869814Y42733714D01*
X-50901436Y42742999D01*
X-51079193Y42822143D01*
X-51079198Y42822145D01*
X-51225188Y42853175D01*
X-51264354Y42861500D01*
X-51453646Y42861500D01*
X-51486103Y42854602D01*
X-51638803Y42822145D01*
X-51638808Y42822143D01*
X-51811730Y42745152D01*
X-51811735Y42745149D01*
X-51964871Y42633889D01*
X-52091534Y42493215D01*
X-52186179Y42329285D01*
X-52186182Y42329278D01*
X-52238943Y42166894D01*
X-52244674Y42149256D01*
X-52264460Y41961000D01*
X-52244674Y41772744D01*
X-52244673Y41772741D01*
X-52186182Y41592723D01*
X-52186179Y41592716D01*
X-52091533Y41428784D01*
X-52013375Y41341981D01*
X-51963860Y41286989D01*
X-51933630Y41223998D01*
X-51942255Y41154662D01*
X-51948622Y41142018D01*
X-51970996Y41103266D01*
X-52029489Y40923241D01*
X-52029490Y40923237D01*
X-52049276Y40734981D01*
X-52029490Y40546725D01*
X-52029489Y40546722D01*
X-51970998Y40366704D01*
X-51970995Y40366697D01*
X-51876349Y40202765D01*
X-51789883Y40106735D01*
X-51749687Y40062093D01*
X-51596551Y39950833D01*
X-51596550Y39950833D01*
X-51596546Y39950830D01*
X-51462409Y39891108D01*
X-51409172Y39845858D01*
X-51394914Y39816147D01*
X-51342370Y39654432D01*
X-51342367Y39654425D01*
X-51247721Y39490493D01*
X-51136452Y39366917D01*
X-51121059Y39349821D01*
X-51056101Y39302626D01*
X-51013435Y39247296D01*
X-51005665Y39189351D01*
X-51007619Y39170750D01*
X-51008013Y39167000D01*
X-50999300Y39084097D01*
X-50991455Y39009461D01*
X-51004025Y38940732D01*
X-51051757Y38889708D01*
X-51114776Y38872500D01*
X-51518338Y38872500D01*
X-51518356Y38872499D01*
X-51617708Y38862350D01*
X-51617711Y38862349D01*
X-51778695Y38809004D01*
X-51778700Y38809002D01*
X-51923917Y38719430D01*
X-51991310Y38700990D01*
X-52057973Y38721913D01*
X-52061899Y38724651D01*
X-52167896Y38801662D01*
X-52167898Y38801663D01*
X-52167900Y38801664D01*
X-52183938Y38808805D01*
X-52237174Y38854055D01*
X-52257494Y38920905D01*
X-52257500Y38922083D01*
X-52257500Y40371607D01*
X-52257501Y40371611D01*
X-52264298Y40405783D01*
X-52281537Y40492452D01*
X-52304383Y40547607D01*
X-52304383Y40547608D01*
X-52328685Y40606279D01*
X-52328687Y40606282D01*
X-52328688Y40606285D01*
X-52351424Y40640311D01*
X-52397142Y40708733D01*
X-52397144Y40708736D01*
X-52487363Y40798955D01*
X-52487394Y40798984D01*
X-52635673Y40947263D01*
X-52669158Y41008586D01*
X-52671350Y41047548D01*
X-52670355Y41057291D01*
X-52669500Y41065655D01*
X-52669501Y41612344D01*
X-52669926Y41616500D01*
X-52679651Y41711708D01*
X-52679652Y41711711D01*
X-52706832Y41793735D01*
X-52732997Y41872697D01*
X-52733001Y41872703D01*
X-52733002Y41872706D01*
X-52822030Y42017041D01*
X-52822033Y42017045D01*
X-52941956Y42136968D01*
X-52941960Y42136971D01*
X-53086295Y42225999D01*
X-53086301Y42226002D01*
X-53086303Y42226003D01*
X-53086306Y42226004D01*
X-53247291Y42279349D01*
X-53346654Y42289500D01*
X-53943338Y42289500D01*
X-53943356Y42289499D01*
X-54049443Y42278661D01*
X-54049669Y42280868D01*
X-54108938Y42285312D01*
X-54164727Y42327376D01*
X-54188675Y42389902D01*
X-54193603Y42443082D01*
X-54197362Y42456295D01*
X-54249418Y42639250D01*
X-54288043Y42716819D01*
X-54327881Y42796825D01*
X-54340327Y42821821D01*
X-54410516Y42914767D01*
X-54463238Y42984582D01*
X-54613959Y43121981D01*
X-54613961Y43121983D01*
X-54787358Y43229345D01*
X-54787360Y43229346D01*
X-54787363Y43229348D01*
X-54787366Y43229349D01*
X-54787371Y43229352D01*
X-54853636Y43255023D01*
X-54896522Y43282968D01*
X-55279999Y43666447D01*
X-55280000Y43666447D01*
X-55663480Y43282968D01*
X-55706366Y43255023D01*
X-55772629Y43229353D01*
X-55772641Y43229347D01*
X-55946040Y43121983D01*
X-55946042Y43121981D01*
X-56096762Y42984583D01*
X-56107047Y42970962D01*
X-56163157Y42929327D01*
X-56232869Y42924637D01*
X-56294050Y42958380D01*
X-56327276Y43019844D01*
X-56330000Y43045691D01*
X-56330000Y43310994D01*
X-56310315Y43378033D01*
X-56257511Y43423788D01*
X-56223616Y43429940D01*
X-55679632Y43973922D01*
X-55630000Y43973922D01*
X-55606148Y43884905D01*
X-55560070Y43805095D01*
X-55494905Y43739930D01*
X-55415095Y43693852D01*
X-55326078Y43670000D01*
X-55233922Y43670000D01*
X-55144905Y43693852D01*
X-55065095Y43739930D01*
X-54999930Y43805095D01*
X-54953852Y43884905D01*
X-54930000Y43973922D01*
X-54930000Y44020000D01*
X-54926447Y44020000D01*
X-54342535Y43436088D01*
X-54340753Y43438447D01*
X-54340752Y43438449D01*
X-54249887Y43620931D01*
X-54249884Y43620937D01*
X-54194098Y43817008D01*
X-54194097Y43817011D01*
X-54175287Y44020000D01*
X-54175287Y44020001D01*
X-54194097Y44222990D01*
X-54194098Y44222993D01*
X-54249884Y44419064D01*
X-54249887Y44419070D01*
X-54340751Y44601551D01*
X-54340753Y44601553D01*
X-54342535Y44603913D01*
X-54926447Y44020000D01*
X-54930000Y44020000D01*
X-54930000Y44066078D01*
X-54953852Y44155095D01*
X-54999930Y44234905D01*
X-55065095Y44300070D01*
X-55144905Y44346148D01*
X-55233922Y44370000D01*
X-55326078Y44370000D01*
X-55415095Y44346148D01*
X-55494905Y44300070D01*
X-55560070Y44234905D01*
X-55606148Y44155095D01*
X-55630000Y44066078D01*
X-55630000Y43973922D01*
X-55679632Y43973922D01*
X-55633554Y44020000D01*
X-56224903Y44611349D01*
X-56265643Y44620296D01*
X-56314950Y44669800D01*
X-56330000Y44729010D01*
X-56330000Y44994310D01*
X-56310315Y45061349D01*
X-56257511Y45107104D01*
X-56188353Y45117048D01*
X-56124797Y45088023D01*
X-56107048Y45069040D01*
X-56096764Y45055421D01*
X-56096762Y45055419D01*
X-55946042Y44918020D01*
X-55946040Y44918018D01*
X-55933090Y44910000D01*
X-55772637Y44810652D01*
X-55706366Y44784979D01*
X-55663480Y44757034D01*
X-55280001Y44373555D01*
X-54896523Y44757034D01*
X-54853637Y44784978D01*
X-54787363Y44810652D01*
X-54613959Y44918019D01*
X-54463236Y45055421D01*
X-54340327Y45218179D01*
X-54249418Y45400750D01*
X-54216766Y45515512D01*
X-54179487Y45574603D01*
X-54116177Y45604160D01*
X-54046937Y45594798D01*
X-53993751Y45549488D01*
X-53973504Y45482616D01*
X-53973500Y45481575D01*
X-53973500Y45301299D01*
X-53970599Y45264433D01*
X-53970598Y45264427D01*
X-53924746Y45106607D01*
X-53924745Y45106604D01*
X-53841083Y44965138D01*
X-53841077Y44965130D01*
X-53724871Y44848924D01*
X-53724862Y44848917D01*
X-53586048Y44766823D01*
X-53538365Y44715754D01*
X-53525848Y44673054D01*
X-53514674Y44566744D01*
X-53514673Y44566742D01*
X-53514673Y44566740D01*
X-53456182Y44386723D01*
X-53456179Y44386716D01*
X-53361533Y44222784D01*
X-53254590Y44104012D01*
X-53234871Y44082112D01*
X-53081735Y43970852D01*
X-53081730Y43970849D01*
X-52908808Y43893858D01*
X-52908803Y43893856D01*
X-52723646Y43854500D01*
X-52723645Y43854500D01*
X-52534356Y43854500D01*
X-52534354Y43854500D01*
X-52349197Y43893856D01*
X-52176270Y43970849D01*
X-52023129Y44082112D01*
X-51896467Y44222784D01*
X-51801821Y44386716D01*
X-51743326Y44566744D01*
X-51726321Y44728547D01*
X-51699737Y44793160D01*
X-51666123Y44822315D01*
X-51621135Y44848919D01*
X-51504919Y44965135D01*
X-51421256Y45106602D01*
X-51375402Y45264431D01*
X-51372500Y45301306D01*
X-51372500Y45722500D01*
X-51352815Y45789539D01*
X-51300011Y45835294D01*
X-51248500Y45846500D01*
X-51137356Y45846500D01*
X-51137354Y45846500D01*
X-50952197Y45885856D01*
X-50779270Y45962849D01*
X-50779266Y45962852D01*
X-50774437Y45965002D01*
X-50705187Y45974288D01*
X-50673563Y45965002D01*
G37*
%TD.AperFunction*%
%TA.AperFunction,Conductor*%
G36*
X-35798732Y43567140D02*
G01*
X-35751119Y43516006D01*
X-35738000Y43460495D01*
X-35738000Y40229473D01*
X-35757685Y40162434D01*
X-35810489Y40116679D01*
X-35879647Y40106735D01*
X-35943203Y40135760D01*
X-35954150Y40146500D01*
X-35968497Y40162434D01*
X-36021129Y40220888D01*
X-36055947Y40246185D01*
X-36174266Y40332149D01*
X-36174271Y40332152D01*
X-36347193Y40409143D01*
X-36347200Y40409145D01*
X-36347623Y40409235D01*
X-36347845Y40409355D01*
X-36353374Y40411151D01*
X-36353046Y40412163D01*
X-36409104Y40442430D01*
X-36439767Y40492204D01*
X-36486060Y40634679D01*
X-36493189Y40656621D01*
X-36493192Y40656627D01*
X-36493874Y40657808D01*
X-36587837Y40820558D01*
X-36587838Y40820559D01*
X-36588671Y40822002D01*
X-36605144Y40889902D01*
X-36598990Y40923007D01*
X-36551144Y41067395D01*
X-36541001Y41166678D01*
X-36541000Y41166691D01*
X-36541000Y41190000D01*
X-37598675Y41190000D01*
X-37665714Y41209685D01*
X-37686356Y41226319D01*
X-37729681Y41269644D01*
X-37763166Y41330967D01*
X-37766000Y41357325D01*
X-37766000Y41566000D01*
X-37746315Y41633039D01*
X-37693511Y41678794D01*
X-37642000Y41690000D01*
X-36541001Y41690000D01*
X-36541001Y41713308D01*
X-36541002Y41713323D01*
X-36551145Y41812608D01*
X-36604453Y41973482D01*
X-36604458Y41973493D01*
X-36693425Y42117729D01*
X-36693428Y42117733D01*
X-36702661Y42126966D01*
X-36736146Y42188289D01*
X-36731162Y42257981D01*
X-36702657Y42302332D01*
X-36693032Y42311956D01*
X-36603997Y42456303D01*
X-36550651Y42617292D01*
X-36540500Y42716655D01*
X-36540501Y42852771D01*
X-36520817Y42919810D01*
X-36504191Y42940443D01*
X-36058048Y43386584D01*
X-36003371Y43468416D01*
X-35975916Y43509505D01*
X-35975914Y43509511D01*
X-35973041Y43514883D01*
X-35971594Y43514110D01*
X-35932726Y43562347D01*
X-35866433Y43584416D01*
X-35798732Y43567140D01*
G37*
%TD.AperFunction*%
%TA.AperFunction,Conductor*%
G36*
X-37448461Y44718315D02*
G01*
X-37402706Y44665511D01*
X-37391500Y44614000D01*
X-37391500Y44362000D01*
X-37411185Y44294961D01*
X-37463989Y44249206D01*
X-37515500Y44238000D01*
X-38790000Y44238000D01*
X-38790000Y43538001D01*
X-38741692Y43538001D01*
X-38741678Y43538002D01*
X-38642394Y43548145D01*
X-38626835Y43553300D01*
X-38557006Y43555703D01*
X-38496964Y43519973D01*
X-38465770Y43457453D01*
X-38470122Y43396592D01*
X-38481349Y43362712D01*
X-38491500Y43263353D01*
X-38491500Y42716663D01*
X-38491499Y42716645D01*
X-38481350Y42617293D01*
X-38481349Y42617290D01*
X-38428004Y42456306D01*
X-38427999Y42456295D01*
X-38338971Y42311960D01*
X-38338968Y42311956D01*
X-38329340Y42302328D01*
X-38295855Y42241005D01*
X-38300839Y42171313D01*
X-38329337Y42126969D01*
X-38338572Y42117735D01*
X-38338576Y42117729D01*
X-38427543Y41973493D01*
X-38427551Y41973476D01*
X-38450223Y41905056D01*
X-38489996Y41847611D01*
X-38554512Y41820789D01*
X-38623288Y41833105D01*
X-38642854Y41845258D01*
X-38747903Y41924920D01*
X-38888557Y41980387D01*
X-38976946Y41991000D01*
X-39521000Y41991000D01*
X-39588039Y42010685D01*
X-39633794Y42063489D01*
X-39645000Y42115000D01*
X-39645000Y42659054D01*
X-39655614Y42747444D01*
X-39711080Y42888096D01*
X-39803572Y43010064D01*
X-39828395Y43075376D01*
X-39813967Y43143740D01*
X-39792452Y43172668D01*
X-39537336Y43427783D01*
X-39537329Y43427789D01*
X-39530269Y43434850D01*
X-39530267Y43434850D01*
X-39460551Y43504566D01*
X-39399228Y43538051D01*
X-39360265Y43540243D01*
X-39338315Y43538001D01*
X-39290001Y43538002D01*
X-39290000Y43538002D01*
X-39290000Y44498184D01*
X-39270315Y44565223D01*
X-39258158Y44581147D01*
X-39174074Y44674531D01*
X-39173229Y44675996D01*
X-39172517Y44676675D01*
X-39170252Y44679791D01*
X-39169683Y44679378D01*
X-39122664Y44724213D01*
X-39065839Y44738000D01*
X-37515500Y44738000D01*
X-37448461Y44718315D01*
G37*
%TD.AperFunction*%
%TA.AperFunction,Conductor*%
G36*
X-46345213Y42576894D02*
G01*
X-46343102Y42574832D01*
X-46081819Y42313549D01*
X-46048334Y42252226D01*
X-46045500Y42225868D01*
X-46045500Y42115000D01*
X-46065185Y42047961D01*
X-46117989Y42002206D01*
X-46169500Y41991000D01*
X-46296043Y41991000D01*
X-46363082Y42010685D01*
X-46408837Y42063489D01*
X-46419363Y42102034D01*
X-46424326Y42149256D01*
X-46482821Y42329284D01*
X-46538171Y42425152D01*
X-46554643Y42493051D01*
X-46531790Y42559078D01*
X-46476869Y42602269D01*
X-46407316Y42608910D01*
X-46345213Y42576894D01*
G37*
%TD.AperFunction*%
%TA.AperFunction,Conductor*%
G36*
X-53985413Y47760315D02*
G01*
X-53942376Y47705274D01*
X-53938546Y47694105D01*
X-53924746Y47646606D01*
X-53924745Y47646604D01*
X-53841083Y47505138D01*
X-53836298Y47498969D01*
X-53838744Y47497073D01*
X-53812143Y47448358D01*
X-53817127Y47378666D01*
X-53837931Y47346297D01*
X-53836298Y47345031D01*
X-53841083Y47338863D01*
X-53924745Y47197397D01*
X-53924746Y47197394D01*
X-53970598Y47039574D01*
X-53970599Y47039568D01*
X-53973500Y47002702D01*
X-53973500Y46571299D01*
X-53970599Y46534433D01*
X-53970598Y46534427D01*
X-53924746Y46376607D01*
X-53924745Y46376604D01*
X-53924744Y46376602D01*
X-53887319Y46313319D01*
X-53841083Y46235138D01*
X-53836298Y46228969D01*
X-53838744Y46227073D01*
X-53812143Y46178358D01*
X-53817127Y46108666D01*
X-53837931Y46076297D01*
X-53836298Y46075031D01*
X-53841083Y46068863D01*
X-53924745Y45927397D01*
X-53924747Y45927394D01*
X-53941003Y45871437D01*
X-53978609Y45812551D01*
X-54042082Y45783345D01*
X-54111268Y45793091D01*
X-54164203Y45838695D01*
X-54183550Y45894591D01*
X-54189005Y45953456D01*
X-54193603Y46003083D01*
X-54249418Y46199250D01*
X-54249833Y46200083D01*
X-54319213Y46339418D01*
X-54340327Y46381821D01*
X-54463236Y46544579D01*
X-54522234Y46598363D01*
X-54558516Y46658074D01*
X-54556755Y46727921D01*
X-54522234Y46781637D01*
X-54507147Y46795392D01*
X-54463236Y46835421D01*
X-54340327Y46998179D01*
X-54249418Y47180750D01*
X-54193603Y47376917D01*
X-54174785Y47580000D01*
X-54181093Y47648070D01*
X-54167679Y47716637D01*
X-54119322Y47767069D01*
X-54051376Y47783352D01*
X-53985413Y47760315D01*
G37*
%TD.AperFunction*%
%TA.AperFunction,Conductor*%
G36*
X-54042766Y49169464D02*
G01*
X-53989580Y49124155D01*
X-53971348Y49078531D01*
X-53970600Y49074435D01*
X-53924746Y48916607D01*
X-53924745Y48916604D01*
X-53841083Y48775138D01*
X-53836298Y48768969D01*
X-53838744Y48767073D01*
X-53812143Y48718358D01*
X-53817127Y48648666D01*
X-53837931Y48616297D01*
X-53836298Y48615031D01*
X-53841083Y48608863D01*
X-53924745Y48467397D01*
X-53924746Y48467394D01*
X-53970598Y48309574D01*
X-53970599Y48309568D01*
X-53973500Y48272702D01*
X-53973500Y47898426D01*
X-53993185Y47831387D01*
X-54045989Y47785632D01*
X-54115147Y47775688D01*
X-54178703Y47804713D01*
X-54216477Y47863491D01*
X-54216766Y47864491D01*
X-54224001Y47889918D01*
X-54249418Y47979250D01*
X-54256025Y47992518D01*
X-54317206Y48115387D01*
X-54340327Y48161821D01*
X-54463236Y48324579D01*
X-54522234Y48378363D01*
X-54558516Y48438074D01*
X-54556755Y48507921D01*
X-54522234Y48561637D01*
X-54495189Y48586292D01*
X-54463236Y48615421D01*
X-54340327Y48778179D01*
X-54249418Y48960750D01*
X-54212593Y49090178D01*
X-54175315Y49149268D01*
X-54112006Y49178826D01*
X-54042766Y49169464D01*
G37*
%TD.AperFunction*%
%TD*%
M02*
