%TF.GenerationSoftware,KiCad,Pcbnew,8.0.5*%
%TF.CreationDate,2024-10-23T01:30:23+03:00*%
%TF.ProjectId,mouse_pic,6d6f7573-655f-4706-9963-2e6b69636164,rev?*%
%TF.SameCoordinates,Original*%
%TF.FileFunction,Paste,Top*%
%TF.FilePolarity,Positive*%
%FSLAX46Y46*%
G04 Gerber Fmt 4.6, Leading zero omitted, Abs format (unit mm)*
G04 Created by KiCad (PCBNEW 8.0.5) date 2024-10-23 01:30:23*
%MOMM*%
%LPD*%
G01*
G04 APERTURE LIST*
G04 Aperture macros list*
%AMRoundRect*
0 Rectangle with rounded corners*
0 $1 Rounding radius*
0 $2 $3 $4 $5 $6 $7 $8 $9 X,Y pos of 4 corners*
0 Add a 4 corners polygon primitive as box body*
4,1,4,$2,$3,$4,$5,$6,$7,$8,$9,$2,$3,0*
0 Add four circle primitives for the rounded corners*
1,1,$1+$1,$2,$3*
1,1,$1+$1,$4,$5*
1,1,$1+$1,$6,$7*
1,1,$1+$1,$8,$9*
0 Add four rect primitives between the rounded corners*
20,1,$1+$1,$2,$3,$4,$5,0*
20,1,$1+$1,$4,$5,$6,$7,0*
20,1,$1+$1,$6,$7,$8,$9,0*
20,1,$1+$1,$8,$9,$2,$3,0*%
G04 Aperture macros list end*
%ADD10RoundRect,0.225000X0.225000X0.375000X-0.225000X0.375000X-0.225000X-0.375000X0.225000X-0.375000X0*%
%ADD11RoundRect,0.225000X0.250000X-0.225000X0.250000X0.225000X-0.250000X0.225000X-0.250000X-0.225000X0*%
%ADD12RoundRect,0.225000X0.375000X-0.225000X0.375000X0.225000X-0.375000X0.225000X-0.375000X-0.225000X0*%
%ADD13RoundRect,0.200000X-0.275000X0.200000X-0.275000X-0.200000X0.275000X-0.200000X0.275000X0.200000X0*%
%ADD14R,1.400000X1.200000*%
%ADD15RoundRect,0.250000X-0.292217X-0.292217X0.292217X-0.292217X0.292217X0.292217X-0.292217X0.292217X0*%
%ADD16RoundRect,0.050000X-0.387500X-0.050000X0.387500X-0.050000X0.387500X0.050000X-0.387500X0.050000X0*%
%ADD17RoundRect,0.050000X-0.050000X-0.387500X0.050000X-0.387500X0.050000X0.387500X-0.050000X0.387500X0*%
%ADD18RoundRect,0.200000X0.275000X-0.200000X0.275000X0.200000X-0.275000X0.200000X-0.275000X-0.200000X0*%
%ADD19RoundRect,0.225000X-0.250000X0.225000X-0.250000X-0.225000X0.250000X-0.225000X0.250000X0.225000X0*%
%ADD20RoundRect,0.225000X-0.225000X-0.250000X0.225000X-0.250000X0.225000X0.250000X-0.225000X0.250000X0*%
%ADD21RoundRect,0.375000X-0.625000X-0.375000X0.625000X-0.375000X0.625000X0.375000X-0.625000X0.375000X0*%
%ADD22RoundRect,0.500000X-0.500000X-1.400000X0.500000X-1.400000X0.500000X1.400000X-0.500000X1.400000X0*%
%ADD23RoundRect,0.225000X0.225000X0.250000X-0.225000X0.250000X-0.225000X-0.250000X0.225000X-0.250000X0*%
%ADD24RoundRect,0.225000X-0.225000X-0.375000X0.225000X-0.375000X0.225000X0.375000X-0.225000X0.375000X0*%
%ADD25RoundRect,0.200000X-0.200000X-0.275000X0.200000X-0.275000X0.200000X0.275000X-0.200000X0.275000X0*%
%ADD26RoundRect,0.150000X-0.650000X-0.150000X0.650000X-0.150000X0.650000X0.150000X-0.650000X0.150000X0*%
%ADD27RoundRect,0.200000X0.200000X0.275000X-0.200000X0.275000X-0.200000X-0.275000X0.200000X-0.275000X0*%
G04 APERTURE END LIST*
D10*
%TO.C,D1*%
X-78030000Y66726000D03*
X-81330000Y66726000D03*
%TD*%
D11*
%TO.C,C13*%
X-37516000Y44488000D03*
X-37516000Y46038000D03*
%TD*%
%TO.C,C400*%
X-59360000Y28373000D03*
X-59360000Y29923000D03*
%TD*%
D12*
%TO.C,D7*%
X-50216000Y55424000D03*
X-50216000Y58724000D03*
%TD*%
D13*
%TO.C,R4*%
X-40691000Y45961000D03*
X-40691000Y44311000D03*
%TD*%
D14*
%TO.C,Y1*%
X-44585000Y28157000D03*
X-42385000Y28157000D03*
X-42385000Y29857000D03*
X-44585000Y29857000D03*
%TD*%
D15*
%TO.C,U3*%
X-43482500Y39428500D03*
X-43482500Y38153500D03*
X-42207500Y39428500D03*
X-42207500Y38153500D03*
D16*
X-46282500Y41391000D03*
X-46282500Y40991000D03*
X-46282500Y40591000D03*
X-46282500Y40191000D03*
X-46282500Y39791000D03*
X-46282500Y39391000D03*
X-46282500Y38991000D03*
X-46282500Y38591000D03*
X-46282500Y38191000D03*
X-46282500Y37791000D03*
X-46282500Y37391000D03*
X-46282500Y36991000D03*
X-46282500Y36591000D03*
X-46282500Y36191000D03*
D17*
X-45445000Y35353500D03*
X-45045000Y35353500D03*
X-44645000Y35353500D03*
X-44245000Y35353500D03*
X-43845000Y35353500D03*
X-43445000Y35353500D03*
X-43045000Y35353500D03*
X-42645000Y35353500D03*
X-42245000Y35353500D03*
X-41845000Y35353500D03*
X-41445000Y35353500D03*
X-41045000Y35353500D03*
X-40645000Y35353500D03*
X-40245000Y35353500D03*
D16*
X-39407500Y36191000D03*
X-39407500Y36591000D03*
X-39407500Y36991000D03*
X-39407500Y37391000D03*
X-39407500Y37791000D03*
X-39407500Y38191000D03*
X-39407500Y38591000D03*
X-39407500Y38991000D03*
X-39407500Y39391000D03*
X-39407500Y39791000D03*
X-39407500Y40191000D03*
X-39407500Y40591000D03*
X-39407500Y40991000D03*
X-39407500Y41391000D03*
D17*
X-40245000Y42228500D03*
X-40645000Y42228500D03*
X-41045000Y42228500D03*
X-41445000Y42228500D03*
X-41845000Y42228500D03*
X-42245000Y42228500D03*
X-42645000Y42228500D03*
X-43045000Y42228500D03*
X-43445000Y42228500D03*
X-43845000Y42228500D03*
X-44245000Y42228500D03*
X-44645000Y42228500D03*
X-45045000Y42228500D03*
X-45445000Y42228500D03*
%TD*%
D13*
%TO.C,R3*%
X-41326000Y49009000D03*
X-41326000Y47359000D03*
%TD*%
D10*
%TO.C,D10*%
X-72950000Y41580000D03*
X-76250000Y41580000D03*
%TD*%
D18*
%TO.C,R1*%
X-67615000Y44946000D03*
X-67615000Y46596000D03*
%TD*%
D19*
%TO.C,C3*%
X-53645000Y38291000D03*
X-53645000Y36741000D03*
%TD*%
%TO.C,C300*%
X-40629680Y29835988D03*
X-40629680Y28285988D03*
%TD*%
D11*
%TO.C,C10*%
X-39040000Y44488000D03*
X-39040000Y46038000D03*
%TD*%
%TO.C,C1*%
X-56820000Y25311000D03*
X-56820000Y26861000D03*
%TD*%
D13*
%TO.C,R40*%
X-67742000Y39611000D03*
X-67742000Y37961000D03*
%TD*%
D20*
%TO.C,C6*%
X-42612258Y31535040D03*
X-41062258Y31535040D03*
%TD*%
D21*
%TO.C,U10*%
X-67742000Y29924000D03*
X-67742000Y27624000D03*
D22*
X-61442000Y27624000D03*
D21*
X-67742000Y25324000D03*
%TD*%
D11*
%TO.C,C500*%
X-42469000Y44361000D03*
X-42469000Y45911000D03*
%TD*%
D10*
%TO.C,D4*%
X-39930000Y64186000D03*
X-43230000Y64186000D03*
%TD*%
%TO.C,D5*%
X-39930000Y61646000D03*
X-43230000Y61646000D03*
%TD*%
%TO.C,D3*%
X-39930000Y66726000D03*
X-43230000Y66726000D03*
%TD*%
D23*
%TO.C,C14*%
X-47917000Y43612000D03*
X-49467000Y43612000D03*
%TD*%
D24*
%TO.C,D9*%
X-81076000Y41580000D03*
X-77776000Y41580000D03*
%TD*%
D25*
%TO.C,R100*%
X-53200000Y51105000D03*
X-51550000Y51105000D03*
%TD*%
D11*
%TO.C,C7*%
X-42850000Y47409000D03*
X-42850000Y48959000D03*
%TD*%
D10*
%TO.C,D12*%
X-72950000Y39040000D03*
X-76250000Y39040000D03*
%TD*%
D11*
%TO.C,C100*%
X-59360000Y25325000D03*
X-59360000Y26875000D03*
%TD*%
%TO.C,C4*%
X-53645000Y39789000D03*
X-53645000Y41339000D03*
%TD*%
D19*
%TO.C,C9*%
X-37389000Y37402000D03*
X-37389000Y35852000D03*
%TD*%
D10*
%TO.C,D6*%
X-39930000Y59106000D03*
X-43230000Y59106000D03*
%TD*%
D11*
%TO.C,C12*%
X-37516000Y41440000D03*
X-37516000Y42990000D03*
%TD*%
D23*
%TO.C,C200*%
X-44742000Y31801000D03*
X-46292000Y31801000D03*
%TD*%
D26*
%TO.C,U4*%
X-52673000Y49327000D03*
X-52673000Y48057000D03*
X-52673000Y46787000D03*
X-52673000Y45517000D03*
X-45473000Y45517000D03*
X-45473000Y46787000D03*
X-45473000Y48057000D03*
X-45473000Y49327000D03*
%TD*%
D10*
%TO.C,D2*%
X-78030000Y64186000D03*
X-81330000Y64186000D03*
%TD*%
D13*
%TO.C,R500*%
X-39167000Y31102000D03*
X-39167000Y29452000D03*
%TD*%
D11*
%TO.C,C2*%
X-56820000Y28359000D03*
X-56820000Y29909000D03*
%TD*%
D20*
%TO.C,C11*%
X-42735867Y32995916D03*
X-41185867Y32995916D03*
%TD*%
D21*
%TO.C,U1*%
X-54636000Y29910000D03*
X-54636000Y27610000D03*
D22*
X-48336000Y27610000D03*
D21*
X-54636000Y25310000D03*
%TD*%
D24*
%TO.C,D11*%
X-81076000Y39040000D03*
X-77776000Y39040000D03*
%TD*%
D20*
%TO.C,C8*%
X-39688000Y47549000D03*
X-38138000Y47549000D03*
%TD*%
D12*
%TO.C,D8*%
X-47676000Y55424000D03*
X-47676000Y58724000D03*
%TD*%
D23*
%TO.C,C15*%
X-49695000Y37897000D03*
X-51245000Y37897000D03*
%TD*%
D27*
%TO.C,R200*%
X-51550000Y52629000D03*
X-53200000Y52629000D03*
%TD*%
M02*
