%TF.GenerationSoftware,KiCad,Pcbnew,8.0.5*%
%TF.CreationDate,2024-10-23T01:30:24+03:00*%
%TF.ProjectId,mouse_pic,6d6f7573-655f-4706-9963-2e6b69636164,rev?*%
%TF.SameCoordinates,Original*%
%TF.FileFunction,Soldermask,Bot*%
%TF.FilePolarity,Negative*%
%FSLAX46Y46*%
G04 Gerber Fmt 4.6, Leading zero omitted, Abs format (unit mm)*
G04 Created by KiCad (PCBNEW 8.0.5) date 2024-10-23 01:30:24*
%MOMM*%
%LPD*%
G01*
G04 APERTURE LIST*
G04 Aperture macros list*
%AMRoundRect*
0 Rectangle with rounded corners*
0 $1 Rounding radius*
0 $2 $3 $4 $5 $6 $7 $8 $9 X,Y pos of 4 corners*
0 Add a 4 corners polygon primitive as box body*
4,1,4,$2,$3,$4,$5,$6,$7,$8,$9,$2,$3,0*
0 Add four circle primitives for the rounded corners*
1,1,$1+$1,$2,$3*
1,1,$1+$1,$4,$5*
1,1,$1+$1,$6,$7*
1,1,$1+$1,$8,$9*
0 Add four rect primitives between the rounded corners*
20,1,$1+$1,$2,$3,$4,$5,0*
20,1,$1+$1,$4,$5,$6,$7,0*
20,1,$1+$1,$6,$7,$8,$9,0*
20,1,$1+$1,$8,$9,$2,$3,0*%
G04 Aperture macros list end*
%ADD10C,2.200000*%
%ADD11R,2.200000X2.200000*%
%ADD12R,1.200000X1.200000*%
%ADD13C,1.200000*%
%ADD14R,1.700000X1.700000*%
%ADD15O,1.700000X1.700000*%
%ADD16RoundRect,0.625000X0.875000X-0.625000X0.875000X0.625000X-0.875000X0.625000X-0.875000X-0.625000X0*%
%ADD17O,1.700000X1.400000*%
%ADD18C,1.900000*%
G04 APERTURE END LIST*
D10*
%TO.C,REF\u002A\u002A*%
X-83490000Y25578000D03*
%TD*%
%TO.C,REF\u002A\u002A*%
X-37770000Y25578000D03*
%TD*%
%TO.C,SW2*%
X-41580000Y74600000D03*
D11*
X-41580000Y79680000D03*
D10*
X-41580000Y69520000D03*
%TD*%
%TO.C,SW3*%
X-49200000Y70155000D03*
D11*
X-49200000Y75235000D03*
D10*
X-49200000Y65075000D03*
%TD*%
D12*
%TO.C,U2*%
X-55280000Y36900000D03*
D13*
X-55280000Y38680000D03*
X-55280000Y40460000D03*
X-55280000Y42240000D03*
X-55280000Y44020000D03*
X-55280000Y45800000D03*
X-55280000Y47580000D03*
X-55280000Y49360000D03*
X-65980000Y50250000D03*
X-65980000Y48470000D03*
X-65980000Y46690000D03*
X-65980000Y44910000D03*
X-65980000Y43130000D03*
X-65980000Y41350000D03*
X-65980000Y39570000D03*
X-65980000Y37790000D03*
%TD*%
D10*
%TO.C,SW5*%
X-77140000Y49200000D03*
D11*
X-82220000Y49200000D03*
D10*
X-72060000Y49200000D03*
%TD*%
%TO.C,REF\u002A\u002A*%
X-83490000Y83236000D03*
%TD*%
%TO.C,SW6*%
X-77140000Y31420000D03*
D11*
X-82220000Y31420000D03*
D10*
X-72060000Y31420000D03*
%TD*%
%TO.C,REF\u002A\u002A*%
X-37770000Y83236000D03*
%TD*%
D14*
%TO.C,USB1*%
X-79670000Y25324000D03*
D15*
X-77130000Y25324000D03*
X-74590000Y25324000D03*
X-72050000Y25324000D03*
%TD*%
D10*
%TO.C,SW4*%
X-58090000Y56820000D03*
D11*
X-63170000Y56820000D03*
D10*
X-53010000Y56820000D03*
%TD*%
%TO.C,SW1*%
X-79680000Y74600000D03*
D11*
X-79680000Y79680000D03*
D10*
X-79680000Y69520000D03*
%TD*%
D16*
%TO.C,Encoder1*%
X-71520000Y67600000D03*
X-71520000Y76600000D03*
D17*
X-69520000Y69600000D03*
X-69520000Y72100000D03*
X-69520000Y74600000D03*
%TD*%
D18*
%TO.C,USB_BOOT1*%
X-48692000Y51613000D03*
%TD*%
M02*
