%TF.GenerationSoftware,KiCad,Pcbnew,8.0.5*%
%TF.CreationDate,2024-10-23T01:30:24+03:00*%
%TF.ProjectId,mouse_pic,6d6f7573-655f-4706-9963-2e6b69636164,rev?*%
%TF.SameCoordinates,Original*%
%TF.FileFunction,Profile,NP*%
%FSLAX46Y46*%
G04 Gerber Fmt 4.6, Leading zero omitted, Abs format (unit mm)*
G04 Created by KiCad (PCBNEW 8.0.5) date 2024-10-23 01:30:24*
%MOMM*%
%LPD*%
G01*
G04 APERTURE LIST*
%TA.AperFunction,Profile*%
%ADD10C,0.100000*%
%TD*%
%TA.AperFunction,Profile*%
%ADD11C,0.050000*%
%TD*%
G04 APERTURE END LIST*
D10*
X-36246000Y23546000D02*
X-35738000Y24054000D01*
X-85522000Y24054000D02*
X-85522000Y84760000D01*
X-36246000Y23546000D02*
X-85014000Y23546000D01*
X-53772000Y85268000D02*
X-54280000Y84760000D01*
X-66980000Y84760000D02*
X-66980000Y61900000D01*
X-66980000Y84760000D02*
X-67488000Y85268000D01*
X-36246000Y85268000D02*
X-35738000Y84760000D01*
X-85014000Y85268000D02*
X-67488000Y85268000D01*
X-66980000Y61900000D02*
X-65710000Y60630000D01*
X-85522000Y24054000D02*
X-85014000Y23546000D01*
X-54280000Y61900000D02*
X-55550000Y60630000D01*
X-35738000Y84760000D02*
X-35738000Y24054000D01*
X-54280000Y61900000D02*
X-54280000Y84760000D01*
X-85522000Y84760000D02*
X-85014000Y85268000D01*
X-65710000Y60630000D02*
X-55550000Y60630000D01*
X-53772000Y85268000D02*
X-36246000Y85268000D01*
D11*
%TO.C,U2*%
X-64930000Y51380000D02*
X-56330000Y51380000D01*
X-64930000Y34120000D02*
X-64930000Y51380000D01*
X-64930000Y34120000D02*
X-56330000Y34120000D01*
X-56330000Y34120000D02*
X-56330000Y51380000D01*
%TD*%
M02*
