M48
; DRILL file {KiCad 8.0.5} date 2024-10-23T01:30:24+0300
; FORMAT={-:-/ absolute / inch / decimal}
; #@! TF.CreationDate,2024-10-23T01:30:24+03:00
; #@! TF.GenerationSoftware,Kicad,Pcbnew,8.0.5
; #@! TF.FileFunction,Plated,1,2,PTH
FMAT,2
INCH
; #@! TA.AperFunction,Plated,PTH,ComponentDrill
T1C0.0138
; #@! TA.AperFunction,Plated,PTH,ViaDrill
T2C0.0157
; #@! TA.AperFunction,Plated,PTH,ComponentDrill
T3C0.0276
; #@! TA.AperFunction,Plated,PTH,ComponentDrill
T4C0.0394
; #@! TA.AperFunction,Plated,PTH,ComponentDrill
T5C0.0472
; #@! TA.AperFunction,Plated,PTH,ComponentDrill
T6C0.0709
%
G90
G05
T1
X-1.737Y1.5774
X-1.737Y1.5272
X-1.737Y1.477
X-1.6868Y1.5774
X-1.6868Y1.5272
X-1.6868Y1.477
X-1.6366Y1.5774
X-1.6366Y1.5272
X-1.6366Y1.477
T2
X-2.812Y2.322
X-2.787Y1.367
X-2.742Y1.142
X-2.7033Y1.6583
X-2.682Y2.1986
X-2.677Y1.287
X-2.6754Y1.692
X-2.652Y1.632
X-2.647Y1.2636
X-2.617Y1.237
X-2.597Y1.407
X-2.567Y0.977
X-2.517Y1.0285
X-2.287Y1.192
X-2.287Y1.037
X-2.172Y1.307
X-2.09Y1.1908
X-2.072Y1.762
X-2.0717Y1.4968
X-2.0634Y1.377
X-2.022Y1.652
X-2.017Y1.8404
X-2.0135Y1.6037
X-2.012Y1.942
X-2.002Y1.8936
X-2.002Y1.032
X-1.992Y1.7304
X-1.9888Y1.5757
X-1.982Y2.467
X-1.982Y1.652
X-1.977Y1.8404
X-1.9725Y1.542
X-1.942Y1.652
X-1.9194Y1.467
X-1.902Y1.652
X-1.877Y2.437
X-1.8626Y1.652
X-1.8622Y1.4299
X-1.862Y1.3903
X-1.842Y1.002
X-1.807Y2.317
X-1.797Y2.2254
X-1.7668Y1.2968
X-1.757Y2.252
X-1.757Y0.972
X-1.732Y1.927
X-1.717Y1.0633
X-1.7144Y1.7498
X-1.677Y1.0633
X-1.6608Y1.9632
X-1.657Y2.162
X-1.657Y0.972
X-1.6519Y1.3311
X-1.6219Y1.0819
X-1.617Y1.967
X-1.6147Y1.4271
X-1.6082Y2.0658
X-1.5796Y1.3082
X-1.5766Y1.2524
X-1.5711Y1.9175
X-1.5711Y1.7798
X-1.5497Y1.2858
X-1.5186Y1.2619
X-1.512Y2.242
X-1.512Y2.162
X-1.5104Y2.082
X-1.4841Y1.5295
X-1.4693Y1.5862
X-1.4686Y2.037
X-1.449Y1.3271
X-1.4481Y1.5195
X-1.447Y1.372
X-1.442Y1.557
X-1.4404Y1.442
T3
X-2.5976Y1.9783
X-2.5976Y1.9083
X-2.5976Y1.8382
X-2.5976Y1.7681
X-2.5976Y1.698
X-2.5976Y1.628
X-2.5976Y1.5579
X-2.5976Y1.4878
X-2.1764Y1.9433
X-2.1764Y1.8732
X-2.1764Y1.8031
X-2.1764Y1.7331
X-2.1764Y1.663
X-2.1764Y1.5929
X-2.1764Y1.5228
X-2.1764Y1.4528
T4
X-3.1366Y0.997
X-3.0366Y0.997
X-2.9366Y0.997
X-2.8366Y0.997
X-1.917Y2.032
T5
X-3.237Y1.937
X-3.237Y1.237
X-3.137Y3.137
X-3.137Y2.937
X-3.137Y2.737
X-3.037Y1.937
X-3.037Y1.237
X-2.837Y1.937
X-2.837Y1.237
X-2.487Y2.237
X-2.287Y2.237
X-2.087Y2.237
X-1.937Y2.962
X-1.937Y2.762
X-1.937Y2.562
X-1.637Y3.137
X-1.637Y2.937
X-1.637Y2.737
T3
G00X-2.7429Y2.937
M15
G01X-2.7311Y2.937
M16
G05
G00X-2.7429Y2.8386
M15
G01X-2.7311Y2.8386
M16
G05
G00X-2.7429Y2.7402
M15
G01X-2.7311Y2.7402
M16
G05
T6
G00X-2.8207Y3.0157
M15
G01X-2.8108Y3.0157
M16
G05
G00X-2.8207Y2.6614
M15
G01X-2.8108Y2.6614
M16
G05
M30
